<?xml version="1.0" encoding="utf-8"?>
<!-- Generator: Adobe Illustrator 16.0.0, SVG Export Plug-In . SVG Version: 6.00 Build 0)  -->
<!DOCTYPE svg PUBLIC "-//W3C//DTD SVG 1.1//EN" "http://www.w3.org/Graphics/SVG/1.1/DTD/svg11.dtd">
<svg version="1.1" id="Layer_1" xmlns="http://www.w3.org/2000/svg" xmlns:xlink="http://www.w3.org/1999/xlink" x="0px" y="0px"
	 width="512px" height="512px" viewBox="0 0 512 512" enable-background="new 0 0 512 512" xml:space="preserve">
<g opacity="0.33">
	<polygon fill="#FFFFFF" points="251.966,13.734 36.106,121.664 36.106,387.335 251.966,495.266 467.824,387.335 467.824,121.664 	
		"/>
	<g>
		
			<image overflow="visible" width="1978" height="2187" xlink:href="7D756C9D.png"  transform="matrix(0.24 0 0 0.24 14.606 -7.8247)">
		</image>
		<polygon fill="none" stroke="#566181" stroke-miterlimit="10" points="251.966,13.734 36.106,121.664 36.106,387.335 
			251.966,495.266 467.824,387.335 467.824,121.664 		"/>
	</g>
</g>
<g>
	
		<polyline fill="none" stroke="#3CBDA8" stroke-width="14" stroke-linecap="round" stroke-miterlimit="10" stroke-dasharray="28,32" points="
		36.106,387.335 251.966,287.709 467.824,387.335 	"/>
	
		<line fill="none" stroke="#3CBDA8" stroke-width="14" stroke-linecap="round" stroke-miterlimit="10" stroke-dasharray="28,32" x1="251.966" y1="221.291" x2="251.966" y2="13.734"/>
	
		<polygon fill="none" stroke="#566181" stroke-width="14" stroke-linecap="round" stroke-linejoin="round" stroke-miterlimit="10" points="
		251.966,495.266 36.106,387.335 36.106,121.664 251.966,221.291 	"/>
	
		<polygon fill="none" stroke="#566181" stroke-width="14" stroke-linecap="round" stroke-linejoin="round" stroke-miterlimit="10" points="
		251.966,495.266 467.824,387.335 467.824,121.664 251.966,221.291 	"/>
	
		<polygon fill="none" stroke="#566181" stroke-width="14" stroke-linecap="round" stroke-linejoin="round" stroke-miterlimit="10" points="
		36.106,121.664 251.966,13.734 467.824,121.664 251.966,221.291 	"/>
</g>
</svg>
