<?xml version="1.0" encoding="utf-8"?>
<!DOCTYPE svg PUBLIC "-//W3C//DTD SVG 1.1//EN" "http://www.w3.org/Graphics/SVG/1.1/DTD/     .dtd">

<svg version="1.1" id="Logo" xmlns="http://www.w3.org/2000/svg" xmlns:xlink="http://www.w3.org/1999/xlink" x="0px" y="0px" width="689.236px" height="144px" viewBox="0 0 689.236 144" enable-background="new 0 0 689.236 144" xml:space="preserve">

<g id="Systems">
    <!-- Drop-Shadow -->
    <g id="DropShadow_1_">
        <path id="S_5_" fill="#171820" d="M689.114,91.813h-45.573c-5.662,0-8.864,2.831-9.603,8.494h55.474v10.637,c0,15.659-8.474,23.488-25.411,23.488h-42.987v-13.223h45.867c2.758,0,4.913-0.711,6.462-2.141,c1.554-1.429,2.55-3.497,2.993-6.205h-55.322v-10.638c0-15.658,8.467-23.488,25.408-23.488h42.692V91.813z"/>
        <path id="M_1_" fill="#171820" d="M527.278,78.737h55.966c4.138,0,7.92,0.617,11.345,1.846c3.429,1.233,6.36,2.981,8.799,5.246,c2.44,2.266,4.337,4.962,5.693,8.088c1.354,3.13,2.035,6.562,2.035,10.306v30.209h-13.591V106.51,c0-9.795-4.773-14.697-14.313-14.697h-42.345v42.619h-13.59V78.737z M561.477,98.684h13.594v35.748h-13.594V98.684z"/>
        <path id="E_3_" fill="#171820" d="M519.669,91.813H462.5v8.494h48.528v12.557h-47.791c0.789,2.708,2.254,4.776,4.396,6.205,c2.141,1.43,5.282,2.141,9.416,2.141h42.62v13.223h-42.913c-4.284,0-8.15-0.64-11.597-1.919c-3.45-1.281-6.379-3.128-8.789-5.54,c-2.415-2.413-4.259-5.32-5.541-8.718c-1.281-3.396-1.92-7.239-1.92-11.522V78.737h70.76V91.813z"/>
        <path id="T_1_" fill="#171820" d="M442.778,91.813h-24.301v42.619h-13.594V91.813h-24.449V78.737h62.344V91.813z"/>
        <path id="S_4_" fill="#171820" d="M373.862,91.813h-45.573c-5.664,0-8.864,2.831-9.603,8.494h55.471v10.637,c0,15.659-8.469,23.488-25.408,23.488H305.76v-13.223h45.871c2.756,0,4.911-0.711,6.462-2.141,c1.552-1.429,2.548-3.497,2.993-6.205H305.76v-10.638c0-15.658,8.471-23.488,25.41-23.488h42.692V91.813z"/>
        <path id="Y_3_" fill="#171820" d="M296.454,78.737v27.995c0,4.334-0.617,8.213-1.846,11.634c-1.233,3.423-3.042,6.328-5.432,8.716,c-2.389,2.391-5.306,4.21-8.752,5.466c-3.448,1.256-7.387,1.884-11.819,1.884H223.18v-13.223h45.131,c4.138,0,7.275-0.703,9.418-2.104c2.144-1.405,3.604-3.458,4.396-6.168H223.18v-34.2h13.592v21.569h46.092V78.737H296.454z"/>
        <path id="S_3_" fill="#171820" d="M213.06,91.813h-45.573c-5.664,0-8.862,2.831-9.601,8.494h55.474v10.637,c0,15.659-8.474,23.488-25.411,23.488h-42.991v-13.223h45.871c2.756,0,4.913-0.711,6.462-2.141,c1.552-1.429,2.548-3.497,2.991-6.205h-55.324v-10.638c0-15.658,8.469-23.488,25.41-23.488h42.692V91.813z"/>
    </g>

    <!-- Systems -->
    <g id="Systems_1_">
        <path id="S_2_" fill="#49BBCD" stroke="#19191A" stroke-width="0.75" stroke-linecap="round" stroke-linejoin="round" d="M687.173,89.104h-45.576c-5.661,0-8.861,2.833-9.6,8.495h55.471v10.635c0,15.659-8.471,23.489-25.411,23.489h-42.987V118.5h45.869,c2.761,0,4.913-0.713,6.465-2.141c1.551-1.431,2.548-3.497,2.991-6.207h-55.325V99.517c0-15.658,8.469-23.489,25.409-23.489,h42.694V89.104z"/>
        <path id="M" fill="#49BBCD" stroke="#19191A" stroke-width="0.75" stroke-linecap="round" stroke-linejoin="round" d="M525.335,76.028H581.3c4.14,0,7.922,0.616,11.349,1.847c3.425,1.231,6.357,2.98,8.8,5.245c2.439,2.264,4.337,4.96,5.692,8.086,c1.354,3.13,2.032,6.564,2.032,10.308v30.209h-13.592v-27.921c0-9.798-4.771-14.698-14.311-14.698h-42.345v42.619h-13.591V76.028z,M559.535,95.974h13.591v35.749h-13.591V95.974z"/>
        <path id="E_1_" fill="#49BBCD" stroke="#19191A" stroke-width="0.75" stroke-linecap="round" stroke-linejoin="round" d="M517.728,89.104h-57.171v8.495h48.528v12.554h-47.79c0.789,2.71,2.253,4.776,4.396,6.207c2.142,1.428,5.281,2.141,9.419,2.141,h42.618v13.223h-42.913c-4.284,0-8.152-0.641-11.599-1.923c-3.448-1.277-6.377-3.128-8.79-5.538,c-2.412-2.413-4.259-5.318-5.538-8.717c-1.281-3.396-1.923-7.239-1.923-11.522V76.028h70.763V89.104z"/>
        <path id="T" fill="#49BBCD" stroke="#19191A" stroke-width="0.75" stroke-linecap="round" stroke-linejoin="round" d="M440.837,89.104h-24.302v42.619h-13.593V89.104h-24.449V76.028h62.344V89.104z"/>
        <path id="S_1_" fill="#49BBCD" stroke="#19191A" stroke-width="0.75" stroke-linecap="round" stroke-linejoin="round" d="M371.921,89.104h-45.574c-5.663,0-8.863,2.833-9.603,8.495h55.474v10.635c0,15.659-8.473,23.489-25.411,23.489h-42.989V118.5,h45.871c2.757,0,4.911-0.713,6.461-2.141c1.553-1.431,2.549-3.497,2.993-6.207h-55.325V99.517,c0-15.658,8.469-23.489,25.411-23.489h42.692V89.104z"/>
        <path id="Y_1_" fill="#49BBCD" stroke="#19191A" stroke-width="0.75" stroke-linecap="round" stroke-linejoin="round" d="M294.511,76.028v27.995c0,4.334-0.615,8.213-1.847,11.636c-1.23,3.421-3.042,6.327-5.429,8.715,c-2.39,2.39-5.307,4.208-8.752,5.464c-3.446,1.259-7.385,1.886-11.82,1.886h-45.427V118.5h45.132c4.136,0,7.277-0.701,9.417-2.104,c2.143-1.407,3.606-3.46,4.397-6.17h-58.946V76.028h13.591v21.571h46.092V76.028H294.511z"/>
        <path id="S" fill="#49BBCD" stroke="#19191A" stroke-width="0.75" stroke-linecap="round" stroke-linejoin="round" d="M211.118,89.104h-45.574c-5.663,0-8.863,2.833-9.602,8.495h55.473v10.635c0,15.659-8.471,23.489-25.409,23.489h-42.991V118.5,h45.869c2.759,0,4.913-0.713,6.465-2.141c1.551-1.431,2.55-3.497,2.993-6.207h-55.327V99.517c0-15.658,8.471-23.489,25.411-23.489,h42.692V89.104z"/>
    </g>
</g>

<!-- Byrne -->
<g id="Byrne">

    <!-- Drop-Shadow -->
    <g id="DropShadow">
        <path id="E_2_" fill="#171820" d="M545.94,28.385h-57.169v8.495H537.3v12.556h-47.792c0.79,2.709,2.255,4.775,4.396,6.206,c2.143,1.427,5.28,2.141,9.418,2.141h42.618v13.221h-42.913c-4.284,0-8.15-0.639-11.599-1.92c-3.446-1.28-6.379-3.127-8.789-5.54,c-2.413-2.412-4.259-5.318-5.539-8.715c-1.283-3.397-1.92-7.24-1.92-11.523V15.311h70.76V28.385z"/>
        <path id="N_1_" fill="#171820" d="M465.283,71.004h-14.33c-7.633-10.537-15.155-19.13-22.565-25.779,c-7.41-6.647-14.711-11.376-21.9-14.181c-0.545-0.196-1.121-0.407-1.739-0.629c-0.615-0.221-1.266-0.454-1.955-0.703,c0.146,2.021,0.221,3.326,0.221,3.917v37.375h-13.222V15.311h11.671c4.431,1.43,8.803,3.288,13.112,5.578,c4.308,2.289,8.492,4.887,12.556,7.792c4.063,2.908,7.988,6.083,11.78,9.529c3.794,3.447,7.412,7.043,10.858,10.785l2.438,2.658,c-0.146-1.625-0.223-2.831-0.223-3.619V15.311h13.298V71.004z"/>
        <path id="R_1_" fill="#171820" d="M325.826,36.88h31.615c2.757,0,4.911-0.727,6.463-2.18c1.551-1.452,2.547-3.557,2.991-6.315,h-47.349v42.619h-13.589V15.311h74.011v10.637c0,14.083-6.846,21.84-20.532,23.267l21.198,21.791h-16.398L342.74,49.437h-16.914,V36.88z"/>
        <path id="Y_2_" fill="#171820" d="M296.135,15.311v27.996c0,4.333-0.619,8.212-1.848,11.634c-1.233,3.422-3.042,6.329-5.43,8.715,c-2.391,2.389-5.308,4.211-8.754,5.465c-3.448,1.258-7.387,1.884-11.817,1.884h-45.428V57.783h45.131,c4.138,0,7.277-0.701,9.418-2.106c2.144-1.403,3.608-3.457,4.396-6.167h-58.944V15.311h13.592v21.57h46.092v-21.57H296.135z"/>
        <path id="B_1_" fill="#171820" d="M138.802,15.311h58.872c10.142,0,15.213,4.702,15.213,14.108c0,3.842-0.824,6.857-2.473,9.049,c-1.651,2.191-4.024,3.583-7.127,4.173c3.052,0.591,5.415,2.068,7.09,4.433c1.674,2.363,2.51,5.639,2.51,9.823,c0,9.407-5.071,14.108-15.213,14.108h-58.872V15.311z M152.394,58.078h41.659c3.004,0,4.507-1.403,4.507-4.211,c0-3.2-1.503-4.8-4.507-4.8h-32.13V37.249h32.13c3.004,0,4.507-1.587,4.507-4.762c0-2.734-1.503-4.102-4.507-4.102h-41.659V58.078,z"/>
	</g>

    <!-- Byrne -->
	<g id="Byrne_1_">
        <path id="E" fill="#3D69B2" stroke="#19191A" stroke-width="0.75" stroke-linecap="round" stroke-linejoin="round" d="M544.009,25.667h-57.171v8.497h48.527v12.556h-47.789c0.787,2.709,2.253,4.777,4.396,6.205c2.142,1.429,5.283,2.141,9.419,2.141,h42.618v13.221h-42.916c-4.284,0-8.15-0.639-11.597-1.919c-3.447-1.28-6.376-3.127-8.789-5.54,c-2.412-2.413-4.261-5.319-5.538-8.716c-1.282-3.397-1.921-7.239-1.921-11.522V12.593h70.761V25.667z"/>
        <path id="N" fill="#3D69B2" stroke="#19191A" stroke-width="0.75" stroke-linecap="round" stroke-linejoin="round" d="M463.35,68.286h-14.328c-7.635-10.536-15.156-19.129-22.566-25.779c-7.41-6.647-14.713-11.375-21.902-14.18,c-0.541-0.195-1.119-0.406-1.734-0.628c-0.615-0.222-1.268-0.454-1.958-0.701c0.148,2.019,0.221,3.324,0.221,3.914v37.375h-13.222,V12.593h11.673c4.431,1.429,8.801,3.287,13.108,5.576c4.311,2.291,8.495,4.889,12.559,7.793c4.063,2.907,7.99,6.083,11.782,9.528,c3.79,3.448,7.41,7.042,10.856,10.785l2.439,2.659c-0.148-1.625-0.225-2.832-0.225-3.619V12.593h13.297V68.286z"/>
        <path id="R" fill="#3D69B2" stroke="#19191A" stroke-width="0.75" stroke-linecap="round" stroke-linejoin="round" d="M323.894,34.163h31.614c2.758,0,4.911-0.728,6.464-2.18c1.552-1.451,2.55-3.556,2.991-6.316h-47.346v42.62h-13.592V12.593h74.011,V23.23c0,14.083-6.845,21.839-20.534,23.267l21.199,21.789h-16.397l-21.495-21.567h-16.915V34.163z"/>
        <path id="Y" fill="#3D69B2" stroke="#19191A" stroke-width="0.75" stroke-linecap="round" stroke-linejoin="round" d="M294.201,12.593v27.995c0,4.334-0.618,8.212-1.849,11.633c-1.23,3.424-3.04,6.329-5.427,8.717,c-2.39,2.388-5.307,4.209-8.755,5.465c-3.445,1.255-7.384,1.882-11.815,1.882h-45.429V55.065h45.132,c4.136,0,7.275-0.702,9.417-2.105c2.141-1.404,3.606-3.458,4.396-6.168h-58.944V12.593h13.591v21.57h46.09v-21.57H294.201z"/>
        <path id="B" fill="#3D69B2" stroke="#19191A" stroke-width="0.75" stroke-linecap="round" stroke-linejoin="round" d="M136.87,12.593h58.87c10.144,0,15.217,4.703,15.217,14.108c0,3.842-0.824,6.857-2.476,9.049c-1.65,2.191-4.026,3.582-7.127,4.173,c3.052,0.591,5.416,2.068,7.09,4.432c1.673,2.364,2.513,5.639,2.513,9.825c0,9.406-5.073,14.106-15.217,14.106h-58.87V12.593z, M150.461,55.36h41.659c3.003,0,4.507-1.403,4.507-4.209c0-3.202-1.504-4.801-4.507-4.801h-32.131V34.531h32.131,c3.003,0,4.507-1.587,4.507-4.762c0-2.735-1.504-4.103-4.507-4.103h-41.659V55.36z"/>
    <g>
</g>

<!-- Cube -->
<g id="Cube">
    <g id="Center">
        <polygon id="Left_1_" fill="#368F99" points="30.646,53.753 61.994,72.33 61.994,107.84 30.644,89.703"/>
        <polygon id="Right_1_" fill="#3FA7B2" points="93.342,53.753 61.994,72.33 61.994,107.84 93.342,89.703"/>
        <polygon id="Top_1_" fill="#46BDCF" points="61.994,35.593 30.646,53.753 61.994,72.33 93.342,53.753"/>
    </g>

    <g id="Inner">
        <polygon id="Left" fill="#CAEAEF" points="18.783,46.723 30.646,53.753 30.644,89.703 18.783,97.396"/>
        <polygon id="BottomLeft_1_" fill="#99CCCC" points="30.644,89.703 61.994,107.84 61.992,122.395 18.783,97.396"/>
        <polygon id="BottomRight_1_" fill="#99CCCC" points="61.994,107.84 61.992,122.395 105.206,97.396 93.342,89.703"/>
        <polygon id="Right" fill="#D2EDF3" points="105.206,46.723 105.206,97.396 93.342,89.703 93.342,53.753"/>
        <polygon id="TopRight" fill="#EDF7F9" points="61.994,21.566 61.994,35.593 93.342,53.753 105.206,46.723"/>
        <polygon id="TopLeft" fill="#EDF7F9" points="61.994,21.566 61.994,35.593 30.646,53.753 18.783,46.723"/>
            <line id="LineTopLeft" opacity="0.1" fill="none" stroke="#283A8F" stroke-width="0.25" stroke-linecap="round" stroke-linejoin="round" x1="30.646" y1="53.753" x2="18.783" y2="46.723"/>
            <line id="LineBottomLeft" opacity="0.1" fill="none" stroke="#283A8F" stroke-width="0.25" stroke-linecap="round" stroke-linejoin="round" x1="18.783" y1="97.396" x2="30.644" y2="89.703"/>
            <line id="LineBottom" opacity="0.2" fill="none" stroke="#283A8F" stroke-width="0.25" stroke-linecap="round" stroke-linejoin="round" stroke-miterlimit="1" x1="61.994" y1="107.84" x2="61.992" y2="122.395"/>
            <line id="LineBottomRight" opacity="0.1" fill="none" stroke="#283A8F" stroke-width="0.25" stroke-linecap="round" stroke-linejoin="round" stroke-miterlimit="1" x1="105.206" y1="97.396" x2="93.342" y2="89.703"/>
            <line id="LineTopRight" opacity="0.1" fill="none" stroke="#283A8F" stroke-width="0.25" stroke-linecap="round" stroke-linejoin="round" x1="93.342" y1="53.753" x2="105.206" y2="46.723"/>
            <line id="LineTop" opacity="0.1" fill="none" stroke="#283A8F" stroke-width="0.25" stroke-linecap="round" stroke-linejoin="round" x1="61.994" y1="21.566" x2="61.994" y2="35.604"/>
    </g>

    <g id="Outer">
        <polygon id="Top" fill="#4069B2" points="61.994,0.037 0,35.593 18.783,46.723 61.994,21.566 105.206,46.723 123.986,35.593"/>
        <polygon id="BottomLeft" fill="#2F507F" points="0,35.593 18.783,46.723 18.783,97.396 61.992,122.395 61.994,144 0,107.84"/>
        <polygon id="BottomRight" fill="#396099" points="105.206,46.723 123.986,35.593 123.986,107.84 61.994,144 61.992,122.395,105.206,97.396"/>
    </g>
</g>
</svg>
