<?xml version="1.0" encoding="utf-8"?>
<!-- Generator: Adobe Illustrator 16.0.0, SVG Export Plug-In . SVG Version: 6.00 Build 0)  -->
<!DOCTYPE svg PUBLIC "-//W3C//DTD SVG 1.1//EN" "http://www.w3.org/Graphics/SVG/1.1/DTD/svg11.dtd">
<svg version="1.1" id="Layer_1" xmlns="http://www.w3.org/2000/svg" xmlns:xlink="http://www.w3.org/1999/xlink" x="0px" y="0px"
	 width="170px" height="170px" viewBox="0 0 170 170" enable-background="new 0 0 170 170" xml:space="preserve">
<g id="Design">
	<path fill="#E87F25" stroke="#000000" stroke-width="0.75" stroke-miterlimit="10" d="M94.536,12.646L52.238,37.973
		c21.095,6.574,42.784,23.984,51.368,34.875l17.286-44.979L94.536,12.646z"/>
	<path fill="#E87F25" stroke="#000000" stroke-width="0.75" stroke-miterlimit="10" d="M103.606,72.848
		c-9.265,17.736-19.485,78.996-19.485,78.996l10.415,5.914l33.922-19.384C128.458,138.374,126.633,91.32,103.606,72.848z"/>
	<radialGradient id="SVGID_1_" cx="107.0459" cy="71.1919" r="57.3264" gradientUnits="userSpaceOnUse">
		<stop  offset="0" style="stop-color:#E98024"/>
		<stop  offset="1" style="stop-color:#E84125"/>
	</radialGradient>
	<path fill="url(#SVGID_1_)" stroke="#000000" stroke-width="0.75" stroke-miterlimit="10" d="M103.606,72.848
		c5.974-18.445,17.286-44.979,17.286-44.979l36.279,20.957v73.14l-28.714,16.408C127.67,113.798,118.269,88.314,103.606,72.848z"/>
	<radialGradient id="SVGID_2_" cx="97.126" cy="74.1592" r="62.3753" gradientUnits="userSpaceOnUse">
		<stop  offset="0" style="stop-color:#E98024"/>
		<stop  offset="1" style="stop-color:#E84125"/>
	</radialGradient>
	<path fill="url(#SVGID_2_)" stroke="#000000" stroke-width="0.75" stroke-miterlimit="10" d="M52.238,37.973l-20.727,12.41v71.583
		l52.609,29.878c1.468-17.752,14.792-66.836,19.485-78.996C93.239,60.108,73.528,45.196,52.238,37.973z"/>
	<g>
		
			<path fill="#FFFFFF" stroke="#000000" stroke-width="0.75" stroke-linecap="round" stroke-linejoin="round" stroke-miterlimit="10" d="
			M122.158,60.887l45.129,19.452v9.337l-44.216,17.534c0,0-1.496-4.744-3.865-9.658l31.353-11.581l-28.4-11.857V60.887z"/>
		
			<polygon fill="#FFFFFF" stroke="#000000" stroke-width="0.75" stroke-linecap="round" stroke-linejoin="round" stroke-miterlimit="10" points="
			65.748,60.887 65.748,72.947 37.347,85.971 65.748,96.289 65.748,107.571 22.175,89.676 22.175,80.339 		"/>
	</g>
	<g>
		
			<path fill="none" stroke="#000000" stroke-width="0.75" stroke-linecap="round" stroke-linejoin="round" stroke-miterlimit="10" d="
			M134.607,0.585c-22.175,37.348-51.742,124.992-51.742,169.233"/>
		
			<path fill="none" stroke="#000000" stroke-width="0.75" stroke-linecap="round" stroke-linejoin="round" stroke-miterlimit="10" d="
			M127.994,152.7C134.607,75.67,69.407,27.692,0.777,30.022"/>
	</g>
	<g>
		
			<path fill="none" stroke="#000000" stroke-width="0.75" stroke-linecap="round" stroke-linejoin="round" stroke-miterlimit="10" d="
			M82.865,107.21c6.225-31.93,19.452-59.422,19.452-59.422"/>
		
			<line fill="none" stroke="#000000" stroke-width="0.75" stroke-linecap="round" stroke-linejoin="round" stroke-miterlimit="10" x1="102.317" y1="47.788" x2="111.454" y2="50.923"/>
	</g>
	
		<path opacity="0.5" fill="#FFFFFF" stroke="#000000" stroke-width="0.75" stroke-linecap="round" stroke-linejoin="round" stroke-miterlimit="10" d="
		M102.415,47.902l9.126,3.021l-7.927,21.895c0,0-3.972-4.734-8.096-8.538C97.503,58.503,100.615,51.598,102.415,47.902z"/>
</g>
</svg>
