<?xml version="1.0" encoding="utf-8"?>
<!-- Generator: Adobe Illustrator 16.0.0, SVG Export Plug-In . SVG Version: 6.00 Build 0)  -->
<!DOCTYPE svg PUBLIC "-//W3C//DTD SVG 1.1//EN" "http://www.w3.org/Graphics/SVG/1.1/DTD/svg11.dtd">
<svg version="1.1" id="Layer_1" xmlns="http://www.w3.org/2000/svg" xmlns:xlink="http://www.w3.org/1999/xlink" x="0px" y="0px"
	 width="170px" height="170px" viewBox="0 0 170 170" enable-background="new 0 0 170 170" xml:space="preserve">
<g id="Develop">
	<g id="Logo">
		<g id="Border__x28_Black_x29_" display="none">
			
				<image display="inline" overflow="visible" opacity="0.35" enable-background="new    " width="1079" height="1225" xlink:href="../../../../xampp/htdocs/apps/WAFFLE/web/images/svg/C705AC08.png"  transform="matrix(0.1572 0 0 0.1572 0.4912 -40.146)">
			</image>
			<g display="inline">
				
					<image overflow="visible" opacity="0.4" enable-background="new    " width="988" height="1133" xlink:href="../../../../xampp/htdocs/apps/WAFFLE/web/images/svg/C705AC0B.png"  transform="matrix(0.1569 0 0 0.1569 7.7261 -32.7417)">
				</image>
				<g>
					<path fill="#08090B" d="M85.211-27.917l72.455,41.946v84.062l-72.455,41.984L12.753,98.092V14.03L85.211-27.917 M85.211-28.901
						c-0.17,0-0.341,0.044-0.494,0.132L12.26,13.177c-0.305,0.177-0.491,0.502-0.491,0.853v84.062c0,0.352,0.187,0.672,0.49,0.852
						l72.458,41.99c0.153,0.086,0.324,0.129,0.494,0.129c0.171,0,0.339-0.043,0.494-0.129l72.455-41.99
						c0.304-0.18,0.49-0.5,0.49-0.852V14.03c0-0.35-0.187-0.676-0.492-0.853L85.705-28.769
						C85.55-28.857,85.382-28.901,85.211-28.901L85.211-28.901z"/>
				</g>
			</g>
		</g>
		<g id="Center_2_">
			
				<radialGradient id="Right_2_" cx="310.9121" cy="-225.4336" r="42.1429" gradientTransform="matrix(1 0 0 -1 -226 -144)" gradientUnits="userSpaceOnUse">
				<stop  offset="0" style="stop-color:#44BED0"/>
				<stop  offset="0.7" style="stop-color:#3BA7B2"/>
			</radialGradient>
			<polygon id="Right_4_" fill="url(#Right_2_)" points="85.211,123.557 85.211,81.291 121.541,60.784 121.541,102.494 			"/>
			
				<radialGradient id="Left_2_" cx="311.4971" cy="-225.4287" r="42.3293" gradientTransform="matrix(1 0 0 -1 -226 -144)" gradientUnits="userSpaceOnUse">
				<stop  offset="0" style="stop-color:#44BED0"/>
				<stop  offset="0.7" style="stop-color:#34919B"/>
			</radialGradient>
			<polygon id="Left_4_" fill="url(#Left_2_)" points="85.211,123.557 85.211,81.291 49.091,60.776 49.096,102.494 			"/>
			
				<radialGradient id="Top_2_" cx="311.5352" cy="-225.1758" r="41.5088" gradientTransform="matrix(1 0 0 -1 -226 -144)" gradientUnits="userSpaceOnUse">
				<stop  offset="0" style="stop-color:#44BED0"/>
				<stop  offset="0.7" style="stop-color:#39A3B3"/>
			</radialGradient>
			<polygon id="Top_4_" fill="url(#Top_2_)" points="85.211,39.494 49.091,60.776 85.211,81.291 121.541,60.784 			"/>
		</g>
		<g id="Inner" display="none">
			
				<linearGradient id="SVGID_1_" gradientUnits="userSpaceOnUse" x1="285.1797" y1="-154.9541" x2="293.0039" y2="-168.506" gradientTransform="matrix(1 0 0 -1 -226 -144)">
				<stop  offset="0" style="stop-color:#F0F9FB"/>
				<stop  offset="1" style="stop-color:#BBC4C8"/>
			</linearGradient>
			<polygon display="inline" fill="url(#SVGID_1_)" points="85.211,-4.076 33.224,26.122 49.091,35.312 85.211,14.03 			"/>
			
				<linearGradient id="SVGID_2_" gradientUnits="userSpaceOnUse" x1="328.9736" y1="-231.1279" x2="337.696" y2="-246.2356" gradientTransform="matrix(1 0 0 -1 -226 -144)">
				<stop  offset="0" style="stop-color:#79A2A3"/>
				<stop  offset="1" style="stop-color:#99CBCB"/>
			</linearGradient>
			<polygon display="inline" fill="url(#SVGID_2_)" points="85.211,116.861 137.388,86.24 121.541,77.029 85.211,98.092 			"/>
			
				<linearGradient id="SVGID_3_" gradientUnits="userSpaceOnUse" x1="426.9268" y1="-380.4766" x2="435.7067" y2="-395.6838" gradientTransform="matrix(0.5 0.866 0.866 -0.5 183.6172 -472.875)">
				<stop  offset="0" style="stop-color:#79A2A3"/>
				<stop  offset="1" style="stop-color:#99CBCB"/>
			</linearGradient>
			<polygon display="inline" fill="url(#SVGID_3_)" points="33.224,86.299 85.211,116.861 85.211,98.092 49.096,77.029 			"/>
			
				<linearGradient id="SVGID_4_" gradientUnits="userSpaceOnUse" x1="383.4355" y1="-304.6924" x2="391.2119" y2="-318.1614" gradientTransform="matrix(0.5 0.866 0.866 -0.5 183.4629 -473.4053)">
				<stop  offset="0" style="stop-color:#F0F9FB"/>
				<stop  offset="1" style="stop-color:#BBC4C8"/>
			</linearGradient>
			<polygon display="inline" fill="url(#SVGID_4_)" points="137.388,26.122 85.211,-4.076 85.226,14.029 121.541,35.319 			"/>
			
				<linearGradient id="SVGID_5_" gradientUnits="userSpaceOnUse" x1="259.2236" y1="-200.2104" x2="275.0967" y2="-200.2104" gradientTransform="matrix(1 0 0 -1 -226 -144)">
				<stop  offset="0" style="stop-color:#CAEAF1"/>
				<stop  offset="1" style="stop-color:#A0B9BF"/>
			</linearGradient>
			<polygon display="inline" fill="url(#SVGID_5_)" points="33.224,26.122 33.224,86.299 49.096,77.029 49.091,35.312 			"/>
			
				<linearGradient id="SVGID_6_" gradientUnits="userSpaceOnUse" x1="616.917" y1="-200.1807" x2="632.7637" y2="-200.1807" gradientTransform="matrix(-1 0 0 -1 754.3047 -144)">
				<stop  offset="0" style="stop-color:#CAEAF1"/>
				<stop  offset="1" style="stop-color:#A0B9BF"/>
			</linearGradient>
			<polygon display="inline" fill="url(#SVGID_6_)" points="137.388,26.122 137.388,86.24 121.541,77.029 121.541,35.319 			"/>
		</g>
		<g id="Outer_2_" display="none">
			
				<radialGradient id="Right_3_" cx="58.0566" cy="57.8755" r="48.5126" fx="55.5261" fy="57.4871" gradientTransform="matrix(-0.9397 -0.342 -0.4282 1.1764 235.8379 48.8398)" gradientUnits="userSpaceOnUse">
				<stop  offset="0.1827" style="stop-color:#304E7E"/>
				<stop  offset="0.4083" style="stop-color:#2F507F"/>
				<stop  offset="0.6131" style="stop-color:#325383"/>
				<stop  offset="0.8092" style="stop-color:#36588D"/>
				<stop  offset="1" style="stop-color:#3B6098"/>
			</radialGradient>
			<polygon id="Right_1_" display="inline" fill="url(#Right_3_)" points="157.666,14.03 137.388,26.122 137.388,86.24 
				85.211,116.861 85.211,140.076 157.666,98.092 			"/>
			
				<radialGradient id="Left_3_" cx="-159.8105" cy="-292.8838" r="45.5838" fx="-161.8121" fy="-296.6418" gradientTransform="matrix(0 -1 -0.8571 0 -237.209 -62.4121)" gradientUnits="userSpaceOnUse">
				<stop  offset="0.45" style="stop-color:#27446E"/>
				<stop  offset="1" style="stop-color:#305180"/>
			</radialGradient>
			<polygon id="Left_1_" display="inline" fill="url(#Left_3_)" points="12.753,14.03 33.224,26.122 33.224,86.299 85.211,116.861 
				85.211,140.076 12.753,98.092 			"/>
			
				<radialGradient id="Top_3_" cx="397.1045" cy="252.8799" r="50.9863" gradientTransform="matrix(2.000000e-004 1 1.5081 -3.000000e-004 -296.2461 -424.1104)" gradientUnits="userSpaceOnUse">
				<stop  offset="0.4038" style="stop-color:#33538F"/>
				<stop  offset="1" style="stop-color:#4169B2"/>
			</radialGradient>
			<polygon id="Top_1_" display="inline" fill="url(#Top_3_)" points="33.224,26.122 12.753,14.03 85.211,-27.917 157.666,14.03 
				137.388,26.122 85.211,-4.076 			"/>
		</g>
	</g>
	
		<path id="Borders" fill="none" stroke="#32939C" stroke-width="3" stroke-linecap="round" stroke-linejoin="round" stroke-miterlimit="10" d="
		M136.835,145.895l29.408-17.043c0.337-0.199,0.546-0.557,0.546-0.945V34.655c0-0.388-0.209-0.75-0.551-0.946L136.84,16.688
		 M32.495,17.44L4.393,33.709c-0.338,0.197-0.546,0.558-0.546,0.946v93.251c0,0.389,0.208,0.746,0.543,0.945l28.105,16.287"/>
</g>
</svg>
