<?xml version="1.0" encoding="utf-8"?>
<!-- Generator: Adobe Illustrator 16.0.0, SVG Export Plug-In . SVG Version: 6.00 Build 0)  -->
<!DOCTYPE svg PUBLIC "-//W3C//DTD SVG 1.1//EN" "http://www.w3.org/Graphics/SVG/1.1/DTD/svg11.dtd">
<svg version="1.1" id="Layer_1" xmlns="http://www.w3.org/2000/svg" xmlns:xlink="http://www.w3.org/1999/xlink" x="0px" y="0px"
	 width="170px" height="170px" viewBox="0 0 170 170" enable-background="new 0 0 170 170" xml:space="preserve">
<image display="none" overflow="visible" opacity="0.5" width="2560" height="1600" xlink:href="abstract2digital.png"  transform="matrix(0.1063 0 0 0.1063 -51 0)">
</image>
<g id="Vector">
	<g>
		<circle fill="#42BACD" stroke="#4B4F56" stroke-miterlimit="10" cx="19.477" cy="61.624" r="7.977"/>
		<circle fill="none" stroke="#4B4F56" stroke-miterlimit="10" cx="22.763" cy="43.277" r="5.717"/>
		<circle fill="#42BACD" stroke="#4B4F56" stroke-miterlimit="10" cx="33.835" cy="27.49" r="7.977"/>
		<circle fill="#42BACD" stroke="#4B4F56" stroke-miterlimit="10" cx="20.959" cy="91.403" r="7.977"/>
		<circle fill="#42BACD" stroke="#4B4F56" stroke-miterlimit="10" cx="40.008" cy="147.408" r="7.977"/>
		<circle fill="none" stroke="#4B4F56" stroke-miterlimit="10" cx="33.214" cy="129.1" r="7.977"/>
		<circle fill="#42BACD" stroke="#4B4F56" stroke-miterlimit="10" cx="22.135" cy="112.043" r="5.717"/>
		<circle fill="#42BACD" stroke="#4B4F56" stroke-miterlimit="10" cx="42.742" cy="88.148" r="7.977"/>
		<circle fill="#42BACD" stroke="#4B4F56" stroke-miterlimit="10" cx="59.361" cy="101.242" r="5.717"/>
		<circle fill="#42BACD" stroke="#4B4F56" stroke-miterlimit="10" cx="67.338" cy="160.318" r="7.977"/>
		<circle fill="#42BACD" stroke="#4B4F56" stroke-miterlimit="10" cx="59.361" cy="36.896" r="5.717"/>
		<circle fill="#42BACD" stroke="#4B4F56" stroke-miterlimit="10" cx="43.534" cy="113.427" r="5.717"/>
		<circle fill="none" stroke="#4B4F56" stroke-miterlimit="10" cx="67.338" cy="75.982" r="5.717"/>
		<circle fill="#42BACD" stroke="#4B4F56" stroke-miterlimit="10" cx="45.002" cy="53.502" r="5.717"/>
		<circle fill="none" stroke="#4B4F56" stroke-miterlimit="10" cx="69.535" cy="53.502" r="5.717"/>
		<circle fill="#42BACD" stroke="#4B4F56" stroke-miterlimit="10" cx="59.361" cy="8.977" r="7.977"/>
		<circle fill="none" stroke="#4B4F56" stroke-miterlimit="10" cx="75.252" cy="19.513" r="5.717"/>
		<circle fill="#42BACD" stroke="#4B4F56" stroke-miterlimit="10" cx="74.112" cy="112.043" r="5.717"/>
		<circle fill="none" stroke="#4B4F56" stroke-miterlimit="10" cx="67.338" cy="138.999" r="5.717"/>
		<circle fill="#42BACD" stroke="#4B4F56" stroke-miterlimit="10" cx="53.702" cy="126.839" r="5.717"/>
		<circle fill="#42BACD" stroke="#4B4F56" stroke-miterlimit="10" cx="18.11" cy="76.45" r="3.722"/>
		<circle fill="none" stroke="#4B4F56" stroke-miterlimit="10" cx="45.002" cy="69.601" r="3.723"/>
		<circle fill="none" stroke="#4B4F56" stroke-miterlimit="10" cx="59.361" cy="88.148" r="3.722"/>
		<path fill="none" stroke="#4B4F56" stroke-miterlimit="10" d="M55.942,156.984c0,2.058-1.667,3.724-3.722,3.724
			c-2.056,0-3.723-1.666-3.723-3.724c0-2.054,1.667-3.722,3.723-3.722C54.275,153.263,55.942,154.931,55.942,156.984z"/>
		<circle fill="#42BACD" stroke="#4B4F56" stroke-miterlimit="10" cx="74.251" cy="126.839" r="3.723"/>
		<circle fill="#42BACD" stroke="#4B4F56" stroke-miterlimit="10" cx="74.251" cy="88.148" r="3.723"/>
		<circle fill="#42BACD" stroke="#4B4F56" stroke-miterlimit="10" cx="59.361" cy="63.086" r="3.722"/>
		<circle fill="none" stroke="#4B4F56" stroke-miterlimit="10" cx="34.765" cy="63.086" r="3.722"/>
		<circle fill="none" stroke="#4B4F56" stroke-miterlimit="10" cx="32.202" cy="76.45" r="3.722"/>
		<circle fill="#42BACD" stroke="#4B4F56" stroke-miterlimit="10" cx="45.002" cy="40.618" r="3.723"/>
		<circle fill="none" stroke="#4B4F56" stroke-miterlimit="10" cx="50.017" cy="24.455" r="3.722"/>
		<line fill="none" stroke="#4B4F56" stroke-miterlimit="10" x1="52.167" y1="27.49" x2="55.696" y2="31.844"/>
		<line fill="none" stroke="#4B4F56" stroke-miterlimit="10" x1="59.361" y1="16.954" x2="59.361" y2="31.179"/>
		<line fill="none" stroke="#4B4F56" stroke-miterlimit="10" x1="71.807" y1="24.066" x2="63.819" y2="33.322"/>
		<line fill="none" stroke="#4B4F56" stroke-miterlimit="10" x1="62.595" y1="41.607" x2="67.338" y2="48.225"/>
		<line fill="none" stroke="#4B4F56" stroke-miterlimit="10" x1="63.819" y1="53.502" x2="50.719" y2="53.647"/>
		<line fill="none" stroke="#4B4F56" stroke-miterlimit="10" x1="45.003" y1="44.34" x2="45.003" y2="47.786"/>
		<line fill="none" stroke="#4B4F56" stroke-miterlimit="10" x1="37.46" y1="60.522" x2="40.969" y2="57.553"/>
		<line fill="none" stroke="#4B4F56" stroke-miterlimit="10" x1="45.003" y1="59.22" x2="45.003" y2="65.878"/>
		<line fill="none" stroke="#4B4F56" stroke-miterlimit="10" x1="56.095" y1="64.873" x2="48.568" y2="68.533"/>
		<line fill="none" stroke="#4B4F56" stroke-miterlimit="10" x1="63.141" y1="88.148" x2="70.528" y2="88.148"/>
		<line fill="none" stroke="#4B4F56" stroke-miterlimit="10" x1="73.054" y1="84.625" x2="70.528" y2="80.727"/>
		<line fill="none" stroke="#4B4F56" stroke-miterlimit="10" x1="59.419" y1="91.871" x2="59.361" y2="95.525"/>
		<line fill="none" stroke="#4B4F56" stroke-miterlimit="10" x1="63.819" y1="104.818" x2="69.536" y2="108.628"/>
		<line fill="none" stroke="#4B4F56" stroke-miterlimit="10" x1="55.639" y1="104.818" x2="47.986" y2="110.193"/>
		<circle fill="none" stroke="#4B4F56" stroke-miterlimit="10" cx="34.094" cy="101.686" r="3.723"/>
		<line fill="none" stroke="#4B4F56" stroke-miterlimit="10" x1="36.546" y1="104.481" x2="40.435" y2="108.628"/>
		<line fill="none" stroke="#4B4F56" stroke-miterlimit="10" x1="28.87" y1="90.404" x2="34.879" y2="89.457"/>
		<line fill="none" stroke="#4B4F56" stroke-miterlimit="10" x1="21.833" y1="76.45" x2="28.48" y2="76.449"/>
		<line fill="none" stroke="#4B4F56" stroke-miterlimit="10" x1="34.766" y1="79.145" x2="37.817" y2="81.879"/>
		<line fill="none" stroke="#4B4F56" stroke-miterlimit="10" x1="21.545" y1="48.864" x2="20.723" y2="53.746"/>
		<line fill="none" stroke="#4B4F56" stroke-miterlimit="10" x1="46.376" y1="25.229" x2="41.714" y2="26.265"/>
		<line fill="none" stroke="#4B4F56" stroke-miterlimit="10" x1="25.237" y1="116.841" x2="29.17" y2="122.229"/>
		<line fill="none" stroke="#4B4F56" stroke-miterlimit="10" x1="48.26" y1="126.839" x2="41.105" y2="127.962"/>
		<line fill="none" stroke="#4B4F56" stroke-miterlimit="10" x1="35.934" y1="136.595" x2="37.464" y2="139.85"/>
		<line fill="#42BACD" stroke="#4B4F56" stroke-miterlimit="10" x1="47.788" y1="145.648" x2="61.937" y2="140.865"/>
		<line fill="none" stroke="#4B4F56" stroke-miterlimit="10" x1="72.611" y1="130.178" x2="70.528" y2="134.255"/>
		<line fill="none" stroke="#4B4F56" stroke-miterlimit="10" x1="55.898" y1="157.549" x2="59.542" y2="158.626"/>
		<line fill="none" stroke="#4B4F56" stroke-miterlimit="10" x1="67.338" y1="144.715" x2="67.338" y2="152.341"/>
	</g>
	<g>
		<circle fill="#42BACD" stroke="#4B4F56" stroke-miterlimit="10" cx="151.635" cy="61.601" r="7.977"/>
		<circle fill="none" stroke="#4B4F56" stroke-miterlimit="10" cx="148.349" cy="43.254" r="5.716"/>
		<circle fill="#42BACD" stroke="#4B4F56" stroke-miterlimit="10" cx="137.277" cy="27.467" r="7.977"/>
		<circle fill="#42BACD" stroke="#4B4F56" stroke-miterlimit="10" cx="150.153" cy="91.381" r="7.977"/>
		<circle fill="#42BACD" stroke="#4B4F56" stroke-miterlimit="10" cx="131.104" cy="147.385" r="7.977"/>
		<circle fill="none" stroke="#4B4F56" stroke-miterlimit="10" cx="137.898" cy="129.076" r="7.977"/>
		<circle fill="#42BACD" stroke="#4B4F56" stroke-miterlimit="10" cx="148.977" cy="112.02" r="5.717"/>
		<circle fill="#42BACD" stroke="#4B4F56" stroke-miterlimit="10" cx="128.37" cy="88.125" r="7.977"/>
		<circle fill="#42BACD" stroke="#4B4F56" stroke-miterlimit="10" cx="111.752" cy="101.219" r="5.717"/>
		<circle fill="#42BACD" stroke="#4B4F56" stroke-miterlimit="10" cx="103.775" cy="160.295" r="7.977"/>
		<circle fill="#42BACD" stroke="#4B4F56" stroke-miterlimit="10" cx="111.752" cy="36.873" r="5.717"/>
		<circle fill="#42BACD" stroke="#4B4F56" stroke-miterlimit="10" cx="127.578" cy="113.404" r="5.717"/>
		<circle fill="none" stroke="#4B4F56" stroke-miterlimit="10" cx="103.775" cy="75.959" r="5.716"/>
		<circle fill="#42BACD" stroke="#4B4F56" stroke-miterlimit="10" cx="126.109" cy="53.479" r="5.717"/>
		<circle fill="none" stroke="#4B4F56" stroke-miterlimit="10" cx="101.577" cy="53.479" r="5.716"/>
		<circle fill="#42BACD" stroke="#4B4F56" stroke-miterlimit="10" cx="111.751" cy="8.954" r="7.977"/>
		<circle fill="none" stroke="#4B4F56" stroke-miterlimit="10" cx="95.86" cy="19.49" r="5.716"/>
		<circle fill="#42BACD" stroke="#4B4F56" stroke-miterlimit="10" cx="97" cy="112.02" r="5.717"/>
		<circle fill="none" stroke="#4B4F56" stroke-miterlimit="10" cx="103.775" cy="138.977" r="5.716"/>
		<circle fill="#42BACD" stroke="#4B4F56" stroke-miterlimit="10" cx="117.41" cy="126.816" r="5.717"/>
		<circle fill="#42BACD" stroke="#4B4F56" stroke-miterlimit="10" cx="153.002" cy="76.427" r="3.723"/>
		<circle fill="none" stroke="#4B4F56" stroke-miterlimit="10" cx="126.109" cy="69.578" r="3.723"/>
		<circle fill="none" stroke="#4B4F56" stroke-miterlimit="10" cx="111.751" cy="88.125" r="3.722"/>
		<path fill="none" stroke="#4B4F56" stroke-miterlimit="10" d="M115.17,156.961c0,2.059,1.667,3.725,3.723,3.725
			c2.055,0,3.723-1.666,3.723-3.725c0-2.053-1.668-3.721-3.723-3.721C116.837,153.24,115.17,154.908,115.17,156.961z"/>
		<circle fill="#42BACD" stroke="#4B4F56" stroke-miterlimit="10" cx="96.861" cy="126.816" r="3.723"/>
		<path fill="#42BACD" stroke="#4B4F56" stroke-miterlimit="10" d="M93.139,88.125c0,2.059,1.667,3.723,3.724,3.723
			c2.055,0,3.722-1.664,3.722-3.723c0-2.053-1.667-3.722-3.722-3.722C94.806,84.403,93.139,86.072,93.139,88.125z"/>
		<circle fill="#42BACD" stroke="#4B4F56" stroke-miterlimit="10" cx="111.751" cy="63.063" r="3.722"/>
		<circle fill="none" stroke="#4B4F56" stroke-miterlimit="10" cx="136.347" cy="63.063" r="3.722"/>
		<circle fill="none" stroke="#4B4F56" stroke-miterlimit="10" cx="138.91" cy="76.427" r="3.723"/>
		<circle fill="#42BACD" stroke="#4B4F56" stroke-miterlimit="10" cx="126.109" cy="40.595" r="3.723"/>
		<circle fill="none" stroke="#4B4F56" stroke-miterlimit="10" cx="121.096" cy="24.432" r="3.723"/>
		<line fill="none" stroke="#4B4F56" stroke-miterlimit="10" x1="118.945" y1="27.467" x2="115.416" y2="31.821"/>
		<line fill="none" stroke="#4B4F56" stroke-miterlimit="10" x1="111.752" y1="16.931" x2="111.752" y2="31.156"/>
		<line fill="none" stroke="#4B4F56" stroke-miterlimit="10" x1="99.306" y1="24.043" x2="107.293" y2="33.299"/>
		<line fill="none" stroke="#4B4F56" stroke-miterlimit="10" x1="108.518" y1="41.584" x2="103.774" y2="48.202"/>
		<line fill="none" stroke="#4B4F56" stroke-miterlimit="10" x1="107.293" y1="53.479" x2="120.393" y2="53.624"/>
		<line fill="none" stroke="#4B4F56" stroke-miterlimit="10" x1="126.109" y1="44.317" x2="126.109" y2="47.763"/>
		<line fill="none" stroke="#4B4F56" stroke-miterlimit="10" x1="133.652" y1="60.499" x2="130.144" y2="57.53"/>
		<line fill="none" stroke="#4B4F56" stroke-miterlimit="10" x1="126.109" y1="59.197" x2="126.109" y2="65.855"/>
		<line fill="none" stroke="#4B4F56" stroke-miterlimit="10" x1="115.018" y1="64.85" x2="122.544" y2="68.51"/>
		<line fill="none" stroke="#4B4F56" stroke-miterlimit="10" x1="107.971" y1="88.125" x2="100.584" y2="88.125"/>
		<line fill="none" stroke="#4B4F56" stroke-miterlimit="10" x1="98.059" y1="84.602" x2="100.584" y2="80.704"/>
		<line fill="none" stroke="#4B4F56" stroke-miterlimit="10" x1="111.693" y1="91.848" x2="111.752" y2="95.502"/>
		<line fill="none" stroke="#4B4F56" stroke-miterlimit="10" x1="107.293" y1="104.795" x2="101.576" y2="108.605"/>
		<line fill="none" stroke="#4B4F56" stroke-miterlimit="10" x1="115.474" y1="104.795" x2="123.127" y2="110.17"/>
		<circle fill="none" stroke="#4B4F56" stroke-miterlimit="10" cx="137.018" cy="101.662" r="3.723"/>
		<line fill="none" stroke="#4B4F56" stroke-miterlimit="10" x1="134.566" y1="104.459" x2="130.678" y2="108.605"/>
		<line fill="none" stroke="#4B4F56" stroke-miterlimit="10" x1="142.242" y1="90.381" x2="136.232" y2="89.434"/>
		<line fill="none" stroke="#4B4F56" stroke-miterlimit="10" x1="149.279" y1="76.427" x2="142.633" y2="76.426"/>
		<line fill="none" stroke="#4B4F56" stroke-miterlimit="10" x1="136.347" y1="79.122" x2="133.295" y2="81.856"/>
		<line fill="none" stroke="#4B4F56" stroke-miterlimit="10" x1="149.566" y1="48.841" x2="150.389" y2="53.723"/>
		<line fill="none" stroke="#4B4F56" stroke-miterlimit="10" x1="124.736" y1="25.207" x2="129.398" y2="26.242"/>
		<line fill="none" stroke="#4B4F56" stroke-miterlimit="10" x1="145.875" y1="116.818" x2="141.941" y2="122.207"/>
		<line fill="none" stroke="#4B4F56" stroke-miterlimit="10" x1="122.852" y1="126.816" x2="130.007" y2="127.939"/>
		<line fill="none" stroke="#4B4F56" stroke-miterlimit="10" x1="135.178" y1="136.572" x2="133.648" y2="139.826"/>
		<line fill="#42BACD" stroke="#4B4F56" stroke-miterlimit="10" x1="123.324" y1="145.625" x2="109.176" y2="140.842"/>
		<line fill="none" stroke="#4B4F56" stroke-miterlimit="10" x1="98.501" y1="130.154" x2="100.584" y2="134.232"/>
		<line fill="none" stroke="#4B4F56" stroke-miterlimit="10" x1="115.215" y1="157.525" x2="111.57" y2="158.604"/>
		<line fill="none" stroke="#4B4F56" stroke-miterlimit="10" x1="103.774" y1="144.691" x2="103.774" y2="152.318"/>
	</g>
</g>
<g id="_x7B_Guides_x7D_">
</g>
</svg>
