<?xml version="1.0" encoding="utf-8"?>
<!-- Generator: Adobe Illustrator 16.0.0, SVG Export Plug-In . SVG Version: 6.00 Build 0)  -->
<!DOCTYPE svg PUBLIC "-//W3C//DTD SVG 1.1//EN" "http://www.w3.org/Graphics/SVG/1.1/DTD/svg11.dtd">
<svg version="1.1" id="Capa_1" xmlns="http://www.w3.org/2000/svg" xmlns:xlink="http://www.w3.org/1999/xlink" x="0px" y="0px"
	 width="270px" height="270px" viewBox="-7 -7 270 270" enable-background="new -7 -7 270 270" xml:space="preserve">
<path fill="#4D4D4D" stroke="#000000" stroke-width="3" stroke-linecap="round" stroke-linejoin="round" stroke-miterlimit="10" d="
	M243.994,72.666h-26.979v-34.76c0-3.763-3.043-6.811-6.807-6.811H6.811C3.048,31.095,0,34.143,0,37.906v110.302v13.735
	c0,3.758,3.048,6.805,6.811,6.805h82.393l-3.805,28.93H66.461v11.268h84.105v-11.268h-18.943l-3.801-28.93h34.867v35.695v8.462
	c0,6.625,5.375,11.999,12.006,11.999h69.299c6.631,0,12.006-5.374,12.006-11.999v-8.462V92.311v-7.639
	C256,78.041,250.625,72.666,243.994,72.666z"/>
<g>
	<rect x="180.926" y="108.767" fill="#B6CCE0" width="56.838" height="36.056"/>
	<rect x="22.056" y="53.557" fill="#B6CCE0" width="56.838" height="36.056"/>
	<polygon fill="#808080" points="127.823,168.748 132.363,203.311 84.657,203.311 89.204,168.748 	"/>
	<path fill="#999999" d="M256,84.671v7.639h-93.311v-7.639c0-6.631,5.375-12.005,12.006-12.005h42.32h26.979
		C250.625,72.666,256,78.041,256,84.671z"/>
	<path fill="#999999" d="M256,204.443v8.462c0,6.625-5.375,11.999-12.006,11.999h-69.299c-6.631,0-12.006-5.374-12.006-11.999
		v-8.462H256z"/>
	<path fill="#999999" d="M162.689,148.208v20.54h-34.867H89.204H6.811c-3.763,0-6.811-3.047-6.811-6.805v-13.735H162.689z"/>
	<path fill="#EAE8DC" d="M256,92.311v112.133h-93.311v-35.695v-20.54V92.311H256z M237.764,144.822v-36.056h-56.838v36.056H237.764z
		"/>
	<path fill="#EAE8DC" d="M217.016,37.906v34.76h-42.32c-6.631,0-12.006,5.375-12.006,12.005v7.639v55.897H0V37.906
		c0-3.763,3.048-6.811,6.811-6.811h203.398C213.973,31.095,217.016,34.143,217.016,37.906z M78.894,89.612V53.557H22.056v36.056
		H78.894z"/>
	<rect x="66.46" y="197.678" fill="#999999" width="84.106" height="11.268"/>
	<rect x="21.577" y="102.739" fill="#4D4D4D" width="118.308" height="11.267"/>
	<rect x="21.577" y="123.02" fill="#4D4D4D" width="118.308" height="11.267"/>
	<rect x="182.7" y="159.47" fill="#4D4D4D" width="55.063" height="11.268"/>
	<rect x="182.7" y="179.751" fill="#4D4D4D" width="55.063" height="11.268"/>
</g>
</svg>
