<?xml version="1.0" encoding="utf-8"?>
<!-- Generator: Adobe Illustrator 16.0.0, SVG Export Plug-In . SVG Version: 6.00 Build 0)  -->
<!DOCTYPE svg PUBLIC "-//W3C//DTD SVG 1.1//EN" "http://www.w3.org/Graphics/SVG/1.1/DTD/svg11.dtd">
<svg version="1.1" id="Layer_1" xmlns="http://www.w3.org/2000/svg" xmlns:xlink="http://www.w3.org/1999/xlink" x="0px" y="0px"
	 width="236px" height="236px" viewBox="0 0 236 236" enable-background="new 0 0 236 236" xml:space="preserve">
<g>
	<g id="PostIt" display="none">
		<rect x="-131.174" y="-165.08" display="inline" fill="#FFF494" width="499.14" height="7.408"/>
		<rect x="-131.174" y="-157.672" display="inline" fill="#F0E35F" width="499.217" height="73.415"/>
		<rect x="-131.174" y="-84.257" display="inline" fill="#C9B859" width="498.951" height="6.029"/>
		<rect x="-131.174" y="-78.228" display="inline" fill="#F4E974" width="498.919" height="412.223"/>
		<rect x="367.745" y="-78.228" display="inline" fill="#C1CB72" width="5.124" height="410.757"/>
		<rect x="-131.174" y="333.995" display="inline" fill="#C1CB72" width="499.82" height="7.654"/>
		<rect x="-139.09" y="-78.403" display="inline" fill="#C1CB72" width="7.916" height="412.398"/>
		<rect x="-139.131" y="-157.466" display="inline" fill="#C9B859" width="7.957" height="73.209"/>
		<rect x="367.966" y="-157.672" display="inline" fill="#C9B859" width="4.903" height="73.336"/>
	</g>
	<g id="Tac">
		<path fill="#68473D" d="M165.505,2.054c6.295,1.299,64.551,59.417,67.398,65.473c-1.455,3.627-15.139,3.912-15.139,3.912
			l-60.924,63.157l-2.703,42.554c0,0-3.673,6.388-5.117,5.258C136.869,172.899,66,103.821,55.671,88.965
			c-1.371-1.972,6.845-6.736,6.845-6.736l41.208,0.593l57.949-58.883C161.673,23.939,160.221,3.766,165.505,2.054z"/>
		<path fill="#68473D" d="M86.471,139.305c2.065-2.404,12.565,7.762,10.487,10.596l-77.146,79.813c0,0-8.944,2.364-15.171,3.637
			c1.728-7.534,3.82-15.512,3.82-15.512L86.471,139.305z"/>
	</g>
</g>
</svg>
