<?xml version="1.0" encoding="utf-8"?>
<!-- Generator: Adobe Illustrator 16.0.0, SVG Export Plug-In . SVG Version: 6.00 Build 0)  -->
<!DOCTYPE svg PUBLIC "-//W3C//DTD SVG 1.1//EN" "http://www.w3.org/Graphics/SVG/1.1/DTD/svg11.dtd">
<svg version="1.1" id="Layer_1" xmlns="http://www.w3.org/2000/svg" xmlns:xlink="http://www.w3.org/1999/xlink" x="0px" y="0px"
	 width="512px" height="512px" viewBox="0 0 512 512" enable-background="new 0 0 512 512" xml:space="preserve">
<g>
	<g id="PostIt">
		<rect x="7.957" y="4.271" fill="#FFF494" width="499.14" height="7.408"/>
		<rect x="7.957" y="11.679" fill="#F0E35F" width="499.217" height="73.415"/>
		<rect x="7.957" y="85.093" fill="#C9B859" width="498.951" height="6.029"/>
		<rect x="7.957" y="91.123" fill="#F4E974" width="498.919" height="412.223"/>
		<rect x="506.876" y="91.123" fill="#C1CB72" width="5.124" height="410.757"/>
		<rect x="7.957" y="503.346" fill="#C1CB72" width="499.82" height="7.654"/>
		<rect x="0.041" y="90.948" fill="#C1CB72" width="7.916" height="412.398"/>
		<rect y="11.884" fill="#C9B859" width="7.957" height="73.209"/>
		<rect x="507.097" y="11.679" fill="#C9B859" width="4.903" height="73.336"/>
	</g>
	<g id="Tac">
		<path fill="#68473D" d="M304.636,171.404c6.295,1.299,64.551,59.417,67.398,65.473c-1.455,3.627-15.139,3.912-15.139,3.912
			l-60.924,63.157l-2.703,42.554c0,0-3.673,6.388-5.117,5.258c-12.151-9.508-83.021-78.586-93.349-93.442
			c-1.371-1.972,6.845-6.736,6.845-6.736l41.208,0.593l57.949-58.883C300.804,193.29,299.352,173.116,304.636,171.404z"/>
		<path fill="#68473D" d="M225.602,308.655c2.065-2.404,12.565,7.762,10.487,10.596l-77.146,79.813c0,0-8.944,2.364-15.171,3.637
			c1.728-7.534,3.82-15.512,3.82-15.512L225.602,308.655z"/>
	</g>
</g>
</svg>
