<?xml version="1.0" encoding="utf-8"?>
<!-- Generator: Adobe Illustrator 16.0.0, SVG Export Plug-In . SVG Version: 6.00 Build 0)  -->
<!DOCTYPE svg PUBLIC "-//W3C//DTD SVG 1.1//EN" "http://www.w3.org/Graphics/SVG/1.1/DTD/svg11.dtd">
<svg version="1.1" id="Print" xmlns="http://www.w3.org/2000/svg" xmlns:xlink="http://www.w3.org/1999/xlink" x="0px" y="0px"
	 width="170px" height="170px" viewBox="0 0 170 170" enable-background="new 0 0 170 170" xml:space="preserve">
<g id="Vector">
	<g>
		<polygon fill="#1A6D9A" stroke="#134D66" stroke-miterlimit="10" points="85.478,2.609 9.08,45.158 9.081,124.688 85.478,167.609 
			160.338,124.688 160.071,45.158 		"/>
		<path fill-rule="evenodd" clip-rule="evenodd" fill="#62C5B7" d="M111.951,17.33c-0.008,14.629-0.014,29.258-0.021,43.887
			c-0.294,0.1-0.514,0.014-0.662-0.258c-0.471-0.955-0.364-1.986-0.366-2.995c-0.014-5.419-0.002-10.839-0.008-16.259
			c-0.004-3.394-0.024-3.421-3.359-3.422c-20.257-0.005-40.513,0.003-60.769-0.013c-1.197-0.001-2.456,0.241-3.542-0.547
			c-0.404-4.227-0.151-8.464-0.163-12.695c-0.008-2.947-0.274-5.907,0.188-8.847c4.874-0.034,9.748-0.064,14.622-0.105
			c0.805-0.007,1.632,0.126,2.395-0.271c1.865-0.41,3.758-0.385,5.653-0.383c13.065,0.008,26.13,0.011,39.196-0.007
			c1.503-0.002,2.968,0.135,4.394,0.621C110.521,16.086,111.718,15.798,111.951,17.33z"/>
		<path fill-rule="evenodd" clip-rule="evenodd" fill="#6AC6C4" d="M43.248,16.18c0,7.157,0.001,14.313,0.002,21.47
			c0.706,0.78,0.639,1.754,0.639,2.692c0.013,23.391,0.015,46.782-0.001,70.171c-0.001,0.937,0.07,1.918-0.715,2.655
			c-0.627-0.703-0.298-1.554-0.299-2.324c-0.029-27.532-0.032-55.064-0.055-82.597c0-0.858,0.242-1.764-0.291-2.571
			c0.77-2.305,0.146-4.679,0.366-7.01C42.972,17.835,42.545,16.924,43.248,16.18z"/>
		<path fill-rule="evenodd" clip-rule="evenodd" fill="#E7EAED" d="M43.172,113.169c0.007-24.227,0.014-48.452,0.024-72.678
			c0-0.947,0.035-1.894,0.053-2.841c22.043,0,44.086,0.024,66.129-0.043c1.822-0.006,2.259,0.499,2.229,2.263
			c-0.12,7.098-0.082,14.197-0.101,21.296c-0.74,0.805-1.741,0.661-2.659,0.655c-1.355-0.008-1.963,0.558-1.963,1.934
			c0.006,5.743,0.008,11.486-0.002,17.229c-0.002,1.346,0.523,1.98,1.913,1.978c0.985-0.002,2.058-0.18,2.868,0.662
			c0.183,2.433-0.015,4.869,0.099,7.299c0.059,1.266-0.55,1.692-1.672,1.734c-0.678,0.024-1.354,0.028-2.029,0.028
			c-7.237,0.003-14.475,0.033-21.713-0.023c-1.623-0.014-2.271,0.426-2.239,2.176c0.094,5.206,0.056,10.416,0.017,15.624
			c-0.008,0.98,0.199,2.066-0.772,2.803c-12.652-0.003-25.304-0.004-37.956-0.012C44.657,113.252,43.915,113.198,43.172,113.169z"/>
		<path fill-rule="evenodd" clip-rule="evenodd" fill="#47BEAA" d="M111.953,92.139c8.78-0.006,17.561-0.02,26.342-0.005
			c0.553,0.001,1.237-0.307,1.638,0.403c-1.251,2.018-3.067,3.396-5.098,4.538c-2.485,1.235-4.521,3.123-6.75,4.724
			c-3.709,2.663-7.325,5.458-11.028,8.133c-1.173,0.887-2.399,1.707-3.521,2.653c-1.238,1.043-2.377,0.971-3.614,0.039
			c-1.175-0.885-2.379-1.729-3.492-2.69c-5.135-3.58-10.076-7.425-15.144-11.095c-0.877-0.637-1.771-1.216-2.856-1.435
			c-1.649-1.487-3.879-2.443-4.662-4.824c0.912-0.41,1.667-0.248,2.399-0.249c7.788-0.015,15.577-0.008,23.367-0.012
			C110.343,92.319,111.161,92.406,111.953,92.139z"/>
		<path fill-rule="evenodd" clip-rule="evenodd" fill="#30B39D" d="M111.469,83.635c-1.146-0.005-2.303-0.107-3.436,0.005
			c-1.488,0.148-1.782-0.494-1.77-1.852c0.064-6.27,0.07-12.541-0.003-18.811c-0.016-1.416,0.383-1.936,1.811-1.803
			c1.135,0.105,2.289,0.003,3.434-0.008c0.143,0.017,0.284,0.033,0.425,0.05c8.741-0.007,17.484,0.012,26.225-0.043
			c1.338-0.008,1.908,0.254,1.889,1.761c-0.08,6.301-0.078,12.604-0.002,18.904c0.018,1.463-0.479,1.807-1.86,1.796
			c-8.74-0.062-17.481-0.043-26.223-0.051C111.816,83.801,111.652,83.818,111.469,83.635z"/>
		<path fill-rule="evenodd" clip-rule="evenodd" fill="#47BEAA" d="M139.593,126.202c-14.899,0.021-29.802,0.043-44.702,0.064
			c-3.186,0.004-6.368,0.019-9.551-0.016c-0.631-0.007-1.371,0.306-1.876-0.387c1.254-1.44,2.869-2.445,4.383-3.557
			c5.435-3.98,10.844-7.995,16.246-12.019c0.188-0.062,0.378-0.07,0.571-0.037c1.953,1.324,3.641,2.977,5.425,4.502
			c1.177,1.007,2.025,1.179,3.244,0.015c1.159-1.108,2.388-2.17,3.625-3.206c0.563-0.471,1.162-0.932,1.945-1.008
			c2.293,0.629,3.874,2.393,5.704,3.718c4.525,3.281,9.039,6.583,13.492,9.968C138.76,124.742,139.709,125.084,139.593,126.202z"/>
		<path fill-rule="evenodd" clip-rule="evenodd" fill="#62C5B7" d="M104.231,110.407c-1.953,2.377-4.681,3.785-7.07,5.611
			c-4.27,3.263-8.612,6.431-12.934,9.624c-0.201,0.147-0.507,0.151-0.764,0.222c-0.035-4.201-0.071-8.4-0.108-12.601
			c0.024-6.161,0.052-12.321,0.073-18.481c0.009-2.669,0.002-2.67,2.765-2.67c7.854,0,15.709-0.031,23.563,0.029
			c1.402,0.012,1.925-0.359,1.837-1.811c-0.137-2.226-0.093-4.462-0.125-6.696c0.163-0.017,0.326-0.034,0.489-0.051
			c-0.003,2.853-0.003,5.704-0.005,8.555c-0.688,0.658-1.544,0.365-2.32,0.367c-8.437,0.021-16.874,0.013-25.71,0.013
			c1.563,2.138,3.622,3.294,5.268,4.872c2.076,0.976,3.707,2.568,5.421,4.019c2.984,2.524,6.014,5.005,8.834,7.718
			C103.806,109.475,104.406,109.716,104.231,110.407z"/>
		<path fill-rule="evenodd" clip-rule="evenodd" fill="#62C5B7" d="M139.593,126.202c-2.462-2.419-5.399-4.217-8.152-6.257
			c-4.164-3.086-8.217-6.327-12.584-9.134c-0.122-0.165-0.15-0.345-0.09-0.541c2.023-2.284,4.491-4.082,6.754-6.101
			c2.971-2.647,6.074-5.147,9.225-7.582c2.043-0.947,3.362-2.822,5.188-4.051c0.025,10.88,0.052,21.76,0.07,32.639
			C140.003,125.56,140.1,126.008,139.593,126.202z"/>
		<path fill-rule="evenodd" clip-rule="evenodd" fill="#62C5B7" d="M37.124,57.167c0.057,0.125,0.113,0.25,0.17,0.374
			c-2.109,0.67-2.402,2.205-2.394,4.224c0.071,17.708,0.045,35.417,0.033,53.125c-0.001,1.203,0.188,2.444-0.436,3.579
			c-1.083,0.871-2.214,0.849-3.38,0.184c-0.025-7.716-0.065-15.431-0.073-23.146c-0.012-12.184-0.008-24.368,0.008-36.551
			c0.001-0.718-0.248-1.497,0.298-2.148C33.3,56.516,35.256,56.135,37.124,57.167z"/>
		<path fill-rule="evenodd" clip-rule="evenodd" fill="#30B39D" d="M34.276,118.586c0.005-19.325,0.009-38.651,0.013-57.975
			c0-2.998,0-2.998,3.006-3.07c0.058,0.33,0.171,0.659,0.17,0.989c-0.005,20.149-0.019,40.296-0.032,60.445
			C36.338,119.193,35.261,119.26,34.276,118.586z"/>
		<path fill-rule="evenodd" clip-rule="evenodd" fill="#2FB19D" d="M37.416,120.889c0.021,0.803,0.061,1.605,0.063,2.408
			c0.008,3.072,0.004,3.072-3.199,2.908c-0.962-1.713-0.763-3.459-0.151-5.219C35.202,120.229,36.299,120.212,37.416,120.889z"/>
		<path fill-rule="evenodd" clip-rule="evenodd" fill="#62C5B7" d="M34.313,121.046c-0.011,1.72-0.022,3.44-0.033,5.16
			c-3.242,0.157-3.246,0.157-3.238-3.026c0.002-0.733,0.039-1.467,0.059-2.2C32.188,120.223,33.261,120.15,34.313,121.046z"/>
		<path fill-rule="evenodd" clip-rule="evenodd" fill="#DFE7EA" d="M34.313,121.046c-1.071-0.023-2.142-0.045-3.212-0.066
			c0.005-0.776,0.01-1.553,0.015-2.328c1.053-0.022,2.106-0.044,3.16-0.065c1.041,0.229,2.165-0.223,3.158,0.389
			c-0.006,0.638-0.012,1.275-0.018,1.914C36.381,120.941,35.347,120.993,34.313,121.046z"/>
		<path fill-rule="evenodd" clip-rule="evenodd" fill="#E3E7EB" d="M37.124,57.167c-1.926-0.101-3.888,0.383-5.773-0.362
			c0.582-1.091,1.165-2.185,1.747-3.277c0.785-0.689,1.564-0.633,2.338,0.019C35.998,54.753,36.561,55.96,37.124,57.167z"/>
		<path fill-rule="evenodd" clip-rule="evenodd" fill="#334E65" d="M35.435,53.546c-0.779-0.006-1.559-0.012-2.338-0.019
			c0.135-0.786,0.301-1.86,1.128-1.851C35.022,51.687,35.109,52.847,35.435,53.546z"/>
		<path fill-rule="evenodd" clip-rule="evenodd" fill="#F6F8FB" d="M53.888,34.005c-4.034,0.023-7.301-3.143-7.332-7.107
			c-0.031-3.937,3.262-7.185,7.275-7.179c4.004,0.006,7.298,3.298,7.226,7.224C60.985,30.854,57.81,33.982,53.888,34.005z"/>
		<path fill-rule="evenodd" clip-rule="evenodd" fill="#F6F9FB" d="M86.278,22.575c-5.274,0-10.549-0.012-15.823,0.011
			c-0.976,0.004-1.654-0.027-1.667-1.35c-0.013-1.331,0.537-1.546,1.691-1.542c10.549,0.033,21.1,0.027,31.649,0.007
			c1.056-0.002,1.774,0.036,1.774,1.457c0.002,1.452-0.772,1.433-1.799,1.429C96.828,22.563,91.554,22.575,86.278,22.575z"/>
		<path fill-rule="evenodd" clip-rule="evenodd" fill="#364A5E" d="M74.938,31.054c-1.626,0.001-3.252,0.012-4.877-0.007
			c-0.438-0.005-1.06,0.158-1.134-0.515c-0.085-0.768,0.578-0.604,1-0.606c3.387-0.016,6.774-0.012,10.161-0.002
			c0.38,0.001,0.909-0.085,0.942,0.479c0.042,0.705-0.552,0.642-1.011,0.645C78.325,31.06,76.631,31.052,74.938,31.054z"/>
		<path fill-rule="evenodd" clip-rule="evenodd" fill="#364A5E" d="M68.958,27.172c4.006,0,8.012,0,12.019,0
			c0.006,0.231,0.014,0.462,0.02,0.692c-4.008,0.071-8.019,0.018-12.028,0.026C68.965,27.651,68.962,27.412,68.958,27.172z"/>
		<path fill-rule="evenodd" clip-rule="evenodd" fill="#364A5E" d="M74.847,33.495c-1.948,0.662-3.916,0.496-5.896,0.108
			C70.887,32.911,72.866,33.09,74.847,33.495z"/>
		<path fill-rule="evenodd" clip-rule="evenodd" fill="#63C5B7" d="M77.41,45.765c6.767,0,13.533-0.006,20.299,0.007
			c0.951,0,2.048-0.356,2.062,1.364c0.014,1.581-0.849,1.518-1.935,1.517c-13.669-0.014-27.337-0.012-41.006-0.004
			c-0.983,0-1.813,0.113-1.849-1.385c-0.039-1.615,0.86-1.508,1.925-1.505C63.741,45.772,70.575,45.765,77.41,45.765z"/>
		<path fill-rule="evenodd" clip-rule="evenodd" fill="#435569" d="M77.288,63.26c-6.84,0-13.679,0.012-20.519-0.025
			c-0.569-0.004-1.6,0.495-1.662-0.484c-0.067-1.07,1.006-0.627,1.57-0.629c13.746-0.027,27.493-0.022,41.241-0.02
			c0.404,0,0.813,0.01,1.215,0.047c0.298,0.026,0.488,0.227,0.522,0.52c0.055,0.463-0.273,0.557-0.631,0.572
			c-0.473,0.02-0.947,0.018-1.42,0.018C90.832,63.26,84.06,63.26,77.288,63.26z"/>
		<path fill-rule="evenodd" clip-rule="evenodd" fill="#405367" d="M77.291,57.157c-6.707,0-13.414,0-20.121,0
			c-0.474,0-0.948,0.006-1.422-0.009c-0.336-0.01-0.693-0.028-0.699-0.502c-0.005-0.396,0.188-0.63,0.598-0.644
			c0.406-0.012,0.812-0.02,1.218-0.02c13.617-0.001,27.234-0.001,40.852-0.001c0.34,0,0.678-0.004,1.018,0.005
			c0.41,0.013,0.877,0.026,0.911,0.563c0.047,0.779-0.6,0.593-1.014,0.595c-3.863,0.019-7.724,0.011-11.586,0.011
			C83.795,57.158,80.542,57.157,77.291,57.157z"/>
		<path fill-rule="evenodd" clip-rule="evenodd" fill="#495A6C" d="M77.388,65.213c6.834,0,13.668-0.012,20.501,0.021
			c0.588,0.003,1.629-0.444,1.689,0.477c0.066,1.001-1.004,0.637-1.589,0.638c-13.802,0.023-27.606,0.022-41.409,0.004
			c-0.538-0.001-1.483,0.319-1.484-0.537c-0.001-1.074,1.034-0.575,1.586-0.578C63.585,65.201,70.487,65.213,77.388,65.213z"/>
		<path fill-rule="evenodd" clip-rule="evenodd" fill="#4C5C6E" d="M77.402,59.094c6.696,0,13.392-0.001,20.089,0.001
			c0.541,0,1.082,0.01,1.621,0.036c0.286,0.013,0.52,0.138,0.533,0.469c0.013,0.316-0.185,0.527-0.463,0.558
			c-0.536,0.06-1.078,0.074-1.617,0.074c-13.528,0.004-27.057,0.003-40.585,0.003c-0.135,0-0.275,0.022-0.405-0.004
			c-0.54-0.106-1.455,0.313-1.49-0.551c-0.039-0.955,0.907-0.562,1.416-0.566c4.126-0.035,8.252-0.019,12.378-0.019
			C71.72,59.094,74.561,59.094,77.402,59.094z"/>
		<path fill-rule="evenodd" clip-rule="evenodd" fill="#46586B" d="M77.168,69.373c-6.834,0-13.669,0.014-20.504-0.027
			c-0.537-0.003-1.584,0.535-1.561-0.581c0.018-0.856,0.957-0.523,1.492-0.524c13.806-0.019,27.611-0.021,41.416,0.003
			c0.581,0.001,1.617-0.379,1.576,0.66c-0.034,0.824-0.983,0.448-1.508,0.451C91.109,69.382,84.14,69.373,77.168,69.373z"/>
		<path fill-rule="evenodd" clip-rule="evenodd" fill="#364A5E" d="M99.809,53.495c-0.771,0.732-1.482,0.511-2.13,0.512
			c-13.536,0.013-27.073,0.017-40.61-0.012c-0.656-0.001-1.855,0.421-1.877-0.448c-0.023-0.924,1.169-0.498,1.805-0.499
			c13.536-0.03,27.073-0.026,40.609-0.013C98.288,53.036,99.051,52.819,99.809,53.495z"/>
		<path fill-rule="evenodd" clip-rule="evenodd" fill="#4B5B6E" d="M77.35,71.328c2.5,0,5.001-0.011,7.502,0.01
			c0.417,0.003,1.071-0.211,1.09,0.512c0.018,0.682-0.593,0.613-1.051,0.614c-5.001,0.007-10.003,0.006-15.004,0.001
			c-0.464-0.001-1.08,0.056-1.104-0.58c-0.027-0.719,0.638-0.546,1.064-0.549C72.349,71.319,74.849,71.328,77.35,71.328z"/>
		<path fill-rule="evenodd" clip-rule="evenodd" fill="#31A395" d="M118.867,110.411c-0.002,0.133-0.005,0.267-0.011,0.4
			c-2.21,1.336-3.865,3.336-5.887,4.898c-0.588,0.454-1.114,1.192-1.892,0.476c-2.121-1.955-4.622-3.484-6.438-5.776
			c0.362-1.049,1.057-1.273,2.028-0.816c1.709,1.134,3.142,3.317,5.08,3.291c1.923-0.026,3.285-2.292,5.083-3.299
			C117.774,109.208,118.442,109.508,118.867,110.411z"/>
		<path fill-rule="evenodd" clip-rule="evenodd" fill="#3EB1A4" d="M118.867,110.411c-0.679-0.276-1.356-0.551-2.036-0.826
			c5.713-4.263,11.427-8.527,17.149-12.778c0.197-0.148,0.507-0.149,0.763-0.219c-2.104,2.55-4.898,4.341-7.29,6.581
			C124.726,105.726,121.739,108.009,118.867,110.411z"/>
		<path fill-rule="evenodd" clip-rule="evenodd" fill="#3EB1A4" d="M106.668,109.593c-0.852-0.165-1.391,0.448-2.028,0.816
			c-0.135,0-0.271-0.001-0.408-0.002c-5.014-4.339-10.028-8.677-15.041-13.016c0.338-0.47,0.649-0.258,1.004,0.005
			C95.682,101.467,101.175,105.528,106.668,109.593z"/>
		<path fill-rule="evenodd" clip-rule="evenodd" fill="#F6F8FB" d="M130.312,71.961c-0.018,4.032-3.22,7.189-7.239,7.138
			c-3.894-0.049-7.054-3.244-7.067-7.143c-0.015-4.065,3.102-7.184,7.179-7.183C127.293,64.775,130.33,67.837,130.312,71.961z"/>
		<path fill-rule="evenodd" clip-rule="evenodd" fill="#F5F8FB" d="M138.122,79.063c-2.11,0-4.222,0-6.332,0
			c-0.004-0.078-0.006-0.155-0.008-0.231c2.098,0,4.197,0,6.296,0C138.092,78.908,138.107,78.985,138.122,79.063z"/>
		<path fill-rule="evenodd" clip-rule="evenodd" fill="#F5F8FB" d="M131.733,80.376c2.112,0,4.225,0,6.336,0
			c0.004,0.075,0.005,0.149,0.009,0.224c-2.094,0-4.187,0-6.28,0C131.776,80.525,131.756,80.451,131.733,80.376z"/>
		<path fill-rule="evenodd" clip-rule="evenodd" fill="#F5F8FA" d="M134.745,82.053c-1.016,0.461-2.034,0.259-3.054,0.138
			C132.707,81.691,133.727,81.919,134.745,82.053z"/>
		<path fill-rule="evenodd" clip-rule="evenodd" fill="#384C60" d="M53.861,23.086c0.116,0.057,0.254,0.091,0.345,0.175
			c4.083,3.761,4.079,3.828-0.357,7.391C52.817,28.128,52.785,25.606,53.861,23.086z"/>
		<path fill-rule="evenodd" clip-rule="evenodd" fill="#63C5B8" d="M53.861,23.086c-0.003,2.522-0.008,5.044-0.011,7.566
			c-1.452-0.767-2.312-2.18-3.52-3.214c-0.457-0.391-0.446-0.768,0.01-1.152C51.552,25.262,52.395,23.831,53.861,23.086z"/>
		<path fill-rule="evenodd" clip-rule="evenodd" fill="#67C0B5" d="M123.334,75.553c-1.744-0.539-2.476-2.242-3.777-3.291
			c-0.229-0.185-0.277-0.517-0.048-0.715c1.293-1.105,2.049-2.837,3.863-3.333C124.3,70.666,124.306,73.112,123.334,75.553z"/>
		<path fill-rule="evenodd" clip-rule="evenodd" fill="#384C60" d="M123.334,75.553c0.014-2.447,0.026-4.893,0.04-7.339
			c0.061,0.025,0.135,0.037,0.182,0.08C127.643,72.004,127.643,72.004,123.334,75.553z"/>
	</g>
</g>
<g id="_x7B_Guides_x7D_">
</g>
</svg>
