<?xml version="1.0" encoding="utf-8"?>
<!-- Generator: Adobe Illustrator 16.0.0, SVG Export Plug-In . SVG Version: 6.00 Build 0)  -->
<!DOCTYPE svg PUBLIC "-//W3C//DTD SVG 1.1//EN" "http://www.w3.org/Graphics/SVG/1.1/DTD/svg11.dtd">
<svg version="1.1" id="Layer_1" xmlns="http://www.w3.org/2000/svg" xmlns:xlink="http://www.w3.org/1999/xlink" x="0px" y="0px"
	 width="64px" height="64px" viewBox="0 0 64 64" enable-background="new 0 0 64 64" xml:space="preserve">
<g>
	<g>
		<path fill="#68483E" d="M15.311,23.038v-5.819c0-0.837,0.375-1.442,1.441-1.442s1.442,0.605,1.442,1.442v7.26
			c0,1.038-0.692,1.441-1.442,1.441H5.397c-0.749,0-1.441-0.403-1.441-1.441s0.692-1.441,1.441-1.441h4.237V6.381H5.397
			c-0.749,0-1.441-0.403-1.441-1.44c0-1.038,0.692-1.441,1.441-1.441h7.119v19.539H15.311z"/>
	</g>
	<g>
		<path fill="#68483E" d="M36.06,3.5c1.585,0,2.882,1.297,2.882,2.881v16.657c0,1.614-1.24,2.882-2.882,2.882h-8.473
			c-1.643,0-2.881-1.268-2.881-2.882V6.381c0-1.584,1.297-2.881,2.881-2.881H36.06z M36.06,23.038V6.381h-8.473v16.657H36.06z"/>
	</g>
	<g>
		<path fill="#68483E" d="M15.311,38.081c1.585,0,2.883,1.295,2.883,2.882v16.656c0,1.615-1.24,2.882-2.883,2.882H6.839
			c-1.644,0-2.882-1.268-2.882-2.882V40.962c0-1.586,1.298-2.882,2.882-2.882H15.311z M15.311,57.619V40.962H6.839v16.656H15.311z"
			/>
	</g>
	<g>
		<path fill="#68483E" d="M58.186,23.038v-5.819c0-0.837,0.375-1.442,1.441-1.442s1.442,0.605,1.442,1.442v7.26
			c0,1.038-0.692,1.441-1.442,1.441H48.272c-0.749,0-1.441-0.403-1.441-1.441s0.692-1.441,1.441-1.441h4.237V6.381h-4.237
			c-0.749,0-1.441-0.403-1.441-1.44c0-1.038,0.692-1.441,1.441-1.441h7.119v19.539H58.186z"/>
	</g>
	<g>
		<path fill="#68483E" d="M36.059,57.619V51.8c0-0.837,0.375-1.442,1.441-1.442s1.442,0.605,1.442,1.442v7.26
			c0,1.038-0.692,1.441-1.442,1.441H26.146c-0.749,0-1.441-0.403-1.441-1.441s0.692-1.441,1.441-1.441h4.237V40.962h-4.237
			c-0.749,0-1.441-0.403-1.441-1.44c0-1.038,0.692-1.441,1.441-1.441h7.119v19.539H36.059z"/>
	</g>
	<g>
		<path fill="#68483E" d="M58.186,38.081c1.585,0,2.883,1.295,2.883,2.882v16.656c0,1.615-1.24,2.882-2.883,2.882h-8.472
			c-1.644,0-2.882-1.268-2.882-2.882V40.962c0-1.586,1.298-2.882,2.882-2.882H58.186z M58.186,57.619V40.962h-8.472v16.656H58.186z"
			/>
	</g>
</g>
</svg>
