<?xml version="1.0" encoding="utf-8"?>
<!-- Generator: Adobe Illustrator 16.0.0, SVG Export Plug-In . SVG Version: 6.00 Build 0)  -->
<!DOCTYPE svg PUBLIC "-//W3C//DTD SVG 1.1//EN" "http://www.w3.org/Graphics/SVG/1.1/DTD/svg11.dtd">
<svg version="1.1" id="Layer_1" xmlns="http://www.w3.org/2000/svg" xmlns:xlink="http://www.w3.org/1999/xlink" x="0px" y="0px"
	 width="170px" height="170px" viewBox="0 0 170 170" enable-background="new 0 0 170 170" xml:space="preserve">
<g>
	<path fill-rule="evenodd" clip-rule="evenodd" fill="#31939B" d="M34.191,79.314c0.381-2.013-3.969-2.33-1.789-4.977
		c1.96-2.384,3.74-4.157,6.557-0.623c2.442,3.064,5.416,5.73,8.324,8.387c1.822,1.665,1.92,2.85,0.032,4.538
		c-2.582,2.31-4.752,5.11-7.465,7.232c-1.543,1.21-2.074,5.14-5.784,2.389c-3.624-2.688-1.288-4.529,0.89-6.965
		c-5.979-0.032-10.934-1.226-14.821-5.084c-3.381-3.355-5.211-7.377-5.17-12.259c0.081-9.62,0.02-19.242,0.024-28.863
		c0.006-11.442,6.336-18.254,17.763-19.014c2.514-0.167,5.046-0.048,7.569-0.045c6.098,0.008,6.015,0.042,5.875,6.004
		c-0.056,2.383-0.684,3.463-3.226,3.335c-3.147-0.159-6.312-0.146-9.46-0.005c-6.17,0.273-9.131,3.382-9.155,9.548
		c-0.036,9.306-0.059,18.611,0.008,27.917C24.411,77.276,27.695,80.042,34.191,79.314z"/>
	<path fill-rule="evenodd" clip-rule="evenodd" fill="#31939B" d="M138.064,144.922c-0.289,2.095,2.756,2.469,1.841,4.681
		c-1.156,2.792-3.844,3.383-6.143,1.208c-2.979-2.818-5.856-5.749-8.937-8.449c-1.927-1.689-1.765-2.869,0.04-4.527
		c3.02-2.773,5.893-5.715,8.716-8.692c1.589-1.678,2.694-2.611,4.92-0.469c2.268,2.182,1.927,3.537-0.221,5.197
		c-0.228,0.176-0.314,0.531-0.464,0.806c6.201,1.743,9.844-0.649,9.925-6.865c0.137-10.417,0.123-20.838,0-31.254
		c-0.063-5.441-2.164-7.341-7.55-7.428c-1.42-0.023-2.842-0.004-4.263-0.004c-6.473-0.003-6.956-0.629-6.189-6.923
		c0.222-1.82,0.924-2.473,2.658-2.442c3.786,0.071,7.612-0.268,11.354,0.16c7.758,0.885,13.214,7.131,13.342,15.335
		c0.179,11.364,0.196,22.733-0.004,34.095c-0.149,8.446-6.053,14.491-14.443,15.333
		C141.111,144.838,139.561,144.848,138.064,144.922z"/>
	<path fill="#31939B" d="M127.706,66.049c0.04-3.062-0.864-4.175-3.994-4.162c-22.883,0.091-45.765,0.09-68.647,0
		c-3.117-0.012-4.045,1.076-4.005,4.152c0.155,11.834,0.148,23.672,0.002,35.506c-0.035,2.91,0.863,3.786,3.757,3.749
		c11.361-0.144,22.724-0.058,34.087-0.058c11.677,0,23.356-0.083,35.032,0.058c2.881,0.034,3.803-0.816,3.767-3.74
		C127.558,89.721,127.553,77.883,127.706,66.049z M114.464,95.935c-8.519-0.16-17.042-0.058-25.563-0.058
		c-8.207,0-16.415-0.108-24.617,0.059c-2.933,0.06-3.832-0.939-3.737-3.807c0.187-5.675,0.134-11.362,0.021-17.041
		c-0.047-2.413,0.777-3.357,3.26-3.347c17.042,0.067,34.085,0.068,51.127,0c2.503-0.01,3.288,0.972,3.241,3.366
		c-0.11,5.679-0.167,11.366,0.023,17.04C118.317,95.037,117.373,95.989,114.464,95.935z"/>
	<path fill="#31939B" d="M123.561,13.154c-9.494-9.354-21.45-12.061-34.26-12.223C78.054,0.988,69.063,3.356,60.867,8.467
		c-16.63,10.372-17.446,29.386-1.759,41.024c16.916,12.549,46.81,11.683,62.961-1.825C133.154,38.396,133.88,23.323,123.561,13.154z
		 M113.828,41.988c-13.479,9.4-35.864,9.323-49.129-0.168c-9.771-6.992-10.006-17.075-0.358-24.187
		c7.518-5.541,16.2-7.474,24.322-7.332c9.818-0.006,18.028,1.875,25.234,6.943C124.114,24.43,124.026,34.876,113.828,41.988z"/>
	<path fill="#31939B" d="M117.485,137.317c-8.732-8.449-17.359-17.008-26.033-25.52c-0.66-0.648-1.393-1.222-2.239-1.958
		c-0.824,0.682-1.59,1.216-2.24,1.865c-8.608,8.584-17.15,17.235-25.835,25.74c-1.935,1.896-1.348,2.971,0.266,4.562
		c8.541,8.427,17.054,16.886,25.436,25.47c1.824,1.87,2.943,2.089,4.848,0.155c8.526-8.662,17.136-17.248,25.822-25.752
		C119.307,140.121,119.251,139.025,117.485,137.317z M104.238,141.789c-4.255,4.229-8.598,8.372-12.768,12.684
		c-1.525,1.577-2.465,1.807-4.108,0.084c-4.141-4.338-8.429-8.543-12.8-12.648c-1.792-1.685-1.902-2.837-0.048-4.553
		c4.519-4.176,8.885-8.516,13.302-12.802c0.824-0.798,1.53-1.592,2.722-0.418c4.836,4.761,9.722,9.471,14.572,14.215
		c0.322,0.315,0.513,0.765,0.895,1.352C105.416,140.403,104.88,141.15,104.238,141.789z"/>
</g>
</svg>
