<?xml version="1.0" encoding="utf-8"?>
<!-- Generator: Adobe Illustrator 16.0.0, SVG Export Plug-In . SVG Version: 6.00 Build 0)  -->
<!DOCTYPE svg PUBLIC "-//W3C//DTD SVG 1.1//EN" "http://www.w3.org/Graphics/SVG/1.1/DTD/svg11.dtd">
<svg version="1.1" id="Layer_1" xmlns="http://www.w3.org/2000/svg" xmlns:xlink="http://www.w3.org/1999/xlink" x="0px" y="0px"
	 width="170px" height="170px" viewBox="0 0 170 170" enable-background="new 0 0 170 170" xml:space="preserve">
<g id="_x7B_Guides_x7D_">
</g>
<g>
	<path fill="none" stroke="#8BC248" stroke-width="3" stroke-linecap="round" stroke-miterlimit="10" d="M29.452,140.676
		C15.118,126.374,6.25,106.598,6.25,84.75c0-16.333,4.957-31.508,13.449-44.104"/>
	<path fill="none" stroke="#8BC248" stroke-width="3" stroke-miterlimit="10" d="M140.705,141.016
		c-14.264,14.059-33.846,22.734-55.455,22.734c-15.948,0-30.792-4.726-43.209-12.854"/>
	<path fill="none" stroke="#8BC248" stroke-width="3" stroke-miterlimit="10" d="M141.299,29.077
		C155.484,43.358,164.25,63.03,164.25,84.75c0,17.056-5.405,32.85-14.595,45.762"/>
	<path fill="none" stroke="#8BC248" stroke-width="3" stroke-miterlimit="10" d="M28.975,29.306
		C43.302,14.765,63.223,5.75,85.25,5.75c15.25,0,29.492,4.322,41.566,11.807"/>
	<g>
		<circle fill="none" stroke="#104660" stroke-width="3" stroke-miterlimit="10" cx="82.75" cy="85.25" r="19"/>
		
			<rect x="101.75" y="46.5" fill="#8DC348" stroke="#104660" stroke-width="3" stroke-linecap="round" stroke-linejoin="round" stroke-miterlimit="10" width="34" height="12.5"/>
		
			<rect x="101.75" y="110.25" fill="#8DC348" stroke="#104660" stroke-width="3" stroke-linecap="round" stroke-linejoin="round" stroke-miterlimit="10" width="34" height="12.5"/>
		
			<rect x="125.75" y="74.25" fill="#8DC348" stroke="#104660" stroke-width="3" stroke-linecap="round" stroke-linejoin="round" stroke-miterlimit="10" width="20.75" height="21.5"/>
		
			<rect x="26.332" y="78.092" transform="matrix(0.7071 -0.7071 0.7071 0.7071 -50.6286 48.7635)" fill="#8DC348" stroke="#104660" stroke-width="3" stroke-linecap="round" stroke-linejoin="round" stroke-miterlimit="10" width="14.441" height="14.816"/>
		
			<circle fill="#8DC348" stroke="#104660" stroke-width="3" stroke-linecap="round" stroke-linejoin="round" stroke-miterlimit="10" cx="51.5" cy="53.25" r="7.75"/>
		
			<circle fill="#8DC348" stroke="#104660" stroke-width="3" stroke-linecap="round" stroke-linejoin="round" stroke-miterlimit="10" cx="51.5" cy="116.5" r="7.75"/>
		
			<line fill="none" stroke="#104660" stroke-width="3" stroke-linecap="round" stroke-linejoin="round" stroke-miterlimit="10" x1="56.683" y1="59" x2="68.834" y2="72.319"/>
		
			<line fill="none" stroke="#104660" stroke-width="3" stroke-linecap="round" stroke-linejoin="round" stroke-miterlimit="10" x1="96.067" y1="71.703" x2="109" y2="59"/>
		
			<line fill="none" stroke="#104660" stroke-width="3" stroke-linecap="round" stroke-linejoin="round" stroke-miterlimit="10" x1="125.75" y1="85.5" x2="101.75" y2="85.25"/>
		
			<line fill="none" stroke="#104660" stroke-width="3" stroke-linecap="round" stroke-linejoin="round" stroke-miterlimit="10" x1="63.75" y1="85.25" x2="43.896" y2="85.633"/>
		
			<line fill="none" stroke="#104660" stroke-width="3" stroke-linecap="round" stroke-linejoin="round" stroke-miterlimit="10" x1="69.943" y1="99.283" x2="56.683" y2="110.75"/>
		
			<line fill="none" stroke="#104660" stroke-width="3" stroke-linecap="round" stroke-linejoin="round" stroke-miterlimit="10" x1="96.067" y1="98.801" x2="106.25" y2="108.75"/>
	</g>
	<polygon fill="#8DC348" points="123.392,6 125.346,16.556 113.75,18.855 119.61,22.542 130.596,20.215 128.685,9.309 	"/>
	<polygon fill="#8DC348" points="7.917,44.281 18.472,42.327 20.772,53.923 24.458,48.063 22.131,37.077 11.225,38.988 	"/>
	<polygon fill="#8DC348" points="45.418,162.423 43.464,151.867 55.06,149.567 49.199,145.881 38.214,148.208 40.125,159.114 	"/>
	<polygon fill="#8DC348" points="161.956,126.142 151.399,128.096 149.101,116.5 145.413,122.36 147.741,133.346 158.647,131.435 	
		"/>
	<g id="Logo">
		<g id="Border__x28_Black_x29_" display="none">
			
				<image display="inline" overflow="visible" opacity="0.35" enable-background="new    " width="1079" height="1225" xlink:href="../../../../xampp/htdocs/apps/WAFFLE/web/images/svg/C705AC08.png"  transform="matrix(0.0912 0 0 0.0912 33.4731 13.8955)">
			</image>
			<g display="inline">
				
					<image overflow="visible" opacity="0.4" enable-background="new    " width="988" height="1133" xlink:href="../../../../xampp/htdocs/apps/WAFFLE/web/images/svg/C705AC0B.png"  transform="matrix(0.0911 0 0 0.0911 37.6714 18.1919)">
				</image>
				<g>
					<path fill="#08090B" d="M82.638,20.993l42.047,24.341v48.783l-42.047,24.366L40.588,94.116V45.333L82.638,20.993 M82.638,20.42
						c-0.099,0-0.198,0.026-0.288,0.077L40.302,44.84c-0.176,0.102-0.285,0.291-0.285,0.494v48.783c0,0.202,0.108,0.39,0.284,0.495
						l42.048,24.367c0.09,0.049,0.189,0.075,0.288,0.075c0.099,0,0.196-0.026,0.286-0.075l42.049-24.367
						c0.175-0.105,0.283-0.293,0.283-0.495V45.333c0-0.203-0.108-0.392-0.284-0.494L82.924,20.497
						C82.833,20.446,82.736,20.42,82.638,20.42L82.638,20.42z"/>
				</g>
			</g>
		</g>
		<g id="Center_2_">
			
				<radialGradient id="Right_2_" cx="308.4648" cy="-228.4502" r="24.456" gradientTransform="matrix(1 0 0 -1 -226 -144)" gradientUnits="userSpaceOnUse">
				<stop  offset="0" style="stop-color:#44BED0"/>
				<stop  offset="0.7" style="stop-color:#3BA7B2"/>
			</radialGradient>
			<polygon id="Right_4_" fill="url(#Right_2_)" points="82.638,108.895 82.638,84.367 103.721,72.466 103.721,96.672 			"/>
			
				<radialGradient id="Left_2_" cx="308.8037" cy="-228.4463" r="24.5643" gradientTransform="matrix(1 0 0 -1 -226 -144)" gradientUnits="userSpaceOnUse">
				<stop  offset="0" style="stop-color:#44BED0"/>
				<stop  offset="0.7" style="stop-color:#34919B"/>
			</radialGradient>
			<polygon id="Left_4_" fill="url(#Left_2_)" points="82.638,108.895 82.638,84.367 61.676,72.461 61.68,96.672 			"/>
			
				<radialGradient id="Top_2_" cx="308.8252" cy="-228.2998" r="24.0889" gradientTransform="matrix(1 0 0 -1 -226 -144)" gradientUnits="userSpaceOnUse">
				<stop  offset="0" style="stop-color:#44BED0"/>
				<stop  offset="0.7" style="stop-color:#39A3B3"/>
			</radialGradient>
			<polygon id="Top_4_" fill="url(#Top_2_)" points="82.638,60.111 61.676,72.461 82.638,84.367 103.721,72.466 			"/>
		</g>
		<g id="Inner" display="none">
			
				<linearGradient id="SVGID_1_" gradientUnits="userSpaceOnUse" x1="293.5303" y1="-187.5488" x2="298.0703" y2="-195.4123" gradientTransform="matrix(1 0 0 -1 -226 -144)">
				<stop  offset="0" style="stop-color:#F0F9FB"/>
				<stop  offset="1" style="stop-color:#BBC4C8"/>
			</linearGradient>
			<polygon display="inline" fill="url(#SVGID_1_)" points="82.638,34.827 52.468,52.351 61.676,57.684 82.638,45.333 			"/>
			
				<linearGradient id="SVGID_2_" gradientUnits="userSpaceOnUse" x1="318.9463" y1="-231.7529" x2="324.0088" y2="-240.5214" gradientTransform="matrix(1 0 0 -1 -226 -144)">
				<stop  offset="0" style="stop-color:#79A2A3"/>
				<stop  offset="1" style="stop-color:#99CBCB"/>
			</linearGradient>
			<polygon display="inline" fill="url(#SVGID_2_)" points="82.638,105.01 112.918,87.237 103.721,81.893 82.638,94.116 			"/>
			
				<linearGradient id="SVGID_3_" gradientUnits="userSpaceOnUse" x1="429.8965" y1="-376.6221" x2="434.9921" y2="-385.4479" gradientTransform="matrix(0.5 0.866 0.866 -0.5 183.6172 -472.875)">
				<stop  offset="0" style="stop-color:#79A2A3"/>
				<stop  offset="1" style="stop-color:#99CBCB"/>
			</linearGradient>
			<polygon display="inline" fill="url(#SVGID_3_)" points="52.468,87.272 82.638,105.01 82.638,94.116 61.68,81.893 			"/>
			
				<linearGradient id="SVGID_4_" gradientUnits="userSpaceOnUse" x1="404.8838" y1="-332.6978" x2="409.3963" y2="-340.5137" gradientTransform="matrix(0.5 0.866 0.866 -0.5 183.4629 -473.4053)">
				<stop  offset="0" style="stop-color:#F0F9FB"/>
				<stop  offset="1" style="stop-color:#BBC4C8"/>
			</linearGradient>
			<polygon display="inline" fill="url(#SVGID_4_)" points="112.918,52.351 82.638,34.827 82.647,45.333 103.721,57.688 			"/>
			
				<linearGradient id="SVGID_5_" gradientUnits="userSpaceOnUse" x1="278.4688" y1="-213.8115" x2="287.6797" y2="-213.8115" gradientTransform="matrix(1 0 0 -1 -226 -144)">
				<stop  offset="0" style="stop-color:#CAEAF1"/>
				<stop  offset="1" style="stop-color:#A0B9BF"/>
			</linearGradient>
			<polygon display="inline" fill="url(#SVGID_5_)" points="52.468,52.351 52.468,87.272 61.68,81.893 61.676,57.684 			"/>
			
				<linearGradient id="SVGID_6_" gradientUnits="userSpaceOnUse" x1="641.3867" y1="-213.7939" x2="650.584" y2="-213.7939" gradientTransform="matrix(-1 0 0 -1 754.3047 -144)">
				<stop  offset="0" style="stop-color:#CAEAF1"/>
				<stop  offset="1" style="stop-color:#A0B9BF"/>
			</linearGradient>
			<polygon display="inline" fill="url(#SVGID_6_)" points="112.918,52.351 112.918,87.237 103.721,81.893 103.721,57.688 			"/>
		</g>
		<g id="Outer_2_" display="none">
			
				<radialGradient id="Right_3_" cx="89.8018" cy="64.0918" r="28.1526" fx="88.3332" fy="63.8664" gradientTransform="matrix(-0.9397 -0.342 -0.4282 1.1764 235.8379 48.8398)" gradientUnits="userSpaceOnUse">
				<stop  offset="0.1827" style="stop-color:#304E7E"/>
				<stop  offset="0.4083" style="stop-color:#2F507F"/>
				<stop  offset="0.6131" style="stop-color:#325383"/>
				<stop  offset="0.8092" style="stop-color:#36588D"/>
				<stop  offset="1" style="stop-color:#3B6098"/>
			</radialGradient>
			<polygon id="Right_1_" display="inline" fill="url(#Right_3_)" points="124.685,45.333 112.918,52.351 112.918,87.237 
				82.638,105.01 82.638,118.482 124.685,94.116 			"/>
			
				<radialGradient id="Left_3_" cx="-156.1274" cy="-324.8354" r="26.4541" fx="-157.289" fy="-327.0164" gradientTransform="matrix(0 -1 -0.8571 0 -237.209 -62.4121)" gradientUnits="userSpaceOnUse">
				<stop  offset="0.45" style="stop-color:#27446E"/>
				<stop  offset="1" style="stop-color:#305180"/>
			</radialGradient>
			<polygon id="Left_1_" display="inline" fill="url(#Left_3_)" points="40.588,45.333 52.468,52.351 52.468,87.272 82.638,105.01 
				82.638,118.482 40.588,94.116 			"/>
			
				<radialGradient id="Top_3_" cx="445.6641" cy="251.1699" r="29.587" gradientTransform="matrix(2.000000e-004 1 1.5081 -3.000000e-004 -296.2461 -424.1104)" gradientUnits="userSpaceOnUse">
				<stop  offset="0.4038" style="stop-color:#33538F"/>
				<stop  offset="1" style="stop-color:#4169B2"/>
			</radialGradient>
			<polygon id="Top_1_" display="inline" fill="url(#Top_3_)" points="52.468,52.351 40.588,45.333 82.638,20.993 124.685,45.333 
				112.918,52.351 82.638,34.827 			"/>
		</g>
	</g>
</g>
</svg>
