<?xml version="1.0" encoding="iso-8859-1"?>
<!-- Generator: Adobe Illustrator 19.0.0, SVG Export Plug-In . SVG Version: 6.00 Build 0)  -->
<svg version="1.1" id="Capa_1" xmlns="http://www.w3.org/2000/svg" xmlns:xlink="http://www.w3.org/1999/xlink" x="0px" y="0px"
	 viewBox="0 0 464.012 464.012" style="enable-background:new 0 0 464.012 464.012;" xml:space="preserve">
<g>
	<path style="fill:#5D5E6E;" d="M364.392,231.07L154.508,3.989c-3.288-3.557-8.343-4.877-12.95-3.383l-0.028,0.009l0.014-0.004
		L291.349,462.45c16.726-5.425,25.886-23.382,20.461-40.108l-51.96-160.19l96.74-10.308
		C366.743,250.762,371.323,238.568,364.392,231.07z"/>
	<path style="fill:#464655;" d="M141.53,0.615c-4.607,1.494-7.925,5.531-8.499,10.34L96.398,317.998
		c-1.21,10.139,9.656,17.323,18.511,12.239l84.372-48.438l51.96,160.19c5.425,16.725,23.382,25.887,40.108,20.461L141.544,0.611
		L141.53,0.615z"/>
</g>
<g>
</g>
<g>
</g>
<g>
</g>
<g>
</g>
<g>
</g>
<g>
</g>
<g>
</g>
<g>
</g>
<g>
</g>
<g>
</g>
<g>
</g>
<g>
</g>
<g>
</g>
<g>
</g>
<g>
</g>
</svg>
