<?xml version="1.0" encoding="iso-8859-1"?>
<!-- Generator: Adobe Illustrator 19.0.0, SVG Export Plug-In . SVG Version: 6.00 Build 0)  -->
<svg version="1.1" id="Capa_1" xmlns="http://www.w3.org/2000/svg" xmlns:xlink="http://www.w3.org/1999/xlink" x="0px" y="0px"
	 viewBox="0 0 463.998 463.998" style="enable-background:new 0 0 463.998 463.998;" xml:space="preserve">
<g>
	<path style="fill:#FFCD73;" d="M72.032,156.734c0.257-12.92,2.103-25.51,5.346-37.576
		C74.134,131.224,72.289,143.814,72.032,156.734c-0.211,10.605,0.632,20.973,2.392,31.025
		C72.664,177.707,71.82,167.339,72.032,156.734z"/>
	<path style="fill:#FFCD73;" d="M158.678,302.224c-34.984-18.068-62.429-48.668-76.439-85.855
		C96.249,253.556,123.694,284.156,158.678,302.224c6.873,3.55,12.579,8.699,16.823,14.848
		C171.257,310.923,165.552,305.774,158.678,302.224z"/>
	<path style="fill:#FFCD73;" d="M181.291,328.484c-1.389-3.979-3.296-7.747-5.658-11.207
		C177.994,320.737,179.902,324.505,181.291,328.484z"/>
	<path style="fill:#FFCD73;" d="M267.428,192.419c-4.212,0.857-6.865,2.973-10.433,5.83c-5.43,4.344-12.191,9.75-24.996,9.75
		s-19.566-5.406-24.996-9.75c-3.568-2.857-6.22-4.973-10.433-5.83l27.3,150.15c0.087,0.481,0.122,0.958,0.123,1.43h16.012
		c0-0.472,0.036-0.949,0.123-1.43L267.428,192.419z"/>
	<path style="fill:#FFCD73;" d="M77.862,117.434c0.267-0.951,0.541-1.9,0.826-2.845C78.403,115.534,78.13,116.483,77.862,117.434z"
		/>
	<path style="fill:#FFCD73;" d="M223.501,0.22c6.172-0.319,12.265-0.262,18.277,0.101c-53.511,4.826-96.689,73.869-97.758,156.413
		c-0.819,63.259,22.236,118.347,56.241,145.424l-24.133-132.73c-0.789-4.344,2.094-8.508,6.441-9.297
		c4.324-0.852,8.512,2.086,9.301,6.438l1.722,9.472c11.772,0.431,18.205,5.55,23.403,9.708c4.703,3.766,7.809,6.25,15.004,6.25
		s10.301-2.484,15.004-6.25c5.198-4.158,11.631-9.277,23.403-9.708l1.722-9.472c0.789-4.352,4.945-7.281,9.301-6.438
		c4.348,0.789,7.23,4.953,6.441,9.297l-31.74,174.57h23.869v0.484c0-17.73,9.695-34.171,25.441-42.32
		c51.415-26.609,86.559-80.276,86.559-142.164C391.999,68.817,315.726-4.549,223.501,0.22z"/>
	<path style="fill:#FFCD73;" d="M181.38,328.771c1.707,4.988,2.619,10.294,2.619,15.717v0
		C183.999,339.064,183.086,333.759,181.38,328.771z"/>
	<path style="fill:#FFFFFF;" d="M207.003,198.248c5.43,4.344,12.191,9.75,24.996,9.75s19.566-5.406,24.996-9.75
		c3.568-2.857,6.22-4.973,10.433-5.83l2.978-16.378c-11.772,0.431-18.205,5.55-23.403,9.708c-4.703,3.766-7.809,6.25-15.004,6.25
		s-10.301-2.484-15.004-6.25c-5.198-4.158-11.631-9.277-23.403-9.708l2.978,16.378C200.782,193.275,203.435,195.391,207.003,198.248
		z"/>
	<path style="fill:#FFB969;" d="M183.999,343.998h23.869l-7.607-41.84c-34.005-27.077-57.06-82.164-56.241-145.424
		C145.089,74.19,188.267,5.147,241.778,0.321c-6.011-0.363-12.104-0.42-18.277-0.101c-0.043,0.002-0.086,0.003-0.129,0.005
		C155.151,3.806,97.7,51.524,78.688,114.589c-0.285,0.945-0.558,1.893-0.826,2.845c-0.162,0.575-0.329,1.147-0.485,1.724
		c-3.244,12.066-5.089,24.656-5.346,37.576c-0.211,10.605,0.632,20.973,2.392,31.025c1.729,9.879,4.363,19.444,7.816,28.611
		c14.01,37.186,41.455,67.786,76.439,85.855c6.873,3.55,12.579,8.698,16.823,14.848c0.046,0.067,0.086,0.138,0.131,0.205
		c2.361,3.46,4.269,7.228,5.658,11.207c0.033,0.094,0.057,0.192,0.089,0.286c1.706,4.988,2.619,10.294,2.619,15.717V343.998z"/>
	<path style="fill:#FFE8C0;" d="M215.999,343.998h7.994c0-0.472-0.036-0.949-0.123-1.43l-27.3-150.15l-2.978-16.378l-1.722-9.472
		c-0.789-4.352-4.977-7.289-9.301-6.438c-4.348,0.789-7.23,4.953-6.441,9.297l24.133,132.73l7.607,41.84H215.999z"/>
	<path style="fill:#FFE8C0;" d="M240.128,342.569c-0.087,0.481-0.122,0.958-0.123,1.43h16.125l31.74-174.57
		c0.789-4.344-2.094-8.508-6.441-9.297c-4.355-0.844-8.512,2.086-9.301,6.438l-1.722,9.472l-2.978,16.378L240.128,342.569z"/>
	<path style="fill:#96A5B9;" d="M215.999,447.998c0,8.837,7.163,16,16,16s16-7.163,16-16v-8h-32V447.998z"/>
	<path style="fill:#BEC8DC;" d="M215.999,395.494l62.96-8.994c0.35-0.05,0.696-0.07,1.04-0.074v-16.075l-64,9.143V395.494z"/>
	<path style="fill:#BEC8DC;" d="M184.118,415.994c0.022,0.185,0.044,0.37,0.072,0.554
		C184.163,416.364,184.14,416.179,184.118,415.994L184.118,415.994z"/>
	<path style="fill:#BEC8DC;" d="M192.843,428.421L192.843,428.421c-0.677-0.339-1.324-0.722-1.936-1.144
		C191.519,427.699,192.166,428.082,192.843,428.421z"/>
	<path style="fill:#BEC8DC;" d="M184.729,418.861c-0.063-0.201-0.123-0.404-0.177-0.608
		C184.606,418.458,184.666,418.66,184.729,418.861z"/>
	<path style="fill:#BEC8DC;" d="M256.13,343.998h-16.125h-16.012h-7.994v19.496l62.96-8.994c0.35-0.05,0.696-0.07,1.04-0.074v-9.944
		v-0.484H256.13z"/>
	<path style="fill:#BEC8DC;" d="M215.999,411.494v2.615c0,6.061,3.424,11.601,8.845,14.311l23.155,11.578l23.155-11.578
		c5.421-2.71,8.845-8.25,8.845-14.311v-11.758L215.999,411.494z"/>
	<polygon style="fill:#AAB6CA;" points="215.999,343.998 207.868,343.998 183.999,343.998 183.999,344.487 183.999,344.487 
		183.999,359.998 183.999,368.066 215.999,363.494 	"/>
	<path style="fill:#AAB6CA;" d="M215.999,379.494l-30.96,4.423c-0.35,0.05-0.696,0.07-1.04,0.074v16.075l32-4.571V379.494z"/>
	<path style="fill:#AAB6CA;" d="M215.999,414.11v-2.615l-30.96,4.423c-0.309,0.044-0.616,0.068-0.92,0.076
		c0.022,0.185,0.044,0.37,0.072,0.554c0.089,0.578,0.211,1.147,0.361,1.706c0.055,0.204,0.115,0.406,0.177,0.608
		c0.947,3.042,2.779,5.751,5.285,7.752c0.289,0.231,0.587,0.452,0.893,0.663c0.612,0.423,1.259,0.806,1.936,1.145l23.155,11.578h32
		l-23.155-11.578C219.423,425.71,215.999,420.17,215.999,414.11z"/>
	<path style="fill:#96A5B9;" d="M278.959,386.5l-62.96,8.994l-32,4.571l-1.2,0.172c-3.902,0.557-6.8,3.899-6.8,7.84
		c0,4.507,3.733,8.035,8.12,7.916l0,0c0.304-0.008,0.611-0.032,0.92-0.076l30.96-4.423l64-9.143l1.2-0.172
		c3.902-0.557,6.8-3.899,6.8-7.84c0-4.466-3.666-7.965-8-7.914C279.656,386.43,279.309,386.45,278.959,386.5z"/>
	<path style="fill:#96A5B9;" d="M278.959,354.5l-62.96,8.994l-32,4.571l-1.2,0.172c-3.902,0.557-6.8,3.899-6.8,7.84
		c0,4.466,3.666,7.965,8,7.914c0.343-0.004,0.689-0.024,1.04-0.074l30.96-4.423l64-9.143l1.2-0.172c3.902-0.557,6.8-3.899,6.8-7.84
		c0-4.466-3.666-7.965-8-7.914C279.656,354.43,279.309,354.45,278.959,354.5z"/>
</g>
<g>
</g>
<g>
</g>
<g>
</g>
<g>
</g>
<g>
</g>
<g>
</g>
<g>
</g>
<g>
</g>
<g>
</g>
<g>
</g>
<g>
</g>
<g>
</g>
<g>
</g>
<g>
</g>
<g>
</g>
</svg>
