<?xml version="1.0" encoding="iso-8859-1"?>
<!-- Generator: Adobe Illustrator 19.0.0, SVG Export Plug-In . SVG Version: 6.00 Build 0)  -->
<svg version="1.1" id="Capa_1" xmlns="http://www.w3.org/2000/svg" xmlns:xlink="http://www.w3.org/1999/xlink" x="0px" y="0px"
	 viewBox="0 0 464 464" style="enable-background:new 0 0 464 464;" xml:space="preserve">
<g>
	<path style="fill:#FFCD69;" d="M297.001,398.548c0.356-0.496,0.716-0.988,1.061-1.491
		C297.718,397.561,297.357,398.053,297.001,398.548z"/>
	<path style="fill:#FFCD69;" d="M294.804,401.465c0.359-0.455,0.725-0.904,1.075-1.367
		C295.529,400.561,295.163,401.01,294.804,401.465z"/>
	<path style="fill:#FFCD69;" d="M292.595,404.143c0.321-0.372,0.651-0.736,0.965-1.114
		C293.246,403.407,292.916,403.771,292.595,404.143z"/>
	<path style="fill:#FFCD69;" d="M299.089,395.497c0.342-0.526,0.687-1.05,1.017-1.584
		C299.775,394.447,299.431,394.971,299.089,395.497z"/>
	<path style="fill:#FFCD69;" d="M301.047,392.33c0.323-0.552,0.646-1.103,0.957-1.663
		C301.694,391.227,301.37,391.779,301.047,392.33z"/>
	<path style="fill:#FFCD69;" d="M201.368,136.069c0.203,0.018,0.406,0.039,0.606,0.065
		C201.773,136.109,201.572,136.086,201.368,136.069z"/>
	<path style="fill:#FFCD69;" d="M274.177,419.936c0.406-0.253,0.806-0.514,1.207-0.774
		C274.983,419.421,274.583,419.683,274.177,419.936z"/>
	<path style="fill:#FFCD69;" d="M277.282,417.902c0.393-0.271,0.778-0.552,1.167-0.83
		C278.061,417.35,277.676,417.631,277.282,417.902z"/>
	<path style="fill:#FFCD69;" d="M285.984,410.981c0.296-0.271,0.58-0.556,0.872-0.832
		C286.564,410.425,286.28,410.709,285.984,410.981z"/>
	<path style="fill:#FFCD69;" d="M280.29,415.728c0.375-0.285,0.739-0.581,1.109-0.872
		C281.029,415.147,280.664,415.443,280.29,415.728z"/>
	<path style="fill:#FFCD69;" d="M270.978,421.825c0.415-0.232,0.825-0.471,1.235-0.711
		C271.803,421.354,271.393,421.593,270.978,421.825z"/>
	<path style="fill:#FFCD69;" d="M302.863,389.061c0.302-0.575,0.601-1.151,0.889-1.734
		C303.464,387.91,303.165,388.487,302.863,389.061z"/>
	<path style="fill:#FFCD69;" d="M311.899,355.99c0.065-1.322,0.101-2.652,0.101-3.99C312,353.338,311.964,354.667,311.899,355.99z"
		/>
	<path style="fill:#FFCD69;" d="M311.121,363.814c0.115-0.772,0.205-1.552,0.297-2.332
		C311.326,362.261,311.236,363.042,311.121,363.814z"/>
	<path style="fill:#FFCD69;" d="M311.604,359.93c0.086-0.87,0.143-1.748,0.2-2.626C311.747,358.181,311.69,359.06,311.604,359.93z"
		/>
	<path style="fill:#FFCD69;" d="M330.463,136.209c1.991,0.327,3.853,1.031,5.537,2.011c-4.762,2.771-8,7.874-8,13.78v200
		c0,44.109-35.887,80-80,80c-2.69,0-5.346-0.143-7.969-0.403C237.389,431.861,234.711,432,232,432c-44.113,0-80-35.891-80-80V48
		c0-8.82,7.176-16,16-16h64h16c8.824,0,16,7.18,16,16v288c0,8.82-7.176,16-16,16c-2.906,0-5.597-0.837-7.947-2.197
		C237.684,351.19,234.938,352,232,352c-8.824,0-16-7.18-16-16V152c0-7.996-5.874-14.604-13.537-15.791
		c1.991,0.327,3.853,1.031,5.537,2.011c-4.762,2.771-8,7.874-8,13.78v184c0,23.738,17.335,43.451,40,47.277
		c-1.951,0.33-3.933,0.57-5.95,0.671C259.57,382.87,280,361.781,280,336V48c0-26.469-21.531-48-48-48h-48c-26.469,0-48,21.531-48,48
		v304c0,59.058,45.977,107.464,104,111.595c-2.653,0.189-5.3,0.405-8,0.405c61.758,0,112-50.242,112-112V152
		C344,144.004,338.126,137.396,330.463,136.209z"/>
	<path style="fill:#FFCD69;" d="M329.368,136.069c0.203,0.018,0.406,0.039,0.606,0.065
		C329.773,136.109,329.572,136.086,329.368,136.069z"/>
	<path style="fill:#FFCD69;" d="M309.609,371.398c0.173-0.69,0.328-1.386,0.482-2.083
		C309.937,370.012,309.782,370.708,309.609,371.398z"/>
	<path style="fill:#FFCD69;" d="M310.455,367.638c0.144-0.723,0.267-1.453,0.391-2.183
		C310.722,366.185,310.599,366.915,310.455,367.638z"/>
	<path style="fill:#FFCD69;" d="M307.399,378.707c0.228-0.641,0.445-1.288,0.656-1.936
		C307.844,377.419,307.627,378.066,307.399,378.707z"/>
	<path style="fill:#FFCD69;" d="M306.045,382.245c0.254-0.619,0.5-1.242,0.739-1.87
		C306.544,381.002,306.299,381.625,306.045,382.245z"/>
	<path style="fill:#FFCD69;" d="M308.589,375.089c0.201-0.664,0.387-1.333,0.57-2.003
		C308.976,373.756,308.789,374.426,308.589,375.089z"/>
	<path style="fill:#FFCD69;" d="M304.531,385.698c0.279-0.598,0.552-1.198,0.817-1.803C305.083,384.5,304.81,385.1,304.531,385.698z
		"/>
	<path style="fill:#FFCD69;" d="M283.192,413.42c0.349-0.291,0.686-0.596,1.03-0.893
		C283.878,412.824,283.541,413.128,283.192,413.42z"/>
	<path style="fill:#FFCD69;" d="M246.745,430.615c0.277-0.052,0.558-0.095,0.834-0.149
		C247.303,430.52,247.022,430.563,246.745,430.615z"/>
	<path style="fill:#FFCD69;" d="M243.635,431.144c0.044-0.006,0.089-0.01,0.134-0.017
		C243.724,431.134,243.679,431.138,243.635,431.144z"/>
	<path style="fill:#FFCD69;" d="M250.255,429.874c0.356-0.084,0.715-0.159,1.07-0.247
		C250.97,429.714,250.611,429.79,250.255,429.874z"/>
	<path style="fill:#FFCD69;" d="M253.829,428.948c0.391-0.111,0.784-0.217,1.173-0.334
		C254.613,428.731,254.22,428.837,253.829,428.948z"/>
	<path style="fill:#FFCD69;" d="M257.38,427.849c0.41-0.138,0.821-0.272,1.228-0.417C258.201,427.577,257.79,427.711,257.38,427.849
		z"/>
	<path style="fill:#FFCD69;" d="M247.021,341.456c0.038-0.104,0.078-0.207,0.115-0.312
		C247.1,341.249,247.059,341.352,247.021,341.456z"/>
	<path style="fill:#FFCD69;" d="M247.927,337.437C247.97,336.963,248,336.485,248,336C248,336.485,247.97,336.963,247.927,337.437z"
		/>
	<path style="fill:#FFCD69;" d="M247.366,340.417c0.085-0.29,0.159-0.584,0.227-0.88
		C247.526,339.833,247.45,340.126,247.366,340.417z"/>
	<path style="fill:#FFCD69;" d="M247.709,338.992c0.073-0.379,0.131-0.763,0.176-1.151
		C247.841,338.229,247.781,338.613,247.709,338.992z"/>
	<path style="fill:#FFCD69;" d="M260.882,426.583c0.42-0.163,0.839-0.326,1.256-0.496
		C261.722,426.257,261.302,426.42,260.882,426.583z"/>
	<path style="fill:#FFCD69;" d="M264.324,425.153c0.422-0.187,0.842-0.376,1.26-0.57
		C265.166,424.777,264.746,424.966,264.324,425.153z"/>
	<path style="fill:#FFCD69;" d="M267.692,423.565c0.42-0.21,0.837-0.425,1.252-0.642
		C268.529,423.141,268.112,423.355,267.692,423.565z"/>
	<path style="fill:#FFB45A;" d="M200,336V152c0-5.907,3.238-11.009,8-13.78c-1.684-0.98-3.546-1.683-5.537-2.011
		c-0.162-0.027-0.325-0.053-0.489-0.075c-0.201-0.026-0.403-0.047-0.606-0.065C200.917,136.028,200.462,136,200,136
		c-8.836,0-16,7.164-16,16v184c0,26.469,21.531,48,48,48c0.688,0,1.371-0.018,2.05-0.052c2.018-0.1,3.999-0.341,5.95-0.671
		C217.335,379.451,200,359.738,200,336z"/>
	<path style="fill:#FFB45A;" d="M328,352V152c0-5.907,3.238-11.009,8-13.78c-1.684-0.98-3.546-1.683-5.537-2.011
		c-0.162-0.027-0.325-0.053-0.489-0.075c-0.201-0.026-0.403-0.047-0.606-0.065C328.917,136.028,328.462,136,328,136
		c-8.836,0-16,7.164-16,16v200c0,1.338-0.036,2.667-0.101,3.99c-0.022,0.441-0.065,0.875-0.094,1.314
		c-0.058,0.878-0.114,1.756-0.2,2.626c-0.051,0.521-0.124,1.035-0.186,1.552c-0.093,0.779-0.182,1.559-0.297,2.332
		c-0.082,0.551-0.183,1.095-0.276,1.641c-0.124,0.73-0.247,1.46-0.391,2.183c-0.112,0.562-0.24,1.119-0.364,1.677
		c-0.154,0.697-0.309,1.393-0.482,2.083c-0.142,0.566-0.296,1.127-0.45,1.688c-0.184,0.671-0.37,1.34-0.57,2.003
		c-0.17,0.564-0.351,1.123-0.533,1.681c-0.212,0.649-0.428,1.295-0.656,1.936c-0.199,0.559-0.405,1.115-0.616,1.668
		c-0.239,0.627-0.485,1.25-0.739,1.87c-0.227,0.553-0.458,1.103-0.697,1.65c-0.264,0.606-0.538,1.206-0.817,1.803
		c-0.255,0.546-0.512,1.09-0.779,1.63c-0.288,0.583-0.587,1.159-0.889,1.734c-0.282,0.538-0.565,1.076-0.859,1.606
		c-0.311,0.56-0.634,1.111-0.957,1.663c-0.311,0.53-0.619,1.061-0.942,1.583c-0.33,0.534-0.674,1.059-1.017,1.584
		c-0.34,0.522-0.675,1.046-1.026,1.56c-0.345,0.504-0.705,0.996-1.061,1.491c-0.372,0.518-0.739,1.041-1.123,1.55
		c-0.349,0.463-0.715,0.912-1.075,1.367c-0.413,0.523-0.818,1.052-1.244,1.564c-0.314,0.378-0.644,0.742-0.965,1.114
		c-1.81,2.099-3.724,4.104-5.739,6.006c-0.292,0.276-0.576,0.56-0.872,0.832c-0.576,0.528-1.171,1.035-1.762,1.546
		c-0.344,0.297-0.681,0.601-1.03,0.893c-0.588,0.49-1.191,0.963-1.793,1.437c-0.37,0.291-0.734,0.587-1.109,0.872
		c-0.605,0.459-1.223,0.902-1.841,1.344c-0.388,0.278-0.773,0.559-1.167,0.83c-0.625,0.431-1.261,0.846-1.899,1.259
		c-0.401,0.26-0.801,0.521-1.207,0.774c-0.648,0.403-1.304,0.793-1.964,1.178c-0.41,0.24-0.82,0.479-1.235,0.711
		c-0.672,0.376-1.35,0.741-2.034,1.098c-0.416,0.217-0.832,0.432-1.252,0.642c-0.697,0.349-1.4,0.688-2.108,1.017
		c-0.418,0.194-0.838,0.383-1.26,0.57c-0.724,0.321-1.452,0.634-2.186,0.934c-0.417,0.17-0.836,0.333-1.256,0.496
		c-0.753,0.293-1.51,0.579-2.274,0.849c-0.407,0.144-0.818,0.279-1.228,0.417c-0.789,0.265-1.579,0.525-2.378,0.765
		c-0.389,0.117-0.782,0.223-1.173,0.334c-0.831,0.236-1.663,0.469-2.504,0.678c-0.354,0.088-0.714,0.164-1.07,0.247
		c-0.888,0.208-1.777,0.414-2.676,0.592c-0.276,0.055-0.557,0.097-0.834,0.149c-0.987,0.185-1.977,0.365-2.977,0.512
		c-0.044,0.007-0.089,0.011-0.134,0.017c-1.203,0.176-2.415,0.328-3.635,0.45c0.01,0.001,0.021,0.001,0.031,0.002
		C242.654,431.857,245.31,432,248,432C292.113,432,328,396.109,328,352z"/>
	<path style="fill:#FFB45A;" d="M264,336V48c0-8.82-7.176-16-16-16h-16c8.824,0,16,7.18,16,16v288c0,0.485-0.03,0.963-0.073,1.437
		c-0.012,0.135-0.026,0.27-0.042,0.404c-0.045,0.388-0.103,0.772-0.176,1.151c-0.035,0.183-0.075,0.364-0.116,0.544
		c-0.068,0.296-0.142,0.59-0.227,0.88c-0.072,0.245-0.147,0.488-0.23,0.727c-0.036,0.105-0.076,0.208-0.115,0.312
		c-1.301,3.516-3.813,6.447-7.021,8.319c0.017,0.01,0.035,0.019,0.053,0.029c2.35,1.36,5.041,2.197,7.947,2.197
		C256.824,352,264,344.82,264,336z"/>
	<path style="fill:#FFB45A;" d="M136,352V48c0-26.469,21.531-48,48-48h-16c-26.469,0-48,21.531-48,48v304
		c0,61.758,50.242,112,112,112c2.7,0,5.347-0.216,8-0.405C181.977,459.464,136,411.058,136,352z"/>
</g>
<g>
</g>
<g>
</g>
<g>
</g>
<g>
</g>
<g>
</g>
<g>
</g>
<g>
</g>
<g>
</g>
<g>
</g>
<g>
</g>
<g>
</g>
<g>
</g>
<g>
</g>
<g>
</g>
<g>
</g>
</svg>
