<?xml version="1.0" encoding="utf-8"?>
<!-- Generator: Adobe Illustrator 16.0.0, SVG Export Plug-In . SVG Version: 6.00 Build 0)  -->
<!DOCTYPE svg PUBLIC "-//W3C//DTD SVG 1.1//EN" "http://www.w3.org/Graphics/SVG/1.1/DTD/svg11.dtd">
<svg version="1.1" id="Capa_1" xmlns="http://www.w3.org/2000/svg" xmlns:xlink="http://www.w3.org/1999/xlink" x="0px" y="0px"
	 width="604px" height="604px" viewBox="-45.5 -45.5 604 604" enable-background="new -45.5 -45.5 604 604" xml:space="preserve">
<g id="Capa_1">
	<image overflow="visible" width="569" height="445" xlink:href="211677BE.png"  transform="matrix(1 0 0 1 -28.5 33.5)">
	</image>
	<g>
		<g>
			<g id="Background_10_">
				
					<path fill="none" stroke="#000000" stroke-width="14" stroke-linecap="round" stroke-linejoin="round" stroke-miterlimit="10" d="
					M485.518,61.793H26.482C11.856,61.793,0,73.649,0,88.275v335.449c0,14.626,11.856,26.482,26.482,26.482h459.035
					c14.626,0,26.482-11.856,26.482-26.482V88.275C512,73.649,500.144,61.793,485.518,61.793z"/>
			</g>
			<g id="code-n-pages_10_">
				<path fill="#D2DCF0" d="M485.518,61.793H26.483C11.856,61.793,0,73.649,0,88.276v335.449c0,14.626,11.856,26.482,26.483,26.482
					h459.035c14.626,0,26.482-11.856,26.482-26.482V88.276C512,73.649,500.144,61.793,485.518,61.793z M441.379,79.448h8.828
					c4.875,0,8.827,3.953,8.827,8.828s-3.952,8.828-8.827,8.828h-8.828c-4.875,0-8.827-3.953-8.827-8.828
					S436.504,79.448,441.379,79.448z M194.207,79.448h211.862c4.875,0,8.827,3.953,8.827,8.828s-3.952,8.828-8.827,8.828H194.207
					c-4.875,0-8.828-3.953-8.828-8.828S189.332,79.448,194.207,79.448z M150.069,79.448h8.828c4.875,0,8.828,3.953,8.828,8.828
					s-3.953,8.828-8.828,8.828h-8.828c-4.875,0-8.828-3.953-8.828-8.828S145.194,79.448,150.069,79.448z M114.759,79.448h8.828
					c4.875,0,8.827,3.953,8.827,8.828s-3.952,8.828-8.827,8.828h-8.828c-4.875,0-8.828-3.953-8.828-8.828
					S109.884,79.448,114.759,79.448z M79.448,79.448c4.875,0,8.828,3.953,8.828,8.828s-3.953,8.828-8.828,8.828
					s-8.828-3.953-8.828-8.828S74.573,79.448,79.448,79.448z M52.965,79.448c4.875,0,8.828,3.953,8.828,8.828
					s-3.953,8.828-8.828,8.828s-8.828-3.953-8.828-8.828S48.09,79.448,52.965,79.448z M26.483,79.448
					c4.875,0,8.828,3.953,8.828,8.828s-3.953,8.828-8.828,8.828s-8.828-3.953-8.828-8.828S21.608,79.448,26.483,79.448z
					 M494.345,167.724v256c0,4.875-3.952,8.827-8.827,8.827H256H26.483c-4.875,0-8.828-3.952-8.828-8.827v-256v-44.138
					c0-4.875,3.953-8.827,8.828-8.827H256h229.518c4.875,0,8.827,3.952,8.827,8.827V167.724z M485.518,97.104h-8.828
					c-4.875,0-8.827-3.953-8.827-8.828s3.952-8.828,8.827-8.828h8.828c4.875,0,8.827,3.953,8.827,8.828
					S490.393,97.104,485.518,97.104z"/>
				<path fill="#FFFFFF" d="M256,432.552h229.518c4.875,0,8.827-3.952,8.827-8.827v-256H256V432.552z M388.414,211.862v-8.828
					c0-4.875,3.952-8.828,8.827-8.828h61.793c4.875,0,8.828,3.953,8.828,8.828v8.828v70.62c0,4.875-3.953,8.828-8.828,8.828h-61.793
					c-4.875,0-8.827-3.953-8.827-8.828V211.862z M282.482,211.862v-8.828c0-4.875,3.953-8.828,8.828-8.828h61.793
					c4.875,0,8.827,3.953,8.827,8.828v8.828v70.62c0,4.875-3.952,8.828-8.827,8.828h-61.793c-4.875,0-8.828-3.953-8.828-8.828
					V211.862z M291.311,317.793h8.827h158.896c4.875,0,8.828,3.953,8.828,8.828v70.62c0,4.875-3.953,8.828-8.828,8.828H300.138
					h-8.827c-4.875,0-8.828-3.953-8.828-8.828v-70.62C282.482,321.746,286.436,317.793,291.311,317.793z"/>
				<circle fill="#FF6469" cx="26.483" cy="88.276" r="8.828"/>
				<circle fill="#FFE169" cx="52.965" cy="88.276" r="8.828"/>
				<circle fill="#87E1AA" cx="79.448" cy="88.276" r="8.828"/>
				<path fill="#E4EAF6" d="M114.759,97.104h8.828c4.875,0,8.827-3.953,8.827-8.828s-3.952-8.828-8.827-8.828h-8.828
					c-4.875,0-8.828,3.953-8.828,8.828S109.884,97.104,114.759,97.104z"/>
				<path fill="#E4EAF6" d="M150.069,97.104h8.828c4.875,0,8.828-3.953,8.828-8.828s-3.953-8.828-8.828-8.828h-8.828
					c-4.875,0-8.828,3.953-8.828,8.828S145.194,97.104,150.069,97.104z"/>
				<path fill="#E4EAF6" d="M441.379,97.104h8.828c4.875,0,8.827-3.953,8.827-8.828s-3.952-8.828-8.827-8.828h-8.828
					c-4.875,0-8.827,3.953-8.827,8.828S436.504,97.104,441.379,97.104z"/>
				<path fill="#E4EAF6" d="M485.518,79.448h-8.828c-4.875,0-8.827,3.953-8.827,8.828s3.952,8.828,8.827,8.828h8.828
					c4.875,0,8.827-3.953,8.827-8.828S490.393,79.448,485.518,79.448z"/>
				<path fill="#E4EAF6" d="M194.207,97.104h211.862c4.875,0,8.827-3.953,8.827-8.828s-3.952-8.828-8.827-8.828H194.207
					c-4.875,0-8.828,3.953-8.828,8.828S189.332,97.104,194.207,97.104z"/>
				<path fill="#FF6469" d="M485.518,114.759H256v52.965h238.345v-44.138C494.345,118.711,490.393,114.759,485.518,114.759z
					 M317.793,150.069h-35.311c-4.875,0-8.827-3.953-8.827-8.828s3.952-8.827,8.827-8.827h35.311c4.875,0,8.828,3.952,8.828,8.827
					S322.668,150.069,317.793,150.069z M388.414,150.069h-35.311c-4.875,0-8.828-3.953-8.828-8.828s3.953-8.827,8.828-8.827h35.311
					c4.875,0,8.827,3.952,8.827,8.827S393.289,150.069,388.414,150.069z M459.034,150.069h-35.31c-4.876,0-8.828-3.953-8.828-8.828
					s3.952-8.827,8.828-8.827h35.31c4.875,0,8.828,3.952,8.828,8.827S463.909,150.069,459.034,150.069z"/>
				<path fill="#D2555F" d="M317.793,132.414h-35.311c-4.875,0-8.827,3.952-8.827,8.827s3.952,8.828,8.827,8.828h35.311
					c4.875,0,8.828-3.953,8.828-8.828S322.668,132.414,317.793,132.414z"/>
				<path fill="#D2555F" d="M388.414,132.414h-35.311c-4.875,0-8.828,3.952-8.828,8.827s3.953,8.828,8.828,8.828h35.311
					c4.875,0,8.827-3.953,8.827-8.828S393.289,132.414,388.414,132.414z"/>
				<path fill="#D2555F" d="M459.034,132.414h-35.31c-4.876,0-8.828,3.952-8.828,8.827s3.952,8.828,8.828,8.828h35.31
					c4.875,0,8.828-3.953,8.828-8.828S463.909,132.414,459.034,132.414z"/>
				<path fill="#DEE3ED" d="M291.311,291.311h61.793c4.875,0,8.827-3.953,8.827-8.828v-70.62c0,4.875-3.952,8.827-8.827,8.827
					h-61.793c-4.875,0-8.828-3.952-8.828-8.827v70.62C282.482,287.357,286.436,291.311,291.311,291.311z"/>
				<path fill="#DEE3ED" d="M397.241,291.311h61.793c4.875,0,8.828-3.953,8.828-8.828v-70.62c0,4.875-3.953,8.827-8.828,8.827
					h-61.793c-4.875,0-8.827-3.952-8.827-8.827v70.62C388.414,287.357,392.366,291.311,397.241,291.311z"/>
				<path fill="#FF969B" d="M291.311,220.689h61.793c4.875,0,8.827-3.952,8.827-8.827v-8.828c0-4.875-3.952-8.828-8.827-8.828
					h-61.793c-4.875,0-8.828,3.953-8.828,8.828v8.828C282.482,216.737,286.436,220.689,291.311,220.689z"/>
				<path fill="#A0DCF0" d="M397.241,220.689h61.793c4.875,0,8.828-3.952,8.828-8.827v-8.828c0-4.875-3.953-8.828-8.828-8.828
					h-61.793c-4.875,0-8.827,3.953-8.827,8.828v8.828C388.414,216.737,392.366,220.689,397.241,220.689z"/>
				<path fill="#DEE3ED" d="M308.966,326.621v70.62c0,4.875-3.952,8.828-8.828,8.828h158.896c4.875,0,8.828-3.953,8.828-8.828
					v-70.62c0-4.875-3.953-8.828-8.828-8.828H300.138C305.014,317.793,308.966,321.746,308.966,326.621z"/>
				<path fill="#91E6BE" d="M291.311,406.069h8.827c4.876,0,8.828-3.953,8.828-8.828v-70.62c0-4.875-3.952-8.828-8.828-8.828h-8.827
					c-4.875,0-8.828,3.953-8.828,8.828v70.62C282.482,402.116,286.436,406.069,291.311,406.069z"/>
				<path fill="#464655" d="M256,114.759H26.483c-4.875,0-8.828,3.952-8.828,8.827v44.138v256c0,4.875,3.953,8.827,8.828,8.827H256
					V167.724V114.759z M88.276,141.241h141.241c4.875,0,8.828,3.953,8.828,8.828s-3.953,8.828-8.828,8.828H88.276
					c-4.875,0-8.828-3.953-8.828-8.828S83.401,141.241,88.276,141.241z M44.138,141.241h8.828c4.875,0,8.828,3.953,8.828,8.828
					s-3.953,8.828-8.828,8.828h-8.828c-4.875,0-8.827-3.953-8.827-8.828S39.263,141.241,44.138,141.241z M132.414,194.207h-26.482
					c-4.875,0-8.828-3.953-8.828-8.828s3.953-8.828,8.828-8.828h26.482c4.875,0,8.828,3.953,8.828,8.828
					S137.289,194.207,132.414,194.207z M141.241,220.689c0,4.875-3.952,8.828-8.828,8.828h-26.482c-4.875,0-8.828-3.953-8.828-8.828
					s3.953-8.827,8.828-8.827h26.482C137.289,211.862,141.241,215.814,141.241,220.689z M44.138,282.482h8.828
					c4.875,0,8.828,3.953,8.828,8.828s-3.953,8.827-8.828,8.827h-8.828c-4.875,0-8.827-3.952-8.827-8.827
					S39.263,282.482,44.138,282.482z M35.311,256c0-4.875,3.952-8.828,8.827-8.828h8.828c4.875,0,8.828,3.953,8.828,8.828
					s-3.953,8.828-8.828,8.828h-8.828C39.263,264.828,35.311,260.875,35.311,256z M61.793,317.793h8.828
					c4.875,0,8.828,3.953,8.828,8.828s-3.953,8.827-8.828,8.827h-8.828c-4.875,0-8.828-3.952-8.828-8.827
					S56.918,317.793,61.793,317.793z M70.621,229.517h-8.828c-4.875,0-8.828-3.953-8.828-8.828s3.953-8.827,8.828-8.827h8.828
					c4.875,0,8.828,3.952,8.828,8.827S75.496,229.517,70.621,229.517z M70.621,194.207h-8.828c-4.875,0-8.828-3.953-8.828-8.828
					s3.953-8.828,8.828-8.828h8.828c4.875,0,8.828,3.953,8.828,8.828S75.496,194.207,70.621,194.207z M52.965,406.069h-8.828
					c-4.875,0-8.827-3.953-8.827-8.828s3.952-8.827,8.827-8.827h8.828c4.875,0,8.828,3.952,8.828,8.827
					S57.84,406.069,52.965,406.069z M70.621,370.759h-8.828c-4.875,0-8.828-3.952-8.828-8.827s3.953-8.828,8.828-8.828h8.828
					c4.875,0,8.828,3.953,8.828,8.828S75.496,370.759,70.621,370.759z M229.517,406.069H88.276c-4.875,0-8.828-3.953-8.828-8.828
					s3.953-8.827,8.828-8.827h141.241c4.875,0,8.828,3.952,8.828,8.827S234.392,406.069,229.517,406.069z M105.931,353.104h26.482
					c4.875,0,8.828,3.953,8.828,8.828s-3.952,8.827-8.828,8.827h-26.482c-4.875,0-8.828-3.952-8.828-8.827
					S101.056,353.104,105.931,353.104z M97.104,326.621c0-4.875,3.953-8.828,8.828-8.828h26.482c4.875,0,8.828,3.953,8.828,8.828
					s-3.952,8.827-8.828,8.827h-26.482C101.056,335.448,97.104,331.496,97.104,326.621z M229.517,370.759h-61.793
					c-4.875,0-8.828-3.952-8.828-8.827s3.953-8.828,8.828-8.828h61.793c4.875,0,8.828,3.953,8.828,8.828
					S234.392,370.759,229.517,370.759z M229.517,335.448h-61.793c-4.875,0-8.828-3.952-8.828-8.827s3.953-8.828,8.828-8.828h61.793
					c4.875,0,8.828,3.953,8.828,8.828S234.392,335.448,229.517,335.448z M229.517,300.138H88.276c-4.875,0-8.828-3.952-8.828-8.827
					s3.953-8.828,8.828-8.828h141.241c4.875,0,8.828,3.953,8.828,8.828S234.392,300.138,229.517,300.138z M229.517,264.828H88.276
					c-4.875,0-8.828-3.953-8.828-8.828s3.953-8.828,8.828-8.828h141.241c4.875,0,8.828,3.953,8.828,8.828
					S234.392,264.828,229.517,264.828z M229.517,229.517h-61.793c-4.875,0-8.828-3.953-8.828-8.828s3.953-8.827,8.828-8.827h61.793
					c4.875,0,8.828,3.952,8.828,8.827S234.392,229.517,229.517,229.517z M229.517,194.207h-61.793c-4.875,0-8.828-3.953-8.828-8.828
					s3.953-8.828,8.828-8.828h61.793c4.875,0,8.828,3.953,8.828,8.828S234.392,194.207,229.517,194.207z"/>
				<path fill="#FFE169" d="M88.276,158.896h141.241c4.875,0,8.828-3.953,8.828-8.828s-3.953-8.828-8.828-8.828H88.276
					c-4.875,0-8.828,3.953-8.828,8.828S83.401,158.896,88.276,158.896z"/>
				<path fill="#91E6BE" d="M132.414,176.552h-26.482c-4.875,0-8.828,3.953-8.828,8.828s3.953,8.828,8.828,8.828h26.482
					c4.875,0,8.828-3.953,8.828-8.828S137.289,176.552,132.414,176.552z"/>
				<path fill="#91E6BE" d="M132.414,211.862h-26.482c-4.875,0-8.828,3.952-8.828,8.827s3.953,8.828,8.828,8.828h26.482
					c4.875,0,8.828-3.953,8.828-8.828S137.289,211.862,132.414,211.862z"/>
				<path fill="#FFE169" d="M229.517,247.172H88.276c-4.875,0-8.828,3.953-8.828,8.828s3.953,8.828,8.828,8.828h141.241
					c4.875,0,8.828-3.953,8.828-8.828S234.392,247.172,229.517,247.172z"/>
				<path fill="#FFFFFF" d="M229.517,282.482H88.276c-4.875,0-8.828,3.953-8.828,8.828s3.953,8.827,8.828,8.827h141.241
					c4.875,0,8.828-3.952,8.828-8.827S234.392,282.482,229.517,282.482z"/>
				<path fill="#FFFFFF" d="M229.517,176.552h-61.793c-4.875,0-8.828,3.953-8.828,8.828s3.953,8.828,8.828,8.828h61.793
					c4.875,0,8.828-3.953,8.828-8.828S234.392,176.552,229.517,176.552z"/>
				<path fill="#FFFFFF" d="M229.517,211.862h-61.793c-4.875,0-8.828,3.952-8.828,8.827s3.953,8.828,8.828,8.828h61.793
					c4.875,0,8.828-3.953,8.828-8.828S234.392,211.862,229.517,211.862z"/>
				<path fill="#FFFFFF" d="M229.517,317.793h-61.793c-4.875,0-8.828,3.953-8.828,8.828s3.953,8.827,8.828,8.827h61.793
					c4.875,0,8.828-3.952,8.828-8.827S234.392,317.793,229.517,317.793z"/>
				<path fill="#FFFFFF" d="M229.517,353.104h-61.793c-4.875,0-8.828,3.953-8.828,8.828s3.953,8.827,8.828,8.827h61.793
					c4.875,0,8.828-3.952,8.828-8.827S234.392,353.104,229.517,353.104z"/>
				<path fill="#91E6BE" d="M105.931,335.448h26.482c4.875,0,8.828-3.952,8.828-8.827s-3.952-8.828-8.828-8.828h-26.482
					c-4.875,0-8.828,3.953-8.828,8.828S101.056,335.448,105.931,335.448z"/>
				<path fill="#91E6BE" d="M105.931,370.759h26.482c4.875,0,8.828-3.952,8.828-8.827s-3.952-8.828-8.828-8.828h-26.482
					c-4.875,0-8.828,3.953-8.828,8.828S101.056,370.759,105.931,370.759z"/>
				<path fill="#FFE169" d="M229.517,388.414H88.276c-4.875,0-8.828,3.952-8.828,8.827s3.953,8.828,8.828,8.828h141.241
					c4.875,0,8.828-3.953,8.828-8.828S234.392,388.414,229.517,388.414z"/>
				<path fill="#FF6469" d="M44.138,158.896h8.828c4.875,0,8.828-3.953,8.828-8.828s-3.953-8.828-8.828-8.828h-8.828
					c-4.875,0-8.827,3.953-8.827,8.828S39.263,158.896,44.138,158.896z"/>
				<path fill="#FF6469" d="M70.621,176.552h-8.828c-4.875,0-8.828,3.953-8.828,8.828s3.953,8.828,8.828,8.828h8.828
					c4.875,0,8.828-3.953,8.828-8.828S75.496,176.552,70.621,176.552z"/>
				<path fill="#FF6469" d="M70.621,211.862h-8.828c-4.875,0-8.828,3.952-8.828,8.827s3.953,8.828,8.828,8.828h8.828
					c4.875,0,8.828-3.953,8.828-8.828S75.496,211.862,70.621,211.862z"/>
				<path fill="#FF6469" d="M44.138,264.828h8.828c4.875,0,8.828-3.953,8.828-8.828s-3.953-8.828-8.828-8.828h-8.828
					c-4.875,0-8.827,3.953-8.827,8.828S39.263,264.828,44.138,264.828z"/>
				<path fill="#FF6469" d="M44.138,300.138h8.828c4.875,0,8.828-3.952,8.828-8.827s-3.953-8.828-8.828-8.828h-8.828
					c-4.875,0-8.827,3.953-8.827,8.828S39.263,300.138,44.138,300.138z"/>
				<path fill="#FF6469" d="M61.793,335.448h8.828c4.875,0,8.828-3.952,8.828-8.827s-3.953-8.828-8.828-8.828h-8.828
					c-4.875,0-8.828,3.953-8.828,8.828S56.918,335.448,61.793,335.448z"/>
				<path fill="#FF6469" d="M70.621,353.104h-8.828c-4.875,0-8.828,3.953-8.828,8.828s3.953,8.827,8.828,8.827h8.828
					c4.875,0,8.828-3.952,8.828-8.827S75.496,353.104,70.621,353.104z"/>
				<path fill="#FF6469" d="M52.965,388.414h-8.828c-4.875,0-8.827,3.952-8.827,8.827s3.952,8.828,8.827,8.828h8.828
					c4.875,0,8.828-3.953,8.828-8.828S57.84,388.414,52.965,388.414z"/>
			</g>
		</g>
	</g>
</g>
</svg>
