<?xml version="1.0" encoding="iso-8859-1"?>
<!-- Generator: Adobe Illustrator 19.0.0, SVG Export Plug-In . SVG Version: 6.00 Build 0)  -->
<svg version="1.1" id="Capa_1" xmlns="http://www.w3.org/2000/svg" xmlns:xlink="http://www.w3.org/1999/xlink" x="0px" y="0px"
	 viewBox="0 0 464 464" style="enable-background:new 0 0 464 464;" xml:space="preserve">
<g>
	<path style="fill:#D2DCF0;" d="M440,56H24C10.745,56,0,66.745,0,80v304c0,13.255,10.745,24,24,24h416c13.255,0,24-10.745,24-24V80
		C464,66.745,453.255,56,440,56z M400,72h8c4.418,0,8,3.582,8,8s-3.582,8-8,8h-8c-4.418,0-8-3.582-8-8S395.582,72,400,72z M176,72
		h192c4.418,0,8,3.582,8,8s-3.582,8-8,8H176c-4.418,0-8-3.582-8-8S171.582,72,176,72z M136,72h8c4.418,0,8,3.582,8,8s-3.582,8-8,8
		h-8c-4.418,0-8-3.582-8-8S131.582,72,136,72z M104,72h8c4.418,0,8,3.582,8,8s-3.582,8-8,8h-8c-4.418,0-8-3.582-8-8
		S99.582,72,104,72z M72,72c4.418,0,8,3.582,8,8s-3.582,8-8,8s-8-3.582-8-8S67.582,72,72,72z M48,72c4.418,0,8,3.582,8,8
		s-3.582,8-8,8s-8-3.582-8-8S43.582,72,48,72z M24,72c4.418,0,8,3.582,8,8s-3.582,8-8,8s-8-3.582-8-8S19.582,72,24,72z M448,384
		c0,4.418-3.582,8-8,8H24c-4.418,0-8-3.582-8-8V112c0-4.418,3.582-8,8-8h416c4.418,0,8,3.582,8,8V384z M440,88h-8
		c-4.418,0-8-3.582-8-8s3.582-8,8-8h8c4.418,0,8,3.582,8,8S444.418,88,440,88z"/>
	<path style="fill:#464655;" d="M440,104H24c-4.418,0-8,3.582-8,8v272c0,4.418,3.582,8,8,8h416c4.418,0,8-3.582,8-8V112
		C448,107.582,444.418,104,440,104z M166.02,306.73c2.91,3.328,2.574,8.379-0.75,11.289c-1.52,1.328-3.398,1.98-5.266,1.98
		c-2.227,0-4.441-0.926-6.023-2.73l-56-64c-2.641-3.02-2.641-7.52,0-10.539l56-64c2.91-3.316,7.961-3.656,11.289-0.75
		c3.324,2.91,3.66,7.961,0.75,11.289L114.629,248L166.02,306.73z M271.477,170.848l-64,168c-1.215,3.191-4.254,5.156-7.477,5.156
		c-0.949,0-1.91-0.172-2.848-0.527c-4.129-1.574-6.199-6.195-4.629-10.324l64-168c1.574-4.133,6.195-6.195,10.324-4.629
		C270.977,162.098,273.047,166.719,271.477,170.848z M366.02,253.27l-56,64c-1.582,1.805-3.797,2.73-6.023,2.73
		c-1.867,0-3.746-0.652-5.266-1.98c-3.324-2.91-3.66-7.961-0.75-11.289L349.371,248l-51.391-58.73
		c-2.91-3.328-2.574-8.379,0.75-11.289c3.332-2.914,8.379-2.57,11.289,0.75l56,64C368.66,245.75,368.66,250.25,366.02,253.27z"/>
	<circle style="fill:#FF6469;" cx="24" cy="80" r="8"/>
	<circle style="fill:#FFE169;" cx="48" cy="80" r="8"/>
	<circle style="fill:#87E1AA;" cx="72" cy="80" r="8"/>
	<path style="fill:#E4EAF6;" d="M104,88h8c4.418,0,8-3.582,8-8s-3.582-8-8-8h-8c-4.418,0-8,3.582-8,8S99.582,88,104,88z"/>
	<path style="fill:#E4EAF6;" d="M136,88h8c4.418,0,8-3.582,8-8s-3.582-8-8-8h-8c-4.418,0-8,3.582-8,8S131.582,88,136,88z"/>
	<path style="fill:#E4EAF6;" d="M400,88h8c4.418,0,8-3.582,8-8s-3.582-8-8-8h-8c-4.418,0-8,3.582-8,8S395.582,88,400,88z"/>
	<path style="fill:#E4EAF6;" d="M440,72h-8c-4.418,0-8,3.582-8,8s3.582,8,8,8h8c4.418,0,8-3.582,8-8S444.418,72,440,72z"/>
	<path style="fill:#E4EAF6;" d="M176,88h192c4.418,0,8-3.582,8-8s-3.582-8-8-8H176c-4.418,0-8,3.582-8,8S171.582,88,176,88z"/>
	<path style="fill:#D2555F;" d="M165.27,177.98c-3.328-2.906-8.379-2.566-11.289,0.75l-56,64c-2.641,3.02-2.641,7.52,0,10.539l56,64
		c1.582,1.805,3.797,2.73,6.023,2.73c1.867,0,3.746-0.652,5.266-1.98c3.324-2.91,3.66-7.961,0.75-11.289L114.629,248l51.391-58.73
		C168.93,185.941,168.594,180.891,165.27,177.98z"/>
	<path style="fill:#D2555F;" d="M310.02,178.73c-2.91-3.32-7.957-3.664-11.289-0.75c-3.324,2.91-3.66,7.961-0.75,11.289L349.371,248
		l-51.391,58.73c-2.91,3.328-2.574,8.379,0.75,11.289c1.52,1.328,3.398,1.98,5.266,1.98c2.227,0,4.441-0.926,6.023-2.73l56-64
		c2.641-3.02,2.641-7.52,0-10.539L310.02,178.73z"/>
	<path style="fill:#FF6469;" d="M266.848,160.523c-4.129-1.566-8.75,0.496-10.324,4.629l-64,168c-1.57,4.129,0.5,8.75,4.629,10.324
		c0.938,0.355,1.898,0.527,2.848,0.527c3.223,0,6.262-1.965,7.477-5.156l64-168C273.047,166.719,270.977,162.098,266.848,160.523z"
		/>
</g>
<g>
</g>
<g>
</g>
<g>
</g>
<g>
</g>
<g>
</g>
<g>
</g>
<g>
</g>
<g>
</g>
<g>
</g>
<g>
</g>
<g>
</g>
<g>
</g>
<g>
</g>
<g>
</g>
<g>
</g>
</svg>
