<?xml version="1.0" encoding="iso-8859-1"?>
<!-- Generator: Adobe Illustrator 19.0.0, SVG Export Plug-In . SVG Version: 6.00 Build 0)  -->
<svg version="1.1" id="Capa_1" xmlns="http://www.w3.org/2000/svg" xmlns:xlink="http://www.w3.org/1999/xlink" x="0px" y="0px"
	 viewBox="0 0 464 464" style="enable-background:new 0 0 464 464;" xml:space="preserve">
<g>
	<path style="fill:#707384;" d="M387.691,453.133l-18.037-47.016c-1.321,1.926-3.173,3.518-5.456,4.521h0
		c-3.263,1.434-6.786,1.405-9.859,0.22l18.418,48.008c1.168,3.041,3.998,4.964,7.056,5.123c1.084,0.056,2.196-0.105,3.277-0.518
		C387.212,461.886,389.275,457.26,387.691,453.133z"/>
	<polygon style="fill:#707384;" points="163.258,296 156.383,312 224,312 224,296 	"/>
	<polygon style="fill:#707384;" points="240,296 240,312 307.617,312 300.742,296 	"/>
	<path style="fill:#BEC8DC;" d="M364.197,410.638L364.197,410.638c2.282-1.003,4.134-2.595,5.456-4.521
		c2.261-3.295,2.961-7.575,1.553-11.601L264,104l9.109,24.686c-7.309,12.143-19.811,20.763-34.456,22.801L300.742,296l6.874,16
		l39.377,91.652c1.402,3.458,4.126,5.965,7.344,7.206C357.411,412.043,360.935,412.072,364.197,410.638z"/>
	<path style="fill:#5B5C6C;" d="M240,288c0-4.418-3.582-8-8-8s-8,3.582-8,8v8v16v8c0,4.418,3.582,8,8,8s8-3.582,8-8v-8v-16V288z"/>
	<path style="fill:#78B9C8;" d="M240,73.008V56h-16v17.008c2.557-0.658,5.238-1.008,8-1.008S237.443,72.35,240,73.008z"/>
	<path style="fill:#707384;" d="M99.803,410.638L99.803,410.638c-2.282-1.003-4.134-2.595-5.456-4.521l-18.037,47.016
		c-1.585,4.127,0.478,8.753,4.601,10.338c1.081,0.413,2.193,0.574,3.277,0.518c3.058-0.159,5.888-2.082,7.056-5.123l18.418-48.008
		C106.589,412.043,103.065,412.072,99.803,410.638z"/>
	<path style="fill:#BEC8DC;" d="M225.346,151.486c-14.645-2.037-27.147-10.657-34.456-22.801L200,104L92.794,394.516
		c-1.408,4.026-0.708,8.306,1.553,11.601c1.321,1.926,3.173,3.518,5.456,4.521h0c3.263,1.434,6.786,1.405,9.859,0.22
		c3.218-1.24,5.942-3.748,7.344-7.206L156.383,312l6.874-16L225.346,151.486z"/>
	<path style="fill:#A1A8BB;" d="M225.346,151.486C225.347,151.486,225.347,151.486,225.346,151.486L232,136
		c-17.673,0-32-14.327-32-32l-9.109,24.686C198.199,140.829,210.702,149.449,225.346,151.486z"/>
	<path style="fill:#A1A8BB;" d="M232,136l6.653,15.486c0,0,0,0,0,0c14.645-2.037,27.147-10.657,34.456-22.801L264,104
		C264,121.673,249.673,136,232,136z"/>
	<path style="fill:#A0DCF0;" d="M232,136c17.673,0,32-14.327,32-32c0-14.911-10.198-27.44-24-30.992
		C237.443,72.35,234.762,72,232,72s-5.443,0.35-8,1.008C210.198,76.56,200,89.089,200,104C200,121.673,214.327,136,232,136z M232,88
		c8.837,0,16,7.163,16,16c0,8.837-7.163,16-16,16s-16-7.163-16-16C216,95.163,223.163,88,232,88z"/>
	<path style="fill:#A0DCF0;" d="M248,48V8c0-4.418-3.582-8-8-8h-16c-4.418,0-8,3.582-8,8v40c0,4.418,3.582,8,8,8h16
		C244.418,56,248,52.418,248,48z"/>
	<circle style="fill:#78B9C8;" cx="232" cy="104" r="16"/>
</g>
<g>
</g>
<g>
</g>
<g>
</g>
<g>
</g>
<g>
</g>
<g>
</g>
<g>
</g>
<g>
</g>
<g>
</g>
<g>
</g>
<g>
</g>
<g>
</g>
<g>
</g>
<g>
</g>
<g>
</g>
</svg>
