<?xml version="1.0" encoding="iso-8859-1"?>
<!-- Generator: Adobe Illustrator 19.0.0, SVG Export Plug-In . SVG Version: 6.00 Build 0)  -->
<svg version="1.1" id="Capa_1" xmlns="http://www.w3.org/2000/svg" xmlns:xlink="http://www.w3.org/1999/xlink" x="0px" y="0px"
	 viewBox="0 0 464 464" style="enable-background:new 0 0 464 464;" xml:space="preserve">
<g>
	<path style="fill:#FFDC69;" d="M446.664,48.244h-16.097C419.638,139.359,346.653,212.714,256,223.697V224h59.957
		C386.213,193.841,437.929,127.067,446.664,48.244z"/>
	<path style="fill:#FFDC69;" d="M150.732,240c-71.624,29.445-124.55,96.576-133.397,176h16.097
		C44.362,325.344,117.347,252.36,208,241.433V240H150.732z"/>
	<path style="fill:#707384;" d="M256,223.697V216c0-4.418-3.582-8-8-8h-32c-4.418,0-8,3.582-8,8v8H46.629
		c-3.295-9.32-12.18-16-22.629-16c-13.255,0-24,10.745-24,24s10.745,24,24,24c10.449,0,19.334-6.68,22.629-16h104.104H208v1.433V248
		c0,4.418,3.582,8,8,8h32c4.418,0,8-3.582,8-8v-8h161.371c3.295,9.32,12.18,16,22.629,16c13.255,0,24-10.745,24-24s-10.745-24-24-24
		c-10.449,0-19.334,6.68-22.629,16H315.957H256V223.697z"/>
	<path style="fill:#E4EAF6;" d="M8,416c-4.418,0-8,3.582-8,8v32c0,4.418,3.582,8,8,8h32c4.418,0,8-3.582,8-8v-32
		c0-4.418-3.582-8-8-8h-6.567H17.336H8z"/>
	<path style="fill:#E4EAF6;" d="M456,48.244c4.418,0,8-3.582,8-8V8c0-4.418-3.582-8-8-8h-32c-4.418,0-8,3.582-8,8v32.244
		c0,4.418,3.582,8,8,8h6.567h16.097H456z"/>
</g>
<g>
</g>
<g>
</g>
<g>
</g>
<g>
</g>
<g>
</g>
<g>
</g>
<g>
</g>
<g>
</g>
<g>
</g>
<g>
</g>
<g>
</g>
<g>
</g>
<g>
</g>
<g>
</g>
<g>
</g>
</svg>
