<?xml version="1.0" encoding="iso-8859-1"?>
<!-- Generator: Adobe Illustrator 19.0.0, SVG Export Plug-In . SVG Version: 6.00 Build 0)  -->
<svg version="1.1" id="Capa_1" xmlns="http://www.w3.org/2000/svg" xmlns:xlink="http://www.w3.org/1999/xlink" x="0px" y="0px"
	 viewBox="0 0 464 464" style="enable-background:new 0 0 464 464;" xml:space="preserve">
<g>
	<path style="fill:#707384;" d="M432,160H320v32h112v240H192V320h-32v112c0,17.673,14.327,32,32,32h240c17.673,0,32-14.327,32-32
		V192C464,174.327,449.673,160,432,160z"/>
	<rect x="304" y="160" style="fill:#464655;" width="16" height="32"/>
	<rect x="160" y="304" style="fill:#464655;" width="32" height="16"/>
	<path style="fill:#E4EAF6;" d="M272,304c17.673,0,32-14.327,32-32v-80v-32V32c0-17.673-14.327-32-32-32H32C14.327,0,0,14.327,0,32
		v240c0,17.673,14.327,32,32,32h128h32H272z M25,280c-0.552,0-1-0.448-1-1V25c0-0.552,0.448-1,1-1h254c0.552,0,1,0.448,1,1v254
		c0,0.552-0.448,1-1,1H25z"/>
	<path style="fill:#B4E173;" d="M279,280c0.552,0,1-0.448,1-1V25c0-0.552-0.448-1-1-1H25c-0.552,0-1,0.448-1,1v254
		c0,0.552,0.448,1,1,1H279z"/>
</g>
<g>
</g>
<g>
</g>
<g>
</g>
<g>
</g>
<g>
</g>
<g>
</g>
<g>
</g>
<g>
</g>
<g>
</g>
<g>
</g>
<g>
</g>
<g>
</g>
<g>
</g>
<g>
</g>
<g>
</g>
</svg>
