<?xml version="1.0" encoding="iso-8859-1"?>
<!-- Generator: Adobe Illustrator 19.0.0, SVG Export Plug-In . SVG Version: 6.00 Build 0)  -->
<svg version="1.1" id="Capa_1" xmlns="http://www.w3.org/2000/svg" xmlns:xlink="http://www.w3.org/1999/xlink" x="0px" y="0px"
	 viewBox="0 0 464 464" style="enable-background:new 0 0 464 464;" xml:space="preserve">
<g>
	<path style="fill:#BEC8DC;" d="M451.225,383.675c-1.042,0.213-2.12,0.325-3.225,0.325C449.105,384,450.183,383.888,451.225,383.675
		z"/>
	<path style="fill:#BEC8DC;" d="M16,384c-1.105,0-2.183-0.112-3.225-0.325C13.817,383.888,14.895,384,16,384z"/>
	<path style="fill:#BEC8DC;" d="M188.683,361.367L184,352H16H8c-4.418,0-8,3.582-8,8v8h199.416
		C194.871,368,190.716,365.432,188.683,361.367z"/>
	<path style="fill:#BEC8DC;" d="M451.225,383.675c6.249-1.279,11.172-6.201,12.45-12.45
		C462.396,377.474,457.474,382.396,451.225,383.675z"/>
	<path style="fill:#BEC8DC;" d="M0.325,371.225c1.279,6.25,6.201,11.171,12.45,12.45C6.526,382.396,1.604,377.474,0.325,371.225z"/>
	<path style="fill:#BEC8DC;" d="M456,352h-8H280l-4.683,9.367c-2.033,4.065-6.188,6.633-10.733,6.633H464v-8
		C464,355.582,460.418,352,456,352z"/>
	<path style="fill:#BEC8DC;" d="M0.325,371.225C0.112,370.183,0,369.104,0,368C0,369.104,0.112,370.183,0.325,371.225z"/>
	<path style="fill:#BEC8DC;" d="M464,368c0,1.104-0.112,2.183-0.325,3.225C463.888,370.183,464,369.104,464,368z"/>
	<path style="fill:#AFBBD0;" d="M199.416,368H0c0,1.104,0.112,2.183,0.325,3.225c1.279,6.249,6.201,11.171,12.45,12.45
		C13.817,383.888,14.895,384,16,384h432c1.105,0,2.183-0.112,3.225-0.325c6.249-1.279,11.172-6.201,12.45-12.45
		c0.213-1.042,0.325-2.12,0.325-3.225H264.584H199.416z"/>
	<path style="fill:#96A5B9;" d="M188.683,361.367c2.033,4.065,6.188,6.633,10.733,6.633h65.167c4.545,0,8.7-2.568,10.733-6.633
		L280,352h-96L188.683,361.367z"/>
	<path style="fill:#464655;" d="M280,352h168V95c0-8.284-6.716-15-15-15H31c-8.284,0-15,6.716-15,15v257h168H280z M40,152v-48h384
		v48v176H40V152z"/>
	<path style="fill:#FFFFFF;" d="M424,152H40v176h384V152z M232,192v104c0,4.418-3.582,8-8,8H72c-4.418,0-8-3.582-8-8V192v-8
		c0-4.418,3.582-8,8-8h152c4.418,0,8,3.582,8,8V192z M312,192v104c0,4.418-3.582,8-8,8h-48c-4.418,0-8-3.582-8-8V192v-8
		c0-4.418,3.582-8,8-8h48c4.418,0,8,3.582,8,8V192z M400,192v104c0,4.418-3.582,8-8,8h-48c-4.418,0-8-3.582-8-8V192v-8
		c0-4.418,3.582-8,8-8h48c4.418,0,8,3.582,8,8V192z"/>
	<path style="fill:#FF6469;" d="M424,104H40v48h384V104z M144,136H64c-4.418,0-8-3.582-8-8s3.582-8,8-8h80c4.418,0,8,3.582,8,8
		S148.418,136,144,136z M208,136h-32c-4.418,0-8-3.582-8-8s3.582-8,8-8h32c4.418,0,8,3.582,8,8S212.418,136,208,136z M272,136h-32
		c-4.418,0-8-3.582-8-8s3.582-8,8-8h32c4.418,0,8,3.582,8,8S276.418,136,272,136z M336,136h-32c-4.418,0-8-3.582-8-8s3.582-8,8-8h32
		c4.418,0,8,3.582,8,8S340.418,136,336,136z M400,136h-32c-4.418,0-8-3.582-8-8s3.582-8,8-8h32c4.418,0,8,3.582,8,8
		S404.418,136,400,136z"/>
	<path style="fill:#FFDC69;" d="M144,120H64c-4.418,0-8,3.582-8,8s3.582,8,8,8h80c4.418,0,8-3.582,8-8S148.418,120,144,120z"/>
	<path style="fill:#D2555F;" d="M208,120h-32c-4.418,0-8,3.582-8,8s3.582,8,8,8h32c4.418,0,8-3.582,8-8S212.418,120,208,120z"/>
	<path style="fill:#D2555F;" d="M272,120h-32c-4.418,0-8,3.582-8,8s3.582,8,8,8h32c4.418,0,8-3.582,8-8S276.418,120,272,120z"/>
	<path style="fill:#D2555F;" d="M336,120h-32c-4.418,0-8,3.582-8,8s3.582,8,8,8h32c4.418,0,8-3.582,8-8S340.418,120,336,120z"/>
	<path style="fill:#D2555F;" d="M400,120h-32c-4.418,0-8,3.582-8,8s3.582,8,8,8h32c4.418,0,8-3.582,8-8S404.418,120,400,120z"/>
	<path style="fill:#DEE3ED;" d="M224,200H72c-4.418,0-8-3.582-8-8v104c0,4.418,3.582,8,8,8h152c4.418,0,8-3.582,8-8V192
		C232,196.418,228.418,200,224,200z"/>
	<path style="fill:#DEE3ED;" d="M304,200h-48c-4.418,0-8-3.582-8-8v104c0,4.418,3.582,8,8,8h48c4.418,0,8-3.582,8-8V192
		C312,196.418,308.418,200,304,200z"/>
	<path style="fill:#DEE3ED;" d="M392,200h-48c-4.418,0-8-3.582-8-8v104c0,4.418,3.582,8,8,8h48c4.418,0,8-3.582,8-8V192
		C400,196.418,396.418,200,392,200z"/>
	<path style="fill:#FFDC69;" d="M224,176H72c-4.418,0-8,3.582-8,8v8c0,4.418,3.582,8,8,8h152c4.418,0,8-3.582,8-8v-8
		C232,179.582,228.418,176,224,176z"/>
	<path style="fill:#B4E173;" d="M304,176h-48c-4.418,0-8,3.582-8,8v8c0,4.418,3.582,8,8,8h48c4.418,0,8-3.582,8-8v-8
		C312,179.582,308.418,176,304,176z"/>
	<path style="fill:#FF969B;" d="M392,176h-48c-4.418,0-8,3.582-8,8v8c0,4.418,3.582,8,8,8h48c4.418,0,8-3.582,8-8v-8
		C400,179.582,396.418,176,392,176z"/>
</g>
<g>
</g>
<g>
</g>
<g>
</g>
<g>
</g>
<g>
</g>
<g>
</g>
<g>
</g>
<g>
</g>
<g>
</g>
<g>
</g>
<g>
</g>
<g>
</g>
<g>
</g>
<g>
</g>
<g>
</g>
</svg>
