<?xml version="1.0" encoding="iso-8859-1"?>
<!-- Generator: Adobe Illustrator 19.0.0, SVG Export Plug-In . SVG Version: 6.00 Build 0)  -->
<svg version="1.1" id="Capa_1" xmlns="http://www.w3.org/2000/svg" xmlns:xlink="http://www.w3.org/1999/xlink" x="0px" y="0px"
	 viewBox="0 0 464 464" style="enable-background:new 0 0 464 464;" xml:space="preserve">
<g>
	<path style="fill:#BEC8DC;" d="M168,280H48c-8.824,0-16-7.18-16-16v-64c0-8.82,7.176-16,16-16h120c8.824,0,16,7.18,16,16v16h32v-16
		c0-26.469-21.531-48-48-48H48c-26.469,0-48,21.531-48,48v64c0,26.469,21.531,48,48,48h120c26.469,0,48-21.531,48-48h-32
		C184,272.82,176.824,280,168,280z"/>
	<path style="fill:#BEC8DC;" d="M416,152H296c-26.469,0-48,21.531-48,48v16h32v-16c0-8.82,7.176-16,16-16h120c8.824,0,16,7.18,16,16
		v64c0,8.82-7.176,16-16,16H296c-8.824,0-16-7.18-16-16h-32c0,26.469,21.531,48,48,48h120c26.469,0,48-21.531,48-48v-64
		C464,173.531,442.469,152,416,152z"/>
	<path style="fill:#AAB4CB;" d="M328,248c8.836,0,16-7.164,16-16s-7.164-16-16-16h-48h-32h-32h-32h-48c-8.836,0-16,7.164-16,16
		s7.164,16,16,16h48h32h32h32H328z"/>
	<rect x="184" y="248" style="fill:#96A1BA;" width="32" height="16"/>
	<rect x="248" y="248" style="fill:#96A1BA;" width="32" height="16"/>
</g>
<g>
</g>
<g>
</g>
<g>
</g>
<g>
</g>
<g>
</g>
<g>
</g>
<g>
</g>
<g>
</g>
<g>
</g>
<g>
</g>
<g>
</g>
<g>
</g>
<g>
</g>
<g>
</g>
<g>
</g>
</svg>
