<?xml version="1.0" encoding="iso-8859-1"?>
<!-- Generator: Adobe Illustrator 19.0.0, SVG Export Plug-In . SVG Version: 6.00 Build 0)  -->
<svg version="1.1" id="Capa_1" xmlns="http://www.w3.org/2000/svg" xmlns:xlink="http://www.w3.org/1999/xlink" x="0px" y="0px"
	 viewBox="0 0 464 464" style="enable-background:new 0 0 464 464;" xml:space="preserve">
<g>
	<path style="fill:#464655;" d="M240,239.728c-2.645,0.174-5.311,0.272-8,0.272s-5.355-0.098-8-0.272V272h16V239.728z"/>
	<path style="fill:#707384;" d="M240,239.728C302.543,235.61,352,183.585,352,120C352,53.726,298.274,0,232,0S112,53.726,112,120
		c0,63.585,49.457,115.61,112,119.728c2.645,0.174,5.311,0.272,8,0.272S237.355,239.902,240,239.728z M144.525,159.603
		c-0.055-0.121-0.107-0.242-0.162-0.363c-1.741-3.883-3.229-7.905-4.448-12.041c-0.231-0.782-0.452-1.568-0.663-2.358
		c-1.12-4.191-1.966-8.494-2.512-12.89c-0.179-1.44-0.326-2.89-0.441-4.349c-0.069-0.884-0.129-1.771-0.174-2.662
		c-0.083-1.636-0.125-3.283-0.125-4.94c0-0.828,0.01-1.654,0.031-2.478c1.293-51.051,42.44-92.198,93.491-93.491
		C230.346,24.01,231.172,24,232,24c53.019,0,96,42.981,96,96s-42.981,96-96,96c-0.828,0-1.654-0.01-2.478-0.031
		c-4.117-0.104-8.17-0.468-12.142-1.075c-1.437-0.22-2.861-0.475-4.277-0.758c-0.32-0.064-0.64-0.13-0.959-0.197
		c-1.199-0.252-2.39-0.527-3.573-0.824c-2.094-0.525-4.161-1.121-6.198-1.781c-3.052-0.989-6.036-2.127-8.946-3.405
		c-0.645-0.283-1.285-0.573-1.923-0.87c-1.711-0.797-3.396-1.639-5.05-2.532c-0.215-0.116-0.429-0.235-0.643-0.353
		c-1.004-0.552-1.996-1.122-2.977-1.709c-0.468-0.28-0.934-0.564-1.397-0.852c-1.453-0.902-2.879-1.841-4.279-2.817
		c-0.412-0.287-0.821-0.576-1.228-0.869C162.39,188.167,151.492,174.967,144.525,159.603z"/>
	<path style="fill:#B9EBFF;" d="M212.145,213.939c-1.199-0.252-2.39-0.527-3.573-0.824
		C209.755,213.412,210.945,213.687,212.145,213.939z"/>
	<path style="fill:#B9EBFF;" d="M191.506,207.059c-1.711-0.797-3.396-1.639-5.05-2.532
		C188.11,205.42,189.795,206.262,191.506,207.059z"/>
	<path style="fill:#B9EBFF;" d="M202.375,211.334c-3.052-0.989-6.036-2.127-8.946-3.405
		C196.338,209.207,199.323,210.345,202.375,211.334z"/>
	<path style="fill:#B9EBFF;" d="M217.38,214.894c-1.437-0.22-2.861-0.475-4.277-0.758
		C214.519,214.419,215.943,214.674,217.38,214.894z"/>
	<path style="fill:#B9EBFF;" d="M136.299,127.602c-0.069-0.884-0.129-1.771-0.174-2.662
		C136.17,125.831,136.23,126.718,136.299,127.602z"/>
	<path style="fill:#B9EBFF;" d="M185.813,204.174c-1.004-0.552-1.996-1.122-2.977-1.709
		C183.817,203.052,184.809,203.622,185.813,204.174z"/>
	<path style="fill:#B9EBFF;" d="M144.525,159.603c6.967,15.364,17.865,28.564,31.407,38.325
		C162.39,188.167,151.492,174.967,144.525,159.603z"/>
	<path style="fill:#B9EBFF;" d="M168,120c0,47.555,34.614,86.929,80,94.561c-5.214,0.877-10.536,1.439-16,1.439
		c53.019,0,96-42.981,96-96s-42.981-96-96-96c5.464,0,10.786,0.563,16,1.439C202.614,33.071,168,72.444,168,120z M288,84
		c0,15.464-12.536,28-28,28s-28-12.536-28-28s12.536-28,28-28S288,68.536,288,84z"/>
	<path style="fill:#B9EBFF;" d="M181.439,201.614c-1.453-0.902-2.879-1.841-4.279-2.817
		C178.56,199.773,179.986,200.712,181.439,201.614z"/>
	<path style="fill:#B9EBFF;" d="M139.252,144.841c-1.12-4.191-1.966-8.494-2.512-12.89
		C137.286,136.348,138.132,140.65,139.252,144.841z"/>
	<path style="fill:#B9EBFF;" d="M144.363,159.24c-1.741-3.883-3.229-7.905-4.448-12.041
		C141.135,151.335,142.622,155.357,144.363,159.24z"/>
	<path style="fill:#98D2EB;" d="M181.439,201.614c0.463,0.288,0.929,0.572,1.397,0.852c0.981,0.586,1.973,1.157,2.977,1.709
		c0.214,0.118,0.428,0.236,0.643,0.353c1.654,0.893,3.34,1.735,5.05,2.532c0.637,0.297,1.278,0.587,1.923,0.87
		c2.909,1.278,5.894,2.416,8.946,3.405c2.037,0.66,4.103,1.256,6.198,1.781c1.182,0.297,2.373,0.572,3.573,0.824
		c0.319,0.067,0.639,0.133,0.959,0.197c1.415,0.283,2.84,0.538,4.277,0.758c3.972,0.607,8.025,0.97,12.142,1.075
		C230.346,215.99,231.172,216,232,216c5.464,0,10.786-0.563,16-1.439c-45.386-7.632-80-47.005-80-94.561
		c0-47.556,34.614-86.929,80-94.561C242.786,24.563,237.464,24,232,24c-0.828,0-1.654,0.01-2.478,0.031
		c-51.051,1.293-92.198,42.44-93.491,93.491C136.01,118.346,136,119.172,136,120c0,1.657,0.042,3.304,0.125,4.94
		c0.045,0.891,0.105,1.778,0.174,2.662c0.114,1.459,0.262,2.909,0.441,4.349c0.546,4.396,1.393,8.699,2.512,12.89
		c0.211,0.79,0.432,1.576,0.663,2.358c1.22,4.136,2.707,8.158,4.448,12.041c0.054,0.121,0.107,0.242,0.162,0.363
		c6.967,15.364,17.865,28.564,31.407,38.325c0.407,0.293,0.817,0.582,1.228,0.869C178.56,199.773,179.986,200.712,181.439,201.614z"
		/>
	<circle style="fill:#FFFFFF;" cx="260" cy="84" r="28"/>
	<path style="fill:#707384;" d="M208.325,451.225c-0.213-1.042-0.325-2.12-0.325-3.225C208,449.105,208.112,450.183,208.325,451.225
		z"/>
	<path style="fill:#707384;" d="M208.528,283.987c0.09-0.348,0.184-0.694,0.297-1.033
		C208.712,283.292,208.618,283.638,208.528,283.987z"/>
	<path style="fill:#707384;" d="M224,464c-1.104,0-2.183-0.112-3.225-0.325C221.817,463.888,222.896,464,224,464z"/>
	<path style="fill:#707384;" d="M218.704,272.916c0.674-0.237,1.36-0.446,2.071-0.591
		C220.064,272.471,219.378,272.68,218.704,272.916z"/>
	<path style="fill:#707384;" d="M208.325,451.225c1.279,6.249,6.201,11.172,12.45,12.45
		C214.526,462.396,209.604,457.474,208.325,451.225z"/>
	<path style="fill:#707384;" d="M232,288v160c0,7.447,5.111,13.65,12,15.434c-0.913,0.237-1.848,0.418-2.81,0.506
		c8.279-0.611,14.81-7.505,14.81-15.94V288c0-8.434-6.531-15.328-14.809-15.94c0.962,0.088,1.896,0.269,2.809,0.506
		C237.111,274.35,232,280.553,232,288z"/>
	<path style="fill:#707384;" d="M220.775,272.325c1.042-0.213,2.12-0.325,3.225-0.325C222.896,272,221.817,272.112,220.775,272.325z
		"/>
	<path style="fill:#5B5C6C;" d="M224,272c-1.104,0-2.183,0.112-3.225,0.325c-0.711,0.146-1.398,0.355-2.071,0.591
		c-4.654,1.635-8.32,5.348-9.879,10.037c-0.113,0.339-0.207,0.685-0.297,1.033C208.195,285.272,208,286.611,208,288v160
		c0,1.105,0.112,2.183,0.325,3.225c1.279,6.249,6.201,11.172,12.45,12.45c1.042,0.213,2.12,0.325,3.225,0.325h16
		c0.402,0,0.798-0.024,1.19-0.06c0.962-0.088,1.896-0.269,2.81-0.506c-6.889-1.784-12-7.987-12-15.434V288
		c0-7.447,5.111-13.65,12-15.434c-0.913-0.237-1.847-0.418-2.809-0.506c-0.392-0.036-0.788-0.06-1.191-0.06H224z"/>
</g>
<g>
</g>
<g>
</g>
<g>
</g>
<g>
</g>
<g>
</g>
<g>
</g>
<g>
</g>
<g>
</g>
<g>
</g>
<g>
</g>
<g>
</g>
<g>
</g>
<g>
</g>
<g>
</g>
<g>
</g>
</svg>
