<?xml version="1.0" encoding="iso-8859-1"?>
<!-- Generator: Adobe Illustrator 19.0.0, SVG Export Plug-In . SVG Version: 6.00 Build 0)  -->
<svg version="1.1" id="Capa_1" xmlns="http://www.w3.org/2000/svg" xmlns:xlink="http://www.w3.org/1999/xlink" x="0px" y="0px"
	 viewBox="0 0 469.125 469.125" style="enable-background:new 0 0 469.125 469.125;" xml:space="preserve">
<g>
	<path style="fill:#FF6469;" d="M195.75,217.156c-3.812-2.139-5.197-6.919-3.14-10.757l-21.003-11.668
		c-1.488,2.497-4.133,3.91-6.868,3.91c-1.32,0-2.664-0.328-3.898-1.016l-34.906-19.531c-3.741-2.1-5.14-6.741-3.247-10.541
		l-21.025-11.681c-1.509,2.367-4.077,3.706-6.735,3.706c-1.32,0-2.664-0.328-3.898-1.016l-31.294-17.51v195.494l166.999-102.055
		L195.75,217.156z"/>
	<path style="fill:#B4E173;" d="M374.199,159.578c-2.658,0-5.226-1.339-6.735-3.706l-21.025,11.681
		c1.893,3.8,0.494,8.441-3.247,10.541l-34.906,19.531c-1.234,0.688-2.578,1.016-3.898,1.016c-2.735,0-5.38-1.413-6.868-3.91
		l-21.003,11.668c2.056,3.838,0.671,8.618-3.14,10.757l-30.982,17.335l166.998,102.055V141.052l-31.294,17.51
		C376.863,159.25,375.52,159.578,374.199,159.578z"/>
	<path style="fill:#FFCD73;" d="M101.914,155.484c-0.077,0.137-0.17,0.257-0.253,0.388l21.025,11.681
		c0.058-0.116,0.109-0.235,0.173-0.35c2.152-3.852,7.031-5.234,10.887-3.078l34.906,19.531c3.855,2.164,5.234,7.031,3.074,10.891
		c-0.036,0.065-0.082,0.12-0.12,0.184l21.003,11.668c0.024-0.044,0.042-0.09,0.066-0.134c2.148-3.852,7.02-5.234,10.887-3.078
		l31,17.346V35.451L68.581,127.663l30.258,16.931C102.695,146.758,104.074,151.625,101.914,155.484z"/>
	<path style="fill:#D75055;" d="M234.563,413.125v-24c-4.418,0-8-3.578-8-8v-40c0-4.422,3.582-8,8-8v-24c-4.418,0-8-3.578-8-8v-40
		c0-4.422,3.582-8,8-8v-15.422c-0.003,0-0.005,0-0.008,0c-0.341,0-0.684-0.024-1.025-0.068c-0.024-0.003-0.048-0.01-0.072-0.014
		c-0.315-0.044-0.63-0.104-0.941-0.187c-0.059-0.016-0.115-0.04-0.173-0.057c-0.271-0.078-0.54-0.164-0.806-0.272
		c-0.084-0.034-0.164-0.08-0.247-0.117c-0.213-0.095-0.427-0.186-0.634-0.301l-3.924-2.196L59.733,336.546l166.829,92.683v-8.104
		C226.563,416.703,230.145,413.125,234.563,413.125z"/>
	<path style="fill:#A0C869;" d="M238.469,236.688c-0.207,0.115-0.421,0.206-0.634,0.301c-0.083,0.037-0.162,0.083-0.247,0.117
		c-0.265,0.108-0.535,0.194-0.806,0.272c-0.058,0.017-0.115,0.041-0.173,0.057c-0.312,0.083-0.626,0.143-0.941,0.187
		c-0.024,0.003-0.048,0.01-0.072,0.014c-0.342,0.044-0.684,0.068-1.025,0.068c-0.003,0-0.005,0-0.008,0v15.422c4.418,0,8,3.578,8,8
		v40c0,4.422-3.582,8-8,8v24c4.418,0,8,3.578,8,8v40c0,4.422-3.582,8-8,8v24c4.418,0,8,3.578,8,8v8.104l166.829-92.683
		L242.393,234.492L238.469,236.688z"/>
	<path style="fill:#FFB969;" d="M265.563,203.188c3.863-2.148,8.73-0.773,10.887,3.078c0.025,0.044,0.042,0.089,0.066,0.134
		l21.003-11.668c-0.038-0.063-0.084-0.119-0.12-0.184c-2.16-3.859-0.781-8.727,3.074-10.891l34.906-19.531
		c3.855-2.148,8.727-0.766,10.887,3.078c0.064,0.115,0.115,0.233,0.173,0.35l21.025-11.681c-0.083-0.13-0.177-0.251-0.253-0.388
		c-2.16-3.859-0.781-8.727,3.074-10.891l30.258-16.931L234.563,35.451v185.082L265.563,203.188z"/>
	<path style="fill:#BEC8DC;" d="M220.961,24.703l13.602-7.555l13.602,7.555c1.23,0.688,2.563,1.008,3.875,1.008
		c2.813,0,5.539-1.484,7-4.117c2.148-3.859,0.754-8.734-3.109-10.875l-17.484-9.711c-2.414-1.344-5.352-1.344-7.766,0l-17.484,9.711
		c-3.863,2.141-5.258,7.016-3.109,10.875C212.227,25.461,217.098,26.867,220.961,24.703z"/>
	<path style="fill:#BEC8DC;" d="M151.543,62.125c1.313,0,2.648-0.32,3.879-1.008l32.773-18.211
		c3.859-2.148,5.254-7.016,3.105-10.875c-2.141-3.859-7.008-5.266-10.879-3.109l-32.773,18.211
		c-3.859,2.148-5.254,7.016-3.105,10.875C146.004,60.641,148.73,62.125,151.543,62.125z"/>
	<path style="fill:#BEC8DC;" d="M86,98.539c1.313,0,2.648-0.32,3.879-1.008l32.773-18.211c3.859-2.148,5.254-7.016,3.105-10.875
		c-2.145-3.859-7.008-5.266-10.879-3.109L82.105,83.547c-3.859,2.148-5.254,7.016-3.105,10.875
		C80.461,97.055,83.188,98.539,86,98.539z"/>
	<path style="fill:#BEC8DC;" d="M35.734,146.453c4.418,0,8-3.578,8-8v-15.289l13.367-7.43c3.859-2.141,5.254-7.016,3.105-10.875
		c-2.141-3.859-7.016-5.266-10.879-3.109l-17.48,9.711c-2.539,1.406-4.113,4.086-4.113,6.992v20
		C27.734,142.875,31.316,146.453,35.734,146.453z"/>
	<path style="fill:#BEC8DC;" d="M35.734,300.227c4.418,0,8-3.578,8-8v-38.445c0-4.422-3.582-8-8-8s-8,3.578-8,8v38.445
		C27.734,296.648,31.316,300.227,35.734,300.227z"/>
	<path style="fill:#BEC8DC;" d="M35.734,223.344c4.418,0,8-3.578,8-8v-38.445c0-4.422-3.582-8-8-8s-8,3.578-8,8v38.445
		C27.734,219.766,31.316,223.344,35.734,223.344z"/>
	<path style="fill:#BEC8DC;" d="M57.102,353.391l-13.367-7.43v-15.297c0-4.422-3.582-8-8-8s-8,3.578-8,8v20
		c0,2.906,1.574,5.578,4.113,6.992l17.48,9.719c1.23,0.688,2.563,1.008,3.879,1.008c2.813,0,5.539-1.484,7-4.109
		C62.355,360.406,60.965,355.539,57.102,353.391z"/>
	<path style="fill:#BEC8DC;" d="M188.191,426.219l-32.773-18.211c-3.867-2.156-8.73-0.75-10.879,3.109s-0.754,8.727,3.105,10.875
		l32.773,18.211c1.23,0.688,2.566,1.008,3.879,1.008c2.813,0,5.539-1.484,7-4.117C193.445,433.234,192.051,428.367,188.191,426.219z
		"/>
	<path style="fill:#BEC8DC;" d="M122.648,389.805l-32.773-18.211c-3.867-2.156-8.738-0.75-10.879,3.109
		c-2.148,3.859-0.754,8.727,3.105,10.875l32.773,18.211c1.23,0.688,2.566,1.008,3.879,1.008c2.813,0,5.539-1.484,7-4.117
		C127.902,396.82,126.508,391.953,122.648,389.805z"/>
	<path style="fill:#BEC8DC;" d="M248.164,444.422l-13.602,7.555l-13.602-7.555c-3.863-2.156-8.734-0.75-10.875,3.109
		c-2.148,3.859-0.754,8.734,3.109,10.875l17.484,9.711c1.207,0.672,2.543,1.008,3.883,1.008s2.676-0.336,3.883-1.008l17.484-9.711
		c3.863-2.141,5.258-7.016,3.109-10.875S252.027,442.266,248.164,444.422z"/>
	<path style="fill:#BEC8DC;" d="M379.246,371.594l-32.77,18.211c-3.863,2.148-5.254,7.016-3.105,10.875
		c1.461,2.633,4.188,4.117,7,4.117c1.313,0,2.648-0.32,3.879-1.008l32.77-18.211c3.863-2.148,5.254-7.016,3.105-10.875
		C387.98,370.844,383.117,369.438,379.246,371.594z"/>
	<path style="fill:#BEC8DC;" d="M313.703,408.008l-32.773,18.211c-3.859,2.148-5.254,7.016-3.105,10.875
		c1.461,2.633,4.188,4.117,7,4.117c1.313,0,2.648-0.32,3.879-1.008l32.773-18.211c3.859-2.148,5.254-7.016,3.105-10.875
		C322.441,407.258,317.57,405.852,313.703,408.008z"/>
	<path style="fill:#BEC8DC;" d="M433.391,322.664c-4.418,0-8,3.578-8,8v15.297l-13.367,7.43c-3.863,2.148-5.254,7.016-3.105,10.883
		c1.461,2.625,4.188,4.109,7,4.109c1.316,0,2.648-0.32,3.879-1.008l17.48-9.719c2.539-1.414,4.113-4.086,4.113-6.992v-20
		C441.391,326.242,437.809,322.664,433.391,322.664z"/>
	<path style="fill:#BEC8DC;" d="M433.391,168.898c-4.418,0-8,3.578-8,8v38.445c0,4.422,3.582,8,8,8s8-3.578,8-8v-38.445
		C441.391,172.477,437.809,168.898,433.391,168.898z"/>
	<path style="fill:#BEC8DC;" d="M433.391,245.781c-4.418,0-8,3.578-8,8v38.445c0,4.422,3.582,8,8,8s8-3.578,8-8v-38.445
		C441.391,249.359,437.809,245.781,433.391,245.781z"/>
	<path style="fill:#BEC8DC;" d="M437.277,111.461l-17.48-9.711c-3.863-2.156-8.734-0.75-10.879,3.109
		c-2.148,3.859-0.754,8.734,3.105,10.875l13.367,7.43v15.289c0,4.422,3.582,8,8,8s8-3.578,8-8v-20
		C441.391,115.547,439.816,112.867,437.277,111.461z"/>
	<path style="fill:#BEC8DC;" d="M280.934,42.906l32.773,18.211c1.23,0.688,2.566,1.008,3.879,1.008c2.813,0,5.539-1.484,7-4.117
		c2.148-3.859,0.754-8.727-3.105-10.875l-32.773-18.211c-3.867-2.156-8.738-0.75-10.879,3.109
		C275.68,35.891,277.074,40.758,280.934,42.906z"/>
	<path style="fill:#BEC8DC;" d="M346.477,79.32l32.773,18.211c1.23,0.688,2.566,1.008,3.879,1.008c2.813,0,5.539-1.484,7-4.117
		c2.148-3.859,0.754-8.727-3.105-10.875L354.25,65.336c-3.863-2.156-8.738-0.75-10.879,3.109
		C341.223,72.305,342.617,77.172,346.477,79.32z"/>
	<path style="fill:#FFFFFF;" d="M53.047,128.141c-2.16,3.859-0.781,8.727,3.074,10.891l3.612,2.021l31.294,17.51
		c1.234,0.688,2.578,1.016,3.898,1.016c2.658,0,5.226-1.339,6.735-3.706c0.083-0.13,0.177-0.251,0.253-0.388
		c2.16-3.859,0.781-8.727-3.074-10.891l-30.258-16.931l-4.648-2.601C60.07,122.914,55.195,124.289,53.047,128.141z"/>
	<path style="fill:#FFFFFF;" d="M125.934,178.094l34.906,19.531c1.234,0.688,2.578,1.016,3.898,1.016c2.735,0,5.38-1.413,6.868-3.91
		c0.038-0.063,0.084-0.119,0.12-0.184c2.16-3.859,0.781-8.727-3.074-10.891l-34.906-19.531c-3.855-2.156-8.734-0.773-10.887,3.078
		c-0.064,0.115-0.115,0.233-0.173,0.35C120.794,171.353,122.193,175.994,125.934,178.094z"/>
	<path style="fill:#FFFFFF;" d="M195.75,217.156l30.982,17.335l3.924,2.196c0.207,0.115,0.421,0.206,0.634,0.301
		c0.083,0.037,0.162,0.083,0.247,0.117c0.265,0.108,0.535,0.194,0.806,0.272c0.058,0.017,0.115,0.041,0.173,0.057
		c0.312,0.083,0.626,0.143,0.941,0.187c0.024,0.003,0.048,0.01,0.072,0.014c0.342,0.044,0.684,0.068,1.025,0.068
		c0.003,0,0.005,0,0.008,0s0.005,0,0.008,0c0.341,0,0.684-0.024,1.025-0.068c0.024-0.003,0.048-0.01,0.072-0.014
		c0.315-0.044,0.63-0.104,0.941-0.187c0.059-0.016,0.115-0.04,0.173-0.057c0.271-0.078,0.54-0.164,0.806-0.272
		c0.084-0.034,0.164-0.08,0.247-0.117c0.213-0.095,0.427-0.186,0.634-0.301l3.924-2.196l30.982-17.335
		c3.812-2.139,5.197-6.919,3.14-10.757c-0.024-0.044-0.042-0.09-0.066-0.134c-2.156-3.852-7.023-5.227-10.887-3.078l-31,17.346
		l-31-17.346c-3.867-2.156-8.738-0.773-10.887,3.078c-0.025,0.044-0.042,0.089-0.066,0.134
		C190.553,210.237,191.938,215.017,195.75,217.156z"/>
	<path style="fill:#FFFFFF;" d="M304.387,198.641c1.32,0,2.664-0.328,3.898-1.016l34.906-19.531c3.741-2.1,5.14-6.741,3.247-10.541
		c-0.058-0.116-0.109-0.235-0.173-0.35c-2.16-3.844-7.031-5.227-10.887-3.078l-34.906,19.531c-3.855,2.164-5.234,7.031-3.074,10.891
		c0.036,0.065,0.082,0.12,0.12,0.184C299.007,197.228,301.651,198.641,304.387,198.641z"/>
	<path style="fill:#FFFFFF;" d="M367.211,155.484c0.077,0.137,0.17,0.257,0.253,0.388c1.509,2.367,4.077,3.706,6.735,3.706
		c1.32,0,2.664-0.328,3.898-1.016l31.294-17.51l3.612-2.021c3.855-2.164,5.234-7.031,3.074-10.891
		c-2.156-3.852-7.027-5.219-10.887-3.078l-4.648,2.601l-30.258,16.931C366.43,146.758,365.051,151.625,367.211,155.484z"/>
	<path style="fill:#FFFFFF;" d="M226.563,261.125v40c0,4.422,3.582,8,8,8s8-3.578,8-8v-40c0-4.422-3.582-8-8-8
		S226.563,256.703,226.563,261.125z"/>
	<path style="fill:#FFFFFF;" d="M226.563,341.125v40c0,4.422,3.582,8,8,8s8-3.578,8-8v-40c0-4.422-3.582-8-8-8
		S226.563,336.703,226.563,341.125z"/>
	<path style="fill:#FFFFFF;" d="M234.563,413.125c-4.418,0-8,3.578-8,8v8.104v1.895c0,4.422,3.582,8,8,8s8-3.578,8-8v-1.895v-8.104
		C242.563,416.703,238.98,413.125,234.563,413.125z"/>
</g>
<g>
</g>
<g>
</g>
<g>
</g>
<g>
</g>
<g>
</g>
<g>
</g>
<g>
</g>
<g>
</g>
<g>
</g>
<g>
</g>
<g>
</g>
<g>
</g>
<g>
</g>
<g>
</g>
<g>
</g>
</svg>
