<?xml version="1.0" encoding="iso-8859-1"?>
<!-- Generator: Adobe Illustrator 19.0.0, SVG Export Plug-In . SVG Version: 6.00 Build 0)  -->
<svg version="1.1" id="Capa_1" xmlns="http://www.w3.org/2000/svg" xmlns:xlink="http://www.w3.org/1999/xlink" x="0px" y="0px"
	 viewBox="0 0 464 464" style="enable-background:new 0 0 464 464;" xml:space="preserve">
<g>
	<path style="fill:#464655;" d="M448,36H16C7.163,36,0,43.164,0,52v256h464V52C464,43.164,456.837,36,448,36z M440,108v176H24V108
		V60h416V108z"/>
	<path style="fill:#FFFFFF;" d="M24,284h416V108H24V284z M352,148v-8c0-4.418,3.582-8,8-8h48c4.418,0,8,3.582,8,8v8v104
		c0,4.418-3.582,8-8,8h-48c-4.418,0-8-3.582-8-8V148z M264,148v-8c0-4.418,3.582-8,8-8h48c4.418,0,8,3.582,8,8v8v104
		c0,4.418-3.582,8-8,8h-48c-4.418,0-8-3.582-8-8V148z M176,148v-8c0-4.418,3.582-8,8-8h48c4.418,0,8,3.582,8,8v8v104
		c0,4.418-3.582,8-8,8h-48c-4.418,0-8-3.582-8-8V148z M48,148v-8c0-4.418,3.582-8,8-8h88c4.418,0,8,3.582,8,8v8v104
		c0,4.418-3.582,8-8,8H56c-4.418,0-8-3.582-8-8V148z"/>
	<path style="fill:#BEC8DC;" d="M0,340c0,8.836,7.163,16,16,16h152h128h152c8.837,0,16-7.164,16-16v-32H0V340z M232,320
		c6.627,0,12,5.373,12,12s-5.373,12-12,12c-6.627,0-12-5.373-12-12S225.373,320,232,320z"/>
	<polygon style="fill:#AFBBD0;" points="161,412 303,412 298,372 166,372 	"/>
	<path style="fill:#BEC8DC;" d="M160,412c-4.418,0-8,3.582-8,8s3.582,8,8,8h144c4.418,0,8-3.582,8-8s-3.582-8-8-8h-1H161H160z"/>
	<polygon style="fill:#96A5B9;" points="166,372 298,372 296,356 168,356 	"/>
	<path style="fill:#FF6469;" d="M24,108h416V60H24V108z M384,76h32c4.418,0,8,3.582,8,8s-3.582,8-8,8h-32c-4.418,0-8-3.582-8-8
		S379.582,76,384,76z M320,76h32c4.418,0,8,3.582,8,8s-3.582,8-8,8h-32c-4.418,0-8-3.582-8-8S315.582,76,320,76z M256,76h32
		c4.418,0,8,3.582,8,8s-3.582,8-8,8h-32c-4.418,0-8-3.582-8-8S251.582,76,256,76z M192,76h32c4.418,0,8,3.582,8,8s-3.582,8-8,8h-32
		c-4.418,0-8-3.582-8-8S187.582,76,192,76z M128,76h32c4.418,0,8,3.582,8,8s-3.582,8-8,8h-32c-4.418,0-8-3.582-8-8
		S123.582,76,128,76z M48,76h48c4.418,0,8,3.582,8,8s-3.582,8-8,8H48c-4.418,0-8-3.582-8-8S43.582,76,48,76z"/>
	<path style="fill:#FFDC69;" d="M48,92h48c4.418,0,8-3.582,8-8s-3.582-8-8-8H48c-4.418,0-8,3.582-8,8S43.582,92,48,92z"/>
	<path style="fill:#D2555F;" d="M128,92h32c4.418,0,8-3.582,8-8s-3.582-8-8-8h-32c-4.418,0-8,3.582-8,8S123.582,92,128,92z"/>
	<path style="fill:#D2555F;" d="M192,92h32c4.418,0,8-3.582,8-8s-3.582-8-8-8h-32c-4.418,0-8,3.582-8,8S187.582,92,192,92z"/>
	<path style="fill:#D2555F;" d="M256,92h32c4.418,0,8-3.582,8-8s-3.582-8-8-8h-32c-4.418,0-8,3.582-8,8S251.582,92,256,92z"/>
	<path style="fill:#D2555F;" d="M320,92h32c4.418,0,8-3.582,8-8s-3.582-8-8-8h-32c-4.418,0-8,3.582-8,8S315.582,92,320,92z"/>
	<path style="fill:#D2555F;" d="M384,92h32c4.418,0,8-3.582,8-8s-3.582-8-8-8h-32c-4.418,0-8,3.582-8,8S379.582,92,384,92z"/>
	<path style="fill:#DEE3ED;" d="M56,260h88c4.418,0,8-3.582,8-8V148c0,4.418-3.582,8-8,8H56c-4.418,0-8-3.582-8-8v104
		C48,256.418,51.582,260,56,260z"/>
	<path style="fill:#DEE3ED;" d="M184,260h48c4.418,0,8-3.582,8-8V148c0,4.418-3.582,8-8,8h-48c-4.418,0-8-3.582-8-8v104
		C176,256.418,179.582,260,184,260z"/>
	<path style="fill:#DEE3ED;" d="M272,260h48c4.418,0,8-3.582,8-8V148c0,4.418-3.582,8-8,8h-48c-4.418,0-8-3.582-8-8v104
		C264,256.418,267.582,260,272,260z"/>
	<path style="fill:#DEE3ED;" d="M360,260h48c4.418,0,8-3.582,8-8V148c0,4.418-3.582,8-8,8h-48c-4.418,0-8-3.582-8-8v104
		C352,256.418,355.582,260,360,260z"/>
	<path style="fill:#FFDC69;" d="M56,156h88c4.418,0,8-3.582,8-8v-8c0-4.418-3.582-8-8-8H56c-4.418,0-8,3.582-8,8v8
		C48,152.418,51.582,156,56,156z"/>
	<path style="fill:#B4E173;" d="M184,156h48c4.418,0,8-3.582,8-8v-8c0-4.418-3.582-8-8-8h-48c-4.418,0-8,3.582-8,8v8
		C176,152.418,179.582,156,184,156z"/>
	<path style="fill:#FF969B;" d="M272,156h48c4.418,0,8-3.582,8-8v-8c0-4.418-3.582-8-8-8h-48c-4.418,0-8,3.582-8,8v8
		C264,152.418,267.582,156,272,156z"/>
	<path style="fill:#A0DCF0;" d="M360,156h48c4.418,0,8-3.582,8-8v-8c0-4.418-3.582-8-8-8h-48c-4.418,0-8,3.582-8,8v8
		C352,152.418,355.582,156,360,156z"/>
	<circle style="fill:#96A5B9;" cx="232" cy="332" r="12"/>
</g>
<g>
</g>
<g>
</g>
<g>
</g>
<g>
</g>
<g>
</g>
<g>
</g>
<g>
</g>
<g>
</g>
<g>
</g>
<g>
</g>
<g>
</g>
<g>
</g>
<g>
</g>
<g>
</g>
<g>
</g>
</svg>
