<?xml version="1.0" encoding="iso-8859-1"?>
<!-- Generator: Adobe Illustrator 19.0.0, SVG Export Plug-In . SVG Version: 6.00 Build 0)  -->
<svg version="1.1" id="Capa_1" xmlns="http://www.w3.org/2000/svg" xmlns:xlink="http://www.w3.org/1999/xlink" x="0px" y="0px"
	 viewBox="0 0 464 464" style="enable-background:new 0 0 464 464;" xml:space="preserve">
<g>
	<path style="fill:#FFDC69;" d="M231.565,303.989c-0.466-0.006-0.931-0.018-1.392-0.044
		C230.634,303.971,231.099,303.983,231.565,303.989z"/>
	<path style="fill:#FFDC69;" d="M229.552,303.897c-0.378-0.029-0.755-0.06-1.129-0.101
		C228.797,303.838,229.174,303.869,229.552,303.897z"/>
	<path style="fill:#FFDC69;" d="M209.195,294.441c-0.332-0.337-0.658-0.681-0.975-1.033
		C208.536,293.76,208.863,294.103,209.195,294.441z"/>
	<path style="fill:#FFDC69;" d="M203.203,285.967c-0.243-0.5-0.476-1.007-0.693-1.522
		C202.728,284.959,202.96,285.466,203.203,285.967z"/>
	<path style="fill:#FFDC69;" d="M202.455,284.304c-0.196-0.47-0.381-0.945-0.555-1.425
		C202.073,283.359,202.259,283.834,202.455,284.304z"/>
	<path style="fill:#FFDC69;" d="M203.974,287.448c-0.184-0.333-0.359-0.673-0.531-1.013
		C203.616,286.775,203.79,287.115,203.974,287.448z"/>
	<path style="fill:#FFDC69;" d="M201.718,282.34c-0.121-0.354-0.24-0.709-0.348-1.069
		C201.478,281.631,201.597,281.986,201.718,282.34z"/>
	<path style="fill:#FFDC69;" d="M227.747,303.71c-0.352-0.047-0.703-0.098-1.052-0.156
		C227.044,303.612,227.395,303.663,227.747,303.71z"/>
	<path style="fill:#FFDC69;" d="M205.744,290.283c-0.192-0.275-0.379-0.553-0.562-0.834
		C205.365,289.73,205.552,290.008,205.744,290.283z"/>
	<path style="fill:#FFDC69;" d="M204.821,288.887c-0.182-0.292-0.357-0.589-0.53-0.888
		C204.464,288.297,204.639,288.594,204.821,288.887z"/>
	<path style="fill:#FFDC69;" d="M200.435,277.243c-0.058-0.35-0.107-0.703-0.153-1.057
		C200.328,276.54,200.377,276.893,200.435,277.243z"/>
	<path style="fill:#FFDC69;" d="M200.051,273.771C200.019,273.185,200,272.594,200,272C200,272.595,200.019,273.185,200.051,273.771
		z"/>
	<path style="fill:#FFDC69;" d="M200.197,275.519c-0.043-0.39-0.074-0.782-0.102-1.176
		C200.123,274.736,200.154,275.129,200.197,275.519z"/>
	<path style="fill:#FFDC69;" d="M248,48h-8l0,182.601c0,5.703,3.051,10.951,7.992,13.798c11.556,6.66,18.568,20.267,15.132,35.195
		c-2.65,11.512-11.986,20.865-23.495,23.523c-2.608,0.603-5.18,0.885-7.685,0.88c0.019,0,0.037,0.001,0.056,0.001v112h56
		c1.633-59.595,37.922-117.858,51.194-137.245c2.969-4.337,3.642-9.825,1.777-14.74L256,40C256,44.418,252.418,48,248,48z"/>
	<path style="fill:#FFDC69;" d="M201.189,280.636c-0.094-0.336-0.185-0.673-0.268-1.013
		C201.004,279.963,201.095,280.3,201.189,280.636z"/>
	<path style="fill:#FFDC69;" d="M200.765,278.947c-0.074-0.336-0.143-0.675-0.207-1.015
		C200.622,278.272,200.691,278.611,200.765,278.947z"/>
	<path style="fill:#FFDC69;" d="M207.849,292.98c-0.238-0.274-0.475-0.549-0.703-0.831
		C207.374,292.431,207.61,292.706,207.849,292.98z"/>
	<path style="fill:#FFDC69;" d="M206.746,291.641c-0.208-0.268-0.414-0.537-0.614-0.812
		C206.332,291.104,206.538,291.373,206.746,291.641z"/>
	<path style="fill:#FFDC69;" d="M226.013,303.432c-0.345-0.065-0.687-0.137-1.028-0.213
		C225.326,303.296,225.668,303.367,226.013,303.432z"/>
	<path style="fill:#FFDC69;" d="M217.465,300.506c-0.322-0.165-0.643-0.331-0.959-0.506
		C216.822,300.174,217.143,300.341,217.465,300.506z"/>
	<path style="fill:#FFDC69;" d="M221.076,302.085c-0.529-0.192-1.052-0.397-1.567-0.616
		C220.024,301.688,220.547,301.893,221.076,302.085z"/>
	<path style="fill:#FFDC69;" d="M219.227,301.342c-0.418-0.182-0.832-0.37-1.24-0.569
		C218.394,300.972,218.809,301.16,219.227,301.342z"/>
	<path style="fill:#FFDC69;" d="M222.681,302.617c-0.394-0.12-0.784-0.251-1.172-0.386
		C221.897,302.366,222.287,302.497,222.681,302.617z"/>
	<path style="fill:#FFDC69;" d="M210.554,295.748c-0.409-0.37-0.81-0.749-1.199-1.139
		C209.744,294.999,210.145,295.378,210.554,295.748z"/>
	<path style="fill:#FFDC69;" d="M211.811,296.823c-0.302-0.246-0.597-0.501-0.891-0.758
		C211.214,296.322,211.509,296.577,211.811,296.823z"/>
	<path style="fill:#FFDC69;" d="M215.939,299.673c-0.294-0.171-0.586-0.345-0.874-0.525
		C215.353,299.328,215.645,299.502,215.939,299.673z"/>
	<path style="fill:#FFDC69;" d="M224.326,303.067c-0.352-0.087-0.7-0.182-1.048-0.28
		C223.626,302.885,223.974,302.981,224.326,303.067z"/>
	<path style="fill:#FFDC69;" d="M213.126,297.836c-0.28-0.205-0.554-0.416-0.826-0.629
		C212.572,297.42,212.846,297.631,213.126,297.836z"/>
	<path style="fill:#FFDC69;" d="M214.501,298.787c-0.281-0.184-0.559-0.373-0.835-0.566
		C213.942,298.414,214.22,298.602,214.501,298.787z"/>
	<path style="fill:#FFC85A;" d="M232,304c-0.019,0-0.037-0.001-0.056-0.001c-0.127,0-0.252-0.008-0.379-0.01
		c-0.466-0.006-0.931-0.018-1.392-0.044c-0.208-0.012-0.414-0.031-0.621-0.047c-0.378-0.029-0.755-0.06-1.129-0.101
		c-0.226-0.025-0.451-0.056-0.676-0.086c-0.352-0.047-0.703-0.098-1.052-0.156c-0.228-0.038-0.456-0.079-0.682-0.122
		c-0.345-0.065-0.687-0.137-1.028-0.213c-0.22-0.049-0.44-0.098-0.659-0.152c-0.352-0.087-0.7-0.182-1.048-0.28
		c-0.199-0.056-0.4-0.11-0.598-0.17c-0.394-0.12-0.784-0.251-1.172-0.386c-0.144-0.05-0.291-0.095-0.434-0.147
		c-0.529-0.192-1.052-0.397-1.567-0.616c-0.095-0.04-0.187-0.086-0.282-0.127c-0.418-0.182-0.832-0.37-1.24-0.569
		c-0.176-0.086-0.347-0.178-0.521-0.267c-0.322-0.165-0.643-0.331-0.959-0.506c-0.191-0.106-0.379-0.217-0.567-0.326
		c-0.294-0.171-0.586-0.345-0.874-0.525c-0.189-0.118-0.377-0.239-0.564-0.362c-0.281-0.184-0.559-0.373-0.835-0.566
		c-0.181-0.127-0.363-0.254-0.541-0.385c-0.28-0.205-0.554-0.416-0.826-0.629c-0.163-0.127-0.328-0.253-0.488-0.384
		c-0.302-0.246-0.597-0.501-0.891-0.758c-0.122-0.106-0.247-0.209-0.367-0.317c-0.409-0.37-0.81-0.749-1.199-1.139
		c-0.055-0.055-0.106-0.113-0.16-0.168c-0.332-0.338-0.658-0.681-0.975-1.033c-0.126-0.14-0.247-0.286-0.371-0.428
		c-0.238-0.274-0.475-0.549-0.703-0.831c-0.136-0.167-0.267-0.338-0.399-0.508c-0.208-0.268-0.414-0.537-0.614-0.812
		c-0.132-0.18-0.26-0.363-0.388-0.546c-0.192-0.275-0.379-0.553-0.562-0.834c-0.122-0.187-0.243-0.373-0.361-0.563
		c-0.182-0.292-0.357-0.589-0.53-0.888c-0.106-0.183-0.214-0.365-0.317-0.551c-0.184-0.333-0.359-0.673-0.531-1.013
		c-0.079-0.156-0.163-0.31-0.24-0.468c-0.243-0.5-0.476-1.007-0.693-1.522c-0.02-0.046-0.036-0.094-0.056-0.141
		c-0.196-0.47-0.381-0.945-0.555-1.425c-0.064-0.178-0.121-0.359-0.182-0.538c-0.121-0.354-0.24-0.709-0.348-1.069
		c-0.064-0.21-0.121-0.423-0.18-0.635c-0.094-0.336-0.185-0.673-0.268-1.013c-0.055-0.224-0.106-0.45-0.156-0.676
		c-0.074-0.336-0.143-0.675-0.207-1.015c-0.043-0.229-0.085-0.458-0.123-0.689c-0.058-0.35-0.107-0.703-0.153-1.057
		c-0.029-0.222-0.06-0.444-0.085-0.668c-0.043-0.39-0.074-0.782-0.102-1.176c-0.014-0.191-0.033-0.38-0.043-0.571
		C200.019,273.185,200,272.595,200,272c0-11.832,6.451-22.093,16.01-27.602c4.94-2.847,7.99-8.095,7.99-13.797L224,48h-8
		c-4.418,0-8-3.582-8-8l-84.971,224.015c-1.864,4.915-1.192,10.402,1.777,14.74C138.078,298.142,174.367,356.405,176,416h56V304z"/>
	<path style="fill:#BEC8DC;" d="M313.268,32H256v1.433C346.653,44.36,419.638,117.344,430.567,208h16.097
		C437.817,128.576,384.892,61.445,313.268,32z"/>
	<path style="fill:#BEC8DC;" d="M150.732,32C79.108,61.445,26.183,128.576,17.336,208h16.097
		C44.362,117.344,117.347,44.36,208,33.433V32H150.732z"/>
	<path style="fill:#707384;" d="M160.528,427.987c0.09-0.348,0.184-0.694,0.297-1.033
		C160.712,427.292,160.618,427.638,160.528,427.987z"/>
	<path style="fill:#707384;" d="M160.325,451.225c-0.213-1.042-0.325-2.12-0.325-3.225C160,449.104,160.112,450.183,160.325,451.225
		z"/>
	<path style="fill:#707384;" d="M216,432v16c0,8.836,7.164,16,16,16h56c8.837,0,16-7.163,16-16v-16c0-8.837-7.163-16-16-16h-56
		C223.164,416,216,423.163,216,432z"/>
	<path style="fill:#707384;" d="M172.775,416.325c1.042-0.213,2.12-0.325,3.225-0.325C174.895,416,173.817,416.112,172.775,416.325z
		"/>
	<path style="fill:#707384;" d="M170.704,416.916c0.674-0.237,1.36-0.446,2.071-0.591
		C172.064,416.471,171.378,416.68,170.704,416.916z"/>
	<path style="fill:#707384;" d="M160.325,451.225c1.279,6.249,6.201,11.172,12.45,12.45
		C166.526,462.396,161.604,457.474,160.325,451.225z"/>
	<path style="fill:#707384;" d="M176,464c-1.105,0-2.183-0.112-3.225-0.325C173.817,463.888,174.895,464,176,464z"/>
	<path style="fill:#E4EAF6;" d="M8,208c-4.418,0-8,3.582-8,8v32c0,4.418,3.582,8,8,8h32c4.418,0,8-3.582,8-8v-32
		c0-4.418-3.582-8-8-8h-6.567H17.336H8z"/>
	<path style="fill:#E4EAF6;" d="M456,208h-9.336h-16.097H424c-4.418,0-8,3.582-8,8v32c0,4.418,3.582,8,8,8h32c4.418,0,8-3.582,8-8
		v-32C464,211.582,460.418,208,456,208z"/>
	<path style="fill:#707384;" d="M313.268,32h104.104c3.295,9.32,12.18,16,22.629,16c13.255,0,24-10.745,24-24S453.255,0,440,0
		c-10.449,0-19.334,6.68-22.629,16H256V8c0-4.418-3.582-8-8-8h-32c-4.418,0-8,3.582-8,8v8H46.629C43.334,6.68,34.449,0,24,0
		C10.745,0,0,10.745,0,24s10.745,24,24,24c10.449,0,19.334-6.68,22.629-16h104.104H208v1.433V40c0,4.418,3.582,8,8,8h8h16h8
		c4.418,0,8-3.582,8-8v-6.567V32H313.268z"/>
	<path style="fill:#464655;" d="M216,448v-16c0-8.837,7.164-16,16-16h-56c-1.105,0-2.183,0.112-3.225,0.325
		c-0.711,0.146-1.398,0.355-2.071,0.591c-4.654,1.635-8.32,5.348-9.879,10.037c-0.113,0.339-0.207,0.685-0.297,1.033
		C160.195,429.271,160,430.611,160,432v16c0,1.104,0.112,2.183,0.325,3.225c1.279,6.249,6.201,11.172,12.45,12.45
		c1.042,0.213,2.12,0.325,3.225,0.325h56C223.164,464,216,456.836,216,448z"/>
</g>
<g>
</g>
<g>
</g>
<g>
</g>
<g>
</g>
<g>
</g>
<g>
</g>
<g>
</g>
<g>
</g>
<g>
</g>
<g>
</g>
<g>
</g>
<g>
</g>
<g>
</g>
<g>
</g>
<g>
</g>
</svg>
