<?xml version="1.0" encoding="iso-8859-1"?>
<!-- Generator: Adobe Illustrator 19.0.0, SVG Export Plug-In . SVG Version: 6.00 Build 0)  -->
<svg version="1.1" id="Capa_1" xmlns="http://www.w3.org/2000/svg" xmlns:xlink="http://www.w3.org/1999/xlink" x="0px" y="0px"
	 viewBox="0 0 464.152 464.152" style="enable-background:new 0 0 464.152 464.152;" xml:space="preserve">
<g>
	<rect x="176.076" y="80" style="fill:#BE3746;" width="32" height="264"/>
	<rect x="256.076" y="80" style="fill:#FF6469;" width="32" height="264"/>
	<polygon style="fill:#D75055;" points="208.076,344 232.076,344 256.076,344 256.076,80 232.076,80 208.076,80 	"/>
	<path style="fill:#FFF0BE;" d="M264.076,0h-32v56h56V24C288.076,10.745,277.331,0,264.076,0z"/>
	<path style="fill:#FFDC9B;" d="M232.076,0h-32c-2.071,0-4.081,0.262-5.998,0.756s-3.742,1.217-5.442,2.141
		c-0.68,0.369-1.34,0.771-1.979,1.202c-2.554,1.725-4.757,3.929-6.483,6.483c-0.431,0.638-0.833,1.299-1.202,1.979
		c-0.924,1.7-1.648,3.525-2.141,5.442c-0.493,1.917-0.756,3.927-0.756,5.998v32h56V0z"/>
	<path style="fill:#FFF0BE;" d="M232.076,344v64h28l-23.19,53.006c-0.917,2.097-2.864,3.145-4.81,3.145v0
		c-1.103,0-2.199-0.349-3.115-1.023c-0.7-0.515-1.297-1.214-1.695-2.123L204.076,408h0l-28-64l51.19,117.006
		c1.835,4.194,7.785,4.194,9.62,0L288.076,344h-32H232.076z"/>
	<path style="fill:#FFDC9B;" d="M232.076,464.152L232.076,464.152c-1.103,0-2.199-0.349-3.115-1.023
		C229.877,463.803,230.973,464.152,232.076,464.152z"/>
	<polygon style="fill:#FFDC9B;" points="232.076,408 232.076,344 208.076,344 176.076,344 204.076,408 	"/>
	<path style="fill:#D75055;" d="M204.076,408l23.19,53.006c0.398,0.909,0.995,1.608,1.695,2.123
		c0.916,0.674,2.012,1.023,3.115,1.023c1.946,0,3.892-1.048,4.81-3.145L260.076,408h-28H204.076L204.076,408z"/>
	<polygon style="fill:#FFAA64;" points="232.076,80 232.076,56 176.076,56 176.076,80 208.076,80 	"/>
	<polygon style="fill:#FFCD73;" points="232.076,80 256.076,80 288.076,80 288.076,56 232.076,56 	"/>
</g>
<g>
</g>
<g>
</g>
<g>
</g>
<g>
</g>
<g>
</g>
<g>
</g>
<g>
</g>
<g>
</g>
<g>
</g>
<g>
</g>
<g>
</g>
<g>
</g>
<g>
</g>
<g>
</g>
<g>
</g>
</svg>
