<?xml version="1.0" encoding="iso-8859-1"?>
<!-- Generator: Adobe Illustrator 19.0.0, SVG Export Plug-In . SVG Version: 6.00 Build 0)  -->
<svg version="1.1" id="Capa_1" xmlns="http://www.w3.org/2000/svg" xmlns:xlink="http://www.w3.org/1999/xlink" x="0px" y="0px"
	 viewBox="0 0 464 464" style="enable-background:new 0 0 464 464;" xml:space="preserve">
<g>
	<path style="fill:#FFAA64;" d="M194.704,144.916c0.674-0.237,1.36-0.446,2.071-0.591
		C196.064,144.471,195.378,144.68,194.704,144.916z"/>
	<path style="fill:#FFAA64;" d="M196.775,144.325c1.042-0.213,2.12-0.325,3.225-0.325C198.895,144,197.817,144.112,196.775,144.325z
		"/>
	<path style="fill:#FFAA64;" d="M184.528,155.987c0.09-0.348,0.184-0.694,0.297-1.033
		C184.712,155.292,184.618,155.638,184.528,155.987z"/>
	<path style="fill:#FFAA64;" d="M200,176c-1.105,0-2.183-0.112-3.225-0.325C197.817,175.888,198.895,176,200,176z"/>
	<path style="fill:#FFAA64;" d="M184,160L184,160c0,7.732,5.484,14.183,12.775,15.675C189.485,174.183,184,167.732,184,160z"/>
	<path style="fill:#FFAA64;" d="M264,144h-32c-8.836,0-16,7.163-16,16c0,8.836,7.164,16,16,16h32c8.837,0,16-7.163,16-16v0
		C280,151.163,272.837,144,264,144z"/>
	<path style="fill:#FFCD73;" d="M220.378,39.938L226.159,144H232h32l5.781-104.062c1.173-21.111-15.152-38.956-36.054-39.893
		c3.992,0.208,7.775,1.124,11.353,2.449C229.985,8.087,219.43,22.873,220.378,39.938z"/>
	<path style="fill:#FFCD73;" d="M222.197,1.28c0.74-0.198,1.492-0.367,2.25-0.52C223.69,0.914,222.938,1.082,222.197,1.28z"/>
	<path style="fill:#FFCD73;" d="M232,0L232,0c0.006,0,0.012,0,0.018,0C232.012,0,232.006,0,232,0z"/>
	<path style="fill:#FFCD73;" d="M232,0c-0.679,0-1.353,0.018-2.023,0.053C230.647,0.018,231.321,0,232,0L232,0z"/>
	<path style="fill:#FFAA64;" d="M220.378,39.938c-0.948-17.066,9.607-31.851,24.702-37.444c-3.578-1.325-7.361-2.241-11.353-2.449
		c-0.566-0.03-1.135-0.044-1.709-0.045c-0.006,0-0.012,0-0.018,0c-0.679,0-1.353,0.018-2.023,0.053
		c-1.885,0.099-3.729,0.343-5.529,0.707c-0.758,0.153-1.51,0.322-2.25,0.52c-16.864,4.507-28.995,20.357-27.979,38.658L200,144
		h26.159L220.378,39.938z"/>
	<path style="fill:#EB915F;" d="M232,176c-8.836,0-16-7.164-16-16c0-8.837,7.164-16,16-16h-5.841H200
		c-1.105,0-2.183,0.112-3.225,0.325c-0.711,0.146-1.398,0.355-2.071,0.591c-4.654,1.635-8.32,5.348-9.879,10.037
		c-0.113,0.339-0.207,0.685-0.297,1.033C184.195,157.272,184,158.611,184,160c0,7.732,5.485,14.183,12.775,15.675
		c1.042,0.213,2.12,0.325,3.225,0.325h24H232z"/>
	<path style="fill:#B9EBFF;" d="M200.325,419.225c-0.213-1.042-0.325-2.12-0.325-3.225C200,417.105,200.112,418.183,200.325,419.225
		z"/>
	<path style="fill:#B9EBFF;" d="M216,432c-1.105,0-2.183-0.112-3.225-0.325C213.817,431.888,214.895,432,216,432z"/>
	<path style="fill:#B9EBFF;" d="M200.325,419.225c1.279,6.249,6.201,11.172,12.45,12.45
		C206.526,430.396,201.604,425.474,200.325,419.225z"/>
	<path style="fill:#B9EBFF;" d="M224,416c0,8.836,7.164,16,16,16h8c8.837,0,16-7.163,16-16V192h-40V416z"/>
	<path style="fill:#98D2EB;" d="M224,176h-24v16v224c0,1.105,0.112,2.183,0.325,3.225c1.279,6.249,6.201,11.172,12.45,12.45
		c1.042,0.213,2.12,0.325,3.225,0.325v16c0,8.837,7.163,16,16,16s16-7.163,16-16v-16h-8c-8.836,0-16-7.164-16-16V192h40v-16h-32H224
		z"/>
</g>
<g>
</g>
<g>
</g>
<g>
</g>
<g>
</g>
<g>
</g>
<g>
</g>
<g>
</g>
<g>
</g>
<g>
</g>
<g>
</g>
<g>
</g>
<g>
</g>
<g>
</g>
<g>
</g>
<g>
</g>
</svg>
