<?xml version="1.0" encoding="iso-8859-1"?>
<!-- Generator: Adobe Illustrator 19.0.0, SVG Export Plug-In . SVG Version: 6.00 Build 0)  -->
<svg version="1.1" id="Capa_1" xmlns="http://www.w3.org/2000/svg" xmlns:xlink="http://www.w3.org/1999/xlink" x="0px" y="0px"
	 viewBox="0 0 464 464" style="enable-background:new 0 0 464 464;" xml:space="preserve">
<g>
	<path style="fill:#5B5C6C;" d="M176,72.813c-4.172,0.821-8.078,1.733-11.625,2.742c-1.459,0.411-2.928,0.591-4.375,0.59V108h16
		V72.813z"/>
	<path style="fill:#5B5C6C;" d="M288,72.813V108h16V76.172c-1.447-0.001-2.913-0.204-4.375-0.617
		C296.078,74.546,292.172,73.634,288,72.813z"/>
	<path style="fill:#DCB488;" d="M400,108h-96h-16H176h-16H64c0,35.346-28.654,64-64,64v192c35.346,0,64,28.654,64,64h336
		c0-35.346,28.654-64,64-64V172C428.654,172,400,143.346,400,108z M357.241,219.24l-14.949,14.949L230.676,345.805l-45.96,19.697
		l0,0l-32.698,14.014c-1.113,0.477-2.225,0.569-3.257,0.388c-2.375-0.416-4.293-2.334-4.709-4.709
		c-0.181-1.031-0.089-2.144,0.388-3.257l7.953-18.557l0,0l25.758-60.101l111.616-111.616l14.949-14.949
		c6.249-6.248,16.379-6.248,22.627,0l29.898,29.898C363.49,202.861,363.49,212.992,357.241,219.24z"/>
	<path style="fill:#C3A082;" d="M64,108H24c-2.071,0-4.081,0.262-5.998,0.756c-1.917,0.493-3.741,1.217-5.442,2.141
		c-0.68,0.369-1.34,0.771-1.979,1.202c-2.553,1.725-4.757,3.929-6.482,6.483c-0.431,0.638-0.833,1.299-1.202,1.979
		c-0.924,1.7-1.648,3.525-2.141,5.442C0.262,127.919,0,129.929,0,132v40C35.346,172,64,143.346,64,108z"/>
	<path style="fill:#C3A082;" d="M463.244,126.002c-0.493-1.917-1.217-3.742-2.141-5.442c-0.369-0.68-0.771-1.34-1.202-1.979
		c-1.725-2.554-3.929-4.757-6.482-6.483c-0.638-0.431-1.299-0.833-1.979-1.202c-1.7-0.924-3.525-1.648-5.442-2.141
		C444.081,108.262,442.071,108,440,108h-40c0,35.346,28.654,64,64,64v-40C464,129.929,463.738,127.919,463.244,126.002z"/>
	<path style="fill:#C3A082;" d="M400,428h40c2.071,0,4.081-0.262,5.998-0.756c1.917-0.493,3.741-1.217,5.442-2.141
		c0.68-0.369,1.34-0.771,1.979-1.202c2.554-1.725,4.757-3.929,6.482-6.483c0.431-0.638,0.833-1.299,1.202-1.979
		c0.924-1.7,1.648-3.525,2.141-5.442c0.493-1.917,0.756-3.927,0.756-5.998v-40C428.654,364,400,392.654,400,428z"/>
	<path style="fill:#C3A082;" d="M0,364v40c0,2.071,0.262,4.081,0.756,5.998c0.493,1.917,1.217,3.742,2.141,5.442
		c0.369,0.68,0.771,1.34,1.202,1.979c1.725,2.554,3.929,4.757,6.482,6.483c0.638,0.431,1.299,0.833,1.979,1.202
		c1.7,0.924,3.525,1.648,5.442,2.141C19.919,427.738,21.929,428,24,428h40C64,392.654,35.346,364,0,364z"/>
	<path style="fill:#707384;" d="M176,72.813C191.7,69.722,211.394,68,232,68s40.3,1.722,56,4.813
		c4.172,0.821,8.078,1.733,11.625,2.742c1.462,0.413,2.928,0.616,4.375,0.617c0.003,0,0.005,0,0.008,0
		c6.973,0,13.383-4.594,15.383-11.633c2.414-8.5-2.516-17.352-11.016-19.766C288.465,39.117,261.344,36,232,36
		s-56.465,3.117-76.375,8.773c-8.5,2.414-13.43,11.266-11.016,19.766c1.996,7.039,8.419,11.599,15.391,11.606
		c1.447,0.001,2.916-0.179,4.375-0.59C167.922,74.546,171.828,73.634,176,72.813z"/>
	
		<rect x="228.52" y="171.679" transform="matrix(0.7071 0.7071 -0.7071 0.7071 249.5752 -101.3192)" style="fill:#D75055;" width="37.141" height="157.849"/>
	
		<rect x="254.782" y="197.941" transform="matrix(-0.7071 -0.7071 0.7071 -0.7071 270.8693 665.9294)" style="fill:#FF6469;" width="37.141" height="157.849"/>
	<path style="fill:#FFF0BE;" d="M327.343,166.715l14.949,14.949l-26.263,26.263l26.263,26.263l14.949-14.949
		c6.249-6.248,6.249-16.379,0-22.627L327.343,166.715z"/>
	<path style="fill:#FFF0BE;" d="M144.052,375.195c0.416,2.375,2.334,4.293,4.709,4.709
		C146.386,379.488,144.468,377.57,144.052,375.195z"/>
	<polygon style="fill:#FFF0BE;" points="178.151,293.28 204.414,319.543 171.585,352.371 184.717,365.502 230.676,345.805 
		204.414,319.543 	"/>
	<polygon style="fill:#FFDC9B;" points="171.585,352.371 204.414,319.543 178.151,293.28 152.393,353.381 152.393,353.381 
		158.454,339.24 	"/>
	<path style="fill:#D75055;" d="M158.454,339.24l-6.061,14.141l-7.953,18.557c-0.477,1.113-0.569,2.225-0.388,3.257
		c0.416,2.375,2.334,4.293,4.709,4.709c1.031,0.181,2.144,0.089,3.257-0.388l32.698-14.014l0,0l-13.131-13.131L158.454,339.24z"/>
	<path style="fill:#FFDC9B;" d="M342.292,181.664l-14.949-14.949c-6.248-6.248-16.379-6.248-22.627,0l-14.949,14.949l26.262,26.263
		L342.292,181.664z"/>
</g>
<g>
</g>
<g>
</g>
<g>
</g>
<g>
</g>
<g>
</g>
<g>
</g>
<g>
</g>
<g>
</g>
<g>
</g>
<g>
</g>
<g>
</g>
<g>
</g>
<g>
</g>
<g>
</g>
<g>
</g>
</svg>
