<?xml version="1.0" encoding="iso-8859-1"?>
<!-- Generator: Adobe Illustrator 19.0.0, SVG Export Plug-In . SVG Version: 6.00 Build 0)  -->
<svg version="1.1" id="Capa_1" xmlns="http://www.w3.org/2000/svg" xmlns:xlink="http://www.w3.org/1999/xlink" x="0px" y="0px"
	 viewBox="0 0 464 464" style="enable-background:new 0 0 464 464;" xml:space="preserve">
<g>
	<path style="fill:#FFDC69;" d="M144,104c0-8.837,7.163-16,16-16c5.919,0,11.075,3.222,13.842,8H216V16c0-8.837-7.163-16-16-16h-80
		c-8.837,0-16,7.163-16,16v176c0,8.836,7.163,16,16,16h32v-90.158C147.222,115.074,144,109.919,144,104z"/>
	<path style="fill:#FFDC69;" d="M168,117.842V208h32c8.837,0,16-7.164,16-16v-80h-42.158
		C172.438,114.423,170.422,116.439,168,117.842z"/>
	<path style="fill:#FF6469;" d="M288,104c0-8.837,7.163-16,16-16s16,7.163,16,16c0,5.919-3.222,11.074-8,13.842V208h32
		c8.837,0,16-7.164,16-16V16c0-8.837-7.163-16-16-16h-80c-8.837,0-16,7.163-16,16v60.688l21.656,21.656
		C271.219,99.906,272,101.953,272,104s-0.781,4.094-2.344,5.656L248,131.313V192c0,8.836,7.163,16,16,16h32v-90.158
		C291.222,115.074,288,109.919,288,104z"/>
	<path style="fill:#B4E173;" d="M178.344,290.344c3.125-3.125,8.188-3.125,11.313,0s3.125,8.188,0,11.313l-23.99,23.99
		c-0.191,0.192-0.392,0.373-0.602,0.545c-0.071,0.058-0.146,0.108-0.219,0.163c-0.135,0.103-0.269,0.207-0.41,0.302
		c-0.101,0.067-0.206,0.125-0.309,0.188c-0.12,0.072-0.237,0.147-0.361,0.213c-0.11,0.059-0.224,0.109-0.337,0.162
		c-0.123,0.059-0.245,0.12-0.372,0.173c-0.112,0.046-0.226,0.083-0.339,0.124c-0.132,0.048-0.263,0.098-0.399,0.139
		c-0.115,0.035-0.233,0.061-0.35,0.09c-0.136,0.034-0.27,0.072-0.408,0.1c-0.138,0.027-0.277,0.043-0.416,0.063
		c-0.119,0.017-0.236,0.04-0.357,0.052c-0.262,0.026-0.526,0.04-0.789,0.04s-0.527-0.014-0.789-0.04
		c-0.121-0.012-0.238-0.034-0.358-0.052c-0.139-0.02-0.278-0.036-0.415-0.063c-0.139-0.027-0.273-0.065-0.409-0.1
		c-0.116-0.03-0.234-0.055-0.349-0.09c-0.136-0.041-0.267-0.092-0.399-0.14c-0.113-0.041-0.227-0.078-0.339-0.124
		c-0.127-0.053-0.249-0.114-0.373-0.173c-0.112-0.053-0.225-0.103-0.336-0.162c-0.124-0.066-0.242-0.142-0.362-0.214
		c-0.103-0.062-0.208-0.12-0.308-0.187c-0.142-0.095-0.277-0.2-0.412-0.303c-0.072-0.055-0.146-0.104-0.216-0.161
		c-0.21-0.172-0.411-0.353-0.602-0.545l-23.99-23.99c-3.125-3.125-3.125-8.188,0-11.313s8.188-3.125,11.313,0L152,300.688V256h-32
		c-8.837,0-16,7.163-16,16v176c0,8.836,7.163,16,16,16h80c8.837,0,16-7.164,16-16V272c0-8.837-7.163-16-16-16h-32v44.688
		L178.344,290.344z M160,376c-8.837,0-16-7.164-16-16c0-8.837,7.163-16,16-16s16,7.163,16,16C176,368.836,168.837,376,160,376z"/>
	<path style="fill:#A0DCF0;" d="M322.344,290.344c3.125-3.125,8.188-3.125,11.313,0s3.125,8.188,0,11.313l-23.99,23.99
		c-0.191,0.192-0.392,0.373-0.602,0.545c-0.071,0.058-0.146,0.108-0.219,0.163c-0.135,0.103-0.269,0.207-0.41,0.302
		c-0.101,0.067-0.206,0.125-0.309,0.188c-0.12,0.072-0.237,0.147-0.361,0.213c-0.11,0.059-0.224,0.109-0.337,0.162
		c-0.123,0.059-0.245,0.12-0.372,0.173c-0.112,0.046-0.226,0.083-0.339,0.124c-0.132,0.048-0.263,0.098-0.399,0.139
		c-0.115,0.035-0.233,0.061-0.35,0.09c-0.136,0.034-0.27,0.072-0.408,0.1c-0.138,0.027-0.277,0.043-0.416,0.063
		c-0.119,0.017-0.236,0.04-0.357,0.052c-0.262,0.026-0.526,0.04-0.789,0.04s-0.527-0.014-0.789-0.04
		c-0.121-0.012-0.238-0.034-0.358-0.052c-0.139-0.02-0.278-0.036-0.415-0.063c-0.139-0.027-0.273-0.065-0.409-0.1
		c-0.116-0.03-0.234-0.055-0.349-0.09c-0.136-0.041-0.267-0.092-0.399-0.14c-0.113-0.041-0.227-0.078-0.339-0.124
		c-0.127-0.053-0.249-0.114-0.373-0.173c-0.112-0.053-0.225-0.103-0.336-0.162c-0.124-0.066-0.242-0.142-0.362-0.214
		c-0.103-0.062-0.208-0.12-0.308-0.187c-0.142-0.095-0.277-0.2-0.412-0.303c-0.072-0.055-0.146-0.104-0.216-0.161
		c-0.21-0.172-0.411-0.353-0.602-0.545l-23.99-23.99c-3.125-3.125-3.125-8.188,0-11.313s8.188-3.125,11.313,0L296,300.688V256h-32
		c-8.837,0-16,7.163-16,16v176c0,8.836,7.163,16,16,16h80c8.837,0,16-7.164,16-16V272c0-8.837-7.163-16-16-16h-32v44.688
		L322.344,290.344z M304,376c-8.837,0-16-7.164-16-16c0-8.837,7.163-16,16-16s16,7.163,16,16C320,368.836,312.837,376,304,376z"/>
	<circle style="fill:#78B9C8;" cx="304" cy="360" r="16"/>
	<circle style="fill:#96B95A;" cx="160" cy="360" r="16"/>
	<path style="fill:#707384;" d="M160,120c-2.918,0-5.645-0.794-8-2.158V208v48v44.688l-10.344-10.344
		c-3.125-3.125-8.188-3.125-11.313,0s-3.125,8.188,0,11.313l23.99,23.99c0.191,0.192,0.392,0.373,0.602,0.545
		c0.07,0.058,0.144,0.107,0.216,0.161c0.135,0.104,0.27,0.208,0.412,0.303c0.101,0.067,0.205,0.125,0.308,0.187
		c0.12,0.073,0.238,0.148,0.362,0.214c0.11,0.059,0.223,0.108,0.336,0.162c0.124,0.059,0.246,0.12,0.373,0.173
		c0.111,0.046,0.225,0.083,0.339,0.124c0.133,0.048,0.264,0.099,0.399,0.14c0.115,0.035,0.232,0.06,0.349,0.09
		c0.136,0.035,0.27,0.073,0.409,0.1c0.138,0.027,0.276,0.043,0.415,0.063c0.119,0.017,0.237,0.04,0.358,0.052
		c0.262,0.026,0.526,0.04,0.789,0.04s0.527-0.014,0.789-0.04c0.121-0.012,0.238-0.034,0.357-0.052
		c0.139-0.02,0.278-0.036,0.416-0.063c0.138-0.027,0.272-0.065,0.408-0.1c0.117-0.03,0.234-0.055,0.35-0.09
		c0.135-0.041,0.266-0.092,0.399-0.139c0.113-0.041,0.227-0.078,0.339-0.124c0.127-0.052,0.248-0.114,0.372-0.173
		c0.113-0.054,0.226-0.104,0.337-0.162c0.124-0.066,0.241-0.141,0.361-0.213c0.103-0.063,0.208-0.121,0.309-0.188
		c0.141-0.094,0.275-0.198,0.41-0.302c0.073-0.055,0.148-0.105,0.219-0.163c0.21-0.172,0.411-0.353,0.602-0.545l23.99-23.99
		c3.125-3.125,3.125-8.188,0-11.313s-8.188-3.125-11.313,0L168,300.688V256v-48v-90.158C165.645,119.206,162.918,120,160,120z"/>
	<path style="fill:#707384;" d="M312,117.842c-2.355,1.365-5.082,2.158-8,2.158s-5.645-0.794-8-2.158V208v48v44.688l-10.344-10.344
		c-3.125-3.125-8.188-3.125-11.313,0s-3.125,8.188,0,11.313l23.99,23.99c0.191,0.192,0.392,0.373,0.602,0.545
		c0.07,0.058,0.144,0.107,0.216,0.161c0.135,0.104,0.27,0.208,0.412,0.303c0.101,0.067,0.205,0.125,0.308,0.187
		c0.12,0.073,0.238,0.148,0.362,0.214c0.11,0.059,0.223,0.108,0.336,0.162c0.124,0.059,0.246,0.12,0.373,0.173
		c0.111,0.046,0.225,0.083,0.339,0.124c0.133,0.048,0.264,0.099,0.399,0.14c0.115,0.035,0.232,0.06,0.349,0.09
		c0.136,0.035,0.27,0.073,0.409,0.1c0.138,0.027,0.276,0.043,0.415,0.063c0.119,0.017,0.237,0.04,0.358,0.052
		c0.262,0.026,0.526,0.04,0.789,0.04s0.527-0.014,0.789-0.04c0.121-0.012,0.238-0.034,0.357-0.052
		c0.139-0.02,0.278-0.036,0.416-0.063c0.138-0.027,0.272-0.065,0.408-0.1c0.117-0.03,0.234-0.055,0.35-0.09
		c0.135-0.041,0.266-0.092,0.399-0.139c0.113-0.041,0.227-0.078,0.339-0.124c0.127-0.052,0.248-0.114,0.372-0.173
		c0.113-0.054,0.226-0.104,0.337-0.162c0.124-0.066,0.241-0.141,0.361-0.213c0.103-0.063,0.208-0.121,0.309-0.188
		c0.141-0.094,0.275-0.198,0.41-0.302c0.073-0.055,0.148-0.105,0.219-0.163c0.21-0.172,0.411-0.353,0.602-0.545l23.99-23.99
		c3.125-3.125,3.125-8.188,0-11.313s-8.188-3.125-11.313,0L312,300.688V256v-48V117.842z"/>
	<path style="fill:#707384;" d="M272,104c0-2.047-0.781-4.094-2.344-5.656L248,76.688l-2.344-2.344
		c-3.125-3.125-8.188-3.125-11.313,0s-3.125,8.188,0,11.313L244.688,96H216h-42.158c1.364,2.355,2.158,5.082,2.158,8
		c0,2.918-0.794,5.645-2.158,8H216h28.687l-10.343,10.343c-3.125,3.125-3.125,8.188,0,11.313s8.188,3.125,11.313,0l2.344-2.344
		l21.656-21.656C271.219,108.094,272,106.047,272,104z"/>
	<path style="fill:#FFAF5A;" d="M160,88c-8.837,0-16,7.163-16,16c0,5.919,3.222,11.074,8,13.842c2.355,1.365,5.082,2.158,8,2.158
		s5.645-0.794,8-2.158c2.422-1.403,4.438-3.419,5.842-5.841c1.365-2.355,2.158-5.083,2.158-8c0-2.918-0.793-5.645-2.158-8
		C171.075,91.222,165.919,88,160,88z"/>
	<path style="fill:#BE4650;" d="M320,104c0-8.837-7.163-16-16-16s-16,7.163-16,16c0,5.919,3.222,11.074,8,13.842
		c2.355,1.365,5.082,2.158,8,2.158s5.645-0.794,8-2.158C316.778,115.074,320,109.919,320,104z"/>
</g>
<g>
</g>
<g>
</g>
<g>
</g>
<g>
</g>
<g>
</g>
<g>
</g>
<g>
</g>
<g>
</g>
<g>
</g>
<g>
</g>
<g>
</g>
<g>
</g>
<g>
</g>
<g>
</g>
<g>
</g>
</svg>
