<?xml version="1.0" encoding="iso-8859-1"?>
<!-- Generator: Adobe Illustrator 19.0.0, SVG Export Plug-In . SVG Version: 6.00 Build 0)  -->
<svg version="1.1" id="Capa_1" xmlns="http://www.w3.org/2000/svg" xmlns:xlink="http://www.w3.org/1999/xlink" x="0px" y="0px"
	 viewBox="0 0 464 464" style="enable-background:new 0 0 464 464;" xml:space="preserve">
<g>
	<path style="fill:#E4EAF6;" d="M448,168H16c-8.837,0-16,7.164-16,16v96c0,8.836,7.163,16,16,16h432c8.837,0,16-7.164,16-16v-96
		C464,175.164,456.837,168,448,168z M105.643,227.466l-13.819,13.47l3.262,19.02c0.429,2.501-2.196,4.408-4.442,3.227l-17.081-8.98
		l-17.081,8.98c-1.965,1.033-4.22-0.298-4.466-2.322c-0.017-0.145-0.025-0.293-0.021-0.444c0.001-0.056,0.012-0.113,0.017-0.17
		c0.008-0.097,0.012-0.193,0.029-0.291l0.37-2.157l2.892-16.863l-13.819-13.47c-0.305-0.297-0.523-0.633-0.676-0.984
		c-0.188-0.435-0.271-0.896-0.248-1.35c0.007-0.137,0.023-0.273,0.048-0.407c0.025-0.134,0.059-0.267,0.101-0.396
		c0.084-0.26,0.203-0.508,0.352-0.738c0.075-0.115,0.157-0.225,0.247-0.33c0.45-0.522,1.087-0.902,1.872-1.016l13.914-2.022
		l5.183-0.753l4.623-9.366l3.918-7.939c0.421-0.853,1.14-1.386,1.934-1.6c0.265-0.071,0.538-0.107,0.811-0.107
		c1.092,0,2.184,0.569,2.745,1.707l8.541,17.305l19.098,2.775C106.458,222.609,107.46,225.695,105.643,227.466z M184.862,227.466
		l-13.819,13.47l3.262,19.02c0.429,2.501-2.196,4.408-4.442,3.227l-17.081-8.98l-17.081,8.98c-1.965,1.033-4.22-0.298-4.466-2.322
		c-0.018-0.145-0.025-0.293-0.021-0.444c0.001-0.056,0.012-0.113,0.017-0.17c0.008-0.097,0.012-0.193,0.029-0.291l0.37-2.157
		l2.892-16.863l-13.819-13.47c-0.305-0.297-0.523-0.633-0.676-0.984c-0.188-0.435-0.272-0.896-0.248-1.35
		c0.007-0.137,0.023-0.273,0.048-0.407c0.075-0.403,0.229-0.79,0.453-1.135c0.149-0.23,0.33-0.441,0.539-0.625
		c0.419-0.368,0.952-0.629,1.58-0.721l13.768-2l5.33-0.775l5.47-11.083l3.071-6.222c0.421-0.853,1.141-1.386,1.935-1.6
		c0.265-0.071,0.538-0.107,0.811-0.107c1.092,0,2.184,0.569,2.745,1.707l8.541,17.305l19.098,2.775
		C185.676,222.609,186.678,225.695,184.862,227.466z M264.08,227.466l-13.819,13.47l3.262,19.02
		c0.429,2.501-2.196,4.408-4.442,3.227L232,254.204l-17.081,8.98c-1.965,1.033-4.22-0.298-4.466-2.322
		c-0.018-0.145-0.025-0.293-0.021-0.444c0.001-0.056,0.012-0.113,0.017-0.17c0.008-0.097,0.012-0.193,0.029-0.291l0.37-2.157
		l2.892-16.863l-13.819-13.47c-0.305-0.297-0.523-0.633-0.676-0.984c-0.188-0.435-0.271-0.896-0.248-1.35
		c0.007-0.137,0.023-0.273,0.048-0.407c0.05-0.269,0.135-0.53,0.252-0.777c0.118-0.247,0.268-0.478,0.448-0.687
		c0.45-0.522,1.087-0.902,1.872-1.016l13.914-2.022l5.183-0.753l5.47-11.083l3.071-6.222c0.38-0.769,1.009-1.256,1.709-1.505
		c0.336-0.119,0.682-0.201,1.036-0.201c1.092,0,2.184,0.569,2.745,1.707l8.541,17.305l19.098,2.775
		C264.894,222.609,265.897,225.695,264.08,227.466z M343.298,227.466l-13.819,13.47l3.262,19.02
		c0.429,2.501-2.196,4.408-4.442,3.227l-17.081-8.98l-17.081,8.98c-1.965,1.033-4.22-0.298-4.466-2.322
		c-0.018-0.145-0.025-0.293-0.021-0.444c0.001-0.056,0.012-0.113,0.017-0.17c0.008-0.097,0.012-0.193,0.029-0.291l0.37-2.157
		l2.892-16.863l-13.819-13.47c-0.305-0.297-0.523-0.633-0.676-0.984c-0.188-0.435-0.272-0.896-0.248-1.35
		c0.007-0.137,0.023-0.273,0.048-0.407c0.025-0.134,0.059-0.267,0.101-0.396c0.084-0.26,0.203-0.508,0.352-0.738
		c0.075-0.115,0.157-0.225,0.247-0.33c0.45-0.522,1.087-0.902,1.872-1.016l13.914-2.022l5.183-0.753l4.623-9.366l3.918-7.939
		c0.421-0.853,1.141-1.386,1.935-1.6c0.265-0.071,0.538-0.107,0.811-0.107c1.092,0,2.184,0.569,2.745,1.707l8.541,17.305
		l19.097,2.775C344.112,222.609,345.115,225.695,343.298,227.466z M422.516,227.466l-13.819,13.471l3.262,19.021
		c0.339,1.978-1.233,3.585-3.017,3.585c-0.471,0-0.956-0.112-1.425-0.358l-17.082-8.98l-17.081,8.98
		c-0.469,0.246-0.954,0.358-1.425,0.358c-1.784,0-3.356-1.606-3.017-3.585l3.262-19.021l-13.819-13.471
		c-1.817-1.771-0.814-4.856,1.697-5.222l19.098-2.774l8.541-17.306c0.561-1.138,1.653-1.707,2.745-1.707
		c1.092,0,2.184,0.569,2.745,1.707l8.541,17.306l19.097,2.774C423.331,222.609,424.333,225.695,422.516,227.466z"/>
	<path style="fill:#FFDC69;" d="M40.709,224.328c0.084-0.26,0.203-0.508,0.352-0.738C40.911,223.82,40.793,224.068,40.709,224.328z"
		/>
	<path style="fill:#FFDC69;" d="M72.753,200.564c-0.794,0.213-1.513,0.747-1.934,1.6l-3.918,7.939l3.918-7.939
		C71.24,201.311,71.959,200.778,72.753,200.564z"/>
	<path style="fill:#FFDC69;" d="M43.18,222.245l13.914-2.022L43.18,222.245c-0.785,0.114-1.422,0.493-1.872,1.016
		C41.758,222.738,42.396,222.359,43.18,222.245z"/>
	<path style="fill:#FFDC69;" d="M40.56,225.132c0.007-0.137,0.023-0.273,0.048-0.407C40.583,224.859,40.567,224.995,40.56,225.132z"
		/>
	<path style="fill:#FFDC69;" d="M41.484,227.466c-0.305-0.297-0.523-0.632-0.676-0.984C40.96,226.833,41.179,227.169,41.484,227.466
		l13.819,13.47L52.41,257.8l2.892-16.864L41.484,227.466z"/>
	<path style="fill:#FFDC69;" d="M51.995,260.418c0.001-0.055,0.012-0.113,0.017-0.17C52.007,260.305,51.996,260.362,51.995,260.418z
		"/>
	<path style="fill:#FFDC69;" d="M103.947,222.245l-19.098-2.775l-8.541-17.305c-0.561-1.138-1.653-1.707-2.745-1.707v53.745
		l-17.081,8.98c-1.965,1.033-4.22-0.298-4.466-2.322c0.246,2.024,2.501,3.355,4.466,2.322l17.081-8.98l17.081,8.98
		c2.246,1.181,4.871-0.726,4.442-3.227l-3.262-19.02l13.819-13.47C107.46,225.695,106.458,222.609,103.947,222.245z"/>
	<path style="fill:#FFC864;" d="M56.482,263.184l17.081-8.98v-53.745c-0.273,0-0.546,0.036-0.811,0.107
		c-0.794,0.213-1.513,0.747-1.934,1.6l-3.918,7.939l-4.623,9.366l-5.183,0.753l-13.914,2.022c-0.785,0.114-1.422,0.493-1.872,1.016
		c-0.09,0.104-0.173,0.215-0.247,0.33c-0.149,0.23-0.268,0.478-0.352,0.738c-0.042,0.13-0.076,0.262-0.101,0.396
		c-0.025,0.134-0.041,0.271-0.048,0.407c-0.023,0.454,0.06,0.915,0.248,1.35c0.152,0.352,0.371,0.687,0.676,0.984l13.819,13.47
		L52.41,257.8l-0.37,2.157c-0.017,0.099-0.021,0.195-0.029,0.291c-0.005,0.056-0.015,0.114-0.017,0.17
		c-0.004,0.151,0.004,0.299,0.021,0.444C52.262,262.885,54.517,264.217,56.482,263.184z"/>
	<path style="fill:#FFDC69;" d="M119.778,225.132c0.007-0.137,0.023-0.273,0.048-0.407
		C119.802,224.859,119.785,224.995,119.778,225.132z"/>
	<path style="fill:#FFDC69;" d="M151.971,200.564c-0.794,0.213-1.513,0.747-1.935,1.6l-3.071,6.222l3.071-6.222
		C150.458,201.311,151.177,200.778,151.971,200.564z"/>
	<path style="fill:#FFDC69;" d="M136.166,220.244l-13.768,2c-0.628,0.091-1.161,0.353-1.58,0.721c0.419-0.368,0.952-0.629,1.58-0.72
		L136.166,220.244z"/>
	<path style="fill:#FFDC69;" d="M131.213,260.418c0.001-0.055,0.012-0.113,0.017-0.17
		C131.226,260.305,131.215,260.362,131.213,260.418z"/>
	<path style="fill:#FFDC69;" d="M120.702,227.466c-0.305-0.297-0.524-0.632-0.676-0.984
		C120.178,226.833,120.397,227.169,120.702,227.466l13.819,13.47l-2.892,16.863l2.893-16.864L120.702,227.466z"/>
	<path style="fill:#FFDC69;" d="M183.165,222.245l-19.098-2.775l-8.541-17.305c-0.562-1.138-1.653-1.707-2.745-1.707v53.745
		l-17.081,8.98c-1.965,1.033-4.22-0.298-4.466-2.322c0.246,2.024,2.501,3.355,4.466,2.322l17.081-8.98l17.081,8.98
		c2.246,1.181,4.871-0.726,4.442-3.227l-3.262-19.02l13.819-13.47C186.678,225.695,185.676,222.609,183.165,222.245z"/>
	<path style="fill:#FFC864;" d="M135.7,263.184l17.081-8.98v-53.745c-0.273,0-0.546,0.036-0.811,0.107
		c-0.794,0.213-1.513,0.747-1.935,1.6l-3.071,6.222l-5.47,11.083l-5.33,0.775l-13.768,2.001c-0.628,0.091-1.161,0.352-1.58,0.72
		c-0.209,0.184-0.39,0.395-0.539,0.625c-0.224,0.344-0.378,0.732-0.453,1.135c-0.025,0.134-0.041,0.271-0.048,0.407
		c-0.024,0.454,0.06,0.915,0.248,1.35c0.152,0.352,0.371,0.687,0.676,0.984l13.819,13.47l-2.893,16.864l-0.37,2.157
		c-0.017,0.099-0.021,0.195-0.029,0.291c-0.004,0.056-0.015,0.114-0.017,0.17c-0.004,0.151,0.004,0.299,0.021,0.444
		C131.48,262.885,133.735,264.217,135.7,263.184z"/>
	<path style="fill:#FFDC69;" d="M262.383,222.245l-19.098-2.775l-8.541-17.305c-0.562-1.138-1.653-1.707-2.745-1.707v53.745
		l-17.081,8.98c-1.965,1.033-4.22-0.298-4.466-2.322c0.246,2.024,2.501,3.355,4.466,2.322l17.081-8.98l17.081,8.98
		c2.246,1.181,4.871-0.726,4.442-3.227l-3.262-19.02l13.819-13.47C265.897,225.695,264.894,222.609,262.383,222.245z"/>
	<path style="fill:#FFDC69;" d="M199.297,223.948c0.117-0.247,0.268-0.478,0.448-0.687
		C199.565,223.469,199.415,223.701,199.297,223.948z"/>
	<path style="fill:#FFDC69;" d="M230.964,200.659c-0.7,0.249-1.33,0.736-1.709,1.505l-3.071,6.222l3.071-6.222
		C229.635,201.396,230.264,200.908,230.964,200.659z"/>
	<path style="fill:#FFDC69;" d="M201.617,222.245l13.914-2.022L201.617,222.245c-0.785,0.114-1.422,0.493-1.872,1.016
		C200.195,222.738,200.832,222.359,201.617,222.245z"/>
	<path style="fill:#FFDC69;" d="M199.92,227.466c-0.305-0.297-0.524-0.632-0.676-0.984
		C199.397,226.833,199.615,227.169,199.92,227.466l13.819,13.47l-2.892,16.863l2.893-16.864L199.92,227.466z"/>
	<path style="fill:#FFDC69;" d="M198.997,225.132c0.007-0.137,0.023-0.273,0.048-0.407
		C199.02,224.859,199.004,224.995,198.997,225.132z"/>
	<path style="fill:#FFDC69;" d="M210.432,260.418c0.001-0.055,0.012-0.113,0.017-0.17
		C210.444,260.305,210.433,260.362,210.432,260.418z"/>
	<path style="fill:#FFC864;" d="M214.919,263.184l17.081-8.98v-53.745c-0.354,0-0.7,0.082-1.036,0.201
		c-0.7,0.249-1.33,0.736-1.709,1.505l-3.071,6.222l-5.47,11.083l-5.183,0.753l-13.914,2.022c-0.785,0.114-1.422,0.493-1.872,1.016
		c-0.18,0.209-0.33,0.441-0.448,0.687s-0.203,0.508-0.252,0.777c-0.025,0.134-0.041,0.271-0.048,0.407
		c-0.024,0.454,0.06,0.915,0.248,1.35c0.152,0.352,0.371,0.687,0.676,0.984l13.819,13.47l-2.893,16.864l-0.37,2.157
		c-0.017,0.099-0.021,0.195-0.029,0.291c-0.004,0.056-0.015,0.114-0.017,0.17c-0.004,0.151,0.004,0.299,0.021,0.444
		C210.698,262.885,212.954,264.217,214.919,263.184z"/>
	<path style="fill:#FFDC69;" d="M289.65,260.418c0.001-0.055,0.012-0.113,0.017-0.17
		C289.662,260.305,289.651,260.362,289.65,260.418z"/>
	<path style="fill:#FFDC69;" d="M279.139,227.466c-0.305-0.297-0.524-0.632-0.676-0.984
		C278.615,226.833,278.834,227.169,279.139,227.466l13.819,13.47l-2.892,16.863l2.892-16.864L279.139,227.466z"/>
	<path style="fill:#FFDC69;" d="M280.835,222.245l13.914-2.022L280.835,222.245c-0.785,0.114-1.422,0.493-1.872,1.016
		C279.413,222.738,280.05,222.359,280.835,222.245z"/>
	<path style="fill:#FFDC69;" d="M278.364,224.328c0.084-0.26,0.203-0.508,0.352-0.738
		C278.566,223.82,278.448,224.068,278.364,224.328z"/>
	<path style="fill:#FFDC69;" d="M278.215,225.132c0.007-0.137,0.023-0.273,0.048-0.407
		C278.238,224.859,278.222,224.995,278.215,225.132z"/>
	<path style="fill:#FFDC69;" d="M310.408,200.564c-0.794,0.213-1.513,0.747-1.935,1.6l-3.918,7.939l3.918-7.939
		C308.895,201.311,309.614,200.778,310.408,200.564z"/>
	<path style="fill:#FFDC69;" d="M341.602,222.245l-19.097-2.775l-8.541-17.305c-0.561-1.138-1.653-1.707-2.745-1.707v53.745
		l-17.081,8.98c-1.965,1.033-4.22-0.298-4.466-2.322c0.246,2.024,2.501,3.355,4.466,2.322l17.081-8.98l17.081,8.98
		c2.246,1.181,4.87-0.726,4.442-3.227l-3.262-19.02l13.819-13.47C345.115,225.695,344.112,222.609,341.602,222.245z"/>
	<path style="fill:#FFC864;" d="M294.137,263.184l17.081-8.98v-53.745c-0.273,0-0.546,0.036-0.811,0.107
		c-0.794,0.213-1.513,0.747-1.935,1.6l-3.918,7.939l-4.623,9.366l-5.183,0.753l-13.914,2.022c-0.785,0.114-1.422,0.493-1.872,1.016
		c-0.09,0.104-0.172,0.215-0.247,0.33c-0.149,0.23-0.268,0.478-0.352,0.738c-0.042,0.13-0.076,0.262-0.101,0.396
		c-0.025,0.134-0.041,0.271-0.048,0.407c-0.024,0.454,0.06,0.915,0.248,1.35c0.152,0.352,0.371,0.687,0.676,0.984l13.819,13.47
		l-2.892,16.864l-0.37,2.157c-0.017,0.099-0.021,0.195-0.029,0.291c-0.004,0.056-0.015,0.114-0.017,0.17
		c-0.004,0.151,0.003,0.299,0.021,0.444C289.917,262.885,292.172,264.217,294.137,263.184z"/>
	<polygon style="fill:#FFFFFF;" points="396.41,226.782 394.549,223.01 390.437,214.679 386.325,223.01 384.463,226.782 
		380.301,227.387 371.107,228.723 377.76,235.208 380.772,238.144 380.061,242.289 378.49,251.445 386.714,247.122 390.437,245.165 
		394.159,247.122 402.383,251.445 400.812,242.289 400.101,238.144 403.113,235.208 409.766,228.723 400.572,227.387 	"/>
	<path style="fill:#FFC864;" d="M420.82,222.244l-19.097-2.774l-8.541-17.306c-0.561-1.138-1.653-1.707-2.745-1.707
		c-1.092,0-2.184,0.569-2.745,1.707l-8.541,17.306l-19.098,2.774c-2.511,0.365-3.513,3.451-1.697,5.222l13.819,13.471l-3.262,19.021
		c-0.339,1.979,1.233,3.585,3.017,3.585c0.471,0,0.956-0.112,1.425-0.358l17.081-8.98l17.082,8.98
		c0.469,0.246,0.954,0.358,1.425,0.358c1.784,0,3.356-1.607,3.017-3.585l-3.262-19.021l13.819-13.471
		C424.333,225.695,423.331,222.609,420.82,222.244z M403.113,235.208l-3.012,2.936l0.711,4.146l1.571,9.156l-8.224-4.323
		l-3.723-1.957l-3.723,1.957l-8.223,4.323l1.571-9.156l0.711-4.146l-3.012-2.936l-6.653-6.485l9.194-1.336l4.162-0.604l1.861-3.772
		l4.112-8.331l4.112,8.331l1.861,3.772l4.162,0.604l9.194,1.336L403.113,235.208z"/>
</g>
<g>
</g>
<g>
</g>
<g>
</g>
<g>
</g>
<g>
</g>
<g>
</g>
<g>
</g>
<g>
</g>
<g>
</g>
<g>
</g>
<g>
</g>
<g>
</g>
<g>
</g>
<g>
</g>
<g>
</g>
</svg>
