<?xml version="1.0" encoding="iso-8859-1"?>
<!-- Generator: Adobe Illustrator 19.0.0, SVG Export Plug-In . SVG Version: 6.00 Build 0)  -->
<svg version="1.1" id="Capa_1" xmlns="http://www.w3.org/2000/svg" xmlns:xlink="http://www.w3.org/1999/xlink" x="0px" y="0px"
	 viewBox="0 0 464 464" style="enable-background:new 0 0 464 464;" xml:space="preserve">
<g>
	<path style="fill:#E4EAF6;" d="M448,64c0-4.411-3.589-8-8-8H24c-4.411,0-8,3.589-8,8v64c0,4.411,3.589,8,8,8h416
		c4.411,0,8-3.589,8-8V64z M96,96c0,4.418-3.582,8-8,8h-2.144l1.072,1.856c2.209,3.826,0.898,8.719-2.928,10.928
		c-3.826,2.209-8.719,0.898-10.928-2.928L72,112l-1.072,1.856c-2.209,3.826-7.102,5.137-10.928,2.928
		c-3.826-2.209-5.137-7.102-2.928-10.928L58.144,104H56c-4.418,0-8-3.582-8-8l0,0c0-4.418,3.582-8,8-8h2.144l-1.072-1.856
		c-2.209-3.826-0.898-8.719,2.928-10.928c3.826-2.209,8.719-0.898,10.928,2.928L72,80l1.072-1.856
		c2.209-3.826,7.102-5.137,10.928-2.928c3.826,2.209,5.137,7.102,2.928,10.928L85.856,88H88C92.418,88,96,91.582,96,96L96,96z
		 M160,96c0,4.418-3.582,8-8,8h-2.144l1.072,1.856c2.209,3.826,0.898,8.719-2.928,10.928c-3.826,2.209-8.719,0.898-10.928-2.928
		L136,112l-1.072,1.856c-2.209,3.826-7.102,5.137-10.928,2.928c-3.826-2.209-5.137-7.102-2.928-10.928l1.072-1.856H120
		c-4.418,0-8-3.582-8-8l0,0c0-4.418,3.582-8,8-8h2.144l-1.072-1.856c-2.209-3.826-0.898-8.719,2.928-10.928
		c3.826-2.209,8.719-0.898,10.928,2.928L136,80l1.072-1.856c2.209-3.826,7.102-5.137,10.928-2.928
		c3.826,2.209,5.137,7.102,2.928,10.928L149.856,88H152C156.418,88,160,91.582,160,96L160,96z M224,96c0,4.418-3.582,8-8,8h-2.144
		l1.072,1.856c2.209,3.826,0.898,8.719-2.928,10.928c-3.826,2.209-8.719,0.898-10.928-2.928L200,112l-1.072,1.856
		c-2.209,3.826-7.102,5.137-10.928,2.928c-3.826-2.209-5.137-7.102-2.928-10.928l1.072-1.856H184c-4.418,0-8-3.582-8-8l0,0
		c0-4.418,3.582-8,8-8h2.144l-1.072-1.856c-2.209-3.826-0.898-8.719,2.928-10.928c3.826-2.209,8.719-0.898,10.928,2.928L200,80
		l1.072-1.856c2.209-3.826,7.102-5.137,10.928-2.928c3.826,2.209,5.137,7.102,2.928,10.928L213.856,88H216
		C220.418,88,224,91.582,224,96L224,96z M288,96c0,4.418-3.582,8-8,8h-2.144l1.072,1.856c2.209,3.826,0.898,8.719-2.928,10.928
		c-3.826,2.209-8.719,0.898-10.928-2.928L264,112l-1.072,1.856c-2.209,3.826-7.102,5.137-10.928,2.928
		c-3.826-2.209-5.137-7.102-2.928-10.928l1.072-1.856H248c-4.418,0-8-3.582-8-8l0,0c0-4.418,3.582-8,8-8h2.144l-1.072-1.856
		c-2.209-3.826-0.898-8.719,2.928-10.928c3.826-2.209,8.719-0.898,10.928,2.928L264,80l1.072-1.856
		c2.209-3.826,7.102-5.137,10.928-2.928c3.826,2.209,5.137,7.102,2.928,10.928L277.856,88H280C284.418,88,288,91.582,288,96L288,96z
		 M352,96c0,4.418-3.582,8-8,8h-2.144l1.072,1.856c2.209,3.826,0.898,8.719-2.928,10.928c-3.826,2.209-8.719,0.898-10.928-2.928
		L328,112l-1.072,1.856c-2.209,3.826-7.102,5.137-10.928,2.928c-3.826-2.209-5.137-7.102-2.928-10.928l1.072-1.856H312
		c-4.418,0-8-3.582-8-8l0,0c0-4.418,3.582-8,8-8h2.144l-1.072-1.856c-2.209-3.826-0.898-8.719,2.928-10.928
		c3.826-2.209,8.719-0.898,10.928,2.928L328,80l1.072-1.856c2.209-3.826,7.102-5.137,10.928-2.928
		c3.826,2.209,5.137,7.102,2.928,10.928L341.856,88H344C348.418,88,352,91.582,352,96L352,96z M416,96c0,4.418-3.582,8-8,8h-2.144
		l1.072,1.856c2.209,3.826,0.898,8.719-2.928,10.928c-3.826,2.209-8.719,0.898-10.928-2.928L392,112l-1.072,1.856
		c-2.209,3.826-7.102,5.137-10.928,2.928c-3.826-2.209-5.137-7.102-2.928-10.928l1.072-1.856H376c-4.418,0-8-3.582-8-8l0,0
		c0-4.418,3.582-8,8-8h2.144l-1.072-1.856c-2.209-3.826-0.898-8.719,2.928-10.928l0,0c3.826-2.209,8.719-0.898,10.928,2.928L392,80
		l1.072-1.856c2.209-3.826,7.102-5.137,10.928-2.928l0,0c3.826,2.209,5.137,7.102,2.928,10.928L405.856,88H408
		C412.418,88,416,91.582,416,96L416,96z"/>
	<path style="fill:#AFBBD0;" d="M88,88h-2.144l1.072-1.856c2.209-3.826,0.898-8.719-2.928-10.928
		c-3.826-2.209-8.719-0.898-10.928,2.928L72,80l-1.072-1.856c-2.209-3.826-7.102-5.137-10.928-2.928
		c-3.826,2.209-5.137,7.102-2.928,10.928L58.144,88H56c-4.418,0-8,3.582-8,8l0,0c0,4.418,3.582,8,8,8h2.144l-1.072,1.856
		c-2.209,3.826-0.898,8.719,2.928,10.928c3.826,2.209,8.719,0.898,10.928-2.928L72,112l1.072,1.856
		c2.209,3.826,7.102,5.137,10.928,2.928c3.826-2.209,5.137-7.102,2.928-10.928L85.856,104H88c4.418,0,8-3.582,8-8l0,0
		C96,91.582,92.418,88,88,88z"/>
	<path style="fill:#B4E173;" d="M463.244,58.002c-0.493-1.917-1.217-3.741-2.141-5.442c-0.369-0.68-0.771-1.34-1.202-1.979
		c-1.725-2.553-3.929-4.757-6.483-6.482c-0.638-0.431-1.299-0.833-1.979-1.202c-1.7-0.924-3.525-1.648-5.442-2.141
		C444.081,40.262,442.071,40,440,40H24c-2.071,0-4.081,0.262-5.998,0.756c-1.917,0.493-3.742,1.217-5.442,2.141
		c-0.68,0.369-1.34,0.771-1.979,1.202c-2.554,1.725-4.757,3.929-6.483,6.482C3.668,51.22,3.266,51.88,2.897,52.56
		c-0.924,1.7-1.648,3.525-2.141,5.442C0.262,59.919,0,61.929,0,64v64c0,2.071,0.262,4.081,0.756,5.998
		c0.493,1.917,1.217,3.741,2.141,5.442c0.369,0.68,0.771,1.34,1.202,1.979c1.725,2.553,3.929,4.757,6.483,6.482
		c0.638,0.431,1.299,0.833,1.979,1.202c1.7,0.924,3.525,1.648,5.442,2.141C19.919,151.738,21.929,152,24,152h416
		c2.071,0,4.081-0.262,5.998-0.756c1.917-0.493,3.742-1.217,5.442-2.141c0.68-0.369,1.34-0.771,1.979-1.202
		c2.554-1.725,4.757-3.929,6.483-6.482c0.431-0.638,0.833-1.299,1.202-1.979c0.924-1.7,1.648-3.525,2.141-5.442
		c0.493-1.917,0.756-3.927,0.756-5.998V64C464,61.929,463.738,59.919,463.244,58.002z M440,136H24c-4.411,0-8-3.589-8-8V64
		c0-4.411,3.589-8,8-8h416c4.411,0,8,3.589,8,8v64C448,132.411,444.411,136,440,136z"/>
	<path style="fill:#AFBBD0;" d="M152,88h-2.144l1.072-1.856c2.209-3.826,0.898-8.719-2.928-10.928
		c-3.826-2.209-8.719-0.898-10.928,2.928L136,80l-1.072-1.856c-2.209-3.826-7.102-5.137-10.928-2.928
		c-3.826,2.209-5.137,7.102-2.928,10.928L122.144,88H120c-4.418,0-8,3.582-8,8l0,0c0,4.418,3.582,8,8,8h2.144l-1.072,1.856
		c-2.209,3.826-0.898,8.719,2.928,10.928c3.826,2.209,8.719,0.898,10.928-2.928L136,112l1.072,1.856
		c2.209,3.826,7.102,5.137,10.928,2.928c3.826-2.209,5.137-7.102,2.928-10.928L149.856,104H152c4.418,0,8-3.582,8-8l0,0
		C160,91.582,156.418,88,152,88z"/>
	<path style="fill:#AFBBD0;" d="M216,88h-2.144l1.072-1.856c2.209-3.826,0.898-8.719-2.928-10.928
		c-3.826-2.209-8.719-0.898-10.928,2.928L200,80l-1.072-1.856c-2.209-3.826-7.102-5.137-10.928-2.928
		c-3.826,2.209-5.137,7.102-2.928,10.928L186.144,88H184c-4.418,0-8,3.582-8,8l0,0c0,4.418,3.582,8,8,8h2.144l-1.072,1.856
		c-2.209,3.826-0.898,8.719,2.928,10.928c3.826,2.209,8.719,0.898,10.928-2.928L200,112l1.072,1.856
		c2.209,3.826,7.102,5.137,10.928,2.928c3.826-2.209,5.137-7.102,2.928-10.928L213.856,104H216c4.418,0,8-3.582,8-8l0,0
		C224,91.582,220.418,88,216,88z"/>
	<path style="fill:#AFBBD0;" d="M280,88h-2.144l1.072-1.856c2.209-3.826,0.898-8.719-2.928-10.928
		c-3.826-2.209-8.719-0.898-10.928,2.928L264,80l-1.072-1.856c-2.209-3.826-7.102-5.137-10.928-2.928
		c-3.826,2.209-5.137,7.102-2.928,10.928L250.144,88H248c-4.418,0-8,3.582-8,8l0,0c0,4.418,3.582,8,8,8h2.144l-1.072,1.856
		c-2.209,3.826-0.898,8.719,2.928,10.928c3.826,2.209,8.719,0.898,10.928-2.928L264,112l1.072,1.856
		c2.209,3.826,7.102,5.137,10.928,2.928c3.826-2.209,5.137-7.102,2.928-10.928L277.856,104H280c4.418,0,8-3.582,8-8l0,0
		C288,91.582,284.418,88,280,88z"/>
	<path style="fill:#AFBBD0;" d="M344,88h-2.144l1.072-1.856c2.209-3.826,0.898-8.719-2.928-10.928
		c-3.826-2.209-8.719-0.898-10.928,2.928L328,80l-1.072-1.856c-2.209-3.826-7.102-5.137-10.928-2.928
		c-3.826,2.209-5.137,7.102-2.928,10.928L314.144,88H312c-4.418,0-8,3.582-8,8l0,0c0,4.418,3.582,8,8,8h2.144l-1.072,1.856
		c-2.209,3.826-0.898,8.719,2.928,10.928c3.826,2.209,8.719,0.898,10.928-2.928L328,112l1.072,1.856
		c2.209,3.826,7.102,5.137,10.928,2.928c3.826-2.209,5.137-7.102,2.928-10.928L341.856,104H344c4.418,0,8-3.582,8-8l0,0
		C352,91.582,348.418,88,344,88z"/>
	<path style="fill:#AFBBD0;" d="M408,88h-2.144l1.072-1.856c2.209-3.826,0.898-8.719-2.928-10.928l0,0
		c-3.826-2.209-8.719-0.898-10.928,2.928L392,80l-1.072-1.856c-2.209-3.826-7.102-5.137-10.928-2.928l0,0
		c-3.826,2.209-5.137,7.102-2.928,10.928L378.144,88H376c-4.418,0-8,3.582-8,8l0,0c0,4.418,3.582,8,8,8h2.144l-1.072,1.856
		c-2.209,3.826-0.898,8.719,2.928,10.928c3.826,2.209,8.719,0.898,10.928-2.928L392,112l1.072,1.856
		c2.209,3.826,7.102,5.137,10.928,2.928c3.826-2.209,5.137-7.102,2.928-10.928L405.856,104H408c4.418,0,8-3.582,8-8l0,0
		C416,91.582,412.418,88,408,88z"/>
	<path style="fill:#E4EAF6;" d="M440,176H24c-13.255,0-24,10.745-24,24v64c0,13.255,10.745,24,24,24h416c13.255,0,24-10.745,24-24
		v-64C464,186.745,453.255,176,440,176z M96,232c0,4.418-3.582,8-8,8h-2.144l1.072,1.856c2.209,3.826,0.898,8.719-2.928,10.928
		c-3.826,2.209-8.719,0.898-10.928-2.928L72,248l-1.072,1.856c-2.209,3.826-7.102,5.137-10.928,2.928
		c-3.826-2.209-5.137-7.102-2.928-10.928L58.144,240H56c-4.418,0-8-3.582-8-8l0,0c0-4.418,3.582-8,8-8h2.144l-1.072-1.856
		c-2.209-3.826-0.898-8.719,2.928-10.928c3.826-2.209,8.719-0.898,10.928,2.928L72,216l1.072-1.856
		c2.209-3.826,7.102-5.137,10.928-2.928c3.826,2.209,5.137,7.102,2.928,10.928L85.856,224H88C92.418,224,96,227.582,96,232L96,232z
		 M160,232c0,4.418-3.582,8-8,8h-2.144l1.072,1.856c2.209,3.826,0.898,8.719-2.928,10.928c-3.826,2.209-8.719,0.898-10.928-2.928
		L136,248l-1.072,1.856c-2.209,3.826-7.102,5.137-10.928,2.928c-3.826-2.209-5.137-7.102-2.928-10.928l1.072-1.856H120
		c-4.418,0-8-3.582-8-8l0,0c0-4.418,3.582-8,8-8h2.144l-1.072-1.856c-2.209-3.826-0.898-8.719,2.928-10.928
		c3.826-2.209,8.719-0.898,10.928,2.928L136,216l1.072-1.856c2.209-3.826,7.102-5.137,10.928-2.928
		c3.826,2.209,5.137,7.102,2.928,10.928L149.856,224H152C156.418,224,160,227.582,160,232L160,232z M224,232c0,4.418-3.582,8-8,8
		h-2.144l1.072,1.856c2.209,3.826,0.898,8.719-2.928,10.928c-3.826,2.209-8.719,0.898-10.928-2.928L200,248l-1.072,1.856
		c-2.209,3.826-7.102,5.137-10.928,2.928c-3.826-2.209-5.137-7.102-2.928-10.928l1.072-1.856H184c-4.418,0-8-3.582-8-8l0,0
		c0-4.418,3.582-8,8-8h2.144l-1.072-1.856c-2.209-3.826-0.898-8.719,2.928-10.928c3.826-2.209,8.719-0.898,10.928,2.928L200,216
		l1.072-1.856c2.209-3.826,7.102-5.137,10.928-2.928c3.826,2.209,5.137,7.102,2.928,10.928L213.856,224H216
		C220.418,224,224,227.582,224,232L224,232z M288,232c0,4.418-3.582,8-8,8h-2.144l1.072,1.856c2.209,3.826,0.898,8.719-2.928,10.928
		c-3.826,2.209-8.719,0.898-10.928-2.928L264,248l-1.072,1.856c-2.209,3.826-7.102,5.137-10.928,2.928
		c-3.826-2.209-5.137-7.102-2.928-10.928l1.072-1.856H248c-4.418,0-8-3.582-8-8l0,0c0-4.418,3.582-8,8-8h2.144l-1.072-1.856
		c-2.209-3.826-0.898-8.719,2.928-10.928c3.826-2.209,8.719-0.898,10.928,2.928L264,216l1.072-1.856
		c2.209-3.826,7.102-5.137,10.928-2.928c3.826,2.209,5.137,7.102,2.928,10.928L277.856,224H280C284.418,224,288,227.582,288,232
		L288,232z"/>
	<path style="fill:#B4E173;" d="M440,312H296c-13.255,0-24,10.745-24,24v64c0,13.255,10.745,24,24,24h144c13.255,0,24-10.745,24-24
		v-64C464,322.745,453.255,312,440,312z M368,376c0,13.234-10.766,24-24,24s-24-10.766-24-24v-16c0-13.234,10.766-24,24-24
		s24,10.766,24,24V376z M414.656,387.563c2.449,3.676,1.457,8.645-2.219,11.094c-1.363,0.91-2.906,1.344-4.43,1.344
		c-2.586,0-5.121-1.25-6.664-3.563L392,382.422V392c0,4.418-3.582,8-8,8s-8-3.582-8-8v-48c0-4.418,3.582-8,8-8s8,3.582,8,8v9.578
		l9.344-14.016c2.445-3.684,7.41-4.684,11.094-2.219c3.676,2.449,4.668,7.418,2.219,11.094L401.615,368L414.656,387.563z"/>
	<path style="fill:#B4E173;" d="M344,352c-4.41,0-8,3.59-8,8v16c0,4.41,3.59,8,8,8s8-3.59,8-8v-16C352,355.59,348.41,352,344,352z"
		/>
	<path style="fill:#AFBBD0;" d="M88,224h-2.144l1.072-1.856c2.209-3.826,0.898-8.719-2.928-10.928
		c-3.826-2.209-8.719-0.898-10.928,2.928L72,216l-1.072-1.856c-2.209-3.826-7.102-5.137-10.928-2.928
		c-3.826,2.209-5.137,7.102-2.928,10.928L58.144,224H56c-4.418,0-8,3.582-8,8l0,0c0,4.418,3.582,8,8,8h2.144l-1.072,1.856
		c-2.209,3.826-0.898,8.719,2.928,10.928c3.826,2.209,8.719,0.898,10.928-2.928L72,248l1.072,1.856
		c2.209,3.826,7.102,5.137,10.928,2.928c3.826-2.209,5.137-7.102,2.928-10.928L85.856,240H88c4.418,0,8-3.582,8-8l0,0
		C96,227.582,92.418,224,88,224z"/>
	<path style="fill:#AFBBD0;" d="M152,224h-2.144l1.072-1.856c2.209-3.826,0.898-8.719-2.928-10.928
		c-3.826-2.209-8.719-0.898-10.928,2.928L136,216l-1.072-1.856c-2.209-3.826-7.102-5.137-10.928-2.928
		c-3.826,2.209-5.137,7.102-2.928,10.928l1.072,1.856H120c-4.418,0-8,3.582-8,8l0,0c0,4.418,3.582,8,8,8h2.144l-1.072,1.856
		c-2.209,3.826-0.898,8.719,2.928,10.928c3.826,2.209,8.719,0.898,10.928-2.928L136,248l1.072,1.856
		c2.209,3.826,7.102,5.137,10.928,2.928c3.826-2.209,5.137-7.102,2.928-10.928L149.856,240H152c4.418,0,8-3.582,8-8l0,0
		C160,227.582,156.418,224,152,224z"/>
	<path style="fill:#AFBBD0;" d="M216,224h-2.144l1.072-1.856c2.209-3.826,0.898-8.719-2.928-10.928
		c-3.826-2.209-8.719-0.898-10.928,2.928L200,216l-1.072-1.856c-2.209-3.826-7.102-5.137-10.928-2.928
		c-3.826,2.209-5.137,7.102-2.928,10.928l1.072,1.856H184c-4.418,0-8,3.582-8,8l0,0c0,4.418,3.582,8,8,8h2.144l-1.072,1.856
		c-2.209,3.826-0.898,8.719,2.928,10.928c3.826,2.209,8.719,0.898,10.928-2.928L200,248l1.072,1.856
		c2.209,3.826,7.102,5.137,10.928,2.928c3.826-2.209,5.137-7.102,2.928-10.928L213.856,240H216c4.418,0,8-3.582,8-8l0,0
		C224,227.582,220.418,224,216,224z"/>
	<path style="fill:#AFBBD0;" d="M280,224h-2.144l1.072-1.856c2.209-3.826,0.898-8.719-2.928-10.928
		c-3.826-2.209-8.719-0.898-10.928,2.928L264,216l-1.072-1.856c-2.209-3.826-7.102-5.137-10.928-2.928
		c-3.826,2.209-5.137,7.102-2.928,10.928l1.072,1.856H248c-4.418,0-8,3.582-8,8l0,0c0,4.418,3.582,8,8,8h2.144l-1.072,1.856
		c-2.209,3.826-0.898,8.719,2.928,10.928c3.826,2.209,8.719,0.898,10.928-2.928L264,248l1.072,1.856
		c2.209,3.826,7.102,5.137,10.928,2.928c3.826-2.209,5.137-7.102,2.928-10.928L277.856,240H280c4.418,0,8-3.582,8-8l0,0
		C288,227.582,284.418,224,280,224z"/>
	<path style="fill:#FFFFFF;" d="M412.437,337.344c-3.684-2.465-8.648-1.465-11.094,2.219L392,353.578V344c0-4.418-3.582-8-8-8
		s-8,3.582-8,8v48c0,4.418,3.582,8,8,8s8-3.582,8-8v-9.578l9.344,14.016c1.543,2.313,4.078,3.563,6.664,3.563
		c1.523,0,3.066-0.434,4.43-1.344c3.676-2.449,4.668-7.418,2.219-11.094L401.615,368l13.042-19.563
		C417.105,344.762,416.113,339.793,412.437,337.344z"/>
	<path style="fill:#FFFFFF;" d="M344,336c-13.234,0-24,10.766-24,24v16c0,13.234,10.766,24,24,24s24-10.766,24-24v-16
		C368,346.766,357.234,336,344,336z M352,376c0,4.41-3.59,8-8,8s-8-3.59-8-8v-16c0-4.41,3.59-8,8-8s8,3.59,8,8V376z"/>
</g>
<g>
</g>
<g>
</g>
<g>
</g>
<g>
</g>
<g>
</g>
<g>
</g>
<g>
</g>
<g>
</g>
<g>
</g>
<g>
</g>
<g>
</g>
<g>
</g>
<g>
</g>
<g>
</g>
<g>
</g>
</svg>
