<?xml version="1.0" encoding="iso-8859-1"?>
<!-- Generator: Adobe Illustrator 19.0.0, SVG Export Plug-In . SVG Version: 6.00 Build 0)  -->
<svg version="1.1" id="Capa_1" xmlns="http://www.w3.org/2000/svg" xmlns:xlink="http://www.w3.org/1999/xlink" x="0px" y="0px"
	 viewBox="0 0 464 464" style="enable-background:new 0 0 464 464;" xml:space="preserve">
<g>
	<path style="fill:#FF5050;" d="M178.406,178.312c-0.542-2.935-0.994-5.901-1.355-8.896c-0.035-0.29-0.066-0.581-0.1-0.871
		c-0.116-1.016-0.223-2.035-0.318-3.057c-0.038-0.406-0.074-0.813-0.108-1.221c-0.078-0.928-0.146-1.859-0.207-2.792
		c-0.029-0.445-0.06-0.89-0.085-1.337c-0.053-0.946-0.092-1.896-0.127-2.847c-0.015-0.411-0.035-0.82-0.047-1.232
		c-0.037-1.349-0.06-2.702-0.06-4.06s0.023-2.711,0.06-4.06c0.011-0.412,0.032-0.822,0.047-1.233c0.034-0.951,0.074-1.9,0.127-2.846
		c0.025-0.447,0.056-0.892,0.085-1.338c0.061-0.933,0.129-1.863,0.207-2.79c0.034-0.408,0.07-0.815,0.108-1.222
		c0.095-1.021,0.202-2.039,0.318-3.054c0.034-0.291,0.065-0.583,0.1-0.874C181.78,95.367,202.268,61.009,232,38.02
		C207.664,19.204,177.142,8,144,8C64.471,8,0,72.471,0,152c0,60.586,37.42,112.427,90.406,133.688
		C99.451,236.707,133.281,196.419,178.406,178.312z"/>
	<path style="fill:#5050FF;" d="M464,152C464,72.471,399.529,8,320,8c-33.142,0-63.664,11.204-88,30.02
		c-29.732,22.989-50.22,57.347-54.948,96.562c4.743-39.155,25.264-73.403,54.948-96.39c34.013,26.339,56,67.459,56,113.808
		c0,8.99-0.837,17.78-2.419,26.307c45.132,18.105,78.966,58.395,88.012,107.381C426.58,264.427,464,212.586,464,152z"/>
	<path style="fill:#5050FF;" d="M176.234,160.139c-0.053-0.946-0.092-1.896-0.127-2.847
		C176.141,158.243,176.181,159.193,176.234,160.139z"/>
	<path style="fill:#5050FF;" d="M176.525,164.268c-0.079-0.928-0.146-1.859-0.207-2.792
		C176.379,162.409,176.447,163.34,176.525,164.268z"/>
	<path style="fill:#5050FF;" d="M176.06,156.06c-0.037-1.349-0.06-2.702-0.06-4.06C176,153.358,176.023,154.711,176.06,156.06z"/>
	<path style="fill:#5050FF;" d="M176.952,168.545c-0.117-1.016-0.222-2.035-0.318-3.057
		C176.729,166.51,176.835,167.529,176.952,168.545z"/>
	<path style="fill:#5050FF;" d="M178.406,178.312c0.004-0.002,0.008-0.003,0.012-0.005c-0.544-2.934-1.005-5.897-1.367-8.891
		C177.412,172.411,177.865,175.377,178.406,178.312z"/>
	<path style="fill:#5050FF;" d="M176.107,146.708c0.035-0.951,0.074-1.9,0.127-2.846
		C176.181,144.807,176.141,145.757,176.107,146.708z"/>
	<path style="fill:#5050FF;" d="M176.318,142.523c0.061-0.933,0.128-1.863,0.207-2.79
		C176.447,140.661,176.379,141.591,176.318,142.523z"/>
	<path style="fill:#5050FF;" d="M176.634,138.511c0.095-1.021,0.201-2.039,0.318-3.054
		C176.835,136.472,176.729,137.49,176.634,138.511z"/>
	<path style="fill:#5050FF;" d="M176,152c0-1.358,0.023-2.711,0.06-4.06C176.023,149.289,176,150.642,176,152z"/>
	<path style="fill:#78FF78;" d="M285.581,178.307c0,0-0.001,0.007-0.002,0.01c45.065,18.106,78.828,58.371,87.899,107.308
		C356.931,292.255,338.916,296,320,296c-33.162,0-63.681-11.22-88-30.066C207.681,284.78,177.162,296,144,296
		c-18.916,0-36.931-3.745-53.478-10.375c9.071-48.937,42.834-89.202,87.899-107.308c0-0.003-0.001-0.007-0.001-0.007
		c-0.005-0.002-0.009,0-0.013,0.001c-45.126,18.107-78.955,58.395-88,107.376C88.831,294.22,88,303.012,88,312
		c0,79.529,64.471,144,144,144s144-64.471,144-144c0-8.988-0.831-17.78-2.406-26.312
		C364.548,236.702,330.713,196.412,285.581,178.307z"/>
	<path style="fill:#FF78FF;" d="M176.634,138.511c-0.038,0.407-0.074,0.814-0.108,1.222c-0.079,0.927-0.146,1.858-0.207,2.79
		c-0.029,0.446-0.06,0.891-0.085,1.338c-0.053,0.946-0.092,1.896-0.127,2.846c-0.015,0.411-0.035,0.821-0.047,1.233
		c-0.037,1.349-0.06,2.702-0.06,4.06s0.023,2.711,0.06,4.06c0.011,0.412,0.032,0.821,0.047,1.232
		c0.034,0.951,0.074,1.901,0.127,2.847c0.025,0.447,0.056,0.891,0.085,1.337c0.061,0.933,0.129,1.864,0.207,2.792
		c0.034,0.407,0.07,0.814,0.108,1.221c0.095,1.022,0.201,2.041,0.318,3.057c0.033,0.291,0.064,0.582,0.1,0.871
		c0.363,2.994,0.823,5.957,1.367,8.891c0,0,0.001,0.007,0.002,0.01c14.469-5.813,30.103-9.342,46.459-10.139
		c0.03-0.001,0.06-0.004,0.09-0.005c1.024-0.049,2.052-0.086,3.082-0.114c0.007,0,0.015-0.001,0.022-0.001
		c0.129-0.003,0.257-0.011,0.386-0.014c0.023,0,0.046,0,0.068-0.001c1.154-0.027,2.311-0.043,3.472-0.043s2.318,0.016,3.472,0.043
		c0.159,0.004,0.317,0.012,0.476,0.016c1.03,0.028,2.058,0.065,3.082,0.114c0.03,0.001,0.06,0.004,0.09,0.005
		c16.357,0.797,31.99,4.326,46.459,10.139c0-0.003,0.001-0.007,0.001-0.007C287.163,169.78,288,160.99,288,152
		c0-46.348-21.987-87.469-56-113.808c-29.685,22.987-50.206,57.235-54.948,96.39c-0.035,0.291-0.067,0.583-0.1,0.874
		C176.835,136.472,176.729,137.49,176.634,138.511z"/>
	<path style="fill:#A0FFFF;" d="M228.528,168.043c-0.023,0-0.046,0-0.068,0.001c0.021,0,0.042,0,0.064-0.001
		C228.525,168.043,228.527,168.043,228.528,168.043z"/>
	<path style="fill:#A0FFFF;" d="M232,168c1.161,0,2.318,0.015,3.472,0.043C234.318,168.016,233.161,168,232,168z"/>
	<path style="fill:#A0FFFF;" d="M239.12,168.178c16.321,0.814,31.9,4.404,46.358,10.196c-0.258,1.392-0.543,2.774-0.841,4.152
		c-0.07,0.325-0.141,0.649-0.214,0.973c-0.63,2.822-1.343,5.612-2.136,8.368c-0.049,0.17-0.098,0.339-0.148,0.508
		c-8.617,29.553-26.427,55.183-50.14,73.559C256.319,284.78,286.838,296,320,296c18.916,0,36.931-3.745,53.478-10.375
		c-9.071-48.937-42.834-89.202-87.899-107.308C271.11,172.504,255.477,168.975,239.12,168.178z"/>
	<path style="fill:#A0FFFF;" d="M224.949,168.174c0.007,0,0.014-0.001,0.021-0.001c-0.03,0.001-0.06,0.004-0.09,0.005
		c0.007,0,0.014-0.001,0.021-0.001C224.917,168.176,224.933,168.175,224.949,168.174z"/>
	<path style="fill:#A0FFFF;" d="M235.948,168.059c1.03,0.028,2.058,0.064,3.082,0.114
		C238.006,168.124,236.978,168.087,235.948,168.059z"/>
	<path style="fill:#A0FFFF;" d="M228.074,168.058c-0.007,0-0.015,0-0.022,0.001c0,0,0,0,0.001,0
		C228.06,168.059,228.067,168.058,228.074,168.058z"/>
	<path style="fill:#FFFF50;" d="M282.14,192.375c-2.161,7.397-4.896,14.549-8.155,21.403c-0.079,0.165-0.153,0.332-0.232,0.497
		c-1.688,3.517-3.523,6.949-5.481,10.3c-0.284,0.482-0.589,0.951-0.878,1.43c-1.547,2.579-3.195,5.089-4.896,7.56
		c-0.635,0.918-1.254,1.848-1.91,2.75c-1.836,2.54-3.761,5.009-5.755,7.42c-1.107,1.333-2.266,2.621-3.42,3.913
		c-1.025,1.153-2.073,2.284-3.134,3.403c-4.85,5.093-10.051,9.848-15.593,14.194c-0.234,0.184-0.472,0.363-0.707,0.545
		c-27.373-21.207-46.93-51.996-53.523-87.37c14.479-5.819,30.086-9.428,46.446-10.243c-0.007,0-0.014,0.001-0.021,0.001
		c-16.357,0.797-31.99,4.326-46.459,10.139c-45.065,18.106-78.828,58.371-87.899,107.308C107.069,292.255,125.084,296,144,296
		c33.162,0,63.681-11.22,88-30.066C255.713,247.558,273.522,221.928,282.14,192.375z"/>
	<path style="fill:#FFFF50;" d="M232,168c-1.161,0-2.318,0.016-3.472,0.043c-0.002,0-0.003,0-0.005,0
		C229.679,168.015,230.838,168,232,168z"/>
	<path style="fill:#FFFF50;" d="M284.423,183.499c-0.631,2.821-1.342,5.612-2.136,8.368
		C283.08,189.11,283.793,186.32,284.423,183.499z"/>
	<path style="fill:#FFFF50;" d="M228.053,168.059C228.052,168.059,228.052,168.059,228.053,168.059
		c-1.031,0.028-2.058,0.065-3.083,0.114c-0.007,0-0.014,0.001-0.021,0.001C225.98,168.123,227.016,168.088,228.053,168.059z"/>
	<path style="fill:#FFFF50;" d="M285.478,178.375c-0.258,1.392-0.543,2.774-0.841,4.152
		C284.935,181.148,285.22,179.766,285.478,178.375z"/>
	<path style="fill:#FFFFFF;" d="M224.949,168.174c-0.016,0.001-0.032,0.002-0.048,0.003c-16.36,0.815-31.966,4.424-46.446,10.243
		c6.593,35.375,26.151,66.164,53.523,87.37c0.235-0.183,0.473-0.361,0.707-0.545c5.542-4.346,10.743-9.101,15.593-14.194
		c1.062-1.119,2.109-2.25,3.134-3.403c1.154-1.292,2.313-2.58,3.42-3.913c1.994-2.411,3.919-4.881,5.755-7.42
		c0.656-0.902,1.274-1.832,1.91-2.75c1.701-2.471,3.348-4.981,4.896-7.56c0.289-0.479,0.595-0.947,0.878-1.43
		c1.958-3.351,3.792-6.783,5.481-10.3c0.079-0.165,0.154-0.332,0.232-0.497c3.259-6.855,5.993-14.007,8.155-21.403
		c0.049-0.169,0.099-0.339,0.148-0.508c0.794-2.756,1.505-5.547,2.136-8.368c0.073-0.324,0.144-0.648,0.214-0.973
		c0.298-1.377,0.583-2.76,0.841-4.152c-14.458-5.792-30.037-9.382-46.358-10.196c-0.03-0.001-0.06-0.004-0.09-0.005
		c-1.024-0.05-2.052-0.086-3.082-0.114c-0.159-0.004-0.317-0.012-0.476-0.016C234.318,168.015,233.161,168,232,168
		c-1.162,0-2.321,0.015-3.477,0.043c-0.021,0-0.042,0-0.064,0.001c-0.129,0.003-0.257,0.011-0.386,0.014
		c-0.007,0-0.014,0.001-0.021,0.001C227.016,168.088,225.98,168.123,224.949,168.174z"/>
</g>
<g>
</g>
<g>
</g>
<g>
</g>
<g>
</g>
<g>
</g>
<g>
</g>
<g>
</g>
<g>
</g>
<g>
</g>
<g>
</g>
<g>
</g>
<g>
</g>
<g>
</g>
<g>
</g>
<g>
</g>
</svg>
