<?xml version="1.0" encoding="iso-8859-1"?>
<!-- Generator: Adobe Illustrator 19.0.0, SVG Export Plug-In . SVG Version: 6.00 Build 0)  -->
<svg version="1.1" id="Capa_1" xmlns="http://www.w3.org/2000/svg" xmlns:xlink="http://www.w3.org/1999/xlink" x="0px" y="0px"
	 viewBox="0 0 464 464" style="enable-background:new 0 0 464 464;" xml:space="preserve">
<g>
	<path style="fill:#FFDC69;" d="M272,0h-80c-8.836,0-16,7.163-16,16v432c0,8.836,7.164,16,16,16h80c8.836,0,16-7.164,16-16v-16h-32
		c-4.418,0-8-3.578-8-8s3.582-8,8-8h32v-16h-16c-4.418,0-8-3.578-8-8s3.582-8,8-8h16v-16h-32c-4.418,0-8-3.578-8-8s3.582-8,8-8h32
		v-16h-16c-4.418,0-8-3.578-8-8s3.582-8,8-8h16v-16h-32c-4.418,0-8-3.578-8-8s3.582-8,8-8h32v-16h-16c-4.418,0-8-3.578-8-8
		s3.582-8,8-8h16v-16h-32c-4.418,0-8-3.578-8-8s3.582-8,8-8h32v-16h-16c-4.418,0-8-3.578-8-8s3.582-8,8-8h16v-16h-32
		c-4.418,0-8-3.578-8-8s3.582-8,8-8h32v-16h-16c-4.418,0-8-3.578-8-8s3.582-8,8-8h16v-16h-32c-4.418,0-8-3.578-8-8s3.582-8,8-8h32
		V80h-16c-4.418,0-8-3.578-8-8s3.582-8,8-8h16V48h-32c-4.418,0-8-3.578-8-8s3.582-8,8-8h32V16C288,7.163,280.836,0,272,0z M204,40
		c-6.627,0-12-5.373-12-12s5.373-12,12-12s12,5.373,12,12S210.627,40,204,40z"/>
	<path style="fill:#FFAA64;" d="M264,328c0,4.422,3.582,8,8,8h16v-16h-16C267.582,320,264,323.578,264,328z"/>
	<path style="fill:#FFAA64;" d="M264,264c0,4.422,3.582,8,8,8h16v-16h-16C267.582,256,264,259.578,264,264z"/>
	<path style="fill:#FFAA64;" d="M248,296c0,4.422,3.582,8,8,8h32v-16h-32C251.582,288,248,291.578,248,296z"/>
	<path style="fill:#FFAA64;" d="M248,360c0,4.422,3.582,8,8,8h32v-16h-32C251.582,352,248,355.578,248,360z"/>
	<path style="fill:#FFAA64;" d="M248,424c0,4.422,3.582,8,8,8h32v-16h-32C251.582,416,248,419.578,248,424z"/>
	<path style="fill:#FFAA64;" d="M264,392c0,4.422,3.582,8,8,8h16v-16h-16C267.582,384,264,387.578,264,392z"/>
	<path style="fill:#FFAA64;" d="M248,168c0,4.422,3.582,8,8,8h32v-16h-32C251.582,160,248,163.578,248,168z"/>
	<path style="fill:#FFAA64;" d="M248,232c0,4.422,3.582,8,8,8h32v-16h-32C251.582,224,248,227.578,248,232z"/>
	<path style="fill:#FFAA64;" d="M248,104c0,4.422,3.582,8,8,8h32V96h-32C251.582,96,248,99.578,248,104z"/>
	<path style="fill:#FFAA64;" d="M248,40c0,4.422,3.582,8,8,8h32V32h-32C251.582,32,248,35.578,248,40z"/>
	<path style="fill:#FFAA64;" d="M264,72c0,4.422,3.582,8,8,8h16V64h-16C267.582,64,264,67.578,264,72z"/>
	<path style="fill:#FFAA64;" d="M264,200c0,4.422,3.582,8,8,8h16v-16h-16C267.582,192,264,195.578,264,200z"/>
	<path style="fill:#FFAA64;" d="M264,136c0,4.422,3.582,8,8,8h16v-16h-16C267.582,128,264,131.578,264,136z"/>
</g>
<g>
</g>
<g>
</g>
<g>
</g>
<g>
</g>
<g>
</g>
<g>
</g>
<g>
</g>
<g>
</g>
<g>
</g>
<g>
</g>
<g>
</g>
<g>
</g>
<g>
</g>
<g>
</g>
<g>
</g>
</svg>
