<?xml version="1.0" encoding="iso-8859-1"?>
<!-- Generator: Adobe Illustrator 19.0.0, SVG Export Plug-In . SVG Version: 6.00 Build 0)  -->
<svg version="1.1" id="Capa_1" xmlns="http://www.w3.org/2000/svg" xmlns:xlink="http://www.w3.org/1999/xlink" x="0px" y="0px"
	 viewBox="0 0 464.273 464.273" style="enable-background:new 0 0 464.273 464.273;" xml:space="preserve">
<g>
	<path style="fill:#AFBBD0;" d="M194.581,238.114l9.141-15.13v0l-60.986,100.942c-7.113-2.358-14.705-3.653-22.599-3.653
		c-39.699,0-72,32.297-72,72s32.301,72,72,72s72-32.297,72-72c0-20.307-8.464-38.663-22.032-51.765l51.599-85.405
		C210.798,252.683,201.302,246.562,194.581,238.114z M120.137,432.273c-22.055,0-40-17.945-40-40s17.945-40,40-40s40,17.945,40,40
		S142.191,432.273,120.137,432.273z"/>
	<path style="fill:#AFBBD0;" d="M259.757,192.12l89.528-148.183C358.423,28.81,353.569,9.139,338.441,0L232.137,175.952l0.197,0.326
		C244.03,176.349,254.233,182.695,259.757,192.12z"/>
	<path style="fill:#A1A8BB;" d="M203.721,222.985l-9.141,15.13c6.721,8.448,16.217,14.569,27.123,16.989l0,0l8.982-14.867
		C218.935,239.712,208.839,232.849,203.721,222.985z"/>
	<path style="fill:#D1D9E9;" d="M344.137,320.273c-7.893,0-15.486,1.295-22.599,3.653l-60.986-100.942
		c2.286-4.406,3.585-9.405,3.585-14.711c0-5.894-1.6-11.411-4.38-16.154c-5.524-9.424-15.727-15.77-27.423-15.841l-0.197-0.326
		L125.832,0c-15.127,9.139-19.982,28.81-10.843,43.937l89.527,148.183c-2.78,4.742-4.38,10.26-4.38,16.153
		c0,5.306,1.299,10.306,3.585,14.711v0c5.118,9.865,15.214,16.728,26.965,17.252c0.481,0.021,0.964,0.037,1.45,0.037
		s0.969-0.015,1.45-0.037l60.581,100.272c-13.568,13.102-22.031,31.457-22.031,51.765c0,39.703,32.301,72,72,72s72-32.297,72-72
		S383.836,320.273,344.137,320.273z M216.137,208.273c0-8.837,7.163-16,16-16s16,7.163,16,16c0,8.837-7.163,16-16,16
		S216.137,217.11,216.137,208.273z M344.137,432.273c-22.055,0-40-17.945-40-40s17.945-40,40-40s40,17.945,40,40
		S366.191,432.273,344.137,432.273z"/>
	<circle style="fill:#AFBBD0;" cx="232.137" cy="208.273" r="16"/>
</g>
<g>
</g>
<g>
</g>
<g>
</g>
<g>
</g>
<g>
</g>
<g>
</g>
<g>
</g>
<g>
</g>
<g>
</g>
<g>
</g>
<g>
</g>
<g>
</g>
<g>
</g>
<g>
</g>
<g>
</g>
</svg>
