<?xml version="1.0" encoding="iso-8859-1"?>
<!-- Generator: Adobe Illustrator 19.0.0, SVG Export Plug-In . SVG Version: 6.00 Build 0)  -->
<svg version="1.1" id="Capa_1" xmlns="http://www.w3.org/2000/svg" xmlns:xlink="http://www.w3.org/1999/xlink" x="0px" y="0px"
	 viewBox="0 0 464 464" style="enable-background:new 0 0 464 464;" xml:space="preserve">
<g>
	<path style="fill:#D2DCF0;" d="M440,56H24C10.745,56,0,66.745,0,80v304c0,13.255,10.745,24,24,24h416c13.255,0,24-10.745,24-24V80
		C464,66.745,453.255,56,440,56z M400,72h8c4.418,0,8,3.582,8,8s-3.582,8-8,8h-8c-4.418,0-8-3.582-8-8S395.582,72,400,72z M176,72
		h192c4.418,0,8,3.582,8,8s-3.582,8-8,8H176c-4.418,0-8-3.582-8-8S171.582,72,176,72z M136,72h8c4.418,0,8,3.582,8,8s-3.582,8-8,8
		h-8c-4.418,0-8-3.582-8-8S131.582,72,136,72z M104,72h8c4.418,0,8,3.582,8,8s-3.582,8-8,8h-8c-4.418,0-8-3.582-8-8
		S99.582,72,104,72z M72,72c4.418,0,8,3.582,8,8s-3.582,8-8,8s-8-3.582-8-8S67.582,72,72,72z M48,72c4.418,0,8,3.582,8,8
		s-3.582,8-8,8s-8-3.582-8-8S43.582,72,48,72z M24,72c4.418,0,8,3.582,8,8s-3.582,8-8,8s-8-3.582-8-8S19.582,72,24,72z M448,152v232
		c0,4.418-3.582,8-8,8H24c-4.418,0-8-3.582-8-8V152v-40c0-4.418,3.582-8,8-8h416c4.418,0,8,3.582,8,8V152z M440,88h-8
		c-4.418,0-8-3.582-8-8s3.582-8,8-8h8c4.418,0,8,3.582,8,8S444.418,88,440,88z"/>
	<path style="fill:#FFFFFF;" d="M16,384c0,4.418,3.582,8,8,8h416c4.418,0,8-3.582,8-8V152H16V384z M344,192v-8c0-4.418,3.582-8,8-8
		h64c4.418,0,8,3.582,8,8v8v64c0,4.418-3.582,8-8,8h-64c-4.418,0-8-3.582-8-8V192z M240,192v-8c0-4.418,3.582-8,8-8h64
		c4.418,0,8,3.582,8,8v8v64c0,4.418-3.582,8-8,8h-64c-4.418,0-8-3.582-8-8V192z M240,296c0-4.418,3.582-8,8-8h8h160
		c4.418,0,8,3.582,8,8v64c0,4.418-3.582,8-8,8H256h-8c-4.418,0-8-3.582-8-8V296z M40,184c0-4.418,3.582-8,8-8h160
		c4.418,0,8,3.582,8,8v176c0,4.418-3.582,8-8,8h-9.283H57.268H48c-4.418,0-8-3.582-8-8V184z"/>
	<circle style="fill:#FF6469;" cx="24" cy="80" r="8"/>
	<circle style="fill:#FFE169;" cx="48" cy="80" r="8"/>
	<circle style="fill:#87E1AA;" cx="72" cy="80" r="8"/>
	<path style="fill:#E4EAF6;" d="M104,88h8c4.418,0,8-3.582,8-8s-3.582-8-8-8h-8c-4.418,0-8,3.582-8,8S99.582,88,104,88z"/>
	<path style="fill:#E4EAF6;" d="M136,88h8c4.418,0,8-3.582,8-8s-3.582-8-8-8h-8c-4.418,0-8,3.582-8,8S131.582,88,136,88z"/>
	<path style="fill:#E4EAF6;" d="M400,88h8c4.418,0,8-3.582,8-8s-3.582-8-8-8h-8c-4.418,0-8,3.582-8,8S395.582,88,400,88z"/>
	<path style="fill:#E4EAF6;" d="M440,72h-8c-4.418,0-8,3.582-8,8s3.582,8,8,8h8c4.418,0,8-3.582,8-8S444.418,72,440,72z"/>
	<path style="fill:#E4EAF6;" d="M176,88h192c4.418,0,8-3.582,8-8s-3.582-8-8-8H176c-4.418,0-8,3.582-8,8S171.582,88,176,88z"/>
	<path style="fill:#FF6469;" d="M440,104H24c-4.418,0-8,3.582-8,8v40h432v-40C448,107.582,444.418,104,440,104z M104,136H40
		c-4.418,0-8-3.582-8-8s3.582-8,8-8h64c4.418,0,8,3.582,8,8S108.418,136,104,136z M168,136h-32c-4.418,0-8-3.582-8-8s3.582-8,8-8h32
		c4.418,0,8,3.582,8,8S172.418,136,168,136z M232,136h-32c-4.418,0-8-3.582-8-8s3.582-8,8-8h32c4.418,0,8,3.582,8,8
		S236.418,136,232,136z M296,136h-32c-4.418,0-8-3.582-8-8s3.582-8,8-8h32c4.418,0,8,3.582,8,8S300.418,136,296,136z M360,136h-32
		c-4.418,0-8-3.582-8-8s3.582-8,8-8h32c4.418,0,8,3.582,8,8S364.418,136,360,136z M424,136h-32c-4.418,0-8-3.582-8-8s3.582-8,8-8h32
		c4.418,0,8,3.582,8,8S428.418,136,424,136z"/>
	<path style="fill:#FFDC69;" d="M104,120H40c-4.418,0-8,3.582-8,8s3.582,8,8,8h64c4.418,0,8-3.582,8-8S108.418,120,104,120z"/>
	<path style="fill:#D2555F;" d="M168,120h-32c-4.418,0-8,3.582-8,8s3.582,8,8,8h32c4.418,0,8-3.582,8-8S172.418,120,168,120z"/>
	<path style="fill:#D2555F;" d="M232,120h-32c-4.418,0-8,3.582-8,8s3.582,8,8,8h32c4.418,0,8-3.582,8-8S236.418,120,232,120z"/>
	<path style="fill:#D2555F;" d="M296,120h-32c-4.418,0-8,3.582-8,8s3.582,8,8,8h32c4.418,0,8-3.582,8-8S300.418,120,296,120z"/>
	<path style="fill:#D2555F;" d="M360,120h-32c-4.418,0-8,3.582-8,8s3.582,8,8,8h32c4.418,0,8-3.582,8-8S364.418,120,360,120z"/>
	<path style="fill:#D2555F;" d="M424,120h-32c-4.418,0-8,3.582-8,8s3.582,8,8,8h32c4.418,0,8-3.582,8-8S428.418,120,424,120z"/>
	<path style="fill:#DEE3ED;" d="M248,264h64c4.418,0,8-3.582,8-8v-64c0,4.418-3.582,8-8,8h-64c-4.418,0-8-3.582-8-8v64
		C240,260.418,243.582,264,248,264z"/>
	<path style="fill:#DEE3ED;" d="M352,264h64c4.418,0,8-3.582,8-8v-64c0,4.418-3.582,8-8,8h-64c-4.418,0-8-3.582-8-8v64
		C344,260.418,347.582,264,352,264z"/>
	<path style="fill:#FF969B;" d="M248,200h64c4.418,0,8-3.582,8-8v-8c0-4.418-3.582-8-8-8h-64c-4.418,0-8,3.582-8,8v8
		C240,196.418,243.582,200,248,200z"/>
	<path style="fill:#A0DCF0;" d="M352,200h64c4.418,0,8-3.582,8-8v-8c0-4.418-3.582-8-8-8h-64c-4.418,0-8,3.582-8,8v8
		C344,196.418,347.582,200,352,200z"/>
	<path style="fill:#DEE3ED;" d="M264,296v64c0,4.418-3.582,8-8,8h160c4.418,0,8-3.582,8-8v-64c0-4.418-3.582-8-8-8H256
		C260.418,288,264,291.582,264,296z"/>
	<path style="fill:#91E6BE;" d="M248,368h8c4.418,0,8-3.582,8-8v-64c0-4.418-3.582-8-8-8h-8c-4.418,0-8,3.582-8,8v64
		C240,364.418,243.582,368,248,368z"/>
	<path style="fill:#FFDC69;" d="M48,368h9.268v-20.175c0-13.734,10.136-27.779,23.076-31.969l19.137-5.601
		c0,0,0.389-13.802,0.404-15.188c-8.121-7.637-13.238-18.497-13.238-30.569v-3.903c-1.568-3.747-5.9-15.225-5.9-27.75
		c0-15.311,10.577-27.307,24.08-27.307c0.714,0,1.794,0.078,3.052,0.266c9.234-8.887,22.573-5.672,34.405-2.746
		c7.287,1.801,14.83,3.667,18.975,1.945c2.389-0.99,5.152-0.293,6.801,1.709c4.916,5.976,12.127,28.505,1.249,49.215v3.642
		c0.019,0.319,0.032,0.623,0,0.941v3.988c0,12.084-5.128,22.954-13.263,30.591c0.028,1.419,0.408,15.148,0.408,15.148l19.025,5.566
		c13.101,4.242,23.237,18.287,23.237,32.021V368H208c4.418,0,8-3.582,8-8V184c0-4.418-3.582-8-8-8H48c-4.418,0-8,3.582-8,8v176
		C40,364.418,43.582,368,48,368z"/>
	<path style="fill:#FF6469;" d="M175.479,315.804l-19.025-5.566c0,0-0.38-13.729-0.408-15.148
		c8.135-7.638,13.263-18.507,13.263-30.591v-3.988c0.032-0.318,0.019-0.622,0-0.941v-3.642c10.878-20.709,3.667-43.239-1.249-49.215
		c-1.649-2.003-4.412-2.7-6.801-1.709c-4.144,1.721-11.688-0.144-18.975-1.945c-11.832-2.926-25.171-6.141-34.405,2.746
		c-1.258-0.188-2.338-0.266-3.052-0.266c-13.504,0-24.08,11.996-24.08,27.307c0,12.525,4.331,24.003,5.9,27.75v3.903
		c0,12.072,5.117,22.932,13.238,30.569c-0.015,1.386-0.404,15.188-0.404,15.188l-19.137,5.601
		c-12.94,4.19-23.076,18.235-23.076,31.969V368h141.449v-20.175C198.717,334.091,188.58,320.046,175.479,315.804z"/>
</g>
<g>
</g>
<g>
</g>
<g>
</g>
<g>
</g>
<g>
</g>
<g>
</g>
<g>
</g>
<g>
</g>
<g>
</g>
<g>
</g>
<g>
</g>
<g>
</g>
<g>
</g>
<g>
</g>
<g>
</g>
</svg>
