<?xml version="1.0" encoding="iso-8859-1"?>
<!-- Generator: Adobe Illustrator 19.0.0, SVG Export Plug-In . SVG Version: 6.00 Build 0)  -->
<svg version="1.1" id="Capa_1" xmlns="http://www.w3.org/2000/svg" xmlns:xlink="http://www.w3.org/1999/xlink" x="0px" y="0px"
	 viewBox="0 0 464 464" style="enable-background:new 0 0 464 464;" xml:space="preserve">
<g>
	<path style="fill:#D2DCF0;" d="M440,56H24C10.745,56,0,66.745,0,80v304c0,13.255,10.745,24,24,24h416c13.255,0,24-10.745,24-24V80
		C464,66.745,453.255,56,440,56z M400,72h8c4.418,0,8,3.582,8,8s-3.582,8-8,8h-8c-4.418,0-8-3.582-8-8S395.582,72,400,72z M176,72
		h192c4.418,0,8,3.582,8,8s-3.582,8-8,8H176c-4.418,0-8-3.582-8-8S171.582,72,176,72z M136,72h8c4.418,0,8,3.582,8,8s-3.582,8-8,8
		h-8c-4.418,0-8-3.582-8-8S131.582,72,136,72z M104,72h8c4.418,0,8,3.582,8,8s-3.582,8-8,8h-8c-4.418,0-8-3.582-8-8
		S99.582,72,104,72z M72,72c4.418,0,8,3.582,8,8s-3.582,8-8,8s-8-3.582-8-8S67.582,72,72,72z M48,72c4.418,0,8,3.582,8,8
		s-3.582,8-8,8s-8-3.582-8-8S43.582,72,48,72z M24,72c4.418,0,8,3.582,8,8s-3.582,8-8,8s-8-3.582-8-8S19.582,72,24,72z M448,152v232
		c0,4.418-3.582,8-8,8H24c-4.418,0-8-3.582-8-8V152v-40c0-4.418,3.582-8,8-8h416c4.418,0,8,3.582,8,8V152z M440,88h-8
		c-4.418,0-8-3.582-8-8s3.582-8,8-8h8c4.418,0,8,3.582,8,8S444.418,88,440,88z"/>
	<path style="fill:#FFFFFF;" d="M16,384c0,4.418,3.582,8,8,8h416c4.418,0,8-3.582,8-8V152H16V384z M360,192v-8c0-4.418,3.582-8,8-8
		h48c4.418,0,8,3.582,8,8v8v64c0,4.418-3.582,8-8,8h-48c-4.418,0-8-3.582-8-8V192z M272,192v-8c0-4.418,3.582-8,8-8h48
		c4.418,0,8,3.582,8,8v8v64c0,4.418-3.582,8-8,8h-48c-4.418,0-8-3.582-8-8V192z M272,296c0-4.418,3.582-8,8-8h8h128
		c4.418,0,8,3.582,8,8v64c0,4.418-3.582,8-8,8H288h-8c-4.418,0-8-3.582-8-8V296z M184,192v-8c0-4.418,3.582-8,8-8h48
		c4.418,0,8,3.582,8,8v8v64c0,4.418-3.582,8-8,8h-48c-4.418,0-8-3.582-8-8V192z M40,192v-8c0-4.418,3.582-8,8-8h104
		c4.418,0,8,3.582,8,8v8v64c0,4.418-3.582,8-8,8H48c-4.418,0-8-3.582-8-8V192z M40,296c0-4.418,3.582-8,8-8h8h184
		c4.418,0,8,3.582,8,8v64c0,4.418-3.582,8-8,8H56h-8c-4.418,0-8-3.582-8-8V296z"/>
	<circle style="fill:#FF6469;" cx="24" cy="80" r="8"/>
	<circle style="fill:#FFE169;" cx="48" cy="80" r="8"/>
	<circle style="fill:#87E1AA;" cx="72" cy="80" r="8"/>
	<path style="fill:#E4EAF6;" d="M104,88h8c4.418,0,8-3.582,8-8s-3.582-8-8-8h-8c-4.418,0-8,3.582-8,8S99.582,88,104,88z"/>
	<path style="fill:#E4EAF6;" d="M136,88h8c4.418,0,8-3.582,8-8s-3.582-8-8-8h-8c-4.418,0-8,3.582-8,8S131.582,88,136,88z"/>
	<path style="fill:#E4EAF6;" d="M400,88h8c4.418,0,8-3.582,8-8s-3.582-8-8-8h-8c-4.418,0-8,3.582-8,8S395.582,88,400,88z"/>
	<path style="fill:#E4EAF6;" d="M440,72h-8c-4.418,0-8,3.582-8,8s3.582,8,8,8h8c4.418,0,8-3.582,8-8S444.418,72,440,72z"/>
	<path style="fill:#E4EAF6;" d="M176,88h192c4.418,0,8-3.582,8-8s-3.582-8-8-8H176c-4.418,0-8,3.582-8,8S171.582,88,176,88z"/>
	<path style="fill:#FF6469;" d="M440,104H24c-4.418,0-8,3.582-8,8v40h432v-40C448,107.582,444.418,104,440,104z M104,136H40
		c-4.418,0-8-3.582-8-8s3.582-8,8-8h64c4.418,0,8,3.582,8,8S108.418,136,104,136z M168,136h-32c-4.418,0-8-3.582-8-8s3.582-8,8-8h32
		c4.418,0,8,3.582,8,8S172.418,136,168,136z M232,136h-32c-4.418,0-8-3.582-8-8s3.582-8,8-8h32c4.418,0,8,3.582,8,8
		S236.418,136,232,136z M296,136h-32c-4.418,0-8-3.582-8-8s3.582-8,8-8h32c4.418,0,8,3.582,8,8S300.418,136,296,136z M360,136h-32
		c-4.418,0-8-3.582-8-8s3.582-8,8-8h32c4.418,0,8,3.582,8,8S364.418,136,360,136z M424,136h-32c-4.418,0-8-3.582-8-8s3.582-8,8-8h32
		c4.418,0,8,3.582,8,8S428.418,136,424,136z"/>
	<path style="fill:#FFDC69;" d="M104,120H40c-4.418,0-8,3.582-8,8s3.582,8,8,8h64c4.418,0,8-3.582,8-8S108.418,120,104,120z"/>
	<path style="fill:#D2555F;" d="M168,120h-32c-4.418,0-8,3.582-8,8s3.582,8,8,8h32c4.418,0,8-3.582,8-8S172.418,120,168,120z"/>
	<path style="fill:#D2555F;" d="M232,120h-32c-4.418,0-8,3.582-8,8s3.582,8,8,8h32c4.418,0,8-3.582,8-8S236.418,120,232,120z"/>
	<path style="fill:#D2555F;" d="M296,120h-32c-4.418,0-8,3.582-8,8s3.582,8,8,8h32c4.418,0,8-3.582,8-8S300.418,120,296,120z"/>
	<path style="fill:#D2555F;" d="M360,120h-32c-4.418,0-8,3.582-8,8s3.582,8,8,8h32c4.418,0,8-3.582,8-8S364.418,120,360,120z"/>
	<path style="fill:#D2555F;" d="M424,120h-32c-4.418,0-8,3.582-8,8s3.582,8,8,8h32c4.418,0,8-3.582,8-8S428.418,120,424,120z"/>
	<path style="fill:#DEE3ED;" d="M48,264h104c4.418,0,8-3.582,8-8v-64c0,4.418-3.582,8-8,8H48c-4.418,0-8-3.582-8-8v64
		C40,260.418,43.582,264,48,264z"/>
	<path style="fill:#DEE3ED;" d="M192,264h48c4.418,0,8-3.582,8-8v-64c0,4.418-3.582,8-8,8h-48c-4.418,0-8-3.582-8-8v64
		C184,260.418,187.582,264,192,264z"/>
	<path style="fill:#DEE3ED;" d="M280,264h48c4.418,0,8-3.582,8-8v-64c0,4.418-3.582,8-8,8h-48c-4.418,0-8-3.582-8-8v64
		C272,260.418,275.582,264,280,264z"/>
	<path style="fill:#DEE3ED;" d="M368,264h48c4.418,0,8-3.582,8-8v-64c0,4.418-3.582,8-8,8h-48c-4.418,0-8-3.582-8-8v64
		C360,260.418,363.582,264,368,264z"/>
	<path style="fill:#FFDC69;" d="M48,200h104c4.418,0,8-3.582,8-8v-8c0-4.418-3.582-8-8-8H48c-4.418,0-8,3.582-8,8v8
		C40,196.418,43.582,200,48,200z"/>
	<path style="fill:#B4E173;" d="M192,200h48c4.418,0,8-3.582,8-8v-8c0-4.418-3.582-8-8-8h-48c-4.418,0-8,3.582-8,8v8
		C184,196.418,187.582,200,192,200z"/>
	<path style="fill:#FF969B;" d="M280,200h48c4.418,0,8-3.582,8-8v-8c0-4.418-3.582-8-8-8h-48c-4.418,0-8,3.582-8,8v8
		C272,196.418,275.582,200,280,200z"/>
	<path style="fill:#A0DCF0;" d="M368,200h48c4.418,0,8-3.582,8-8v-8c0-4.418-3.582-8-8-8h-48c-4.418,0-8,3.582-8,8v8
		C360,196.418,363.582,200,368,200z"/>
	<path style="fill:#DEE3ED;" d="M64,296v64c0,4.418-3.582,8-8,8h184c4.418,0,8-3.582,8-8v-64c0-4.418-3.582-8-8-8H56
		C60.418,288,64,291.582,64,296z"/>
	<path style="fill:#DEE3ED;" d="M296,296v64c0,4.418-3.582,8-8,8h128c4.418,0,8-3.582,8-8v-64c0-4.418-3.582-8-8-8H288
		C292.418,288,296,291.582,296,296z"/>
	<path style="fill:#C3B4FA;" d="M48,368h8c4.418,0,8-3.582,8-8v-64c0-4.418-3.582-8-8-8h-8c-4.418,0-8,3.582-8,8v64
		C40,364.418,43.582,368,48,368z"/>
	<path style="fill:#91E6BE;" d="M280,368h8c4.418,0,8-3.582,8-8v-64c0-4.418-3.582-8-8-8h-8c-4.418,0-8,3.582-8,8v64
		C272,364.418,275.582,368,280,368z"/>
</g>
<g>
</g>
<g>
</g>
<g>
</g>
<g>
</g>
<g>
</g>
<g>
</g>
<g>
</g>
<g>
</g>
<g>
</g>
<g>
</g>
<g>
</g>
<g>
</g>
<g>
</g>
<g>
</g>
<g>
</g>
</svg>
