<?xml version="1.0" encoding="iso-8859-1"?>
<!-- Generator: Adobe Illustrator 19.0.0, SVG Export Plug-In . SVG Version: 6.00 Build 0)  -->
<svg version="1.1" id="Capa_1" xmlns="http://www.w3.org/2000/svg" xmlns:xlink="http://www.w3.org/1999/xlink" x="0px" y="0px"
	 viewBox="0 0 464 464" style="enable-background:new 0 0 464 464;" xml:space="preserve">
<g>
	<path style="fill:#D2DCF0;" d="M440,56H24C10.745,56,0,66.745,0,80v304c0,13.255,10.745,24,24,24h416c13.255,0,24-10.745,24-24V80
		C464,66.745,453.255,56,440,56z M400,72h8c4.418,0,8,3.582,8,8s-3.582,8-8,8h-8c-4.418,0-8-3.582-8-8S395.582,72,400,72z M176,72
		h192c4.418,0,8,3.582,8,8s-3.582,8-8,8H176c-4.418,0-8-3.582-8-8S171.582,72,176,72z M136,72h8c4.418,0,8,3.582,8,8s-3.582,8-8,8
		h-8c-4.418,0-8-3.582-8-8S131.582,72,136,72z M104,72h8c4.418,0,8,3.582,8,8s-3.582,8-8,8h-8c-4.418,0-8-3.582-8-8
		S99.582,72,104,72z M72,72c4.418,0,8,3.582,8,8s-3.582,8-8,8s-8-3.582-8-8S67.582,72,72,72z M48,72c4.418,0,8,3.582,8,8
		s-3.582,8-8,8s-8-3.582-8-8S43.582,72,48,72z M24,72c4.418,0,8,3.582,8,8s-3.582,8-8,8s-8-3.582-8-8S19.582,72,24,72z M448,384
		c0,4.418-3.582,8-8,8H24c-4.418,0-8-3.582-8-8V112c0-4.418,3.582-8,8-8h416c4.418,0,8,3.582,8,8V384z M440,88h-8
		c-4.418,0-8-3.582-8-8s3.582-8,8-8h8c4.418,0,8,3.582,8,8S444.418,88,440,88z"/>
	<path style="fill:#6EAADC;" d="M440,104H24c-4.418,0-8,3.582-8,8v272c0,4.418,3.582,8,8,8h416c4.418,0,8-3.582,8-8V112
		C448,107.582,444.418,104,440,104z M345.266,257.699C320.167,290.519,278.841,312,232,312s-88.167-21.481-113.266-54.301
		c-4.358-5.699-4.358-13.699,0-19.398C143.833,205.481,185.159,184,232,184s88.167,21.481,113.266,54.301
		C349.624,244,349.624,252,345.266,257.699z"/>
	<path style="fill:#FFFFFF;" d="M232,184c-46.841,0-88.167,21.481-113.266,54.301c-4.358,5.699-4.358,13.699,0,19.398
		C143.833,290.519,185.159,312,232,312s88.167-21.481,113.266-54.301c4.358-5.699,4.358-13.699,0-19.398
		C320.167,205.481,278.841,184,232,184z M235.193,295.883c-0.058,0.004-0.116,0.009-0.174,0.013C234.02,295.958,233.015,296,232,296
		c-2.485,0-4.926-0.189-7.31-0.553c-20.657-3.156-36.981-19.48-40.137-40.137c-0.364-2.384-0.553-4.825-0.553-7.31
		s0.189-4.926,0.553-7.31c3.156-20.657,19.48-36.98,40.137-40.137c2.383-0.364,4.825-0.553,7.31-0.553
		c1.015,0,2.02,0.042,3.019,0.104c0.058,0.004,0.116,0.009,0.174,0.013C260.213,201.763,280,222.564,280,248
		S260.213,294.237,235.193,295.883z"/>
	<circle style="fill:#FF6469;" cx="24" cy="80" r="8"/>
	<circle style="fill:#FFE169;" cx="48" cy="80" r="8"/>
	<circle style="fill:#87E1AA;" cx="72" cy="80" r="8"/>
	<path style="fill:#E4EAF6;" d="M104,88h8c4.418,0,8-3.582,8-8s-3.582-8-8-8h-8c-4.418,0-8,3.582-8,8S99.582,88,104,88z"/>
	<path style="fill:#E4EAF6;" d="M136,88h8c4.418,0,8-3.582,8-8s-3.582-8-8-8h-8c-4.418,0-8,3.582-8,8S131.582,88,136,88z"/>
	<path style="fill:#E4EAF6;" d="M400,88h8c4.418,0,8-3.582,8-8s-3.582-8-8-8h-8c-4.418,0-8,3.582-8,8S395.582,88,400,88z"/>
	<path style="fill:#E4EAF6;" d="M440,72h-8c-4.418,0-8,3.582-8,8s3.582,8,8,8h8c4.418,0,8-3.582,8-8S444.418,72,440,72z"/>
	<path style="fill:#E4EAF6;" d="M176,88h192c4.418,0,8-3.582,8-8s-3.582-8-8-8H176c-4.418,0-8,3.582-8,8S171.582,88,176,88z"/>
	<path style="fill:#6EAADC;" d="M235.019,295.896C234.022,295.963,233.015,296,232,296C233.015,296,234.02,295.958,235.019,295.896z
		"/>
	<path style="fill:#6EAADC;" d="M235.193,200.117c3.02,0.215,5.959,0.722,8.807,1.456c-20.691,5.336-36,24.068-36,46.427
		c0-13.255,10.745-24,24-24c2.465,0,4.842,0.373,7.08,1.063c1.503-0.677,3.165-1.063,4.92-1.063c6.627,0,12,5.373,12,12
		c0,1.755-0.386,3.417-1.063,4.92c0.69,2.238,1.063,4.615,1.063,7.08c0,13.255-10.745,24-24,24c-3.705,0-7.213-0.841-10.346-2.34
		c-1.447,1.446-3.446,2.34-5.654,2.34c-0.565,0-1.116-0.06-1.648-0.172c6.357,11.053,16.991,19.334,29.648,22.599
		c-2.848,0.734-5.786,1.241-8.807,1.456C260.213,294.237,280,273.436,280,248S260.213,201.763,235.193,200.117z"/>
	<path style="fill:#6EAADC;" d="M232,200c1.015,0,2.022,0.037,3.019,0.104C234.02,200.042,233.015,200,232,200z"/>
	<path style="fill:#6EAADC;" d="M210.34,258.347c-1.499-3.133-2.34-6.642-2.34-10.347c0,3.962,0.49,7.807,1.396,11.487
		C209.676,259.079,209.991,258.696,210.34,258.347z"/>
	<path style="fill:#4B8CC8;" d="M214.352,271.828c-3.627-0.76-6.352-3.975-6.352-7.828c0-1.675,0.516-3.228,1.396-4.513
		C208.49,255.807,208,251.962,208,248c0-22.358,15.309-41.09,36-46.427c-2.848-0.734-5.786-1.241-8.807-1.456
		c-0.058-0.004-0.116-0.009-0.174-0.013C234.022,200.037,233.015,200,232,200c-2.485,0-4.926,0.189-7.31,0.553
		c-20.657,3.156-36.981,19.48-40.137,40.137c-0.364,2.384-0.553,4.825-0.553,7.31s0.189,4.926,0.553,7.31
		c3.156,20.657,19.48,36.98,40.137,40.137c2.383,0.364,4.825,0.553,7.31,0.553c1.015,0,2.022-0.037,3.019-0.104
		c0.058-0.004,0.116-0.009,0.174-0.013c3.02-0.215,5.959-0.722,8.807-1.456C231.343,291.163,220.709,282.881,214.352,271.828z"/>
	<path style="fill:#535463;" d="M216,256c4.418,0,8,3.582,8,8c0,2.211-0.897,4.212-2.346,5.66c3.133,1.5,6.641,2.34,10.346,2.34
		c13.255,0,24-10.745,24-24c0-2.465-0.373-4.842-1.063-7.08c-1.88,4.171-6.065,7.08-10.937,7.08c-6.627,0-12-5.373-12-12
		c0-4.872,2.909-9.058,7.08-10.937c-2.238-0.69-4.616-1.063-7.08-1.063c-13.255,0-24,10.745-24,24c0,3.705,0.841,7.213,2.34,10.347
		C211.788,256.897,213.789,256,216,256z"/>
	<path style="fill:#FFFFFF;" d="M232,236c0,6.627,5.373,12,12,12c4.872,0,9.057-2.909,10.937-7.08
		c0.677-1.503,1.063-3.165,1.063-4.92c0-6.627-5.373-12-12-12c-1.755,0-3.417,0.386-4.92,1.063C234.909,226.942,232,231.128,232,236
		z"/>
	<path style="fill:#FFFFFF;" d="M224,264c0-4.418-3.582-8-8-8c-2.211,0-4.212,0.897-5.66,2.347
		c-0.349,0.349-0.664,0.732-0.944,1.141c-0.88,1.285-1.396,2.838-1.396,4.513c0,3.853,2.725,7.068,6.352,7.828
		C214.884,271.94,215.435,272,216,272c2.208,0,4.206-0.895,5.654-2.34C223.103,268.212,224,266.211,224,264z"/>
</g>
<g>
</g>
<g>
</g>
<g>
</g>
<g>
</g>
<g>
</g>
<g>
</g>
<g>
</g>
<g>
</g>
<g>
</g>
<g>
</g>
<g>
</g>
<g>
</g>
<g>
</g>
<g>
</g>
<g>
</g>
</svg>
