<?xml version="1.0" encoding="iso-8859-1"?>
<!-- Generator: Adobe Illustrator 19.0.0, SVG Export Plug-In . SVG Version: 6.00 Build 0)  -->
<svg version="1.1" id="Capa_1" xmlns="http://www.w3.org/2000/svg" xmlns:xlink="http://www.w3.org/1999/xlink" x="0px" y="0px"
	 viewBox="0 0 464 464" style="enable-background:new 0 0 464 464;" xml:space="preserve">
<g>
	<path style="fill:#E4EAF6;" d="M440,56H24C10.745,56,0,66.745,0,80v304c0,13.255,10.745,24,24,24h416c13.255,0,24-10.745,24-24V80
		C464,66.745,453.255,56,440,56z M424,248c0,4.418-3.582,8-8,8h-24v48h24c4.418,0,8,3.582,8,8v32c0,4.418-3.582,8-8,8h-64
		c-4.418,0-8-3.582-8-8v-32c0-4.418,3.582-8,8-8h24v-48h-80v48h24c4.418,0,8,3.582,8,8v32c0,4.418-3.582,8-8,8h-64
		c-4.418,0-8-3.582-8-8v-32c0-4.418,3.582-8,8-8h24v-48h-24c-4.418,0-8-3.582-8-8v-32c0-4.418,3.582-8,8-8h72v-48H136v48h72
		c4.418,0,8,3.582,8,8v32c0,4.418-3.582,8-8,8h-24v48h24c4.418,0,8,3.582,8,8v32c0,4.418-3.582,8-8,8h-64c-4.418,0-8-3.582-8-8v-32
		c0-4.418,3.582-8,8-8h24v-48H88v48h24c4.418,0,8,3.582,8,8v32c0,4.418-3.582,8-8,8H48c-4.418,0-8-3.582-8-8v-32
		c0-4.418,3.582-8,8-8h24v-48H48c-4.418,0-8-3.582-8-8v-32c0-4.418,3.582-8,8-8h72v-48h-16c-4.418,0-8-3.582-8-8v-32
		c0-4.418,3.582-8,8-8h256c4.418,0,8,3.582,8,8v32c0,4.418-3.582,8-8,8h-16v48h72c4.418,0,8,3.582,8,8V248z"/>
	<path style="fill:#FF6469;" d="M360,160c4.418,0,8-3.582,8-8v-32c0-4.418-3.582-8-8-8H104c-4.418,0-8,3.582-8,8v32
		c0,4.418,3.582,8,8,8h16h16h192h16H360z"/>
	<path style="fill:#FFDC69;" d="M48,208c-4.418,0-8,3.582-8,8v32c0,4.418,3.582,8,8,8h24h16h80h16h24c4.418,0,8-3.582,8-8v-32
		c0-4.418-3.582-8-8-8h-72h-16H48z"/>
	<path style="fill:#A0DCF0;" d="M48,304c-4.418,0-8,3.582-8,8v32c0,4.418,3.582,8,8,8h64c4.418,0,8-3.582,8-8v-32
		c0-4.418-3.582-8-8-8H88H72H48z"/>
	<path style="fill:#C3B4FA;" d="M144,304c-4.418,0-8,3.582-8,8v32c0,4.418,3.582,8,8,8h64c4.418,0,8-3.582,8-8v-32
		c0-4.418-3.582-8-8-8h-24h-16H144z"/>
	<path style="fill:#B4E173;" d="M416,208h-72h-16h-72c-4.418,0-8,3.582-8,8v32c0,4.418,3.582,8,8,8h24h16h80h16h24
		c4.418,0,8-3.582,8-8v-32C424,211.582,420.418,208,416,208z"/>
	<path style="fill:#91E6BE;" d="M256,304c-4.418,0-8,3.582-8,8v32c0,4.418,3.582,8,8,8h64c4.418,0,8-3.582,8-8v-32
		c0-4.418-3.582-8-8-8h-24h-16H256z"/>
	<path style="fill:#FFAFD7;" d="M352,304c-4.418,0-8,3.582-8,8v32c0,4.418,3.582,8,8,8h64c4.418,0,8-3.582,8-8v-32
		c0-4.418-3.582-8-8-8h-24h-16H352z"/>
	<rect x="120" y="160" style="fill:#BEC8DC;" width="16" height="48"/>
	<rect x="328" y="160" style="fill:#BEC8DC;" width="16" height="48"/>
	<rect x="280" y="256" style="fill:#BEC8DC;" width="16" height="48"/>
	<rect x="376" y="256" style="fill:#BEC8DC;" width="16" height="48"/>
	<rect x="72" y="256" style="fill:#BEC8DC;" width="16" height="48"/>
	<rect x="168" y="256" style="fill:#BEC8DC;" width="16" height="48"/>
</g>
<g>
</g>
<g>
</g>
<g>
</g>
<g>
</g>
<g>
</g>
<g>
</g>
<g>
</g>
<g>
</g>
<g>
</g>
<g>
</g>
<g>
</g>
<g>
</g>
<g>
</g>
<g>
</g>
<g>
</g>
</svg>
