<?xml version="1.0" encoding="iso-8859-1"?>
<!-- Generator: Adobe Illustrator 19.0.0, SVG Export Plug-In . SVG Version: 6.00 Build 0)  -->
<svg version="1.1" id="Capa_1" xmlns="http://www.w3.org/2000/svg" xmlns:xlink="http://www.w3.org/1999/xlink" x="0px" y="0px"
	 viewBox="0 0 464 464" style="enable-background:new 0 0 464 464;" xml:space="preserve">
<g>
	<path style="fill:#D2DCF0;" d="M105.804,4.458c-1.06,0.321-2.115,0.652-3.16,1.006c0.197-0.067,0.398-0.128,0.595-0.193
		C104.089,4.989,104.944,4.719,105.804,4.458z"/>
	<path style="fill:#D2DCF0;" d="M115.04,2.113c-0.235,0.048-0.468,0.103-0.703,0.153c0.051-0.011,0.102-0.023,0.153-0.033
		C114.674,2.194,114.856,2.151,115.04,2.113z"/>
	<path style="fill:#D2DCF0;" d="M35.517,77.113c0.094-0.353,0.188-0.705,0.286-1.057c-0.41,1.473-0.793,2.957-1.139,4.456
		c0.094-0.409,0.199-0.815,0.298-1.222C35.139,78.562,35.324,77.836,35.517,77.113z"/>
	<path style="fill:#D2DCF0;" d="M102.644,5.464c-1.112,0.376-2.212,0.777-3.306,1.19c0.301-0.114,0.6-0.233,0.903-0.343
		C101.038,6.019,101.839,5.737,102.644,5.464z"/>
	<path style="fill:#D2DCF0;" d="M136,0L136,0c-1.852,0-3.692,0.05-5.52,0.146c0.056-0.003,0.112-0.008,0.168-0.011
		C132.421,0.045,134.205,0,136,0z"/>
	<path style="fill:#D2DCF0;" d="M115.645,1.997c-0.201,0.04-0.404,0.075-0.604,0.116c0.162-0.033,0.326-0.061,0.489-0.094
		C115.567,2.012,115.606,2.005,115.645,1.997z"/>
	<path style="fill:#D2DCF0;" d="M125.367,0.537c-1.748,0.178-3.483,0.398-5.205,0.661C121.883,0.935,123.618,0.714,125.367,0.537z"
		/>
	<path style="fill:#D2DCF0;" d="M120.162,1.198c-0.171,0.026-0.34,0.058-0.511,0.085c0.028-0.005,0.056-0.01,0.085-0.014
		C119.878,1.247,120.019,1.22,120.162,1.198z"/>
	<path style="fill:#D2DCF0;" d="M110.817,3.077c-0.494,0.123-0.988,0.249-1.479,0.379c0.224-0.059,0.446-0.124,0.671-0.182
		C110.277,3.205,110.548,3.144,110.817,3.077z"/>
	<path style="fill:#D2DCF0;" d="M32.537,93.366C32.182,96.863,32,100.41,32,104v0c0-2.692,0.102-5.361,0.303-8.002
		C32.37,95.118,32.448,94.241,32.537,93.366z"/>
	<path style="fill:#D2DCF0;" d="M120.162,206.802c1.721,0.263,3.457,0.484,5.205,0.661
		C123.618,207.286,121.883,207.065,120.162,206.802z"/>
	<path style="fill:#D2DCF0;" d="M328,0H195.696C231.699,20.713,256,59.481,256,104c0,44.518-24.301,83.287-60.304,104H328
		c57.438,0,104-46.562,104-104v0C432,46.562,385.438,0,328,0z"/>
	<path style="fill:#D2DCF0;" d="M127.998,207.697c2.641,0.201,5.309,0.303,8.002,0.303h0c-1.795,0-3.579-0.045-5.352-0.135
		C129.762,207.82,128.878,207.764,127.998,207.697z"/>
	<path style="fill:#D2DCF0;" d="M78.939,17.046c0.613-0.403,1.231-0.8,1.853-1.191C80.17,16.246,79.552,16.643,78.939,17.046z"/>
	<path style="fill:#D2DCF0;" d="M95.518,199.827c2.333,0.987,4.709,1.891,7.126,2.708
		C100.228,201.718,97.851,200.814,95.518,199.827z"/>
	<path style="fill:#D2DCF0;" d="M105.074,203.324c-0.814-0.253-1.624-0.516-2.429-0.789c4.027,1.363,8.165,2.486,12.396,3.351
		c-2.539-0.52-5.044-1.131-7.512-1.832C106.706,203.821,105.888,203.578,105.074,203.324z"/>
	<path style="fill:#D2DCF0;" d="M36.676,134.926c-0.253-0.814-0.497-1.633-0.73-2.455c-2.103-7.403-3.406-15.143-3.81-23.119
		C32.045,107.579,32,105.795,32,104v0c0,25.129,8.912,48.176,23.749,66.154C47.271,159.881,40.727,147.953,36.676,134.926z"/>
	<path style="fill:#D2DCF0;" d="M89.79,10.813c0.725-0.36,1.456-0.713,2.19-1.056C91.245,10.1,90.515,10.453,89.79,10.813z"/>
	<path style="fill:#D2DCF0;" d="M77.853,190.239c-2.766-1.869-5.438-3.868-8.006-5.987C72.415,186.371,75.086,188.37,77.853,190.239
		z"/>
	<path style="fill:#D2DCF0;" d="M69.846,184.251c-2.568-2.12-5.033-4.36-7.385-6.712C64.813,179.892,67.278,182.132,69.846,184.251z
		"/>
	<path style="fill:#D2DCF0;" d="M62.461,177.539c-2.353-2.352-4.593-4.817-6.712-7.385
		C57.868,172.722,60.108,175.187,62.461,177.539z"/>
	<path style="fill:#D2DCF0;" d="M93.2,198.813c-2.304-1.042-4.562-2.165-6.773-3.365C88.638,196.649,90.897,197.771,93.2,198.813z"
		/>
	<path style="fill:#D2DCF0;" d="M120.162,206.802c-1.721-0.263-3.429-0.568-5.121-0.915
		C116.733,206.233,118.44,206.539,120.162,206.802z"/>
	<path style="fill:#D2DCF0;" d="M37.762,69.798c0.354-1.017,0.724-2.027,1.108-3.029C38.486,67.771,38.117,68.781,37.762,69.798z"/>
	<path style="fill:#D2DCF0;" d="M84.233,194.221c-2.178-1.252-4.306-2.581-6.381-3.983C79.927,191.64,82.056,192.969,84.233,194.221
		z"/>
	<path style="fill:#D2DCF0;" d="M32.537,93.366c0.178-1.748,0.398-3.483,0.661-5.205C32.935,89.883,32.714,91.618,32.537,93.366z"/>
	<path style="fill:#BEC8DC;" d="M110.009,3.274c-0.225,0.058-0.447,0.122-0.671,0.182c-1.186,0.314-2.364,0.648-3.534,1.003
		c-0.859,0.26-1.714,0.531-2.564,0.813C105.464,4.533,107.72,3.863,110.009,3.274z"/>
	<path style="fill:#BEC8DC;" d="M130.648,0.135c-0.056,0.003-0.112,0.008-0.168,0.011c-1.637,0.086-3.264,0.21-4.88,0.37
		c0.797-0.079,1.596-0.152,2.398-0.213C128.878,0.236,129.762,0.18,130.648,0.135z"/>
	<path style="fill:#BEC8DC;" d="M114.49,2.233c-0.051,0.011-0.102,0.022-0.153,0.033c-1.181,0.25-2.354,0.521-3.52,0.811
		c-0.269,0.067-0.54,0.128-0.808,0.197C111.489,2.893,112.985,2.549,114.49,2.233z"/>
	<path style="fill:#BEC8DC;" d="M32,104c0-2.692,0.102-5.361,0.303-8.002C32.102,98.639,32,101.308,32,104z"/>
	<path style="fill:#BEC8DC;" d="M34.961,79.291c-0.099,0.407-0.204,0.813-0.298,1.222c-0.581,2.516-1.07,5.067-1.465,7.649
		c-0.263,1.721-0.484,3.457-0.661,5.205c-0.089,0.874-0.167,1.751-0.234,2.632C32.738,90.287,33.641,84.707,34.961,79.291z"/>
	<path style="fill:#BEC8DC;" d="M256,104c0-44.519-24.301-83.287-60.304-104H136c57.438,0,104,46.562,104,104s-46.562,104-104,104
		h59.696C231.699,187.287,256,148.518,256,104z"/>
	<path style="fill:#BEC8DC;" d="M84.233,13.779c0.726-0.417,1.457-0.826,2.194-1.227c2.21-1.201,4.469-2.324,6.773-3.365
		c0.768-0.347,1.541-0.685,2.318-1.014c1.555-0.658,3.13-1.279,4.723-1.862c-0.303,0.111-0.602,0.23-0.903,0.343
		c-2.5,0.942-4.954,1.978-7.358,3.103c-0.735,0.344-1.465,0.696-2.19,1.056c-3.09,1.535-6.092,3.219-8.998,5.043
		c-0.622,0.39-1.239,0.787-1.853,1.191C60.869,28.929,46.726,46.289,38.87,66.769c-0.384,1.002-0.754,2.012-1.108,3.029
		c-0.716,2.058-1.372,4.144-1.96,6.259c-0.098,0.351-0.192,0.704-0.286,1.057C42.728,50.094,60.54,27.403,84.233,13.779z"/>
	<path style="fill:#BEC8DC;" d="M119.736,1.269c-0.028,0.005-0.056,0.01-0.085,0.014c-1.344,0.212-2.68,0.451-4.006,0.714
		c-0.039,0.008-0.077,0.015-0.116,0.022C116.921,1.741,118.324,1.491,119.736,1.269z"/>
	<path style="fill:#E4EAF6;" d="M240,104C240,46.562,193.438,0,136,0c-1.795,0-3.579,0.045-5.352,0.135
		c-0.886,0.045-1.77,0.101-2.65,0.168c-0.802,0.061-1.601,0.134-2.398,0.213c-0.078,0.008-0.156,0.013-0.234,0.021
		c-1.748,0.178-3.483,0.398-5.205,0.661c-0.143,0.022-0.284,0.048-0.426,0.071c-1.412,0.222-2.814,0.472-4.207,0.75
		c-0.162,0.032-0.326,0.06-0.489,0.094c-0.184,0.038-0.366,0.081-0.55,0.12c-1.505,0.317-3.001,0.661-4.481,1.042
		c-2.289,0.589-4.544,1.259-6.769,1.997c-0.198,0.066-0.398,0.127-0.595,0.193c-0.805,0.273-1.606,0.555-2.403,0.846
		c-1.593,0.583-3.168,1.204-4.723,1.862c-0.778,0.329-1.55,0.667-2.318,1.014c-2.304,1.042-4.562,2.165-6.773,3.365
		c-0.737,0.4-1.468,0.809-2.194,1.227C60.54,27.403,42.728,50.094,35.517,77.113c-0.193,0.723-0.378,1.449-0.555,2.177
		c-1.32,5.416-2.224,10.996-2.658,16.707C32.102,98.639,32,101.308,32,104c0,1.795,0.045,3.579,0.135,5.352
		c0.404,7.977,1.707,15.716,3.81,23.119c0.234,0.823,0.477,1.641,0.73,2.455c4.052,13.026,10.595,24.954,19.073,35.227
		c2.12,2.568,4.36,5.033,6.712,7.385c2.352,2.353,4.817,4.593,7.385,6.712c2.568,2.119,5.24,4.118,8.006,5.987
		c2.075,1.402,4.203,2.73,6.381,3.983c0.726,0.417,1.457,0.826,2.194,1.227c2.21,1.201,4.469,2.324,6.773,3.365
		c0.768,0.347,1.541,0.685,2.318,1.014c2.333,0.987,4.709,1.891,7.126,2.708c0.805,0.272,1.615,0.535,2.429,0.789
		s1.633,0.497,2.455,0.73c2.468,0.701,4.973,1.313,7.512,1.832c1.693,0.346,3.4,0.651,5.121,0.915
		c1.721,0.263,3.457,0.484,5.205,0.661c0.874,0.089,1.751,0.167,2.632,0.234c0.88,0.067,1.764,0.123,2.65,0.168
		c1.773,0.09,3.557,0.135,5.352,0.135C193.438,208,240,161.438,240,104z M136,176c-39.765,0-72-32.236-72-72
		c0-39.765,32.236-72,72-72c39.765,0,72,32.236,72,72C208,143.765,175.765,176,136,176z"/>
	<circle style="fill:#FFFFFF;" cx="136" cy="104" r="72"/>
	<path style="fill:#B4E173;" d="M430.802,344.162c0.263,1.721,0.484,3.457,0.661,5.205
		C431.286,347.618,431.065,345.883,430.802,344.162z"/>
	<path style="fill:#B4E173;" d="M420.259,311.965c0.649,1.245,1.274,2.504,1.874,3.778
		C421.533,314.469,420.909,313.21,420.259,311.965z"/>
	<path style="fill:#B4E173;" d="M425.13,322.769c0.384,1.002,0.754,2.012,1.108,3.029
		C425.883,324.781,425.514,323.771,425.13,322.769z"/>
	<path style="fill:#B4E173;" d="M426.792,327.433c0.367,1.114,0.716,2.235,1.046,3.365
		C427.508,329.668,427.159,328.547,426.792,327.433z"/>
	<path style="fill:#B4E173;" d="M397.161,282.337c0.532,0.474,1.059,0.954,1.582,1.439
		C398.22,283.291,397.693,282.812,397.161,282.337z"/>
	<path style="fill:#B4E173;" d="M358.926,459.324c-0.814,0.253-1.633,0.497-2.455,0.73c-7.403,2.103-15.143,3.406-23.119,3.81
		c-1.773,0.09-3.557,0.135-5.352,0.135h0c25.129,0,48.176-8.912,66.154-23.749C383.881,448.729,371.953,455.273,358.926,459.324z"/>
	<path style="fill:#B4E173;" d="M355.333,259.637c-0.981-0.267-1.967-0.52-2.959-0.758c0.54,0.13,1.08,0.257,1.617,0.395
		C354.441,259.39,354.886,259.516,355.333,259.637z"/>
	<path style="fill:#B4E173;" d="M363.759,262.311c0.606,0.222,1.206,0.454,1.806,0.687c-2.649-1.026-5.35-1.946-8.099-2.756
		c1.106,0.326,2.204,0.668,3.295,1.03C361.766,261.604,362.767,261.948,363.759,262.311z"/>
	<path style="fill:#B4E173;" d="M429.039,335.291c0.099,0.407,0.204,0.813,0.298,1.222c-0.346-1.499-0.729-2.983-1.139-4.456
		c0.098,0.351,0.192,0.704,0.286,1.057C428.676,333.836,428.861,334.562,429.039,335.291z"/>
	<path style="fill:#B4E173;" d="M344.264,257.269c0.199,0.031,0.397,0.066,0.595,0.099c-2.209-0.36-4.44-0.653-6.693-0.872
		c0.078,0.008,0.156,0.013,0.234,0.021C340.372,256.712,342.326,256.965,344.264,257.269z"/>
	<path style="fill:#B4E173;" d="M349.51,258.233c0.286,0.06,0.571,0.124,0.856,0.187c-0.868-0.19-1.74-0.37-2.615-0.538
		c0.24,0.046,0.481,0.09,0.72,0.138C348.818,258.089,349.164,258.16,349.51,258.233z"/>
	<path style="fill:#B4E173;" d="M333.688,256.157C331.804,256.055,329.909,256,328,256h0c1.795,0,3.579,0.045,5.352,0.135
		C333.464,256.141,333.576,256.151,333.688,256.157z"/>
	<path style="fill:#B4E173;" d="M431.697,351.998c0.201,2.641,0.303,5.309,0.303,8.002v0c0-3.59-0.182-7.137-0.537-10.633
		C431.552,350.241,431.63,351.118,431.697,351.998z"/>
	<path style="fill:#B4E173;" d="M208,360c0-44.519,24.301-83.287,60.304-104H136c-57.438,0-104,46.562-104,104v0
		c0,57.438,46.562,104,104,104h132.304C232.301,443.287,208,404.518,208,360z"/>
	<path style="fill:#B4E173;" d="M428.055,388.471c-0.234,0.823-0.477,1.641-0.73,2.455c-4.052,13.026-10.595,24.954-19.073,35.227
		C423.088,408.176,432,385.129,432,360v0c0,1.795-0.045,3.579-0.135,5.352C431.46,373.328,430.157,381.068,428.055,388.471z"/>
	<path style="fill:#B4E173;" d="M375.346,267.377c4.026,2.062,7.896,4.385,11.596,6.935
		C383.242,271.762,379.372,269.439,375.346,267.377z"/>
	<path style="fill:#B4E173;" d="M389.298,275.985c1.209,0.884,2.399,1.792,3.568,2.727
		C391.697,277.778,390.508,276.869,389.298,275.985z"/>
	<path style="fill:#B4E173;" d="M408.251,426.154c-2.119,2.568-4.36,5.033-6.712,7.385
		C403.892,431.187,406.132,428.722,408.251,426.154z"/>
	<path style="fill:#B4E173;" d="M370.951,265.258c1.479,0.672,2.94,1.375,4.381,2.113
		C373.891,266.633,372.43,265.929,370.951,265.258z"/>
	<path style="fill:#B4E173;" d="M401.539,433.539c-2.353,2.353-4.817,4.593-7.385,6.712
		C396.722,438.132,399.187,435.892,401.539,433.539z"/>
	<path style="fill:#A2C964;" d="M428.483,333.113c-0.094-0.353-0.188-0.705-0.286-1.057c-0.117-0.421-0.238-0.84-0.36-1.258
		c-0.33-1.13-0.679-2.252-1.046-3.365c-0.18-0.547-0.365-1.092-0.554-1.635c-0.354-1.017-0.724-2.027-1.108-3.029
		c-0.915-2.385-1.915-4.728-2.997-7.026c-0.6-1.274-1.224-2.533-1.874-3.778c-5.53-10.6-12.833-20.127-21.517-28.189
		c-0.522-0.485-1.049-0.965-1.582-1.439c-1.398-1.246-2.83-2.455-4.295-3.625c-1.169-0.934-2.359-1.843-3.568-2.727
		c-0.777-0.568-1.562-1.126-2.356-1.673c-3.701-2.55-7.57-4.873-11.596-6.935c-0.005-0.002-0.009-0.005-0.014-0.007
		c-1.441-0.738-2.902-1.441-4.381-2.113c-1.769-0.803-3.566-1.555-5.386-2.26c-0.6-0.233-1.201-0.465-1.806-0.687
		C395.329,273.87,419.725,300.299,428.483,333.113z"/>
	<path style="fill:#A2C964;" d="M431.697,351.998c-0.067-0.88-0.145-1.758-0.234-2.632c-0.178-1.748-0.398-3.483-0.661-5.205
		c-0.395-2.582-0.884-5.133-1.465-7.649c-0.094-0.409-0.199-0.815-0.298-1.222C430.359,340.707,431.262,346.287,431.697,351.998z"/>
	<path style="fill:#A2C964;" d="M360.76,261.271c-1.09-0.362-2.189-0.704-3.295-1.03c-0.708-0.209-1.419-0.41-2.132-0.604
		c-0.447-0.122-0.893-0.248-1.342-0.363C356.28,259.863,358.536,260.533,360.76,261.271z"/>
	<path style="fill:#A2C964;" d="M348.471,258.019c-0.239-0.048-0.48-0.092-0.72-0.138c-0.959-0.184-1.923-0.356-2.891-0.514
		c-0.199-0.032-0.396-0.067-0.595-0.099C345.676,257.491,347.079,257.741,348.471,258.019z"/>
	<path style="fill:#A2C964;" d="M224,360c0-57.438,46.562-104,104-104h-59.696C232.301,276.713,208,315.481,208,360
		c0,44.518,24.301,83.287,60.304,104H328C270.562,464,224,417.438,224,360z"/>
	<path style="fill:#A2C964;" d="M432,360c0-2.692-0.102-5.361-0.303-8.002C431.898,354.639,432,357.308,432,360z"/>
	<path style="fill:#A2C964;" d="M338.4,256.516c-0.078-0.008-0.156-0.013-0.234-0.021c-1.484-0.144-2.977-0.258-4.478-0.339
		c-0.112-0.006-0.224-0.016-0.336-0.021C335.046,256.221,336.728,256.35,338.4,256.516z"/>
	<path style="fill:#A2C964;" d="M353.991,259.274c-0.536-0.138-1.077-0.265-1.617-0.395c-0.667-0.16-1.337-0.313-2.008-0.46
		c-0.285-0.063-0.57-0.126-0.856-0.187C351.015,258.549,352.511,258.893,353.991,259.274z"/>
	<path style="fill:#E4EAF6;" d="M429.039,335.291c-0.178-0.729-0.362-1.455-0.555-2.177c-8.758-32.814-33.155-59.243-64.725-70.803
		c-0.992-0.363-1.993-0.706-2.998-1.04c-2.225-0.738-4.481-1.408-6.769-1.997c-1.481-0.381-2.976-0.725-4.481-1.042
		c-0.346-0.073-0.692-0.144-1.039-0.213c-1.393-0.278-2.795-0.529-4.207-0.75c-1.938-0.304-3.893-0.557-5.865-0.753
		c-1.672-0.166-3.354-0.295-5.048-0.381c-1.773-0.09-3.557-0.135-5.352-0.135c-57.438,0-104,46.562-104,104s46.562,104,104,104
		c1.795,0,3.579-0.045,5.352-0.135c7.977-0.404,15.716-1.708,23.119-3.81c0.823-0.234,1.641-0.477,2.455-0.73
		c13.026-4.052,24.955-10.595,35.227-19.073c2.568-2.12,5.033-4.36,7.385-6.712c2.353-2.352,4.593-4.817,6.712-7.385
		c8.478-10.273,15.021-22.201,19.073-35.227c0.253-0.814,0.497-1.633,0.73-2.455c2.103-7.403,3.406-15.143,3.81-23.119
		c0.09-1.773,0.135-3.557,0.135-5.352c0-2.692-0.102-5.361-0.303-8.002C431.262,346.287,430.359,340.707,429.039,335.291z M328,432
		c-39.765,0-72-32.235-72-72c0-39.764,32.236-72,72-72c39.765,0,72,32.235,72,72C400,399.764,367.765,432,328,432z"/>
	<circle style="fill:#FFFFFF;" cx="328" cy="360" r="72"/>
</g>
<g>
</g>
<g>
</g>
<g>
</g>
<g>
</g>
<g>
</g>
<g>
</g>
<g>
</g>
<g>
</g>
<g>
</g>
<g>
</g>
<g>
</g>
<g>
</g>
<g>
</g>
<g>
</g>
<g>
</g>
</svg>
