<?xml version="1.0" encoding="iso-8859-1"?>
<!-- Generator: Adobe Illustrator 19.0.0, SVG Export Plug-In . SVG Version: 6.00 Build 0)  -->
<svg version="1.1" id="Capa_1" xmlns="http://www.w3.org/2000/svg" xmlns:xlink="http://www.w3.org/1999/xlink" x="0px" y="0px"
	 viewBox="0 0 464 464" style="enable-background:new 0 0 464 464;" xml:space="preserve">
<g>
	<path style="fill:#707384;" d="M328,0H136c-13.255,0-24,10.745-24,24v416c0,13.255,10.745,24,24,24h192c13.255,0,24-10.745,24-24
		V24C352,10.745,341.255,0,328,0z M200,32c0-4.418,3.582-8,8-8h48c4.418,0,8,3.582,8,8l0,0c0,4.418-3.582,8-8,8h-48
		C203.582,40,200,36.418,200,32L200,32z M176,24c4.418,0,8,3.582,8,8c0,4.418-3.582,8-8,8s-8-3.582-8-8
		C168,27.582,171.582,24,176,24z M232,448c-8.837,0-16-7.164-16-16c0-8.837,7.163-16,16-16s16,7.163,16,16
		C248,440.836,240.837,448,232,448z M336,304v96H128v-96V64h208V304z"/>
	<path style="fill:#63AFDB;" d="M128,304h64c0-4.418,3.582-8,8-8s8,3.582,8,8h16c0-4.418,3.582-8,8-8s8,3.582,8,8h16
		c0-4.418,3.582-8,8-8s8,3.582,8,8h64V64H128V304z M272,104c0-4.418,3.582-8,8-8h32c4.418,0,8,3.582,8,8v32c0,4.418-3.582,8-8,8h-32
		c-4.418,0-8-3.582-8-8V104z M272,168c0-4.418,3.582-8,8-8h32c4.418,0,8,3.582,8,8v32c0,4.418-3.582,8-8,8h-32c-4.418,0-8-3.582-8-8
		V168z M272,232c0-4.418,3.582-8,8-8h32c4.418,0,8,3.582,8,8v32c0,4.418-3.582,8-8,8h-32c-4.418,0-8-3.582-8-8V232z M208,104
		c0-4.418,3.582-8,8-8h32c4.418,0,8,3.582,8,8v32c0,4.418-3.582,8-8,8h-32c-4.418,0-8-3.582-8-8V104z M208,168c0-4.418,3.582-8,8-8
		h32c4.418,0,8,3.582,8,8v32c0,4.418-3.582,8-8,8h-32c-4.418,0-8-3.582-8-8V168z M208,232c0-4.418,3.582-8,8-8h32
		c4.418,0,8,3.582,8,8v32c0,4.418-3.582,8-8,8h-32c-4.418,0-8-3.582-8-8V232z M144,104c0-4.418,3.582-8,8-8h32c4.418,0,8,3.582,8,8
		v32c0,4.418-3.582,8-8,8h-32c-4.418,0-8-3.582-8-8V104z M144,168c0-4.418,3.582-8,8-8h32c4.418,0,8,3.582,8,8v32
		c0,4.418-3.582,8-8,8h-32c-4.418,0-8-3.582-8-8V168z M144,232c0-4.418,3.582-8,8-8h32c4.418,0,8,3.582,8,8v32c0,4.418-3.582,8-8,8
		h-32c-4.418,0-8-3.582-8-8V232z"/>
	<path style="fill:#468CBE;" d="M264,312c-4.418,0-8-3.582-8-8h-16c0,4.418-3.582,8-8,8s-8-3.582-8-8h-16c0,4.418-3.582,8-8,8
		s-8-3.582-8-8h-64v96h208v-96h-64C272,308.418,268.418,312,264,312z M192,368c0,4.418-3.582,8-8,8h-32c-4.418,0-8-3.582-8-8v-32
		c0-4.418,3.582-8,8-8h32c4.418,0,8,3.582,8,8V368z M256,368c0,4.418-3.582,8-8,8h-32c-4.418,0-8-3.582-8-8v-32c0-4.418,3.582-8,8-8
		h32c4.418,0,8,3.582,8,8V368z M280,328h32c4.418,0,8,3.582,8,8v32c0,4.418-3.582,8-8,8h-32c-4.418,0-8-3.582-8-8v-32
		C272,331.582,275.582,328,280,328z"/>
	<path style="fill:#464655;" d="M208,40h48c4.418,0,8-3.582,8-8l0,0c0-4.418-3.582-8-8-8h-48c-4.418,0-8,3.582-8,8l0,0
		C200,36.418,203.582,40,208,40z"/>
	<circle style="fill:#464655;" cx="176" cy="32" r="8"/>
	<circle style="fill:#464655;" cx="232" cy="432" r="16"/>
	<path style="fill:#63AFDB;" d="M248,328h-32c-4.418,0-8,3.582-8,8v32c0,4.418,3.582,8,8,8h32c4.418,0,8-3.582,8-8v-32
		C256,331.582,252.418,328,248,328z M232,368c-8.837,0-16-7.164-16-16c0-8.837,7.163-16,16-16s16,7.163,16,16
		C248,360.836,240.837,368,232,368z"/>
	<path style="fill:#FF6469;" d="M272,368c0,4.418,3.582,8,8,8h32c4.418,0,8-3.582,8-8v-32c0-4.418-3.582-8-8-8h-32
		c-4.418,0-8,3.582-8,8V368z"/>
	<path style="fill:#00DCCD;" d="M184,328h-32c-4.418,0-8,3.582-8,8v32c0,4.418,3.582,8,8,8h32c4.418,0,8-3.582,8-8v-32
		C192,331.582,188.418,328,184,328z"/>
	<path style="fill:#FFDC69;" d="M216,272h32c4.418,0,8-3.582,8-8v-32c0-4.418-3.582-8-8-8h-32c-4.418,0-8,3.582-8,8v32
		C208,268.418,211.582,272,216,272z"/>
	<path style="fill:#FFFFFF;" d="M280,272h32c4.418,0,8-3.582,8-8v-32c0-4.418-3.582-8-8-8h-32c-4.418,0-8,3.582-8,8v32
		C272,268.418,275.582,272,280,272z M280,248c0-4.418,3.582-8,8-8h16c4.418,0,8,3.582,8,8l0,0c0,4.418-3.582,8-8,8h-16
		C283.582,256,280,252.418,280,248L280,248z"/>
	<path style="fill:#468CBE;" d="M152,272h32c4.418,0,8-3.582,8-8v-32c0-4.418-3.582-8-8-8h-32c-4.418,0-8,3.582-8,8v32
		C144,268.418,147.582,272,152,272z M152,248c0-4.418,3.582-8,8-8h16c4.418,0,8,3.582,8,8l0,0c0,4.418-3.582,8-8,8h-16
		C155.582,256,152,252.418,152,248L152,248z"/>
	<path style="fill:#464655;" d="M216,208h32c4.418,0,8-3.582,8-8v-32c0-4.418-3.582-8-8-8h-32c-4.418,0-8,3.582-8,8v32
		C208,204.418,211.582,208,216,208z M216,184c0-4.418,3.582-8,8-8h16c4.418,0,8,3.582,8,8l0,0c0,4.418-3.582,8-8,8h-16
		C219.582,192,216,188.418,216,184L216,184z"/>
	<path style="fill:#FFA055;" d="M280,208h32c4.418,0,8-3.582,8-8v-32c0-4.418-3.582-8-8-8h-32c-4.418,0-8,3.582-8,8v32
		C272,204.418,275.582,208,280,208z"/>
	<path style="fill:#A0D778;" d="M152,208h32c4.418,0,8-3.582,8-8v-32c0-4.418-3.582-8-8-8h-32c-4.418,0-8,3.582-8,8v32
		C144,204.418,147.582,208,152,208z M168,168c8.837,0,16,7.163,16,16c0,8.836-7.163,16-16,16s-16-7.164-16-16
		C152,175.163,159.163,168,168,168z"/>
	<path style="fill:#FF6469;" d="M216,144h32c4.418,0,8-3.582,8-8v-32c0-4.418-3.582-8-8-8h-32c-4.418,0-8,3.582-8,8v32
		C208,140.418,211.582,144,216,144z"/>
	<path style="fill:#00DCCD;" d="M280,144h32c4.418,0,8-3.582,8-8v-32c0-4.418-3.582-8-8-8h-32c-4.418,0-8,3.582-8,8v32
		C272,140.418,275.582,144,280,144z M296,104c8.837,0,16,7.163,16,16c0,8.836-7.163,16-16,16s-16-7.164-16-16
		C280,111.163,287.163,104,296,104z"/>
	<path style="fill:#FFDC69;" d="M152,144h32c4.418,0,8-3.582,8-8v-32c0-4.418-3.582-8-8-8h-32c-4.418,0-8,3.582-8,8v32
		C144,140.418,147.582,144,152,144z"/>
	<circle style="fill:#FFDC69;" cx="168" cy="184" r="16"/>
	<circle style="fill:#FFDC69;" cx="232" cy="352" r="16"/>
	<circle style="fill:#FF6469;" cx="296" cy="120" r="16"/>
	<path style="fill:#468CBE;" d="M224,192h16c4.418,0,8-3.582,8-8l0,0c0-4.418-3.582-8-8-8h-16c-4.418,0-8,3.582-8,8l0,0
		C216,188.418,219.582,192,224,192z"/>
	<path style="fill:#FF6469;" d="M288,256h16c4.418,0,8-3.582,8-8l0,0c0-4.418-3.582-8-8-8h-16c-4.418,0-8,3.582-8,8l0,0
		C280,252.418,283.582,256,288,256z"/>
	<path style="fill:#FFFFFF;" d="M160,256h16c4.418,0,8-3.582,8-8l0,0c0-4.418-3.582-8-8-8h-16c-4.418,0-8,3.582-8,8l0,0
		C152,252.418,155.582,256,160,256z"/>
	<circle style="fill:#464655;" cx="200" cy="304" r="8"/>
	<circle style="fill:#FFFFFF;" cx="232" cy="304" r="8"/>
	<circle style="fill:#FFFFFF;" cx="264" cy="304" r="8"/>
</g>
<g>
</g>
<g>
</g>
<g>
</g>
<g>
</g>
<g>
</g>
<g>
</g>
<g>
</g>
<g>
</g>
<g>
</g>
<g>
</g>
<g>
</g>
<g>
</g>
<g>
</g>
<g>
</g>
<g>
</g>
</svg>
