<?xml version="1.0" encoding="iso-8859-1"?>
<!-- Generator: Adobe Illustrator 19.0.0, SVG Export Plug-In . SVG Version: 6.00 Build 0)  -->
<svg version="1.1" id="Capa_1" xmlns="http://www.w3.org/2000/svg" xmlns:xlink="http://www.w3.org/1999/xlink" x="0px" y="0px"
	 viewBox="0 0 464 464" style="enable-background:new 0 0 464 464;" xml:space="preserve">
<g>
	<path style="fill:#707384;" d="M392,0H72C58.745,0,48,10.745,48,24v416c0,13.255,10.745,24,24,24h320c13.255,0,24-10.745,24-24V24
		C416,10.745,405.255,0,392,0z M208,24h48c4.418,0,8,3.582,8,8s-3.582,8-8,8h-48c-4.418,0-8-3.582-8-8S203.582,24,208,24z M176,24
		c4.418,0,8,3.582,8,8s-3.582,8-8,8s-8-3.582-8-8S171.582,24,176,24z M232,448c-8.837,0-16-7.164-16-16s7.163-16,16-16
		s16,7.164,16,16S240.837,448,232,448z M392,400H72V64h320V400z"/>
	<path style="fill:#FFFFFF;" d="M72,400h320V64H72V400z M160,384c-8.837,0-16-7.164-16-16s7.163-16,16-16s16,7.164,16,16
		S168.837,384,160,384z M208,384c-8.837,0-16-7.164-16-16s7.163-16,16-16s16,7.164,16,16S216.837,384,208,384z M304,384
		c-8.837,0-16-7.164-16-16s7.163-16,16-16s16,7.164,16,16S312.837,384,304,384z M352,384c-8.837,0-16-7.164-16-16s7.163-16,16-16
		s16,7.164,16,16S360.837,384,352,384z M240,96c0-4.418,3.582-8,8-8h112c4.418,0,8,3.582,8,8l0,0c0,4.418-3.582,8-8,8H248
		C243.582,104,240,100.418,240,96L240,96z M240,128c0-4.418,3.582-8,8-8h72c4.418,0,8,3.582,8,8l0,0c0,4.418-3.582,8-8,8h-72
		C243.582,136,240,132.418,240,128L240,128z M240,160c0-4.418,3.582-8,8-8h112c4.418,0,8,3.582,8,8l0,0c0,4.418-3.582,8-8,8H248
		C243.582,168,240,164.418,240,160L240,160z M240,192c0-4.418,3.582-8,8-8h72c4.418,0,8,3.582,8,8l0,0c0,4.418-3.582,8-8,8h-72
		C243.582,200,240,196.418,240,192L240,192z M240,224c0-4.418,3.582-8,8-8h112c4.418,0,8,3.582,8,8l0,0c0,4.418-3.582,8-8,8H248
		C243.582,232,240,228.418,240,224L240,224z M240,256c0-4.418,3.582-8,8-8h72c4.418,0,8,3.582,8,8l0,0c0,4.418-3.582,8-8,8h-72
		C243.582,264,240,260.418,240,256L240,256z M240,288c0-4.418,3.582-8,8-8h112c4.418,0,8,3.582,8,8l0,0c0,4.418-3.582,8-8,8H248
		C243.582,296,240,292.418,240,288L240,288z M240,320c0-4.418,3.582-8,8-8h72c4.418,0,8,3.582,8,8l0,0c0,4.418-3.582,8-8,8h-72
		C243.582,328,240,324.418,240,320L240,320z M256,352c8.837,0,16,7.164,16,16s-7.163,16-16,16s-16-7.164-16-16S247.163,352,256,352z
		 M96,96c0-4.418,3.582-8,8-8h112c4.418,0,8,3.582,8,8v32c0,4.418-3.582,8-8,8H104c-4.418,0-8-3.582-8-8V96z M96,160
		c0-4.418,3.582-8,8-8h112c4.418,0,8,3.582,8,8v32c0,4.418-3.582,8-8,8H104c-4.418,0-8-3.582-8-8V160z M96,224c0-4.418,3.582-8,8-8
		h112c4.418,0,8,3.582,8,8v32c0,4.418-3.582,8-8,8H104c-4.418,0-8-3.582-8-8V224z M96,288c0-4.418,3.582-8,8-8h112
		c4.418,0,8,3.582,8,8v32c0,4.418-3.582,8-8,8H104c-4.418,0-8-3.582-8-8V288z M112,352c8.837,0,16,7.164,16,16s-7.163,16-16,16
		s-16-7.164-16-16S103.163,352,112,352z"/>
	<path style="fill:#464655;" d="M208,40h48c4.418,0,8-3.582,8-8s-3.582-8-8-8h-48c-4.418,0-8,3.582-8,8S203.582,40,208,40z"/>
	<circle style="fill:#464655;" cx="176" cy="32" r="8"/>
	<circle style="fill:#464655;" cx="232" cy="432" r="16"/>
	<path style="fill:#FFDC69;" d="M104,136h112c4.418,0,8-3.582,8-8V96c0-4.418-3.582-8-8-8H104c-4.418,0-8,3.582-8,8v32
		C96,132.418,99.582,136,104,136z"/>
	<path style="fill:#BEC8DC;" d="M248,104h112c4.418,0,8-3.582,8-8l0,0c0-4.418-3.582-8-8-8H248c-4.418,0-8,3.582-8,8l0,0
		C240,100.418,243.582,104,248,104z"/>
	<path style="fill:#DEE3ED;" d="M248,136h72c4.418,0,8-3.582,8-8l0,0c0-4.418-3.582-8-8-8h-72c-4.418,0-8,3.582-8,8l0,0
		C240,132.418,243.582,136,248,136z"/>
	<path style="fill:#FF6469;" d="M104,200h112c4.418,0,8-3.582,8-8v-32c0-4.418-3.582-8-8-8H104c-4.418,0-8,3.582-8,8v32
		C96,196.418,99.582,200,104,200z"/>
	<path style="fill:#BEC8DC;" d="M248,168h112c4.418,0,8-3.582,8-8l0,0c0-4.418-3.582-8-8-8H248c-4.418,0-8,3.582-8,8l0,0
		C240,164.418,243.582,168,248,168z"/>
	<path style="fill:#DEE3ED;" d="M248,200h72c4.418,0,8-3.582,8-8l0,0c0-4.418-3.582-8-8-8h-72c-4.418,0-8,3.582-8,8l0,0
		C240,196.418,243.582,200,248,200z"/>
	<path style="fill:#B4E173;" d="M104,264h112c4.418,0,8-3.582,8-8v-32c0-4.418-3.582-8-8-8H104c-4.418,0-8,3.582-8,8v32
		C96,260.418,99.582,264,104,264z"/>
	<path style="fill:#BEC8DC;" d="M248,232h112c4.418,0,8-3.582,8-8l0,0c0-4.418-3.582-8-8-8H248c-4.418,0-8,3.582-8,8l0,0
		C240,228.418,243.582,232,248,232z"/>
	<path style="fill:#DEE3ED;" d="M248,264h72c4.418,0,8-3.582,8-8l0,0c0-4.418-3.582-8-8-8h-72c-4.418,0-8,3.582-8,8l0,0
		C240,260.418,243.582,264,248,264z"/>
	<path style="fill:#A0DCF0;" d="M104,328h112c4.418,0,8-3.582,8-8v-32c0-4.418-3.582-8-8-8H104c-4.418,0-8,3.582-8,8v32
		C96,324.418,99.582,328,104,328z"/>
	<path style="fill:#BEC8DC;" d="M248,296h112c4.418,0,8-3.582,8-8l0,0c0-4.418-3.582-8-8-8H248c-4.418,0-8,3.582-8,8l0,0
		C240,292.418,243.582,296,248,296z"/>
	<path style="fill:#DEE3ED;" d="M248,328h72c4.418,0,8-3.582,8-8l0,0c0-4.418-3.582-8-8-8h-72c-4.418,0-8,3.582-8,8l0,0
		C240,324.418,243.582,328,248,328z"/>
	<circle style="fill:#BEC8DC;" cx="160" cy="368" r="16"/>
	<circle style="fill:#FFDC69;" cx="112" cy="368" r="16"/>
	<circle style="fill:#BEC8DC;" cx="256" cy="368" r="16"/>
	<circle style="fill:#BEC8DC;" cx="208" cy="368" r="16"/>
	<circle style="fill:#BEC8DC;" cx="352" cy="368" r="16"/>
	<circle style="fill:#BEC8DC;" cx="304" cy="368" r="16"/>
</g>
<g>
</g>
<g>
</g>
<g>
</g>
<g>
</g>
<g>
</g>
<g>
</g>
<g>
</g>
<g>
</g>
<g>
</g>
<g>
</g>
<g>
</g>
<g>
</g>
<g>
</g>
<g>
</g>
<g>
</g>
</svg>
