<?xml version="1.0" encoding="iso-8859-1"?>
<!-- Generator: Adobe Illustrator 19.0.0, SVG Export Plug-In . SVG Version: 6.00 Build 0)  -->
<svg version="1.1" id="Capa_1" xmlns="http://www.w3.org/2000/svg" xmlns:xlink="http://www.w3.org/1999/xlink" x="0px" y="0px"
	 viewBox="0 0 464.005 464.005" style="enable-background:new 0 0 464.005 464.005;" xml:space="preserve">
<g>
	<path style="fill:#B4E173;" d="M326.23,100.729L243.47,5.236C240.444,1.746,236.223,0,232.002,0v64.005c13.255,0,24,10.745,24,24
		s-10.745,24-24,24v32h72c4.418,0,8,3.582,8,8v272c0,4.418-3.582,8-8,8h-72v32h88c8.836,0,16-7.164,16-16V126.927
		C336.002,117.302,332.533,108.001,326.23,100.729z"/>
	<path style="fill:#AAD764;" d="M168.002,432.005c-4.142,0-7.549-3.148-7.959-7.182c-0.027-0.269-0.041-0.542-0.041-0.818v-272
		c0-0.276,0.014-0.549,0.041-0.818c0.41-4.034,3.816-7.182,7.959-7.182h64v-32c-13.255,0-24-10.745-24-24s10.745-24,24-24V0v0
		c-4.221,0-8.442,1.745-11.467,5.236l-82.76,95.493c-6.303,7.271-9.772,16.572-9.772,26.197v321.078c0,8.836,7.164,16,16,16h88v-32
		H168.002z"/>
	<path style="fill:#AAD764;" d="M304.002,432.005c4.418,0,8-3.582,8-8v-272c0-4.418-3.582-8-8-8h-72v288H304.002z"/>
	<path style="fill:#95C364;" d="M160.044,151.187c-0.027,0.269-0.041,0.542-0.041,0.818v272c0,0.276,0.014,0.549,0.041,0.818
		c0.41,4.034,3.816,7.182,7.959,7.182h64v-288h-64C163.86,144.005,160.453,147.153,160.044,151.187z"/>
</g>
<g>
</g>
<g>
</g>
<g>
</g>
<g>
</g>
<g>
</g>
<g>
</g>
<g>
</g>
<g>
</g>
<g>
</g>
<g>
</g>
<g>
</g>
<g>
</g>
<g>
</g>
<g>
</g>
<g>
</g>
</svg>
