<?xml version="1.0" encoding="iso-8859-1"?>
<!-- Generator: Adobe Illustrator 19.0.0, SVG Export Plug-In . SVG Version: 6.00 Build 0)  -->
<svg version="1.1" id="Capa_1" xmlns="http://www.w3.org/2000/svg" xmlns:xlink="http://www.w3.org/1999/xlink" x="0px" y="0px"
	 viewBox="0 0 472 472" style="enable-background:new 0 0 472 472;" xml:space="preserve">
<g>
	<path style="fill:#87B45F;" d="M383.225,72c-4.809,0-9.507,0.483-14.054,1.387l-3.197,34.53c5.226-2.509,11.078-3.917,17.252-3.917
		c22.055,0,40,17.945,40,40v72c0,22.055-17.945,40-40,40c-11.792,0-22.406-5.133-29.733-13.278l-3.44,37.149
		c9.936,5.182,21.214,8.129,33.173,8.129c39.699,0,72-32.297,72-72v-72C455.225,104.297,422.924,72,383.225,72z"/>
	<path style="fill:#A0C869;" d="M69.964,459.586c-0.025-0.109-0.06-0.214-0.083-0.324C69.903,459.372,69.939,459.477,69.964,459.586
		z"/>
	<path style="fill:#A0C869;" d="M70.532,461.49C72.79,467.672,78.701,472,85.545,472h0C78.701,472,72.79,467.672,70.532,461.49z"/>
	<path style="fill:#A0C869;" d="M179.669,440l1.974,17.767c0.9,8.103,7.75,14.233,15.902,14.233h107.359
		c8.153,0,15.002-6.13,15.902-14.233l2.202-19.821c-2.967,1.309-6.232,2.055-9.664,2.055H179.669z"/>
	<path style="fill:#87B45F;" d="M181.643,457.767L179.669,440h-8.112H77.105h0c-1.736,0-3.426-0.203-5.062-0.556
		c-1.599-0.344-3.136-0.852-4.602-1.499l2.202,19.821c0.056,0.506,0.136,1.005,0.237,1.495c0.023,0.11,0.058,0.215,0.083,0.324
		c0.15,0.653,0.342,1.286,0.568,1.904C72.79,467.672,78.701,472,85.545,472h112C189.393,472,182.543,465.87,181.643,457.767z"/>
	<path style="fill:#B4E173;" d="M365.973,107.917l3.197-34.53l4.436-47.912C374.475,16.096,367.094,8,357.675,8H127.226l-0.001,0
		v189.525l1.405,15.177l18.172,9.086c2.71,1.355,4.422,4.125,4.422,7.155V280c0,4.418-3.582,8-8,8h-7.623l12.057,130.212
		c1.143,12.345,11.5,21.788,23.898,21.788h8.112h133.675c3.432,0,6.697-0.746,9.664-2.055c7.75-3.418,13.407-10.806,14.233-19.733
		l12.809-138.342l3.44-37.149L365.973,107.917z"/>
	<path style="fill:#B4E173;" d="M58.002,430.531c2.146,2.817,4.902,5.127,8.055,6.766C62.904,435.658,60.148,433.348,58.002,430.531
		z"/>
	<path style="fill:#B4E173;" d="M16.884,22.141c-0.125,1.085-0.147,2.2-0.041,3.335l8.757,94.577l-8.757-94.578
		C16.738,24.34,16.759,23.226,16.884,22.141z"/>
	<path style="fill:#B4E173;" d="M72.043,439.444c-2.015-0.434-3.946-1.103-5.744-2.011c0.371,0.188,0.76,0.344,1.142,0.512
		C68.907,438.592,70.444,439.1,72.043,439.444z"/>
	<polygon style="fill:#A7D16C;" points="128.63,212.703 127.225,197.525 127.225,212 	"/>
	<polygon style="fill:#A7D16C;" points="127.226,8 127.225,8 127.225,8 	"/>
	<path style="fill:#A7D16C;" d="M72.043,439.444c1.637,0.352,3.326,0.556,5.062,0.556h0h94.452
		c-12.397,0-22.755-9.443-23.898-21.788L135.602,288H95.225c-4.418,0-8-3.582-8-8v-51.056c0-3.03,1.712-5.8,4.422-7.155L111.225,212
		V8h-78.45h0c-8.279,0-14.979,6.257-15.89,14.141c-0.125,1.085-0.146,2.2-0.041,3.335l8.757,94.578l27.607,298.16
		c0.429,4.629,2.153,8.851,4.795,12.319c2.146,2.817,4.902,5.127,8.055,6.766c0.082,0.043,0.159,0.094,0.242,0.136
		C68.096,438.341,70.028,439.01,72.043,439.444z"/>
	<path style="fill:#E4EAF6;" d="M115.647,209.789c2.252-1.126,4.903-1.126,7.155,0l4.422,2.211v-14.475V8v0c0-4.418-3.582-8-8-8
		s-8,3.582-8,8v204L115.647,209.789z"/>
	<path style="fill:#FFCD64;" d="M122.802,209.789c-2.252-1.126-4.903-1.126-7.155,0L111.225,212l-19.578,9.789
		c-2.71,1.355-4.422,4.125-4.422,7.155V280c0,4.418,3.582,8,8,8h40.377h7.623c4.418,0,8-3.582,8-8v-51.056
		c0-3.03-1.712-5.8-4.422-7.155l-18.172-9.086L127.225,212L122.802,209.789z"/>
</g>
<g>
</g>
<g>
</g>
<g>
</g>
<g>
</g>
<g>
</g>
<g>
</g>
<g>
</g>
<g>
</g>
<g>
</g>
<g>
</g>
<g>
</g>
<g>
</g>
<g>
</g>
<g>
</g>
<g>
</g>
</svg>
