<?xml version="1.0" encoding="utf-8"?>
<!-- Generator: Adobe Illustrator 14.0.0, SVG Export Plug-In . SVG Version: 6.00 Build 43363)  -->
<!DOCTYPE svg PUBLIC "-//W3C//DTD SVG 1.1//EN" "http://www.w3.org/Graphics/SVG/1.1/DTD/svg11.dtd">
<svg version="1.1" xmlns="http://www.w3.org/2000/svg" xmlns:xlink="http://www.w3.org/1999/xlink" x="0px" y="0px"
	 width="2863.687px" height="600.001px" viewBox="0 0 2863.687 600.001" enable-background="new 0 0 2863.687 600.001"
	 xml:space="preserve">
<g id="Outer_Cube_T">
	<polygon fill="#4069B2" points="258.242,0 0,148.425 258.242,301.455 516.472,148.425 	"/>
</g>
<g id="Outer_Cube_L">
	<polygon fill="#2F507F" points="0,148.425 258.242,301.455 258.242,600.001 0,449.377 	"/>
</g>
<g id="Outer_Cube_R">
	<polygon fill="#396099" points="516.472,148.425 516.472,449.377 258.242,600.001 258.242,301.455 	"/>
</g>
<g id="Inner_Cube_T">
	<polygon fill="#46BDCF" points="258.242,148.425 127.658,224.072 258.242,301.455 388.822,224.072 	"/>
</g>
<g id="Inner_Cube_L">
	<polygon fill="#368F99" points="127.658,224.072 258.242,301.455 258.242,449.377 127.647,373.826 	"/>
</g>
<g id="Inner_Cube_R">
	<polygon fill="#3FA7B2" points="388.822,224.072 258.242,301.455 258.242,449.377 388.822,373.826 	"/>
</g>
<g id="Inner_Layer">
	<g>
		<polygon fill="#CAEAEF" points="78.236,194.789 127.658,224.072 127.647,373.826 78.236,405.875 		"/>
		<polygon fill="#DAF0F4" points="438.236,194.789 438.236,405.875 388.822,373.826 388.822,224.072 		"/>
		<polygon fill="#FFFEFA" points="258.242,90 258.242,148.425 388.822,224.072 438.236,194.789 		"/>
		<polygon fill="#EDF7F9" points="258.242,90 258.242,148.425 127.658,224.072 78.236,194.789 		"/>
		<polygon fill="#91BFBE" points="127.647,373.826 258.242,449.377 258.236,510 78.236,405.875 		"/>
		<polygon fill="#99CCCC" points="258.242,449.377 258.236,510 438.236,405.875 388.822,373.826 		"/>
	</g>
</g>
<g id="Byrne-Systems">
	<g>
		<g>
			<path fill="#2F507F" stroke="#000000" stroke-width="3" stroke-linecap="round" stroke-linejoin="bevel" d="M570.1,52.735
				h245.228c42.255,0,63.382,19.588,63.382,58.767c0,16.001-3.434,28.567-10.303,37.693c-6.879,9.126-16.771,14.924-29.692,17.386
				c12.716,2.459,22.559,8.613,29.535,18.46c6.971,9.844,10.46,23.489,10.46,40.921c0,39.182-21.127,58.765-63.382,58.765H570.1
				V52.735z M626.719,230.885H800.25c12.512,0,18.771-5.846,18.771-17.539c0-13.334-6.259-19.999-18.771-19.999H666.41v-49.23
				H800.25c12.512,0,18.771-6.609,18.771-19.835c0-11.391-6.259-17.088-18.771-17.088H626.719V230.885z"/>
			<path fill="#2F507F" stroke="#000000" stroke-width="3" stroke-linecap="round" stroke-linejoin="bevel" d="M1225.473,52.735
				V169.35c0,18.051-2.57,34.206-7.694,48.461c-5.13,14.259-12.666,26.359-22.613,36.307c-9.956,9.952-22.107,17.536-36.463,22.767
				c-14.36,5.232-30.767,7.844-49.227,7.844H920.244v-55.073h187.999c17.229,0,30.305-2.921,39.228-8.77
				c8.924-5.845,15.027-14.405,18.311-25.692H920.244V52.735h56.614v89.848h191.996V52.735H1225.473z"/>
			<path fill="#2F507F" stroke="#000000" stroke-width="3" stroke-linecap="round" stroke-linejoin="bevel" d="M1349.16,142.583
				h131.692c11.484,0,20.46-3.028,26.924-9.079c6.461-6.047,10.616-14.815,12.46-26.31h-197.229v177.534h-56.613V52.735h308.301
				v44.309c0,58.666-28.514,90.974-85.536,96.917l88.309,90.767h-68.311l-89.537-89.842h-70.46V142.583z"/>
			<path fill="#2F507F" stroke="#000000" stroke-width="3" stroke-linecap="round" stroke-linejoin="bevel" d="M1930.075,284.728
				h-59.688c-31.8-43.892-63.135-79.687-94.002-107.383c-30.872-27.69-61.282-47.384-91.23-59.071
				c-2.258-0.816-4.668-1.693-7.229-2.618c-2.566-0.922-5.282-1.892-8.152-2.924c0.615,8.415,0.919,13.849,0.919,16.31v155.687
				h-55.075V52.735h48.614c18.461,5.953,36.668,13.692,54.615,23.229c17.946,9.54,35.383,20.361,52.307,32.463
				c16.924,12.106,33.278,25.336,49.076,39.688c15.795,14.362,30.873,29.34,45.228,44.926l10.159,11.075
				c-0.615-6.769-0.928-11.792-0.928-15.077V52.735h55.388V284.728z"/>
			<path fill="#2F507F" stroke="#000000" stroke-width="3" stroke-linecap="round" stroke-linejoin="bevel" d="M2266.062,107.194
				h-238.146v35.389h202.146v52.303h-199.073c3.282,11.288,9.387,19.897,18.31,25.847c8.924,5.951,22.002,8.922,39.23,8.922h177.533
				v55.073h-178.763c-17.85,0-33.953-2.664-48.313-7.998c-14.357-5.331-26.563-13.023-36.608-23.077
				c-10.053-10.047-17.745-22.152-23.077-36.304c-5.337-14.152-7.998-30.157-7.998-48V52.735h294.76V107.194z"/>
		</g>
		<g>
			<path fill="#49BBCD" stroke="#000000" stroke-width="3" stroke-linecap="round" stroke-linejoin="bevel" d="M879.424,371.208
				h-189.84c-23.597,0-36.924,11.798-39.999,35.384H880.66v44.304c0,65.23-35.286,97.847-105.846,97.847H595.737v-55.081h191.074
				c11.485,0,20.462-2.968,26.924-8.923c6.459-5.947,10.617-14.564,12.46-25.848H595.737v-44.306
				c0-65.225,35.278-97.846,105.846-97.846h177.842V371.208z"/>
			<path fill="#49BBCD" stroke="#000000" stroke-width="3" stroke-linecap="round" stroke-linejoin="bevel" d="M1226.8,316.739
				v116.616c0,18.051-2.564,34.21-7.688,48.462c-5.132,14.254-12.671,26.36-22.618,36.305c-9.951,9.956-22.104,17.533-36.46,22.768
				c-14.36,5.234-30.765,7.853-49.231,7.853H921.578v-55.081h187.994c17.23,0,30.309-2.924,39.229-8.767
				c8.926-5.853,15.021-14.405,18.31-25.691H921.578V316.739h56.612v89.853h191.995v-89.853H1226.8z"/>
			<path fill="#49BBCD" stroke="#000000" stroke-width="3" stroke-linecap="round" stroke-linejoin="bevel" d="M1549.257,371.208
				h-189.845c-23.589,0-36.92,11.798-39.997,35.384h231.07v44.304c0,65.23-35.282,97.847-105.844,97.847h-179.074v-55.081h191.074
				c11.487,0,20.463-2.968,26.922-8.923c6.465-5.947,10.618-14.564,12.466-25.848h-230.462v-44.306
				c0-65.225,35.277-97.846,105.849-97.846h177.841V371.208z"/>
			<path fill="#49BBCD" stroke="#000000" stroke-width="3" stroke-linecap="round" stroke-linejoin="bevel" d="M1836.328,371.208
				h-101.229v177.534h-56.619V371.208h-101.844v-54.469h259.692V371.208z"/>
			<path fill="#49BBCD" stroke="#000000" stroke-width="3" stroke-linecap="round" stroke-linejoin="bevel" d="M2156.625,371.208
				h-238.147v35.384h202.15v52.299h-199.075c3.282,11.283,9.386,19.9,18.308,25.848c8.92,5.955,22,8.923,39.23,8.923h177.534v55.081
				H1977.86c-17.844,0-33.953-2.669-48.307-8.005c-14.363-5.326-26.567-13.03-36.616-23.074
				c-10.053-10.05-17.74-22.154-23.074-36.308c-5.338-14.149-8.001-30.156-8.001-48V316.739h294.763V371.208z"/>
			<path fill="#49BBCD" stroke="#000000" stroke-width="3" stroke-linecap="round" stroke-linejoin="bevel" d="M2188.316,316.739
				h233.125c17.239,0,32.998,2.571,47.269,7.694c14.269,5.131,26.485,12.417,36.65,21.848c10.163,9.437,18.064,20.667,23.712,33.689
				c5.643,13.033,8.47,27.34,8.47,42.93v125.842h-56.614V432.432c0-40.81-19.874-61.224-59.613-61.224H2244.93v177.534h-56.614
				V316.739z M2330.773,399.825h56.616v148.917h-56.616V399.825z"/>
			<path fill="#49BBCD" stroke="#000000" stroke-width="3" stroke-linecap="round" stroke-linejoin="bevel" d="M2862.457,371.208
				h-189.845c-23.587,0-36.921,11.798-39.997,35.384h231.072v44.304c0,65.23-35.286,97.847-105.848,97.847h-179.07v-55.081h191.072
				c11.488,0,20.463-2.968,26.922-8.923c6.464-5.947,10.616-14.564,12.465-25.848h-230.459v-44.306
				c0-65.225,35.277-97.846,105.843-97.846h177.845V371.208z"/>
		</g>
	</g>
</g>
</svg>
