<?xml version="1.0" encoding="utf-8"?>
<!-- Generator: Adobe Illustrator 14.0.0, SVG Export Plug-In . SVG Version: 6.00 Build 43363)  -->
<!DOCTYPE svg PUBLIC "-//W3C//DTD SVG 1.1//EN" "http://www.w3.org/Graphics/SVG/1.1/DTD/svg11.dtd">
<svg version="1.1" xmlns="http://www.w3.org/2000/svg" xmlns:xlink="http://www.w3.org/1999/xlink" x="0px" y="0px" width="512px"
	 height="512px" viewBox="0 0 512 512" enable-background="new 0 0 512 512" xml:space="preserve">
<g id="Guides" display="none">
</g>
<g id="Models">
	<g>
		<g>
			<path fill="#96BBD4" d="M410.696,11.13H23.1c-6.61,0-11.969,5.345-11.969,11.939v164.992C11.13,194.655,16.489,200,23.1,200
				h387.597c6.61,0,11.97-5.345,11.97-11.939V23.069C422.666,16.476,417.307,11.13,410.696,11.13z M410.667,178.153
				c0,10.514,0,10.514-10.323,10.514H33.657c-10.323,0-10.323,0-10.323-10.514V32.848c0-10.848,0-10.848,10.323-10.514h366.687
				C410.667,22,410.667,22,410.667,32.848V178.153z"/>
			<path fill="none" stroke="#96BBD4" stroke-width="0.25" stroke-linecap="round" stroke-linejoin="bevel" d="M11.13,185
				c0,8.284,6.716,15,15,15h381.536c8.284,0,15-6.716,15-15V26.13c0-8.284-6.716-15-15-15H26.13c-8.284,0-15,6.716-15,15V185z"/>
		</g>
	</g>
	<g>
		<g>
			<path fill="#96BBD4" d="M488.899,311.999H101.303c-6.61,0-11.969,5.346-11.969,11.939V488.93c0,6.595,5.359,11.939,11.969,11.939
				h387.597c6.61,0,11.97-5.345,11.97-11.939V323.938C500.869,317.345,495.51,311.999,488.899,311.999z M488.87,479.021
				c0,10.515,0,10.515-10.323,10.515H111.86c-10.323,0-10.323,0-10.323-10.515V333.717c0-10.848,0-10.848,10.323-10.515h366.687
				c10.323-0.333,10.323-0.333,10.323,10.515V479.021z"/>
			<path fill="none" stroke="#96BBD4" stroke-width="0.25" stroke-linecap="round" stroke-linejoin="bevel" d="M89.333,485.869
				c0,8.284,6.716,15,15,15h381.536c8.284,0,15-6.716,15-15v-158.87c0-8.283-6.716-15-15-15H104.333c-8.284,0-15,6.717-15,15
				V485.869z"/>
		</g>
	</g>
	<g>
		<path fill="#96BBD4" d="M222.333,64C200.058,64,182,82.058,182,104.333s18.058,40.333,40.333,40.333s40.333-18.058,40.333-40.333
			S244.609,64,222.333,64z M222.334,138.251c-18.732,0-33.918-15.186-33.918-33.917s15.186-33.917,33.918-33.917
			c18.731,0,33.917,15.186,33.917,33.917S241.065,138.251,222.334,138.251z"/>
	</g>
	<g>
		<path fill="#96BBD4" d="M311.001,366.101c-22.275,0-40.334,18.059-40.334,40.334s18.059,40.333,40.334,40.333
			s40.333-18.058,40.333-40.333S333.276,366.101,311.001,366.101z M311.001,440.352c-18.732,0-33.918-15.186-33.918-33.917
			c0-18.732,15.186-33.918,33.918-33.918c18.731,0,33.917,15.186,33.917,33.918C344.918,425.166,329.732,440.352,311.001,440.352z"
			/>
	</g>
	<circle fill="#96BBD4" cx="222.334" cy="104.333" r="13.167"/>
	<circle fill="#96BBD4" cx="311.001" cy="406.851" r="13.167"/>
	<polyline fill="none" stroke="#96BBD4" stroke-width="10" stroke-linecap="round" stroke-linejoin="round" points="
		222.334,104.334 222.333,256.364 311,256.365 311.001,406.851 	"/>
	<text transform="matrix(1 0 0 1 38 86.5005)" fill="#96BBD4" font-family="'OCRAStd'" font-size="60">A</text>
	<text transform="matrix(1 0 0 1 116 389.4717)" fill="#96BBD4" font-family="'OCRAStd'" font-size="60">B</text>
</g>
</svg>
