<?xml version="1.0" encoding="utf-8"?>
<!-- Generator: Adobe Illustrator 14.0.0, SVG Export Plug-In . SVG Version: 6.00 Build 43363)  -->
<!DOCTYPE svg PUBLIC "-//W3C//DTD SVG 1.1//EN" "http://www.w3.org/Graphics/SVG/1.1/DTD/svg11.dtd">
<svg version="1.1" xmlns="http://www.w3.org/2000/svg" xmlns:xlink="http://www.w3.org/1999/xlink" x="0px" y="0px" width="512px"
	 height="512px" viewBox="0 0 512 512" enable-background="new 0 0 512 512" xml:space="preserve">
<g id="Guides" display="none">
</g>
<g id="phpDocumentor">
	<g>
		<path fill="none" stroke="#000000" stroke-width="0.25" d="M11,73.353"/>
		<path fill="#96CB68" d="M482.502,36.59C472.963,27.248,453.688,22,438.152,22c-8.973,0-368.214,0-372.3,0
			C38.135,22,11,46.801,11,73.353c0,6.417,0,166.309,0,166.309S469.082,42.424,482.502,36.59z"/>
		<path fill="#96CB68" d="M498.839,63.432c2.335,3.428,2.335,9.921,2.335,9.921v353.625c0,0-0.472,61.856-63.021,61.856
			c-4.274,0-66.996,0-73.527,0C295.186,309.687,399.638,142.21,498.839,63.432z"/>
		<path fill="#96CB68" d="M341.868,488.835L11,293.346c0,0,0,124.295,0,133.633c0,33.846,21.7,61.856,54.852,61.856
			C82.301,488.835,341.868,488.835,341.868,488.835z"/>
		<path fill="#96CB68" d="M316.193,426.979c-11.089-6.417-266.679-158.141-266.679-158.141S404.305,113.617,438.152,97.277
			C341.868,162.163,312.106,309.102,316.193,426.979z"/>
	</g>
</g>
</svg>
