<?xml version="1.0" encoding="utf-8"?>
<!-- Generator: Adobe Illustrator 14.0.0, SVG Export Plug-In . SVG Version: 6.00 Build 43363)  -->
<!DOCTYPE svg PUBLIC "-//W3C//DTD SVG 1.1//EN" "http://www.w3.org/Graphics/SVG/1.1/DTD/svg11.dtd">
<svg version="1.1" xmlns="http://www.w3.org/2000/svg" xmlns:xlink="http://www.w3.org/1999/xlink" x="0px" y="0px" width="512px"
	 height="512px" viewBox="0 0 512 512" enable-background="new 0 0 512 512" xml:space="preserve">
<g id="Guides">
</g>
<g id="phpUnit">
	<g>
		<path fill="#97C3D0" d="M417.445,143.929c-113.691-43.354-266.874-93.452-266.874-93.452c-33.72-8.189-40.465,6.743-45.764,18.787
			c-3.853,8.188-85.744,248.079-89.601,255.787c-9.63,21.195-1.927,42.392,20.236,47.688
			c12.038,3.854,250.488,82.372,262.049,88.152c20.231,6.745,35.647,0,46.568-22.157c2.385-3.229,29.618-81.861,53.422-151.204
			c-10.688,12.908-26.832,21.143-44.904,21.143c-32.167,0-58.247-26.08-58.247-58.25c0-32.173,26.08-58.253,58.247-58.253
			c31.635,0,57.315,25.23,58.168,56.658c11.899-34.763,21.058-61.594,22.589-65.877C437.954,169.94,442.005,151.635,417.445,143.929
			z"/>
	</g>
	<g>
		<path fill="#97C3D0" d="M351.442,218.111c-17.559,0-31.791,14.232-31.791,31.793s14.232,31.792,31.791,31.792
			c17.562,0,31.794-14.231,31.794-31.792S369.004,218.111,351.442,218.111z M351.442,267.245c-9.572,0-17.341-7.763-17.341-17.341
			c0-9.577,7.769-17.342,17.341-17.342c9.575,0,17.342,7.765,17.342,17.342C368.784,259.482,361.018,267.245,351.442,267.245z"/>
	</g>
	<circle fill="#97C3D0" cx="411.174" cy="272.71" r="12.523"/>
	<circle fill="#97C3D0" cx="447.145" cy="294.221" r="12.524"/>
	<path fill="#97C3D0" d="M500.771,321.845c0,6.917-5.608,12.523-12.525,12.523c-6.914,0-12.524-5.606-12.524-12.523
		c0-6.919,5.61-12.524,12.524-12.524C495.163,309.32,500.771,314.926,500.771,321.845z"/>
</g>
</svg>
