<?xml version="1.0" encoding="utf-8"?>
<!-- Generator: Adobe Illustrator 14.0.0, SVG Export Plug-In . SVG Version: 6.00 Build 43363)  -->
<!DOCTYPE svg PUBLIC "-//W3C//DTD SVG 1.1//EN" "http://www.w3.org/Graphics/SVG/1.1/DTD/svg11.dtd">
<svg version="1.1" xmlns="http://www.w3.org/2000/svg" xmlns:xlink="http://www.w3.org/1999/xlink" x="0px" y="0px" width="792px"
	 height="612px" viewBox="0 0 792 612" enable-background="new 0 0 792 612" xml:space="preserve">
<symbol  id="Arrow_24" viewBox="-10.675 -17.935 21.35 35.869">
	<polygon fill="none" points="-10.675,-17.935 10.675,-17.935 10.675,17.935 -10.675,17.935 	"/>
</symbol>
<symbol  id="Tools" viewBox="-31 -31 61.999 62">
	<path fill="#96BBD4" d="M20.779-10.557h-0.004c-0.19,0-0.377-0.02-0.564-0.029L0.893,8.732c-1.354,1.354-3.318,1.721-5.02,1.139
		l3.016,8.836c0.494,1.455-0.008,3.602-1.094,4.689l-6.314,6.316c-1.09,1.09-3.236,1.592-4.689,1.096l-3.787-1.293
		c-0.62-0.211-1.013-0.564-1.115-1.002c-0.104-0.434,0.092-0.926,0.558-1.389l4.069-4.055c1.431-1.439,1.428-3.781-0.008-5.217
		l-4.359-4.359c-0.693-0.691-1.618-1.074-2.602-1.074c-0.994,0-1.923,0.385-2.62,1.082l-4.051,4.053
		c-0.466,0.463-0.958,0.662-1.391,0.559s-0.785-0.498-0.998-1.115l-1.296-3.787c-0.495-1.461,0.008-3.607,1.094-4.691l6.319-6.314
		c1.086-1.088,3.229-1.588,4.679-1.096l8.848,3.02c-0.582-1.703-0.216-3.67,1.137-5.021l19.318-19.32
		c-0.012-0.188-0.029-0.375-0.029-0.566C10.557-26.422,15.133-31,20.775-31c5.645,0,10.224,4.578,10.224,10.221
		C30.999-15.133,26.423-10.557,20.779-10.557z M20.779-26.137c-2.957,0-5.357,2.404-5.357,5.357c0,1.432,0.555,2.779,1.57,3.787
		c1.01,1.014,2.353,1.57,3.787,1.57c2.95,0,5.354-2.402,5.354-5.357C26.133-23.732,23.729-26.137,20.779-26.137z"/>
</symbol>
<g id="Hor__x5B_Guides_x5D_" display="none">
</g>
<g id="Ver__x5B_Guides_x5D_" display="none">
</g>
<g id="UnitTests__x5B_Guides_x5D_" display="none">
</g>
<g id="Global">
	<g>
		<path fill="#FFFFFF" d="M10,592c0,5.522,4.477,10,10,10h752c5.522,0,10-4.478,10-10V86.5c0-5.523-4.478-10-10-10H20
			c-5.523,0-10,4.477-10,10V592z"/>
		<path fill="none" stroke="#96BBD4" stroke-width="3" d="M10,592c0,5.522,4.477,10,10,10h752c5.522,0,10-4.478,10-10V86.5
			c0-5.523-4.478-10-10-10H20c-5.523,0-10,4.477-10,10V592z"/>
	</g>
	<text transform="matrix(1 0 0 1 376.4741 66.75)" fill="#96BBD4" font-family="'MyriadPro-Regular'" font-size="14">Global</text>
	<text transform="matrix(1 0 0 1 169.7197 288.749)"><tspan x="0" y="0" fill="#96BBD4" font-family="'MyriadPro-Regular'" font-size="18">W</tspan><tspan x="2.106" y="21.6" fill="#96BBD4" font-family="'MyriadPro-Regular'" font-size="18">A</tspan><tspan x="3.231" y="43.2" fill="#96BBD4" font-family="'MyriadPro-Regular'" font-size="18">F</tspan><tspan x="3.231" y="64.8" fill="#96BBD4" font-family="'MyriadPro-Regular'" font-size="18">F</tspan><tspan x="3.366" y="86.4" fill="#96BBD4" font-family="'MyriadPro-Regular'" font-size="18">L</tspan><tspan x="3.186" y="108" fill="#96BBD4" font-family="'MyriadPro-Regular'" font-size="18">E</tspan></text>
</g>
<g id="Framework">
	<path fill="#FFFFFF" stroke="#96BBD4" stroke-width="3" d="M638,572.475c0,8.021-5.805,14.525-12.965,14.525H210.133
		c-7.161,0-12.966-6.504-12.966-14.525V106.026c0-8.023,5.805-14.526,12.966-14.526h414.902c7.16,0,12.965,6.503,12.965,14.526
		V572.475z"/>
	<text transform="matrix(1 0 0 1 382.5415 110.4277)" fill="#96BBD4" font-family="'MyriadPro-Regular'" font-size="14">Framework</text>
</g>
<g id="UnitTests">
	<g>
		<path fill="#EBF2F8" d="M659.125,577.066c0,5.522,4.478,10,10,10H758c5.522,0,10-4.478,10-10V116.536c0-5.523-4.478-10-10-10
			h-88.875c-5.522,0-10,4.477-10,10V577.066z"/>
		<path fill="none" stroke="#96BBD4" stroke-width="2" d="M659.125,577.066c0,5.522,4.478,10,10,10H758c5.522,0,10-4.478,10-10
			V116.536c0-5.523-4.478-10-10-10h-88.875c-5.522,0-10,4.477-10,10V577.066z"/>
	</g>
	<g>
		<rect x="669.125" y="131.535" fill="#DEEDF7" stroke="#96BBD4" stroke-width="2" width="88.955" height="24.991"/>
		<text transform="matrix(1 0 0 1 691.5625 146.5254)" fill="#82A1B7" font-family="'MyriadPro-Regular'" font-size="8">testTemplate</text>
	</g>
	<g>
		<rect x="669.125" y="171.537" fill="#DEEDF7" stroke="#96BBD4" stroke-width="2" width="88.955" height="24.999"/>
		<text transform="matrix(1 0 0 1 683.6836 186.5)" fill="#82A1B7" font-family="'MyriadPro-Regular'" font-size="8">testAbstractHTML</text>
	</g>
	<text transform="matrix(1 0 0 1 690.2754 121.4922)" fill="#96BBD4" font-family="'MyriadPro-Regular'" font-size="12">UnitTests</text>
	<g>
		<rect x="669.085" y="451.508" fill="#DEEDF7" stroke="#96BBD4" stroke-width="2" width="88.955" height="24.999"/>
		<text transform="matrix(1 0 0 1 701.4961 466.4707)" fill="#82A1B7" font-family="'MyriadPro-Regular'" font-size="8">testFile</text>
	</g>
	<g>
		<rect x="669.085" y="491.645" fill="#DEEDF7" stroke="#96BBD4" stroke-width="2" width="88.955" height="24.999"/>
		<text transform="matrix(1 0 0 1 690.4277 506.6074)" fill="#82A1B7" font-family="'MyriadPro-Regular'" font-size="8">testValidation</text>
	</g>
	
		<use xlink:href="#Tools"  width="61.999" height="62" id="XMLID_4_" x="-31" y="-31" transform="matrix(0.0968 0 0 -0.0968 675.1006 470.3594)" overflow="visible"/>
	
		<use xlink:href="#Tools"  width="61.999" height="62" id="XMLID_5_" x="-31" y="-31" transform="matrix(0.0968 0 0 -0.0968 675.1006 510.0254)" overflow="visible"/>
</g>
<g id="Engines">
	<g>
		<path fill="#FFFFFF" d="M212.132,241.333c0,5.523,4.477,10,10,10h112c5.523,0,10-4.477,10-10V116.5c0-5.523-4.477-10-10-10h-112
			c-5.523,0-10,4.477-10,10V241.333z"/>
		<path fill="none" stroke="#96BBD4" stroke-width="2" d="M212.132,241.333c0,5.523,4.477,10,10,10h112c5.523,0,10-4.477,10-10
			V116.5c0-5.523-4.477-10-10-10h-112c-5.523,0-10,4.477-10,10V241.333z"/>
	</g>
	<text transform="matrix(1 0 0 1 258.3804 121.5117)" fill="#96BBD4" font-family="'MyriadPro-Regular'" font-size="12">Engines</text>
	<rect x="227.132" y="131.333" fill="none" stroke="#96BBD4" stroke-width="2" width="102" height="25.167"/>
	<text transform="matrix(1 0 0 1 262.3286 146.1367)" fill="#96BBD4" font-family="'MyriadPro-Regular'" font-size="8">Template</text>
	<g>
		<rect x="227.132" y="171.531" fill="none" stroke="#96BBD4" stroke-width="2" width="102" height="25.167"/>
		<text transform="matrix(1 0 0 1 255.4766 181.6582)" fill="#96BBD4" font-family="'MyriadPro-Regular'" font-size="8">&lt;&lt;abstract&gt;&gt;</text>
		<text transform="matrix(1 0 0 1 267.7715 192.3262)" fill="#96BBD4" font-family="'MyriadPro-Regular'" font-size="8">HTML</text>
	</g>
	<g>
		<rect x="227.477" y="211.542" fill="none" stroke="#96BBD4" stroke-width="2" width="102" height="25.166"/>
		<text transform="matrix(1 0 0 1 255.8213 221.6689)" fill="#96BBD4" font-family="'MyriadPro-Regular'" font-size="8">&lt;&lt;abstract&gt;&gt;</text>
		<text transform="matrix(1 0 0 1 266.7529 232.3369)" fill="#96BBD4" font-family="'MyriadPro-Regular'" font-size="8">Cipher</text>
	</g>
	<path fill="#96BBD4" d="M252.078,122.629h-1.094c-0.398,0-0.725-0.325-0.725-0.725v-0.707l-0.338-0.132l-0.515,0.486
		c-0.273,0.272-0.751,0.272-1.024,0l-0.772-0.774c-0.137-0.136-0.212-0.317-0.212-0.512c0-0.194,0.076-0.376,0.213-0.513
		l0.498-0.499l-0.145-0.336l-0.708-0.018c-0.4,0-0.725-0.325-0.725-0.724v-1.094c0-0.4,0.325-0.725,0.725-0.725h0.708l0.13-0.338
		l-0.484-0.515c-0.137-0.136-0.212-0.317-0.212-0.512s0.076-0.376,0.213-0.513l0.771-0.773c0.272-0.272,0.752-0.272,1.025,0.001
		l0.499,0.499l0.334-0.146l0.02-0.707c0-0.4,0.326-0.725,0.725-0.725h1.094c0.4,0,0.725,0.325,0.725,0.725v0.707l0.339,0.132
		l0.514-0.486c0.138-0.137,0.32-0.211,0.513-0.211l0,0c0.193,0,0.375,0.074,0.512,0.21l0.773,0.776
		c0.135,0.134,0.211,0.316,0.211,0.511s-0.076,0.376-0.213,0.513l-0.499,0.499l0.146,0.334l0.708,0.02
		c0.399,0,0.723,0.325,0.723,0.725v1.094c0,0.399-0.324,0.724-0.723,0.724H255.1l-0.132,0.339l0.484,0.515
		c0.137,0.135,0.212,0.317,0.212,0.511c0,0.194-0.076,0.376-0.213,0.512l-0.771,0.773c-0.276,0.274-0.75,0.272-1.023,0.001
		l-0.501-0.501l-0.334,0.146l-0.02,0.706C252.803,122.305,252.478,122.629,252.078,122.629L252.078,122.629z M251.111,121.778h0.84
		v-0.58c0-0.344,0.246-0.686,0.573-0.797l0.293-0.121c0.081-0.043,0.206-0.07,0.337-0.07c0.23,0,0.45,0.087,0.604,0.24l0.411,0.41
		l0.593-0.593l-0.411-0.41c-0.244-0.245-0.311-0.66-0.157-0.969l0.12-0.292c0.098-0.299,0.44-0.546,0.786-0.546h0.58v-0.84h-0.58
		c-0.346,0-0.688-0.247-0.797-0.574l-0.121-0.291c-0.141-0.281-0.075-0.697,0.168-0.94l0.411-0.412l-0.593-0.594l-0.411,0.41
		c-0.239,0.239-0.664,0.309-0.969,0.157l-0.291-0.12c-0.299-0.098-0.546-0.44-0.546-0.786v-0.58h-0.84v0.58
		c0,0.346-0.247,0.688-0.574,0.797l-0.291,0.121c-0.082,0.043-0.208,0.071-0.338,0.071c-0.23,0-0.452-0.088-0.604-0.24l-0.41-0.41
		l-0.594,0.594l0.41,0.41c0.244,0.245,0.311,0.661,0.157,0.969l-0.118,0.291c-0.1,0.3-0.442,0.547-0.787,0.547h-0.581v0.84h0.581
		c0.344,0,0.687,0.247,0.796,0.573l0.122,0.293c0.14,0.28,0.073,0.696-0.17,0.94l-0.411,0.411l0.594,0.593l0.41-0.41
		c0.237-0.237,0.665-0.31,0.969-0.157l0.291,0.119c0.305,0.101,0.546,0.436,0.546,0.786V121.778L251.111,121.778z M251.531,119.497
		c-1.028,0-1.867-0.838-1.867-1.868s0.839-1.868,1.867-1.868c1.03,0,1.868,0.838,1.868,1.868S252.561,119.497,251.531,119.497
		L251.531,119.497z M251.531,116.613c-0.56,0-1.016,0.455-1.016,1.016s0.456,1.016,1.016,1.016c0.561,0,1.016-0.455,1.016-1.016
		S252.092,116.613,251.531,116.613L251.531,116.613z"/>
</g>
<g id="Handlers">
	<g>
		<g>
			<path fill="#FFFFFF" d="M494.334,561.491c0,5.522,4.478,10,10,10h112c5.522,0,10-4.478,10-10V436.365c0-5.522-4.478-10-10-10
				h-112c-5.522,0-10,4.478-10,10V561.491z"/>
			<path fill="none" stroke="#96BBD4" stroke-width="2" d="M494.334,561.491c0,5.522,4.478,10,10,10h112c5.522,0,10-4.478,10-10
				V436.365c0-5.522-4.478-10-10-10h-112c-5.522,0-10,4.478-10,10V561.491z"/>
		</g>
		<g>
			<rect x="509.334" y="451.364" fill="none" stroke="#96BBD4" stroke-width="2" width="102" height="24.991"/>
			<text transform="matrix(1 0 0 1 554.502 466.3555)" fill="#96BBD4" font-family="'MyriadPro-Regular'" font-size="8">File</text>
		</g>
		<g>
			<rect x="509.251" y="491.366" fill="none" stroke="#96BBD4" stroke-width="2" width="102.083" height="24.999"/>
			<text transform="matrix(1 0 0 1 543.3926 506.3291)" fill="#96BBD4" font-family="'MyriadPro-Regular'" font-size="8">Validation</text>
		</g>
		<g>
			<rect x="509.334" y="531.365" fill="none" stroke="#96BBD4" stroke-width="2" width="102" height="25"/>
			<text transform="matrix(1 0 0 1 552.4531 546.3896)" fill="#96BBD4" font-family="'MyriadPro-Regular'" font-size="8">Error</text>
		</g>
		<text transform="matrix(1 0 0 1 538.0566 441.3223)" fill="#96BBD4" font-family="'MyriadPro-Regular'" font-size="12">Handlers</text>
	</g>
</g>
<g id="Interfaces">
	<g>
		<path fill="#FFFFFF" d="M25.167,577c0,5.522,4.477,10,10,10h112c5.523,0,10-4.478,10-10V116.318c0-5.523-4.477-10-10-10h-112
			c-5.523,0-10,4.477-10,10V577z"/>
		<path fill="none" stroke="#96BBD4" stroke-width="2" stroke-linejoin="round" d="M25.167,577c0,5.522,4.477,10,10,10h112
			c5.523,0,10-4.478,10-10V116.318c0-5.523-4.477-10-10-10h-112c-5.523,0-10,4.477-10,10V577z"/>
	</g>
	<g>
		<rect x="40" y="131.5" fill="none" stroke="#96BBD4" stroke-width="2" width="102.083" height="25"/>
		<text transform="matrix(1 0 0 1 74.4258 146.0273)" fill="#96BBD4" font-family="'MyriadPro-Regular'" font-size="8">iTemplate</text>
	</g>
	<g>
		<rect x="40" y="171.5" fill="none" stroke="#96BBD4" stroke-width="2" width="102.167" height="25"/>
		<text transform="matrix(1 0 0 1 81.9854 187.3047)" fill="#96BBD4" font-family="'MyriadPro-Regular'" font-size="8">iHTML</text>
	</g>
	<text transform="matrix(1 0 0 1 66.4717 121.4492)" fill="#96BBD4" font-family="'MyriadPro-Regular'" font-size="12">Interfaces</text>
	<path fill="#96BBD4" d="M55.046,113.994h5.908c0.126,0,0.228-0.102,0.228-0.229c0-0.125-0.101-0.227-0.228-0.227h-5.908
		c-0.126,0-0.228,0.102-0.228,0.227C54.818,113.892,54.919,113.994,55.046,113.994 M62.545,115.356h-9.091
		c-0.251,0-0.455,0.205-0.455,0.455v5.454c0,0.251,0.203,0.456,0.455,0.456h9.091c0.251,0,0.455-0.205,0.455-0.456v-5.454
		C63,115.561,62.797,115.356,62.545,115.356 M62.545,121.265h-9.091v-5.454h9.091V121.265z M54.136,114.902h7.729
		c0.125,0,0.227-0.102,0.227-0.228c0-0.125-0.102-0.227-0.227-0.227h-7.729c-0.125,0-0.227,0.103-0.227,0.227
		C53.909,114.8,54.011,114.902,54.136,114.902"/>
</g>
<g id="Interface_Paths">
	
		<line fill="none" stroke="#96BBD4" stroke-width="1.5" stroke-dasharray="3,4" x1="142.042" y1="184.25" x2="226.996" y2="184.25"/>
	<polygon fill="#96BBD4" stroke="#96BBD4" stroke-width="1.5" points="140.225,184.377 143.603,182.631 143.598,185.882 	"/>
	<path fill="none" stroke="#96BBD4" stroke-width="1.5" stroke-dasharray="3,4" d="M141.958,143.25c2.167,0.167,85.039,0,85.039,0"
		/>
	<polygon fill="#96BBD4" stroke="#96BBD4" stroke-width="1.5" points="139.955,143.322 143.32,141.554 143.337,144.804 	"/>
</g>
<g id="Adapters">
	<g>
		<g>
			<path fill="#FFFFFF" d="M494.292,339c0,5.522,4.478,10,10,10h112.499c5.522,0,10-4.478,10-10v-45c0-5.522-4.478-10-10-10H504.292
				c-5.522,0-10,4.478-10,10V339z"/>
			<path fill="none" stroke="#96BBD4" stroke-width="2" d="M494.292,339c0,5.522,4.478,10,10,10h112.499c5.522,0,10-4.478,10-10v-45
				c0-5.522-4.478-10-10-10H504.292c-5.522,0-10,4.478-10,10V339z"/>
		</g>
		<text transform="matrix(1 0 0 1 537.5156 299)" fill="#96BBD4" font-family="'MyriadPro-Regular'" font-size="12">Adapters</text>
		<g>
			<rect x="509.458" y="309" fill="none" stroke="#96BBD4" stroke-width="2" width="102" height="25"/>
			<text transform="matrix(1 0 0 1 553.1777 324)" fill="#96BBD4" font-family="'MyriadPro-Regular'" font-size="8">DBA</text>
		</g>
	</g>
</g>
<g id="Test_Cases">
	<g>
		<g>
			<g>
				<g>
					<polygon points="324.333,351.667 324.333,351.667 324.333,351.667 324.333,351.667 324.333,351.667 324.333,351.667 
						324.333,351.667 324.333,351.667 324.333,351.667 324.333,351.667 324.333,351.667 					"/>
					<polygon points="324.333,351.667 324.333,351.667 324.333,351.667 324.333,351.667 324.333,351.667 324.333,351.667 
						324.333,351.667 324.333,351.667 324.333,351.667 324.333,351.667 324.333,351.667 					"/>
					<polygon points="324.333,351.667 324.333,351.667 324.333,351.667 324.333,351.667 324.333,351.667 324.333,351.667 
						324.333,351.667 324.333,351.667 324.333,351.667 324.333,351.667 324.333,351.667 					"/>
				</g>
			</g>
		</g>
	</g>
	<g>
		
			<line fill="none" stroke="#96BBD4" stroke-width="2" stroke-linecap="round" stroke-dasharray="0.25,4" x1="668.999" y1="143.25" x2="329.132" y2="143.25"/>
	</g>
	<g>
		
			<line fill="none" stroke="#96BBD4" stroke-width="2" stroke-linecap="round" stroke-dasharray="0.25,4" x1="668.96" y1="184.25" x2="329.132" y2="184.25"/>
		
			<use xlink:href="#Arrow_24"  width="21.35" height="35.869" id="XMLID_2_" x="-10.675" y="-17.935" transform="matrix(-0.1873 0 0 0.1873 328.6816 182.6299)" overflow="visible"/>
	</g>
	
		<line fill="none" stroke="#96BBD4" stroke-width="2" stroke-linecap="round" stroke-dasharray="0.25,4" x1="669.125" y1="463.859" x2="611.334" y2="463.859"/>
	
		<line fill="none" stroke="#96BBD4" stroke-width="2" stroke-linecap="round" stroke-dasharray="0.25,4" x1="669.125" y1="504.26" x2="611.334" y2="504.26"/>
</g>
<g id="Agents">
	<g>
		<g>
			<path fill="#FFFFFF" d="M212.263,561.461c0,5.522,4.477,10,10,10H334.25c5.523,0,10-4.478,10-10V436.395c0-5.522-4.477-10-10-10
				H222.263c-5.523,0-10,4.478-10,10V561.461z"/>
			<path fill="none" stroke="#96BBD4" stroke-width="2" d="M212.263,561.461c0,5.522,4.477,10,10,10H334.25c5.523,0,10-4.478,10-10
				V436.395c0-5.522-4.477-10-10-10H222.263c-5.523,0-10,4.478-10,10V561.461z"/>
		</g>
		<text transform="matrix(1 0 0 1 260.4082 441.3945)" fill="#96BBD4" font-family="'MyriadPro-Regular'" font-size="12">Agents</text>
	</g>
	<g>
		<rect x="227.131" y="531.365" fill="none" stroke="#96BBD4" stroke-width="2" width="102" height="25"/>
		<text transform="matrix(1 0 0 1 270.1094 546.3398)" fill="#96BBD4" font-family="'MyriadPro-Regular'" font-size="8">Logs</text>
	</g>
	<g>
		<rect x="227.257" y="451.537" fill="none" stroke="#96BBD4" stroke-width="2" width="102" height="25"/>
		<text transform="matrix(1 0 0 1 265.375 466.335)" fill="#96BBD4" font-family="'MyriadPro-Regular'" font-size="8">Preload</text>
	</g>
	<g>
		<rect x="227.257" y="491.465" fill="none" stroke="#96BBD4" stroke-width="2" width="102" height="25"/>
		<text transform="matrix(1 0 0 1 261.2627 506.4922)" fill="#96BBD4" font-family="'MyriadPro-Regular'" font-size="8">Collection</text>
	</g>
	<g>
		<polygon fill="#E9F7FE" stroke="#96BBD4" stroke-width="0.5" stroke-linecap="round" stroke-linejoin="round" points="
			250.339,434.056 252.117,433.09 254.783,437.535 258.339,438.371 250.339,441.09 242.339,438.424 245.895,437.535 248.561,433.09 
					"/>
		<path fill="#A4CBE6" d="M246.302,437.821c0,0,1.287,0.603,4.037,0.603c-4.083-0.297-2.417-3.324-2.417-3.324L246.302,437.821z"/>
		<path fill="#A4CBE6" d="M253.395,436.014l1.063,1.848c0,0-0.528,0.291-1.229,0.367
			C254.103,437.514,253.395,436.014,253.395,436.014z"/>
		<path fill="#BDD4E8" stroke="#96BBD4" stroke-width="0.25" stroke-linecap="round" stroke-linejoin="round" d="M249.493,440.886
			c0.046,0.136,0.072,0.281,0.072,0.432c0,0.736-0.597,1.334-1.333,1.334s-1.333-0.598-1.333-1.334c0-0.458,0.231-0.862,0.583-1.102
			C247.82,440.329,249.164,440.776,249.493,440.886z"/>
		<path fill="#BDD4E8" stroke="#96BBD4" stroke-width="0.25" stroke-linecap="round" stroke-linejoin="round" d="M253.167,440.211
			c0.359,0.238,0.597,0.646,0.597,1.111c0,0.736-0.597,1.334-1.333,1.334c-0.736,0-1.333-0.598-1.333-1.334
			c0-0.151,0.025-0.297,0.072-0.432C251.517,440.771,252.786,440.341,253.167,440.211z"/>
		<path fill="none" stroke="#96BBD4" stroke-width="0.25" d="M249.565,441.522c0.413-0.238,1.194-0.242,1.548,0"/>
		<path fill="#FFFFFF" stroke="#FFFFFF" stroke-width="0.25" stroke-linecap="round" stroke-linejoin="round" d="M247.25,441.537
			c0.08,0.26,0.203,0.49,0.688,0.71"/>
		<path fill="none" stroke="#96BBD4" stroke-width="0.25" d="M249.509,441.763c0.389-0.27,1.269-0.33,1.66,0"/>
		<path fill="#FFFFFF" stroke="#FFFFFF" stroke-width="0.25" stroke-linecap="round" stroke-linejoin="round" d="M251.448,441.537
			c0.08,0.26,0.203,0.49,0.688,0.71"/>
	</g>
	<g>
		<path fill="#96BBD4" stroke="#96BBD4" stroke-width="0.25" stroke-linecap="round" d="M684.435,113.599
			c1.05,0.36,1.196,0.809,1.196,1.511c-0.005,1.38-1.786,1.267-2.247,1.268c-0.444,0.002-2.153,0.112-2.247-1.262
			c0-0.708,0.354-1.375,1.173-1.517c0.08-0.348,0.337-0.956,1.063-0.956C684.222,112.643,684.35,113.252,684.435,113.599z"/>
		<path fill="#96BBD4" stroke="#96BBD4" stroke-width="0.25" stroke-linecap="round" d="M687.674,114.413
			c0-0.351-0.049-0.673-0.425-0.673c-0.319,0-0.313,0.425-0.319,0.667c0,2.833-3.558,2.537-3.558,2.537s-3.505,0.297-3.505-2.537
			c0-0.26,0-0.667-0.372-0.667c-0.406,0-0.406,0.434-0.406,0.667c0,1.749,1.274,2.537,1.274,2.537l-0.019,0.708c0,0-1.314,0-1.663,0
			c-0.396,0-0.396,0.761,0,0.761c0.49,0,1.752,0,1.752,0s0.093,0.425,0.124,0.566c-0.69,0.342-1.829,0.708-1.829,2.696
			c0.142,0.407,0.715,0.242,0.715,0c0-1.292,0.864-1.9,1.469-1.988c0.26,0.696,1.397,1.623,2.07,1.693
			c0-0.211-0.019-2.777-0.004-3.292c0.004-0.437,0.223-0.543,0.405-0.543c0.189,0,0.396,0.106,0.396,0.543
			c0.07,1.235,0,2.689,0,3.292c1.038-0.313,1.852-1.15,2.106-1.693c0.612,0.091,1.522,0.868,1.442,1.988
			c0,0.388,0.722,0.331,0.726,0c-0.038-1.988-1.018-2.289-1.85-2.696c0.047-0.2,0.142-0.566,0.142-0.566s1.407,0,1.752,0
			c0.384,0,0.384-0.761,0-0.761c-0.306,0-1.663,0-1.663,0l-0.035-0.708C686.399,116.944,687.674,116.165,687.674,114.413z"/>
	</g>
</g>
<g id="Inheritance">
	<g>
		<line fill="none" stroke="#96BBD4" stroke-width="2" x1="510.019" y1="543.895" x2="332.298" y2="543.895"/>
		<polygon fill="#96BBD4" stroke="#96BBD4" stroke-width="2" points="328.3,543.838 334.634,540.34 334.634,547.34 		"/>
	</g>
	<g>
		<path fill="none" stroke="#96BBD4" stroke-width="2" d="M329.25,146.5c67.176,50.197,69.105,225,0.083,305"/>
		<polygon fill="#96BBD4" stroke="#96BBD4" stroke-width="2" points="325.646,454.88 327.707,447.943 332.617,452.933 		"/>
	</g>
	<g>
		<polygon fill="#96BBD4" stroke="#96BBD4" stroke-width="2" points="235.092,193.379 231.5,199.764 238.5,199.764 		"/>
		<path fill="none" stroke="#96BBD4" stroke-width="2" d="M235,451.5c0,0,0-244.762,0-254.928"/>
	</g>
	<g>
		<line fill="none" stroke="#96BBD4" stroke-width="2" x1="558.149" y1="515.771" x2="558.149" y2="530.771"/>
		<polygon fill="#96BBD4" stroke="#96BBD4" stroke-width="2" points="558.089,535.066 554.606,528.724 561.606,528.74 		"/>
	</g>
	<g>
		<line fill="none" stroke="#96BBD4" stroke-width="2" x1="558.149" y1="476.355" x2="558.149" y2="491.355"/>
		<polygon fill="#96BBD4" stroke="#96BBD4" stroke-width="2" points="558.089,495.651 554.606,489.309 561.606,489.325 		"/>
	</g>
</g>
<g id="Heading">
	<text transform="matrix(1 0 0 1 354.7485 22.2939)" font-family="'MyriadPro-Regular'" font-size="24">WAFFLE</text>
	<text transform="matrix(1 0 0 1 304.6465 44.2822)" font-family="'MyriadPro-Regular'" font-size="18">Class Hierarchy Diagram</text>
	<g>
		<path fill="none" stroke="#96BBD4" stroke-width="2" d="M572.244,139.64"/>
	</g>
</g>
</svg>
